G04 EAGLE Gerber RS-274X export*
G75*
%MOMM*%
%FSLAX34Y34*%
%LPD*%
%IN*%
%IPPOS*%
%AMOC8*
5,1,8,0,0,1.08239X$1,22.5*%
G01*
%ADD10C,0.000000*%
%ADD11C,0.152400*%
%ADD12C,0.010000*%


D10*
X580000Y750000D02*
X730000Y750000D01*
X730000Y1035000D01*
X580000Y1035000D01*
X580000Y750000D01*
X667500Y1010000D02*
X667504Y1010307D01*
X667515Y1010613D01*
X667534Y1010920D01*
X667560Y1011225D01*
X667594Y1011530D01*
X667635Y1011834D01*
X667684Y1012137D01*
X667740Y1012439D01*
X667804Y1012739D01*
X667875Y1013037D01*
X667953Y1013334D01*
X668038Y1013629D01*
X668131Y1013921D01*
X668231Y1014211D01*
X668338Y1014499D01*
X668452Y1014784D01*
X668572Y1015066D01*
X668700Y1015344D01*
X668835Y1015620D01*
X668976Y1015892D01*
X669124Y1016161D01*
X669278Y1016426D01*
X669439Y1016687D01*
X669607Y1016945D01*
X669780Y1017198D01*
X669960Y1017446D01*
X670146Y1017690D01*
X670337Y1017930D01*
X670535Y1018165D01*
X670738Y1018394D01*
X670947Y1018619D01*
X671161Y1018839D01*
X671381Y1019053D01*
X671606Y1019262D01*
X671835Y1019465D01*
X672070Y1019663D01*
X672310Y1019854D01*
X672554Y1020040D01*
X672802Y1020220D01*
X673055Y1020393D01*
X673313Y1020561D01*
X673574Y1020722D01*
X673839Y1020876D01*
X674108Y1021024D01*
X674380Y1021165D01*
X674656Y1021300D01*
X674934Y1021428D01*
X675216Y1021548D01*
X675501Y1021662D01*
X675789Y1021769D01*
X676079Y1021869D01*
X676371Y1021962D01*
X676666Y1022047D01*
X676963Y1022125D01*
X677261Y1022196D01*
X677561Y1022260D01*
X677863Y1022316D01*
X678166Y1022365D01*
X678470Y1022406D01*
X678775Y1022440D01*
X679080Y1022466D01*
X679387Y1022485D01*
X679693Y1022496D01*
X680000Y1022500D01*
X680307Y1022496D01*
X680613Y1022485D01*
X680920Y1022466D01*
X681225Y1022440D01*
X681530Y1022406D01*
X681834Y1022365D01*
X682137Y1022316D01*
X682439Y1022260D01*
X682739Y1022196D01*
X683037Y1022125D01*
X683334Y1022047D01*
X683629Y1021962D01*
X683921Y1021869D01*
X684211Y1021769D01*
X684499Y1021662D01*
X684784Y1021548D01*
X685066Y1021428D01*
X685344Y1021300D01*
X685620Y1021165D01*
X685892Y1021024D01*
X686161Y1020876D01*
X686426Y1020722D01*
X686687Y1020561D01*
X686945Y1020393D01*
X687198Y1020220D01*
X687446Y1020040D01*
X687690Y1019854D01*
X687930Y1019663D01*
X688165Y1019465D01*
X688394Y1019262D01*
X688619Y1019053D01*
X688839Y1018839D01*
X689053Y1018619D01*
X689262Y1018394D01*
X689465Y1018165D01*
X689663Y1017930D01*
X689854Y1017690D01*
X690040Y1017446D01*
X690220Y1017198D01*
X690393Y1016945D01*
X690561Y1016687D01*
X690722Y1016426D01*
X690876Y1016161D01*
X691024Y1015892D01*
X691165Y1015620D01*
X691300Y1015344D01*
X691428Y1015066D01*
X691548Y1014784D01*
X691662Y1014499D01*
X691769Y1014211D01*
X691869Y1013921D01*
X691962Y1013629D01*
X692047Y1013334D01*
X692125Y1013037D01*
X692196Y1012739D01*
X692260Y1012439D01*
X692316Y1012137D01*
X692365Y1011834D01*
X692406Y1011530D01*
X692440Y1011225D01*
X692466Y1010920D01*
X692485Y1010613D01*
X692496Y1010307D01*
X692500Y1010000D01*
X692496Y1009693D01*
X692485Y1009387D01*
X692466Y1009080D01*
X692440Y1008775D01*
X692406Y1008470D01*
X692365Y1008166D01*
X692316Y1007863D01*
X692260Y1007561D01*
X692196Y1007261D01*
X692125Y1006963D01*
X692047Y1006666D01*
X691962Y1006371D01*
X691869Y1006079D01*
X691769Y1005789D01*
X691662Y1005501D01*
X691548Y1005216D01*
X691428Y1004934D01*
X691300Y1004656D01*
X691165Y1004380D01*
X691024Y1004108D01*
X690876Y1003839D01*
X690722Y1003574D01*
X690561Y1003313D01*
X690393Y1003055D01*
X690220Y1002802D01*
X690040Y1002554D01*
X689854Y1002310D01*
X689663Y1002070D01*
X689465Y1001835D01*
X689262Y1001606D01*
X689053Y1001381D01*
X688839Y1001161D01*
X688619Y1000947D01*
X688394Y1000738D01*
X688165Y1000535D01*
X687930Y1000337D01*
X687690Y1000146D01*
X687446Y999960D01*
X687198Y999780D01*
X686945Y999607D01*
X686687Y999439D01*
X686426Y999278D01*
X686161Y999124D01*
X685892Y998976D01*
X685620Y998835D01*
X685344Y998700D01*
X685066Y998572D01*
X684784Y998452D01*
X684499Y998338D01*
X684211Y998231D01*
X683921Y998131D01*
X683629Y998038D01*
X683334Y997953D01*
X683037Y997875D01*
X682739Y997804D01*
X682439Y997740D01*
X682137Y997684D01*
X681834Y997635D01*
X681530Y997594D01*
X681225Y997560D01*
X680920Y997534D01*
X680613Y997515D01*
X680307Y997504D01*
X680000Y997500D01*
X679693Y997504D01*
X679387Y997515D01*
X679080Y997534D01*
X678775Y997560D01*
X678470Y997594D01*
X678166Y997635D01*
X677863Y997684D01*
X677561Y997740D01*
X677261Y997804D01*
X676963Y997875D01*
X676666Y997953D01*
X676371Y998038D01*
X676079Y998131D01*
X675789Y998231D01*
X675501Y998338D01*
X675216Y998452D01*
X674934Y998572D01*
X674656Y998700D01*
X674380Y998835D01*
X674108Y998976D01*
X673839Y999124D01*
X673574Y999278D01*
X673313Y999439D01*
X673055Y999607D01*
X672802Y999780D01*
X672554Y999960D01*
X672310Y1000146D01*
X672070Y1000337D01*
X671835Y1000535D01*
X671606Y1000738D01*
X671381Y1000947D01*
X671161Y1001161D01*
X670947Y1001381D01*
X670738Y1001606D01*
X670535Y1001835D01*
X670337Y1002070D01*
X670146Y1002310D01*
X669960Y1002554D01*
X669780Y1002802D01*
X669607Y1003055D01*
X669439Y1003313D01*
X669278Y1003574D01*
X669124Y1003839D01*
X668976Y1004108D01*
X668835Y1004380D01*
X668700Y1004656D01*
X668572Y1004934D01*
X668452Y1005216D01*
X668338Y1005501D01*
X668231Y1005789D01*
X668131Y1006079D01*
X668038Y1006371D01*
X667953Y1006666D01*
X667875Y1006963D01*
X667804Y1007261D01*
X667740Y1007561D01*
X667684Y1007863D01*
X667635Y1008166D01*
X667594Y1008470D01*
X667560Y1008775D01*
X667534Y1009080D01*
X667515Y1009387D01*
X667504Y1009693D01*
X667500Y1010000D01*
X692500Y775000D02*
X692504Y775307D01*
X692515Y775613D01*
X692534Y775920D01*
X692560Y776225D01*
X692594Y776530D01*
X692635Y776834D01*
X692684Y777137D01*
X692740Y777439D01*
X692804Y777739D01*
X692875Y778037D01*
X692953Y778334D01*
X693038Y778629D01*
X693131Y778921D01*
X693231Y779211D01*
X693338Y779499D01*
X693452Y779784D01*
X693572Y780066D01*
X693700Y780344D01*
X693835Y780620D01*
X693976Y780892D01*
X694124Y781161D01*
X694278Y781426D01*
X694439Y781687D01*
X694607Y781945D01*
X694780Y782198D01*
X694960Y782446D01*
X695146Y782690D01*
X695337Y782930D01*
X695535Y783165D01*
X695738Y783394D01*
X695947Y783619D01*
X696161Y783839D01*
X696381Y784053D01*
X696606Y784262D01*
X696835Y784465D01*
X697070Y784663D01*
X697310Y784854D01*
X697554Y785040D01*
X697802Y785220D01*
X698055Y785393D01*
X698313Y785561D01*
X698574Y785722D01*
X698839Y785876D01*
X699108Y786024D01*
X699380Y786165D01*
X699656Y786300D01*
X699934Y786428D01*
X700216Y786548D01*
X700501Y786662D01*
X700789Y786769D01*
X701079Y786869D01*
X701371Y786962D01*
X701666Y787047D01*
X701963Y787125D01*
X702261Y787196D01*
X702561Y787260D01*
X702863Y787316D01*
X703166Y787365D01*
X703470Y787406D01*
X703775Y787440D01*
X704080Y787466D01*
X704387Y787485D01*
X704693Y787496D01*
X705000Y787500D01*
X705307Y787496D01*
X705613Y787485D01*
X705920Y787466D01*
X706225Y787440D01*
X706530Y787406D01*
X706834Y787365D01*
X707137Y787316D01*
X707439Y787260D01*
X707739Y787196D01*
X708037Y787125D01*
X708334Y787047D01*
X708629Y786962D01*
X708921Y786869D01*
X709211Y786769D01*
X709499Y786662D01*
X709784Y786548D01*
X710066Y786428D01*
X710344Y786300D01*
X710620Y786165D01*
X710892Y786024D01*
X711161Y785876D01*
X711426Y785722D01*
X711687Y785561D01*
X711945Y785393D01*
X712198Y785220D01*
X712446Y785040D01*
X712690Y784854D01*
X712930Y784663D01*
X713165Y784465D01*
X713394Y784262D01*
X713619Y784053D01*
X713839Y783839D01*
X714053Y783619D01*
X714262Y783394D01*
X714465Y783165D01*
X714663Y782930D01*
X714854Y782690D01*
X715040Y782446D01*
X715220Y782198D01*
X715393Y781945D01*
X715561Y781687D01*
X715722Y781426D01*
X715876Y781161D01*
X716024Y780892D01*
X716165Y780620D01*
X716300Y780344D01*
X716428Y780066D01*
X716548Y779784D01*
X716662Y779499D01*
X716769Y779211D01*
X716869Y778921D01*
X716962Y778629D01*
X717047Y778334D01*
X717125Y778037D01*
X717196Y777739D01*
X717260Y777439D01*
X717316Y777137D01*
X717365Y776834D01*
X717406Y776530D01*
X717440Y776225D01*
X717466Y775920D01*
X717485Y775613D01*
X717496Y775307D01*
X717500Y775000D01*
X717496Y774693D01*
X717485Y774387D01*
X717466Y774080D01*
X717440Y773775D01*
X717406Y773470D01*
X717365Y773166D01*
X717316Y772863D01*
X717260Y772561D01*
X717196Y772261D01*
X717125Y771963D01*
X717047Y771666D01*
X716962Y771371D01*
X716869Y771079D01*
X716769Y770789D01*
X716662Y770501D01*
X716548Y770216D01*
X716428Y769934D01*
X716300Y769656D01*
X716165Y769380D01*
X716024Y769108D01*
X715876Y768839D01*
X715722Y768574D01*
X715561Y768313D01*
X715393Y768055D01*
X715220Y767802D01*
X715040Y767554D01*
X714854Y767310D01*
X714663Y767070D01*
X714465Y766835D01*
X714262Y766606D01*
X714053Y766381D01*
X713839Y766161D01*
X713619Y765947D01*
X713394Y765738D01*
X713165Y765535D01*
X712930Y765337D01*
X712690Y765146D01*
X712446Y764960D01*
X712198Y764780D01*
X711945Y764607D01*
X711687Y764439D01*
X711426Y764278D01*
X711161Y764124D01*
X710892Y763976D01*
X710620Y763835D01*
X710344Y763700D01*
X710066Y763572D01*
X709784Y763452D01*
X709499Y763338D01*
X709211Y763231D01*
X708921Y763131D01*
X708629Y763038D01*
X708334Y762953D01*
X708037Y762875D01*
X707739Y762804D01*
X707439Y762740D01*
X707137Y762684D01*
X706834Y762635D01*
X706530Y762594D01*
X706225Y762560D01*
X705920Y762534D01*
X705613Y762515D01*
X705307Y762504D01*
X705000Y762500D01*
X704693Y762504D01*
X704387Y762515D01*
X704080Y762534D01*
X703775Y762560D01*
X703470Y762594D01*
X703166Y762635D01*
X702863Y762684D01*
X702561Y762740D01*
X702261Y762804D01*
X701963Y762875D01*
X701666Y762953D01*
X701371Y763038D01*
X701079Y763131D01*
X700789Y763231D01*
X700501Y763338D01*
X700216Y763452D01*
X699934Y763572D01*
X699656Y763700D01*
X699380Y763835D01*
X699108Y763976D01*
X698839Y764124D01*
X698574Y764278D01*
X698313Y764439D01*
X698055Y764607D01*
X697802Y764780D01*
X697554Y764960D01*
X697310Y765146D01*
X697070Y765337D01*
X696835Y765535D01*
X696606Y765738D01*
X696381Y765947D01*
X696161Y766161D01*
X695947Y766381D01*
X695738Y766606D01*
X695535Y766835D01*
X695337Y767070D01*
X695146Y767310D01*
X694960Y767554D01*
X694780Y767802D01*
X694607Y768055D01*
X694439Y768313D01*
X694278Y768574D01*
X694124Y768839D01*
X693976Y769108D01*
X693835Y769380D01*
X693700Y769656D01*
X693572Y769934D01*
X693452Y770216D01*
X693338Y770501D01*
X693231Y770789D01*
X693131Y771079D01*
X693038Y771371D01*
X692953Y771666D01*
X692875Y771963D01*
X692804Y772261D01*
X692740Y772561D01*
X692684Y772863D01*
X692635Y773166D01*
X692594Y773470D01*
X692560Y773775D01*
X692534Y774080D01*
X692515Y774387D01*
X692504Y774693D01*
X692500Y775000D01*
D11*
X0Y1400000D02*
X114Y1409326D01*
X458Y1418646D01*
X1030Y1427955D01*
X1830Y1437247D01*
X2858Y1446516D01*
X4113Y1455758D01*
X5594Y1464966D01*
X7302Y1474134D01*
X9233Y1483258D01*
X11388Y1492332D01*
X13765Y1501351D01*
X16363Y1510308D01*
X19179Y1519199D01*
X22213Y1528018D01*
X25463Y1536760D01*
X28926Y1545420D01*
X32600Y1553992D01*
X36484Y1562471D01*
X40575Y1570852D01*
X44870Y1579131D01*
X49367Y1587301D01*
X54063Y1595359D01*
X58956Y1603299D01*
X64042Y1611117D01*
X69318Y1618807D01*
X74781Y1626366D01*
X80428Y1633788D01*
X86256Y1641069D01*
X92261Y1648206D01*
X98439Y1655192D01*
X104786Y1662025D01*
X111299Y1668701D01*
X117975Y1675214D01*
X124808Y1681561D01*
X131794Y1687739D01*
X138931Y1693744D01*
X146212Y1699572D01*
X153634Y1705219D01*
X161193Y1710682D01*
X168883Y1715958D01*
X176701Y1721044D01*
X184641Y1725937D01*
X192699Y1730633D01*
X200869Y1735130D01*
X209148Y1739425D01*
X217529Y1743516D01*
X226008Y1747400D01*
X234580Y1751074D01*
X243240Y1754537D01*
X251982Y1757787D01*
X260801Y1760821D01*
X269692Y1763637D01*
X278649Y1766235D01*
X287668Y1768612D01*
X296742Y1770767D01*
X305866Y1772698D01*
X315034Y1774406D01*
X324242Y1775887D01*
X333484Y1777142D01*
X342753Y1778170D01*
X352045Y1778970D01*
X361354Y1779542D01*
X370674Y1779886D01*
X380000Y1780000D01*
X389326Y1779886D01*
X398646Y1779542D01*
X407955Y1778970D01*
X417247Y1778170D01*
X426516Y1777142D01*
X435758Y1775887D01*
X444966Y1774406D01*
X454134Y1772698D01*
X463258Y1770767D01*
X472332Y1768612D01*
X481351Y1766235D01*
X490308Y1763637D01*
X499199Y1760821D01*
X508018Y1757787D01*
X516760Y1754537D01*
X525420Y1751074D01*
X533992Y1747400D01*
X542471Y1743516D01*
X550852Y1739425D01*
X559131Y1735130D01*
X567301Y1730633D01*
X575359Y1725937D01*
X583299Y1721044D01*
X591117Y1715958D01*
X598807Y1710682D01*
X606366Y1705219D01*
X613788Y1699572D01*
X621069Y1693744D01*
X628206Y1687739D01*
X635192Y1681561D01*
X642025Y1675214D01*
X648701Y1668701D01*
X655214Y1662025D01*
X661561Y1655192D01*
X667739Y1648206D01*
X673744Y1641069D01*
X679572Y1633788D01*
X685219Y1626366D01*
X690682Y1618807D01*
X695958Y1611117D01*
X701044Y1603299D01*
X705937Y1595359D01*
X710633Y1587301D01*
X715130Y1579131D01*
X719425Y1570852D01*
X723516Y1562471D01*
X727400Y1553992D01*
X731074Y1545420D01*
X734537Y1536760D01*
X737787Y1528018D01*
X740821Y1519199D01*
X743637Y1510308D01*
X746235Y1501351D01*
X748612Y1492332D01*
X750767Y1483258D01*
X752698Y1474134D01*
X754406Y1464966D01*
X755887Y1455758D01*
X757142Y1446516D01*
X758170Y1437247D01*
X758970Y1427955D01*
X759542Y1418646D01*
X759886Y1409326D01*
X760000Y1400000D01*
X759886Y1390674D01*
X759542Y1381354D01*
X758970Y1372045D01*
X758170Y1362753D01*
X757142Y1353484D01*
X755887Y1344242D01*
X754406Y1335034D01*
X752698Y1325866D01*
X750767Y1316742D01*
X748612Y1307668D01*
X746235Y1298649D01*
X743637Y1289692D01*
X740821Y1280801D01*
X737787Y1271982D01*
X734537Y1263240D01*
X731074Y1254580D01*
X727400Y1246008D01*
X723516Y1237529D01*
X719425Y1229148D01*
X715130Y1220869D01*
X710633Y1212699D01*
X705937Y1204641D01*
X701044Y1196701D01*
X695958Y1188883D01*
X690682Y1181193D01*
X685219Y1173634D01*
X679572Y1166212D01*
X673744Y1158931D01*
X667739Y1151794D01*
X661561Y1144808D01*
X655214Y1137975D01*
X648701Y1131299D01*
X642025Y1124786D01*
X635192Y1118439D01*
X628206Y1112261D01*
X621069Y1106256D01*
X613788Y1100428D01*
X606366Y1094781D01*
X598807Y1089318D01*
X591117Y1084042D01*
X583299Y1078956D01*
X575359Y1074063D01*
X567301Y1069367D01*
X559131Y1064870D01*
X550852Y1060575D01*
X542471Y1056484D01*
X533992Y1052600D01*
X525420Y1048926D01*
X516760Y1045463D01*
X508018Y1042213D01*
X499199Y1039179D01*
X490308Y1036363D01*
X481351Y1033765D01*
X472332Y1031388D01*
X463258Y1029233D01*
X454134Y1027302D01*
X444966Y1025594D01*
X435758Y1024113D01*
X426516Y1022858D01*
X417247Y1021830D01*
X407955Y1021030D01*
X398646Y1020458D01*
X389326Y1020114D01*
X380000Y1020000D01*
X370674Y1020114D01*
X361354Y1020458D01*
X352045Y1021030D01*
X342753Y1021830D01*
X333484Y1022858D01*
X324242Y1024113D01*
X315034Y1025594D01*
X305866Y1027302D01*
X296742Y1029233D01*
X287668Y1031388D01*
X278649Y1033765D01*
X269692Y1036363D01*
X260801Y1039179D01*
X251982Y1042213D01*
X243240Y1045463D01*
X234580Y1048926D01*
X226008Y1052600D01*
X217529Y1056484D01*
X209148Y1060575D01*
X200869Y1064870D01*
X192699Y1069367D01*
X184641Y1074063D01*
X176701Y1078956D01*
X168883Y1084042D01*
X161193Y1089318D01*
X153634Y1094781D01*
X146212Y1100428D01*
X138931Y1106256D01*
X131794Y1112261D01*
X124808Y1118439D01*
X117975Y1124786D01*
X111299Y1131299D01*
X104786Y1137975D01*
X98439Y1144808D01*
X92261Y1151794D01*
X86256Y1158931D01*
X80428Y1166212D01*
X74781Y1173634D01*
X69318Y1181193D01*
X64042Y1188883D01*
X58956Y1196701D01*
X54063Y1204641D01*
X49367Y1212699D01*
X44870Y1220869D01*
X40575Y1229148D01*
X36484Y1237529D01*
X32600Y1246008D01*
X28926Y1254580D01*
X25463Y1263240D01*
X22213Y1271982D01*
X19179Y1280801D01*
X16363Y1289692D01*
X13765Y1298649D01*
X11388Y1307668D01*
X9233Y1316742D01*
X7302Y1325866D01*
X5594Y1335034D01*
X4113Y1344242D01*
X2858Y1353484D01*
X1830Y1362753D01*
X1030Y1372045D01*
X458Y1381354D01*
X114Y1390674D01*
X0Y1400000D01*
D10*
X24000Y1400000D02*
X24005Y1400393D01*
X24019Y1400785D01*
X24043Y1401177D01*
X24077Y1401568D01*
X24120Y1401959D01*
X24173Y1402348D01*
X24236Y1402735D01*
X24307Y1403121D01*
X24389Y1403506D01*
X24479Y1403888D01*
X24580Y1404267D01*
X24689Y1404645D01*
X24808Y1405019D01*
X24935Y1405390D01*
X25072Y1405758D01*
X25218Y1406123D01*
X25373Y1406484D01*
X25536Y1406841D01*
X25708Y1407194D01*
X25889Y1407542D01*
X26079Y1407886D01*
X26276Y1408226D01*
X26482Y1408560D01*
X26696Y1408889D01*
X26919Y1409213D01*
X27149Y1409531D01*
X27386Y1409844D01*
X27632Y1410150D01*
X27885Y1410451D01*
X28145Y1410745D01*
X28412Y1411033D01*
X28686Y1411314D01*
X28967Y1411588D01*
X29255Y1411855D01*
X29549Y1412115D01*
X29850Y1412368D01*
X30156Y1412614D01*
X30469Y1412851D01*
X30787Y1413081D01*
X31111Y1413304D01*
X31440Y1413518D01*
X31774Y1413724D01*
X32114Y1413921D01*
X32458Y1414111D01*
X32806Y1414292D01*
X33159Y1414464D01*
X33516Y1414627D01*
X33877Y1414782D01*
X34242Y1414928D01*
X34610Y1415065D01*
X34981Y1415192D01*
X35355Y1415311D01*
X35733Y1415420D01*
X36112Y1415521D01*
X36494Y1415611D01*
X36879Y1415693D01*
X37265Y1415764D01*
X37652Y1415827D01*
X38041Y1415880D01*
X38432Y1415923D01*
X38823Y1415957D01*
X39215Y1415981D01*
X39607Y1415995D01*
X40000Y1416000D01*
X40393Y1415995D01*
X40785Y1415981D01*
X41177Y1415957D01*
X41568Y1415923D01*
X41959Y1415880D01*
X42348Y1415827D01*
X42735Y1415764D01*
X43121Y1415693D01*
X43506Y1415611D01*
X43888Y1415521D01*
X44267Y1415420D01*
X44645Y1415311D01*
X45019Y1415192D01*
X45390Y1415065D01*
X45758Y1414928D01*
X46123Y1414782D01*
X46484Y1414627D01*
X46841Y1414464D01*
X47194Y1414292D01*
X47542Y1414111D01*
X47886Y1413921D01*
X48226Y1413724D01*
X48560Y1413518D01*
X48889Y1413304D01*
X49213Y1413081D01*
X49531Y1412851D01*
X49844Y1412614D01*
X50150Y1412368D01*
X50451Y1412115D01*
X50745Y1411855D01*
X51033Y1411588D01*
X51314Y1411314D01*
X51588Y1411033D01*
X51855Y1410745D01*
X52115Y1410451D01*
X52368Y1410150D01*
X52614Y1409844D01*
X52851Y1409531D01*
X53081Y1409213D01*
X53304Y1408889D01*
X53518Y1408560D01*
X53724Y1408226D01*
X53921Y1407886D01*
X54111Y1407542D01*
X54292Y1407194D01*
X54464Y1406841D01*
X54627Y1406484D01*
X54782Y1406123D01*
X54928Y1405758D01*
X55065Y1405390D01*
X55192Y1405019D01*
X55311Y1404645D01*
X55420Y1404267D01*
X55521Y1403888D01*
X55611Y1403506D01*
X55693Y1403121D01*
X55764Y1402735D01*
X55827Y1402348D01*
X55880Y1401959D01*
X55923Y1401568D01*
X55957Y1401177D01*
X55981Y1400785D01*
X55995Y1400393D01*
X56000Y1400000D01*
X55995Y1399607D01*
X55981Y1399215D01*
X55957Y1398823D01*
X55923Y1398432D01*
X55880Y1398041D01*
X55827Y1397652D01*
X55764Y1397265D01*
X55693Y1396879D01*
X55611Y1396494D01*
X55521Y1396112D01*
X55420Y1395733D01*
X55311Y1395355D01*
X55192Y1394981D01*
X55065Y1394610D01*
X54928Y1394242D01*
X54782Y1393877D01*
X54627Y1393516D01*
X54464Y1393159D01*
X54292Y1392806D01*
X54111Y1392458D01*
X53921Y1392114D01*
X53724Y1391774D01*
X53518Y1391440D01*
X53304Y1391111D01*
X53081Y1390787D01*
X52851Y1390469D01*
X52614Y1390156D01*
X52368Y1389850D01*
X52115Y1389549D01*
X51855Y1389255D01*
X51588Y1388967D01*
X51314Y1388686D01*
X51033Y1388412D01*
X50745Y1388145D01*
X50451Y1387885D01*
X50150Y1387632D01*
X49844Y1387386D01*
X49531Y1387149D01*
X49213Y1386919D01*
X48889Y1386696D01*
X48560Y1386482D01*
X48226Y1386276D01*
X47886Y1386079D01*
X47542Y1385889D01*
X47194Y1385708D01*
X46841Y1385536D01*
X46484Y1385373D01*
X46123Y1385218D01*
X45758Y1385072D01*
X45390Y1384935D01*
X45019Y1384808D01*
X44645Y1384689D01*
X44267Y1384580D01*
X43888Y1384479D01*
X43506Y1384389D01*
X43121Y1384307D01*
X42735Y1384236D01*
X42348Y1384173D01*
X41959Y1384120D01*
X41568Y1384077D01*
X41177Y1384043D01*
X40785Y1384019D01*
X40393Y1384005D01*
X40000Y1384000D01*
X39607Y1384005D01*
X39215Y1384019D01*
X38823Y1384043D01*
X38432Y1384077D01*
X38041Y1384120D01*
X37652Y1384173D01*
X37265Y1384236D01*
X36879Y1384307D01*
X36494Y1384389D01*
X36112Y1384479D01*
X35733Y1384580D01*
X35355Y1384689D01*
X34981Y1384808D01*
X34610Y1384935D01*
X34242Y1385072D01*
X33877Y1385218D01*
X33516Y1385373D01*
X33159Y1385536D01*
X32806Y1385708D01*
X32458Y1385889D01*
X32114Y1386079D01*
X31774Y1386276D01*
X31440Y1386482D01*
X31111Y1386696D01*
X30787Y1386919D01*
X30469Y1387149D01*
X30156Y1387386D01*
X29850Y1387632D01*
X29549Y1387885D01*
X29255Y1388145D01*
X28967Y1388412D01*
X28686Y1388686D01*
X28412Y1388967D01*
X28145Y1389255D01*
X27885Y1389549D01*
X27632Y1389850D01*
X27386Y1390156D01*
X27149Y1390469D01*
X26919Y1390787D01*
X26696Y1391111D01*
X26482Y1391440D01*
X26276Y1391774D01*
X26079Y1392114D01*
X25889Y1392458D01*
X25708Y1392806D01*
X25536Y1393159D01*
X25373Y1393516D01*
X25218Y1393877D01*
X25072Y1394242D01*
X24935Y1394610D01*
X24808Y1394981D01*
X24689Y1395355D01*
X24580Y1395733D01*
X24479Y1396112D01*
X24389Y1396494D01*
X24307Y1396879D01*
X24236Y1397265D01*
X24173Y1397652D01*
X24120Y1398041D01*
X24077Y1398432D01*
X24043Y1398823D01*
X24019Y1399215D01*
X24005Y1399607D01*
X24000Y1400000D01*
X364000Y1060000D02*
X364005Y1060393D01*
X364019Y1060785D01*
X364043Y1061177D01*
X364077Y1061568D01*
X364120Y1061959D01*
X364173Y1062348D01*
X364236Y1062735D01*
X364307Y1063121D01*
X364389Y1063506D01*
X364479Y1063888D01*
X364580Y1064267D01*
X364689Y1064645D01*
X364808Y1065019D01*
X364935Y1065390D01*
X365072Y1065758D01*
X365218Y1066123D01*
X365373Y1066484D01*
X365536Y1066841D01*
X365708Y1067194D01*
X365889Y1067542D01*
X366079Y1067886D01*
X366276Y1068226D01*
X366482Y1068560D01*
X366696Y1068889D01*
X366919Y1069213D01*
X367149Y1069531D01*
X367386Y1069844D01*
X367632Y1070150D01*
X367885Y1070451D01*
X368145Y1070745D01*
X368412Y1071033D01*
X368686Y1071314D01*
X368967Y1071588D01*
X369255Y1071855D01*
X369549Y1072115D01*
X369850Y1072368D01*
X370156Y1072614D01*
X370469Y1072851D01*
X370787Y1073081D01*
X371111Y1073304D01*
X371440Y1073518D01*
X371774Y1073724D01*
X372114Y1073921D01*
X372458Y1074111D01*
X372806Y1074292D01*
X373159Y1074464D01*
X373516Y1074627D01*
X373877Y1074782D01*
X374242Y1074928D01*
X374610Y1075065D01*
X374981Y1075192D01*
X375355Y1075311D01*
X375733Y1075420D01*
X376112Y1075521D01*
X376494Y1075611D01*
X376879Y1075693D01*
X377265Y1075764D01*
X377652Y1075827D01*
X378041Y1075880D01*
X378432Y1075923D01*
X378823Y1075957D01*
X379215Y1075981D01*
X379607Y1075995D01*
X380000Y1076000D01*
X380393Y1075995D01*
X380785Y1075981D01*
X381177Y1075957D01*
X381568Y1075923D01*
X381959Y1075880D01*
X382348Y1075827D01*
X382735Y1075764D01*
X383121Y1075693D01*
X383506Y1075611D01*
X383888Y1075521D01*
X384267Y1075420D01*
X384645Y1075311D01*
X385019Y1075192D01*
X385390Y1075065D01*
X385758Y1074928D01*
X386123Y1074782D01*
X386484Y1074627D01*
X386841Y1074464D01*
X387194Y1074292D01*
X387542Y1074111D01*
X387886Y1073921D01*
X388226Y1073724D01*
X388560Y1073518D01*
X388889Y1073304D01*
X389213Y1073081D01*
X389531Y1072851D01*
X389844Y1072614D01*
X390150Y1072368D01*
X390451Y1072115D01*
X390745Y1071855D01*
X391033Y1071588D01*
X391314Y1071314D01*
X391588Y1071033D01*
X391855Y1070745D01*
X392115Y1070451D01*
X392368Y1070150D01*
X392614Y1069844D01*
X392851Y1069531D01*
X393081Y1069213D01*
X393304Y1068889D01*
X393518Y1068560D01*
X393724Y1068226D01*
X393921Y1067886D01*
X394111Y1067542D01*
X394292Y1067194D01*
X394464Y1066841D01*
X394627Y1066484D01*
X394782Y1066123D01*
X394928Y1065758D01*
X395065Y1065390D01*
X395192Y1065019D01*
X395311Y1064645D01*
X395420Y1064267D01*
X395521Y1063888D01*
X395611Y1063506D01*
X395693Y1063121D01*
X395764Y1062735D01*
X395827Y1062348D01*
X395880Y1061959D01*
X395923Y1061568D01*
X395957Y1061177D01*
X395981Y1060785D01*
X395995Y1060393D01*
X396000Y1060000D01*
X395995Y1059607D01*
X395981Y1059215D01*
X395957Y1058823D01*
X395923Y1058432D01*
X395880Y1058041D01*
X395827Y1057652D01*
X395764Y1057265D01*
X395693Y1056879D01*
X395611Y1056494D01*
X395521Y1056112D01*
X395420Y1055733D01*
X395311Y1055355D01*
X395192Y1054981D01*
X395065Y1054610D01*
X394928Y1054242D01*
X394782Y1053877D01*
X394627Y1053516D01*
X394464Y1053159D01*
X394292Y1052806D01*
X394111Y1052458D01*
X393921Y1052114D01*
X393724Y1051774D01*
X393518Y1051440D01*
X393304Y1051111D01*
X393081Y1050787D01*
X392851Y1050469D01*
X392614Y1050156D01*
X392368Y1049850D01*
X392115Y1049549D01*
X391855Y1049255D01*
X391588Y1048967D01*
X391314Y1048686D01*
X391033Y1048412D01*
X390745Y1048145D01*
X390451Y1047885D01*
X390150Y1047632D01*
X389844Y1047386D01*
X389531Y1047149D01*
X389213Y1046919D01*
X388889Y1046696D01*
X388560Y1046482D01*
X388226Y1046276D01*
X387886Y1046079D01*
X387542Y1045889D01*
X387194Y1045708D01*
X386841Y1045536D01*
X386484Y1045373D01*
X386123Y1045218D01*
X385758Y1045072D01*
X385390Y1044935D01*
X385019Y1044808D01*
X384645Y1044689D01*
X384267Y1044580D01*
X383888Y1044479D01*
X383506Y1044389D01*
X383121Y1044307D01*
X382735Y1044236D01*
X382348Y1044173D01*
X381959Y1044120D01*
X381568Y1044077D01*
X381177Y1044043D01*
X380785Y1044019D01*
X380393Y1044005D01*
X380000Y1044000D01*
X379607Y1044005D01*
X379215Y1044019D01*
X378823Y1044043D01*
X378432Y1044077D01*
X378041Y1044120D01*
X377652Y1044173D01*
X377265Y1044236D01*
X376879Y1044307D01*
X376494Y1044389D01*
X376112Y1044479D01*
X375733Y1044580D01*
X375355Y1044689D01*
X374981Y1044808D01*
X374610Y1044935D01*
X374242Y1045072D01*
X373877Y1045218D01*
X373516Y1045373D01*
X373159Y1045536D01*
X372806Y1045708D01*
X372458Y1045889D01*
X372114Y1046079D01*
X371774Y1046276D01*
X371440Y1046482D01*
X371111Y1046696D01*
X370787Y1046919D01*
X370469Y1047149D01*
X370156Y1047386D01*
X369850Y1047632D01*
X369549Y1047885D01*
X369255Y1048145D01*
X368967Y1048412D01*
X368686Y1048686D01*
X368412Y1048967D01*
X368145Y1049255D01*
X367885Y1049549D01*
X367632Y1049850D01*
X367386Y1050156D01*
X367149Y1050469D01*
X366919Y1050787D01*
X366696Y1051111D01*
X366482Y1051440D01*
X366276Y1051774D01*
X366079Y1052114D01*
X365889Y1052458D01*
X365708Y1052806D01*
X365536Y1053159D01*
X365373Y1053516D01*
X365218Y1053877D01*
X365072Y1054242D01*
X364935Y1054610D01*
X364808Y1054981D01*
X364689Y1055355D01*
X364580Y1055733D01*
X364479Y1056112D01*
X364389Y1056494D01*
X364307Y1056879D01*
X364236Y1057265D01*
X364173Y1057652D01*
X364120Y1058041D01*
X364077Y1058432D01*
X364043Y1058823D01*
X364019Y1059215D01*
X364005Y1059607D01*
X364000Y1060000D01*
X704000Y1400000D02*
X704005Y1400393D01*
X704019Y1400785D01*
X704043Y1401177D01*
X704077Y1401568D01*
X704120Y1401959D01*
X704173Y1402348D01*
X704236Y1402735D01*
X704307Y1403121D01*
X704389Y1403506D01*
X704479Y1403888D01*
X704580Y1404267D01*
X704689Y1404645D01*
X704808Y1405019D01*
X704935Y1405390D01*
X705072Y1405758D01*
X705218Y1406123D01*
X705373Y1406484D01*
X705536Y1406841D01*
X705708Y1407194D01*
X705889Y1407542D01*
X706079Y1407886D01*
X706276Y1408226D01*
X706482Y1408560D01*
X706696Y1408889D01*
X706919Y1409213D01*
X707149Y1409531D01*
X707386Y1409844D01*
X707632Y1410150D01*
X707885Y1410451D01*
X708145Y1410745D01*
X708412Y1411033D01*
X708686Y1411314D01*
X708967Y1411588D01*
X709255Y1411855D01*
X709549Y1412115D01*
X709850Y1412368D01*
X710156Y1412614D01*
X710469Y1412851D01*
X710787Y1413081D01*
X711111Y1413304D01*
X711440Y1413518D01*
X711774Y1413724D01*
X712114Y1413921D01*
X712458Y1414111D01*
X712806Y1414292D01*
X713159Y1414464D01*
X713516Y1414627D01*
X713877Y1414782D01*
X714242Y1414928D01*
X714610Y1415065D01*
X714981Y1415192D01*
X715355Y1415311D01*
X715733Y1415420D01*
X716112Y1415521D01*
X716494Y1415611D01*
X716879Y1415693D01*
X717265Y1415764D01*
X717652Y1415827D01*
X718041Y1415880D01*
X718432Y1415923D01*
X718823Y1415957D01*
X719215Y1415981D01*
X719607Y1415995D01*
X720000Y1416000D01*
X720393Y1415995D01*
X720785Y1415981D01*
X721177Y1415957D01*
X721568Y1415923D01*
X721959Y1415880D01*
X722348Y1415827D01*
X722735Y1415764D01*
X723121Y1415693D01*
X723506Y1415611D01*
X723888Y1415521D01*
X724267Y1415420D01*
X724645Y1415311D01*
X725019Y1415192D01*
X725390Y1415065D01*
X725758Y1414928D01*
X726123Y1414782D01*
X726484Y1414627D01*
X726841Y1414464D01*
X727194Y1414292D01*
X727542Y1414111D01*
X727886Y1413921D01*
X728226Y1413724D01*
X728560Y1413518D01*
X728889Y1413304D01*
X729213Y1413081D01*
X729531Y1412851D01*
X729844Y1412614D01*
X730150Y1412368D01*
X730451Y1412115D01*
X730745Y1411855D01*
X731033Y1411588D01*
X731314Y1411314D01*
X731588Y1411033D01*
X731855Y1410745D01*
X732115Y1410451D01*
X732368Y1410150D01*
X732614Y1409844D01*
X732851Y1409531D01*
X733081Y1409213D01*
X733304Y1408889D01*
X733518Y1408560D01*
X733724Y1408226D01*
X733921Y1407886D01*
X734111Y1407542D01*
X734292Y1407194D01*
X734464Y1406841D01*
X734627Y1406484D01*
X734782Y1406123D01*
X734928Y1405758D01*
X735065Y1405390D01*
X735192Y1405019D01*
X735311Y1404645D01*
X735420Y1404267D01*
X735521Y1403888D01*
X735611Y1403506D01*
X735693Y1403121D01*
X735764Y1402735D01*
X735827Y1402348D01*
X735880Y1401959D01*
X735923Y1401568D01*
X735957Y1401177D01*
X735981Y1400785D01*
X735995Y1400393D01*
X736000Y1400000D01*
X735995Y1399607D01*
X735981Y1399215D01*
X735957Y1398823D01*
X735923Y1398432D01*
X735880Y1398041D01*
X735827Y1397652D01*
X735764Y1397265D01*
X735693Y1396879D01*
X735611Y1396494D01*
X735521Y1396112D01*
X735420Y1395733D01*
X735311Y1395355D01*
X735192Y1394981D01*
X735065Y1394610D01*
X734928Y1394242D01*
X734782Y1393877D01*
X734627Y1393516D01*
X734464Y1393159D01*
X734292Y1392806D01*
X734111Y1392458D01*
X733921Y1392114D01*
X733724Y1391774D01*
X733518Y1391440D01*
X733304Y1391111D01*
X733081Y1390787D01*
X732851Y1390469D01*
X732614Y1390156D01*
X732368Y1389850D01*
X732115Y1389549D01*
X731855Y1389255D01*
X731588Y1388967D01*
X731314Y1388686D01*
X731033Y1388412D01*
X730745Y1388145D01*
X730451Y1387885D01*
X730150Y1387632D01*
X729844Y1387386D01*
X729531Y1387149D01*
X729213Y1386919D01*
X728889Y1386696D01*
X728560Y1386482D01*
X728226Y1386276D01*
X727886Y1386079D01*
X727542Y1385889D01*
X727194Y1385708D01*
X726841Y1385536D01*
X726484Y1385373D01*
X726123Y1385218D01*
X725758Y1385072D01*
X725390Y1384935D01*
X725019Y1384808D01*
X724645Y1384689D01*
X724267Y1384580D01*
X723888Y1384479D01*
X723506Y1384389D01*
X723121Y1384307D01*
X722735Y1384236D01*
X722348Y1384173D01*
X721959Y1384120D01*
X721568Y1384077D01*
X721177Y1384043D01*
X720785Y1384019D01*
X720393Y1384005D01*
X720000Y1384000D01*
X719607Y1384005D01*
X719215Y1384019D01*
X718823Y1384043D01*
X718432Y1384077D01*
X718041Y1384120D01*
X717652Y1384173D01*
X717265Y1384236D01*
X716879Y1384307D01*
X716494Y1384389D01*
X716112Y1384479D01*
X715733Y1384580D01*
X715355Y1384689D01*
X714981Y1384808D01*
X714610Y1384935D01*
X714242Y1385072D01*
X713877Y1385218D01*
X713516Y1385373D01*
X713159Y1385536D01*
X712806Y1385708D01*
X712458Y1385889D01*
X712114Y1386079D01*
X711774Y1386276D01*
X711440Y1386482D01*
X711111Y1386696D01*
X710787Y1386919D01*
X710469Y1387149D01*
X710156Y1387386D01*
X709850Y1387632D01*
X709549Y1387885D01*
X709255Y1388145D01*
X708967Y1388412D01*
X708686Y1388686D01*
X708412Y1388967D01*
X708145Y1389255D01*
X707885Y1389549D01*
X707632Y1389850D01*
X707386Y1390156D01*
X707149Y1390469D01*
X706919Y1390787D01*
X706696Y1391111D01*
X706482Y1391440D01*
X706276Y1391774D01*
X706079Y1392114D01*
X705889Y1392458D01*
X705708Y1392806D01*
X705536Y1393159D01*
X705373Y1393516D01*
X705218Y1393877D01*
X705072Y1394242D01*
X704935Y1394610D01*
X704808Y1394981D01*
X704689Y1395355D01*
X704580Y1395733D01*
X704479Y1396112D01*
X704389Y1396494D01*
X704307Y1396879D01*
X704236Y1397265D01*
X704173Y1397652D01*
X704120Y1398041D01*
X704077Y1398432D01*
X704043Y1398823D01*
X704019Y1399215D01*
X704005Y1399607D01*
X704000Y1400000D01*
X364000Y1740000D02*
X364005Y1740393D01*
X364019Y1740785D01*
X364043Y1741177D01*
X364077Y1741568D01*
X364120Y1741959D01*
X364173Y1742348D01*
X364236Y1742735D01*
X364307Y1743121D01*
X364389Y1743506D01*
X364479Y1743888D01*
X364580Y1744267D01*
X364689Y1744645D01*
X364808Y1745019D01*
X364935Y1745390D01*
X365072Y1745758D01*
X365218Y1746123D01*
X365373Y1746484D01*
X365536Y1746841D01*
X365708Y1747194D01*
X365889Y1747542D01*
X366079Y1747886D01*
X366276Y1748226D01*
X366482Y1748560D01*
X366696Y1748889D01*
X366919Y1749213D01*
X367149Y1749531D01*
X367386Y1749844D01*
X367632Y1750150D01*
X367885Y1750451D01*
X368145Y1750745D01*
X368412Y1751033D01*
X368686Y1751314D01*
X368967Y1751588D01*
X369255Y1751855D01*
X369549Y1752115D01*
X369850Y1752368D01*
X370156Y1752614D01*
X370469Y1752851D01*
X370787Y1753081D01*
X371111Y1753304D01*
X371440Y1753518D01*
X371774Y1753724D01*
X372114Y1753921D01*
X372458Y1754111D01*
X372806Y1754292D01*
X373159Y1754464D01*
X373516Y1754627D01*
X373877Y1754782D01*
X374242Y1754928D01*
X374610Y1755065D01*
X374981Y1755192D01*
X375355Y1755311D01*
X375733Y1755420D01*
X376112Y1755521D01*
X376494Y1755611D01*
X376879Y1755693D01*
X377265Y1755764D01*
X377652Y1755827D01*
X378041Y1755880D01*
X378432Y1755923D01*
X378823Y1755957D01*
X379215Y1755981D01*
X379607Y1755995D01*
X380000Y1756000D01*
X380393Y1755995D01*
X380785Y1755981D01*
X381177Y1755957D01*
X381568Y1755923D01*
X381959Y1755880D01*
X382348Y1755827D01*
X382735Y1755764D01*
X383121Y1755693D01*
X383506Y1755611D01*
X383888Y1755521D01*
X384267Y1755420D01*
X384645Y1755311D01*
X385019Y1755192D01*
X385390Y1755065D01*
X385758Y1754928D01*
X386123Y1754782D01*
X386484Y1754627D01*
X386841Y1754464D01*
X387194Y1754292D01*
X387542Y1754111D01*
X387886Y1753921D01*
X388226Y1753724D01*
X388560Y1753518D01*
X388889Y1753304D01*
X389213Y1753081D01*
X389531Y1752851D01*
X389844Y1752614D01*
X390150Y1752368D01*
X390451Y1752115D01*
X390745Y1751855D01*
X391033Y1751588D01*
X391314Y1751314D01*
X391588Y1751033D01*
X391855Y1750745D01*
X392115Y1750451D01*
X392368Y1750150D01*
X392614Y1749844D01*
X392851Y1749531D01*
X393081Y1749213D01*
X393304Y1748889D01*
X393518Y1748560D01*
X393724Y1748226D01*
X393921Y1747886D01*
X394111Y1747542D01*
X394292Y1747194D01*
X394464Y1746841D01*
X394627Y1746484D01*
X394782Y1746123D01*
X394928Y1745758D01*
X395065Y1745390D01*
X395192Y1745019D01*
X395311Y1744645D01*
X395420Y1744267D01*
X395521Y1743888D01*
X395611Y1743506D01*
X395693Y1743121D01*
X395764Y1742735D01*
X395827Y1742348D01*
X395880Y1741959D01*
X395923Y1741568D01*
X395957Y1741177D01*
X395981Y1740785D01*
X395995Y1740393D01*
X396000Y1740000D01*
X395995Y1739607D01*
X395981Y1739215D01*
X395957Y1738823D01*
X395923Y1738432D01*
X395880Y1738041D01*
X395827Y1737652D01*
X395764Y1737265D01*
X395693Y1736879D01*
X395611Y1736494D01*
X395521Y1736112D01*
X395420Y1735733D01*
X395311Y1735355D01*
X395192Y1734981D01*
X395065Y1734610D01*
X394928Y1734242D01*
X394782Y1733877D01*
X394627Y1733516D01*
X394464Y1733159D01*
X394292Y1732806D01*
X394111Y1732458D01*
X393921Y1732114D01*
X393724Y1731774D01*
X393518Y1731440D01*
X393304Y1731111D01*
X393081Y1730787D01*
X392851Y1730469D01*
X392614Y1730156D01*
X392368Y1729850D01*
X392115Y1729549D01*
X391855Y1729255D01*
X391588Y1728967D01*
X391314Y1728686D01*
X391033Y1728412D01*
X390745Y1728145D01*
X390451Y1727885D01*
X390150Y1727632D01*
X389844Y1727386D01*
X389531Y1727149D01*
X389213Y1726919D01*
X388889Y1726696D01*
X388560Y1726482D01*
X388226Y1726276D01*
X387886Y1726079D01*
X387542Y1725889D01*
X387194Y1725708D01*
X386841Y1725536D01*
X386484Y1725373D01*
X386123Y1725218D01*
X385758Y1725072D01*
X385390Y1724935D01*
X385019Y1724808D01*
X384645Y1724689D01*
X384267Y1724580D01*
X383888Y1724479D01*
X383506Y1724389D01*
X383121Y1724307D01*
X382735Y1724236D01*
X382348Y1724173D01*
X381959Y1724120D01*
X381568Y1724077D01*
X381177Y1724043D01*
X380785Y1724019D01*
X380393Y1724005D01*
X380000Y1724000D01*
X379607Y1724005D01*
X379215Y1724019D01*
X378823Y1724043D01*
X378432Y1724077D01*
X378041Y1724120D01*
X377652Y1724173D01*
X377265Y1724236D01*
X376879Y1724307D01*
X376494Y1724389D01*
X376112Y1724479D01*
X375733Y1724580D01*
X375355Y1724689D01*
X374981Y1724808D01*
X374610Y1724935D01*
X374242Y1725072D01*
X373877Y1725218D01*
X373516Y1725373D01*
X373159Y1725536D01*
X372806Y1725708D01*
X372458Y1725889D01*
X372114Y1726079D01*
X371774Y1726276D01*
X371440Y1726482D01*
X371111Y1726696D01*
X370787Y1726919D01*
X370469Y1727149D01*
X370156Y1727386D01*
X369850Y1727632D01*
X369549Y1727885D01*
X369255Y1728145D01*
X368967Y1728412D01*
X368686Y1728686D01*
X368412Y1728967D01*
X368145Y1729255D01*
X367885Y1729549D01*
X367632Y1729850D01*
X367386Y1730156D01*
X367149Y1730469D01*
X366919Y1730787D01*
X366696Y1731111D01*
X366482Y1731440D01*
X366276Y1731774D01*
X366079Y1732114D01*
X365889Y1732458D01*
X365708Y1732806D01*
X365536Y1733159D01*
X365373Y1733516D01*
X365218Y1733877D01*
X365072Y1734242D01*
X364935Y1734610D01*
X364808Y1734981D01*
X364689Y1735355D01*
X364580Y1735733D01*
X364479Y1736112D01*
X364389Y1736494D01*
X364307Y1736879D01*
X364236Y1737265D01*
X364173Y1737652D01*
X364120Y1738041D01*
X364077Y1738432D01*
X364043Y1738823D01*
X364019Y1739215D01*
X364005Y1739607D01*
X364000Y1740000D01*
D12*
X0Y380000D02*
X114Y389326D01*
X458Y398646D01*
X1030Y407955D01*
X1830Y417247D01*
X2858Y426516D01*
X4113Y435758D01*
X5594Y444966D01*
X7302Y454134D01*
X9233Y463258D01*
X11388Y472332D01*
X13765Y481351D01*
X16363Y490308D01*
X19179Y499199D01*
X22213Y508018D01*
X25463Y516760D01*
X28926Y525420D01*
X32600Y533992D01*
X36484Y542471D01*
X40575Y550852D01*
X44870Y559131D01*
X49367Y567301D01*
X54063Y575359D01*
X58956Y583299D01*
X64042Y591117D01*
X69318Y598807D01*
X74781Y606366D01*
X80428Y613788D01*
X86256Y621069D01*
X92261Y628206D01*
X98439Y635192D01*
X104786Y642025D01*
X111299Y648701D01*
X117975Y655214D01*
X124808Y661561D01*
X131794Y667739D01*
X138931Y673744D01*
X146212Y679572D01*
X153634Y685219D01*
X161193Y690682D01*
X168883Y695958D01*
X176701Y701044D01*
X184641Y705937D01*
X192699Y710633D01*
X200869Y715130D01*
X209148Y719425D01*
X217529Y723516D01*
X226008Y727400D01*
X234580Y731074D01*
X243240Y734537D01*
X251982Y737787D01*
X260801Y740821D01*
X269692Y743637D01*
X278649Y746235D01*
X287668Y748612D01*
X296742Y750767D01*
X305866Y752698D01*
X315034Y754406D01*
X324242Y755887D01*
X333484Y757142D01*
X342753Y758170D01*
X352045Y758970D01*
X361354Y759542D01*
X370674Y759886D01*
X380000Y760000D01*
X389326Y759886D01*
X398646Y759542D01*
X407955Y758970D01*
X417247Y758170D01*
X426516Y757142D01*
X435758Y755887D01*
X444966Y754406D01*
X454134Y752698D01*
X463258Y750767D01*
X472332Y748612D01*
X481351Y746235D01*
X490308Y743637D01*
X499199Y740821D01*
X508018Y737787D01*
X516760Y734537D01*
X525420Y731074D01*
X533992Y727400D01*
X542471Y723516D01*
X550852Y719425D01*
X559131Y715130D01*
X567301Y710633D01*
X575359Y705937D01*
X583299Y701044D01*
X591117Y695958D01*
X598807Y690682D01*
X606366Y685219D01*
X613788Y679572D01*
X621069Y673744D01*
X628206Y667739D01*
X635192Y661561D01*
X642025Y655214D01*
X648701Y648701D01*
X655214Y642025D01*
X661561Y635192D01*
X667739Y628206D01*
X673744Y621069D01*
X679572Y613788D01*
X685219Y606366D01*
X690682Y598807D01*
X695958Y591117D01*
X701044Y583299D01*
X705937Y575359D01*
X710633Y567301D01*
X715130Y559131D01*
X719425Y550852D01*
X723516Y542471D01*
X727400Y533992D01*
X731074Y525420D01*
X734537Y516760D01*
X737787Y508018D01*
X740821Y499199D01*
X743637Y490308D01*
X746235Y481351D01*
X748612Y472332D01*
X750767Y463258D01*
X752698Y454134D01*
X754406Y444966D01*
X755887Y435758D01*
X757142Y426516D01*
X758170Y417247D01*
X758970Y407955D01*
X759542Y398646D01*
X759886Y389326D01*
X760000Y380000D01*
X759886Y370674D01*
X759542Y361354D01*
X758970Y352045D01*
X758170Y342753D01*
X757142Y333484D01*
X755887Y324242D01*
X754406Y315034D01*
X752698Y305866D01*
X750767Y296742D01*
X748612Y287668D01*
X746235Y278649D01*
X743637Y269692D01*
X740821Y260801D01*
X737787Y251982D01*
X734537Y243240D01*
X731074Y234580D01*
X727400Y226008D01*
X723516Y217529D01*
X719425Y209148D01*
X715130Y200869D01*
X710633Y192699D01*
X705937Y184641D01*
X701044Y176701D01*
X695958Y168883D01*
X690682Y161193D01*
X685219Y153634D01*
X679572Y146212D01*
X673744Y138931D01*
X667739Y131794D01*
X661561Y124808D01*
X655214Y117975D01*
X648701Y111299D01*
X642025Y104786D01*
X635192Y98439D01*
X628206Y92261D01*
X621069Y86256D01*
X613788Y80428D01*
X606366Y74781D01*
X598807Y69318D01*
X591117Y64042D01*
X583299Y58956D01*
X575359Y54063D01*
X567301Y49367D01*
X559131Y44870D01*
X550852Y40575D01*
X542471Y36484D01*
X533992Y32600D01*
X525420Y28926D01*
X516760Y25463D01*
X508018Y22213D01*
X499199Y19179D01*
X490308Y16363D01*
X481351Y13765D01*
X472332Y11388D01*
X463258Y9233D01*
X454134Y7302D01*
X444966Y5594D01*
X435758Y4113D01*
X426516Y2858D01*
X417247Y1830D01*
X407955Y1030D01*
X398646Y458D01*
X389326Y114D01*
X380000Y0D01*
X370674Y114D01*
X361354Y458D01*
X352045Y1030D01*
X342753Y1830D01*
X333484Y2858D01*
X324242Y4113D01*
X315034Y5594D01*
X305866Y7302D01*
X296742Y9233D01*
X287668Y11388D01*
X278649Y13765D01*
X269692Y16363D01*
X260801Y19179D01*
X251982Y22213D01*
X243240Y25463D01*
X234580Y28926D01*
X226008Y32600D01*
X217529Y36484D01*
X209148Y40575D01*
X200869Y44870D01*
X192699Y49367D01*
X184641Y54063D01*
X176701Y58956D01*
X168883Y64042D01*
X161193Y69318D01*
X153634Y74781D01*
X146212Y80428D01*
X138931Y86256D01*
X131794Y92261D01*
X124808Y98439D01*
X117975Y104786D01*
X111299Y111299D01*
X104786Y117975D01*
X98439Y124808D01*
X92261Y131794D01*
X86256Y138931D01*
X80428Y146212D01*
X74781Y153634D01*
X69318Y161193D01*
X64042Y168883D01*
X58956Y176701D01*
X54063Y184641D01*
X49367Y192699D01*
X44870Y200869D01*
X40575Y209148D01*
X36484Y217529D01*
X32600Y226008D01*
X28926Y234580D01*
X25463Y243240D01*
X22213Y251982D01*
X19179Y260801D01*
X16363Y269692D01*
X13765Y278649D01*
X11388Y287668D01*
X9233Y296742D01*
X7302Y305866D01*
X5594Y315034D01*
X4113Y324242D01*
X2858Y333484D01*
X1830Y342753D01*
X1030Y352045D01*
X458Y361354D01*
X114Y370674D01*
X0Y380000D01*
D10*
X364000Y720000D02*
X364005Y720393D01*
X364019Y720785D01*
X364043Y721177D01*
X364077Y721568D01*
X364120Y721959D01*
X364173Y722348D01*
X364236Y722735D01*
X364307Y723121D01*
X364389Y723506D01*
X364479Y723888D01*
X364580Y724267D01*
X364689Y724645D01*
X364808Y725019D01*
X364935Y725390D01*
X365072Y725758D01*
X365218Y726123D01*
X365373Y726484D01*
X365536Y726841D01*
X365708Y727194D01*
X365889Y727542D01*
X366079Y727886D01*
X366276Y728226D01*
X366482Y728560D01*
X366696Y728889D01*
X366919Y729213D01*
X367149Y729531D01*
X367386Y729844D01*
X367632Y730150D01*
X367885Y730451D01*
X368145Y730745D01*
X368412Y731033D01*
X368686Y731314D01*
X368967Y731588D01*
X369255Y731855D01*
X369549Y732115D01*
X369850Y732368D01*
X370156Y732614D01*
X370469Y732851D01*
X370787Y733081D01*
X371111Y733304D01*
X371440Y733518D01*
X371774Y733724D01*
X372114Y733921D01*
X372458Y734111D01*
X372806Y734292D01*
X373159Y734464D01*
X373516Y734627D01*
X373877Y734782D01*
X374242Y734928D01*
X374610Y735065D01*
X374981Y735192D01*
X375355Y735311D01*
X375733Y735420D01*
X376112Y735521D01*
X376494Y735611D01*
X376879Y735693D01*
X377265Y735764D01*
X377652Y735827D01*
X378041Y735880D01*
X378432Y735923D01*
X378823Y735957D01*
X379215Y735981D01*
X379607Y735995D01*
X380000Y736000D01*
X380393Y735995D01*
X380785Y735981D01*
X381177Y735957D01*
X381568Y735923D01*
X381959Y735880D01*
X382348Y735827D01*
X382735Y735764D01*
X383121Y735693D01*
X383506Y735611D01*
X383888Y735521D01*
X384267Y735420D01*
X384645Y735311D01*
X385019Y735192D01*
X385390Y735065D01*
X385758Y734928D01*
X386123Y734782D01*
X386484Y734627D01*
X386841Y734464D01*
X387194Y734292D01*
X387542Y734111D01*
X387886Y733921D01*
X388226Y733724D01*
X388560Y733518D01*
X388889Y733304D01*
X389213Y733081D01*
X389531Y732851D01*
X389844Y732614D01*
X390150Y732368D01*
X390451Y732115D01*
X390745Y731855D01*
X391033Y731588D01*
X391314Y731314D01*
X391588Y731033D01*
X391855Y730745D01*
X392115Y730451D01*
X392368Y730150D01*
X392614Y729844D01*
X392851Y729531D01*
X393081Y729213D01*
X393304Y728889D01*
X393518Y728560D01*
X393724Y728226D01*
X393921Y727886D01*
X394111Y727542D01*
X394292Y727194D01*
X394464Y726841D01*
X394627Y726484D01*
X394782Y726123D01*
X394928Y725758D01*
X395065Y725390D01*
X395192Y725019D01*
X395311Y724645D01*
X395420Y724267D01*
X395521Y723888D01*
X395611Y723506D01*
X395693Y723121D01*
X395764Y722735D01*
X395827Y722348D01*
X395880Y721959D01*
X395923Y721568D01*
X395957Y721177D01*
X395981Y720785D01*
X395995Y720393D01*
X396000Y720000D01*
X395995Y719607D01*
X395981Y719215D01*
X395957Y718823D01*
X395923Y718432D01*
X395880Y718041D01*
X395827Y717652D01*
X395764Y717265D01*
X395693Y716879D01*
X395611Y716494D01*
X395521Y716112D01*
X395420Y715733D01*
X395311Y715355D01*
X395192Y714981D01*
X395065Y714610D01*
X394928Y714242D01*
X394782Y713877D01*
X394627Y713516D01*
X394464Y713159D01*
X394292Y712806D01*
X394111Y712458D01*
X393921Y712114D01*
X393724Y711774D01*
X393518Y711440D01*
X393304Y711111D01*
X393081Y710787D01*
X392851Y710469D01*
X392614Y710156D01*
X392368Y709850D01*
X392115Y709549D01*
X391855Y709255D01*
X391588Y708967D01*
X391314Y708686D01*
X391033Y708412D01*
X390745Y708145D01*
X390451Y707885D01*
X390150Y707632D01*
X389844Y707386D01*
X389531Y707149D01*
X389213Y706919D01*
X388889Y706696D01*
X388560Y706482D01*
X388226Y706276D01*
X387886Y706079D01*
X387542Y705889D01*
X387194Y705708D01*
X386841Y705536D01*
X386484Y705373D01*
X386123Y705218D01*
X385758Y705072D01*
X385390Y704935D01*
X385019Y704808D01*
X384645Y704689D01*
X384267Y704580D01*
X383888Y704479D01*
X383506Y704389D01*
X383121Y704307D01*
X382735Y704236D01*
X382348Y704173D01*
X381959Y704120D01*
X381568Y704077D01*
X381177Y704043D01*
X380785Y704019D01*
X380393Y704005D01*
X380000Y704000D01*
X379607Y704005D01*
X379215Y704019D01*
X378823Y704043D01*
X378432Y704077D01*
X378041Y704120D01*
X377652Y704173D01*
X377265Y704236D01*
X376879Y704307D01*
X376494Y704389D01*
X376112Y704479D01*
X375733Y704580D01*
X375355Y704689D01*
X374981Y704808D01*
X374610Y704935D01*
X374242Y705072D01*
X373877Y705218D01*
X373516Y705373D01*
X373159Y705536D01*
X372806Y705708D01*
X372458Y705889D01*
X372114Y706079D01*
X371774Y706276D01*
X371440Y706482D01*
X371111Y706696D01*
X370787Y706919D01*
X370469Y707149D01*
X370156Y707386D01*
X369850Y707632D01*
X369549Y707885D01*
X369255Y708145D01*
X368967Y708412D01*
X368686Y708686D01*
X368412Y708967D01*
X368145Y709255D01*
X367885Y709549D01*
X367632Y709850D01*
X367386Y710156D01*
X367149Y710469D01*
X366919Y710787D01*
X366696Y711111D01*
X366482Y711440D01*
X366276Y711774D01*
X366079Y712114D01*
X365889Y712458D01*
X365708Y712806D01*
X365536Y713159D01*
X365373Y713516D01*
X365218Y713877D01*
X365072Y714242D01*
X364935Y714610D01*
X364808Y714981D01*
X364689Y715355D01*
X364580Y715733D01*
X364479Y716112D01*
X364389Y716494D01*
X364307Y716879D01*
X364236Y717265D01*
X364173Y717652D01*
X364120Y718041D01*
X364077Y718432D01*
X364043Y718823D01*
X364019Y719215D01*
X364005Y719607D01*
X364000Y720000D01*
X704000Y380000D02*
X704005Y380393D01*
X704019Y380785D01*
X704043Y381177D01*
X704077Y381568D01*
X704120Y381959D01*
X704173Y382348D01*
X704236Y382735D01*
X704307Y383121D01*
X704389Y383506D01*
X704479Y383888D01*
X704580Y384267D01*
X704689Y384645D01*
X704808Y385019D01*
X704935Y385390D01*
X705072Y385758D01*
X705218Y386123D01*
X705373Y386484D01*
X705536Y386841D01*
X705708Y387194D01*
X705889Y387542D01*
X706079Y387886D01*
X706276Y388226D01*
X706482Y388560D01*
X706696Y388889D01*
X706919Y389213D01*
X707149Y389531D01*
X707386Y389844D01*
X707632Y390150D01*
X707885Y390451D01*
X708145Y390745D01*
X708412Y391033D01*
X708686Y391314D01*
X708967Y391588D01*
X709255Y391855D01*
X709549Y392115D01*
X709850Y392368D01*
X710156Y392614D01*
X710469Y392851D01*
X710787Y393081D01*
X711111Y393304D01*
X711440Y393518D01*
X711774Y393724D01*
X712114Y393921D01*
X712458Y394111D01*
X712806Y394292D01*
X713159Y394464D01*
X713516Y394627D01*
X713877Y394782D01*
X714242Y394928D01*
X714610Y395065D01*
X714981Y395192D01*
X715355Y395311D01*
X715733Y395420D01*
X716112Y395521D01*
X716494Y395611D01*
X716879Y395693D01*
X717265Y395764D01*
X717652Y395827D01*
X718041Y395880D01*
X718432Y395923D01*
X718823Y395957D01*
X719215Y395981D01*
X719607Y395995D01*
X720000Y396000D01*
X720393Y395995D01*
X720785Y395981D01*
X721177Y395957D01*
X721568Y395923D01*
X721959Y395880D01*
X722348Y395827D01*
X722735Y395764D01*
X723121Y395693D01*
X723506Y395611D01*
X723888Y395521D01*
X724267Y395420D01*
X724645Y395311D01*
X725019Y395192D01*
X725390Y395065D01*
X725758Y394928D01*
X726123Y394782D01*
X726484Y394627D01*
X726841Y394464D01*
X727194Y394292D01*
X727542Y394111D01*
X727886Y393921D01*
X728226Y393724D01*
X728560Y393518D01*
X728889Y393304D01*
X729213Y393081D01*
X729531Y392851D01*
X729844Y392614D01*
X730150Y392368D01*
X730451Y392115D01*
X730745Y391855D01*
X731033Y391588D01*
X731314Y391314D01*
X731588Y391033D01*
X731855Y390745D01*
X732115Y390451D01*
X732368Y390150D01*
X732614Y389844D01*
X732851Y389531D01*
X733081Y389213D01*
X733304Y388889D01*
X733518Y388560D01*
X733724Y388226D01*
X733921Y387886D01*
X734111Y387542D01*
X734292Y387194D01*
X734464Y386841D01*
X734627Y386484D01*
X734782Y386123D01*
X734928Y385758D01*
X735065Y385390D01*
X735192Y385019D01*
X735311Y384645D01*
X735420Y384267D01*
X735521Y383888D01*
X735611Y383506D01*
X735693Y383121D01*
X735764Y382735D01*
X735827Y382348D01*
X735880Y381959D01*
X735923Y381568D01*
X735957Y381177D01*
X735981Y380785D01*
X735995Y380393D01*
X736000Y380000D01*
X735995Y379607D01*
X735981Y379215D01*
X735957Y378823D01*
X735923Y378432D01*
X735880Y378041D01*
X735827Y377652D01*
X735764Y377265D01*
X735693Y376879D01*
X735611Y376494D01*
X735521Y376112D01*
X735420Y375733D01*
X735311Y375355D01*
X735192Y374981D01*
X735065Y374610D01*
X734928Y374242D01*
X734782Y373877D01*
X734627Y373516D01*
X734464Y373159D01*
X734292Y372806D01*
X734111Y372458D01*
X733921Y372114D01*
X733724Y371774D01*
X733518Y371440D01*
X733304Y371111D01*
X733081Y370787D01*
X732851Y370469D01*
X732614Y370156D01*
X732368Y369850D01*
X732115Y369549D01*
X731855Y369255D01*
X731588Y368967D01*
X731314Y368686D01*
X731033Y368412D01*
X730745Y368145D01*
X730451Y367885D01*
X730150Y367632D01*
X729844Y367386D01*
X729531Y367149D01*
X729213Y366919D01*
X728889Y366696D01*
X728560Y366482D01*
X728226Y366276D01*
X727886Y366079D01*
X727542Y365889D01*
X727194Y365708D01*
X726841Y365536D01*
X726484Y365373D01*
X726123Y365218D01*
X725758Y365072D01*
X725390Y364935D01*
X725019Y364808D01*
X724645Y364689D01*
X724267Y364580D01*
X723888Y364479D01*
X723506Y364389D01*
X723121Y364307D01*
X722735Y364236D01*
X722348Y364173D01*
X721959Y364120D01*
X721568Y364077D01*
X721177Y364043D01*
X720785Y364019D01*
X720393Y364005D01*
X720000Y364000D01*
X719607Y364005D01*
X719215Y364019D01*
X718823Y364043D01*
X718432Y364077D01*
X718041Y364120D01*
X717652Y364173D01*
X717265Y364236D01*
X716879Y364307D01*
X716494Y364389D01*
X716112Y364479D01*
X715733Y364580D01*
X715355Y364689D01*
X714981Y364808D01*
X714610Y364935D01*
X714242Y365072D01*
X713877Y365218D01*
X713516Y365373D01*
X713159Y365536D01*
X712806Y365708D01*
X712458Y365889D01*
X712114Y366079D01*
X711774Y366276D01*
X711440Y366482D01*
X711111Y366696D01*
X710787Y366919D01*
X710469Y367149D01*
X710156Y367386D01*
X709850Y367632D01*
X709549Y367885D01*
X709255Y368145D01*
X708967Y368412D01*
X708686Y368686D01*
X708412Y368967D01*
X708145Y369255D01*
X707885Y369549D01*
X707632Y369850D01*
X707386Y370156D01*
X707149Y370469D01*
X706919Y370787D01*
X706696Y371111D01*
X706482Y371440D01*
X706276Y371774D01*
X706079Y372114D01*
X705889Y372458D01*
X705708Y372806D01*
X705536Y373159D01*
X705373Y373516D01*
X705218Y373877D01*
X705072Y374242D01*
X704935Y374610D01*
X704808Y374981D01*
X704689Y375355D01*
X704580Y375733D01*
X704479Y376112D01*
X704389Y376494D01*
X704307Y376879D01*
X704236Y377265D01*
X704173Y377652D01*
X704120Y378041D01*
X704077Y378432D01*
X704043Y378823D01*
X704019Y379215D01*
X704005Y379607D01*
X704000Y380000D01*
X364000Y40000D02*
X364005Y40393D01*
X364019Y40785D01*
X364043Y41177D01*
X364077Y41568D01*
X364120Y41959D01*
X364173Y42348D01*
X364236Y42735D01*
X364307Y43121D01*
X364389Y43506D01*
X364479Y43888D01*
X364580Y44267D01*
X364689Y44645D01*
X364808Y45019D01*
X364935Y45390D01*
X365072Y45758D01*
X365218Y46123D01*
X365373Y46484D01*
X365536Y46841D01*
X365708Y47194D01*
X365889Y47542D01*
X366079Y47886D01*
X366276Y48226D01*
X366482Y48560D01*
X366696Y48889D01*
X366919Y49213D01*
X367149Y49531D01*
X367386Y49844D01*
X367632Y50150D01*
X367885Y50451D01*
X368145Y50745D01*
X368412Y51033D01*
X368686Y51314D01*
X368967Y51588D01*
X369255Y51855D01*
X369549Y52115D01*
X369850Y52368D01*
X370156Y52614D01*
X370469Y52851D01*
X370787Y53081D01*
X371111Y53304D01*
X371440Y53518D01*
X371774Y53724D01*
X372114Y53921D01*
X372458Y54111D01*
X372806Y54292D01*
X373159Y54464D01*
X373516Y54627D01*
X373877Y54782D01*
X374242Y54928D01*
X374610Y55065D01*
X374981Y55192D01*
X375355Y55311D01*
X375733Y55420D01*
X376112Y55521D01*
X376494Y55611D01*
X376879Y55693D01*
X377265Y55764D01*
X377652Y55827D01*
X378041Y55880D01*
X378432Y55923D01*
X378823Y55957D01*
X379215Y55981D01*
X379607Y55995D01*
X380000Y56000D01*
X380393Y55995D01*
X380785Y55981D01*
X381177Y55957D01*
X381568Y55923D01*
X381959Y55880D01*
X382348Y55827D01*
X382735Y55764D01*
X383121Y55693D01*
X383506Y55611D01*
X383888Y55521D01*
X384267Y55420D01*
X384645Y55311D01*
X385019Y55192D01*
X385390Y55065D01*
X385758Y54928D01*
X386123Y54782D01*
X386484Y54627D01*
X386841Y54464D01*
X387194Y54292D01*
X387542Y54111D01*
X387886Y53921D01*
X388226Y53724D01*
X388560Y53518D01*
X388889Y53304D01*
X389213Y53081D01*
X389531Y52851D01*
X389844Y52614D01*
X390150Y52368D01*
X390451Y52115D01*
X390745Y51855D01*
X391033Y51588D01*
X391314Y51314D01*
X391588Y51033D01*
X391855Y50745D01*
X392115Y50451D01*
X392368Y50150D01*
X392614Y49844D01*
X392851Y49531D01*
X393081Y49213D01*
X393304Y48889D01*
X393518Y48560D01*
X393724Y48226D01*
X393921Y47886D01*
X394111Y47542D01*
X394292Y47194D01*
X394464Y46841D01*
X394627Y46484D01*
X394782Y46123D01*
X394928Y45758D01*
X395065Y45390D01*
X395192Y45019D01*
X395311Y44645D01*
X395420Y44267D01*
X395521Y43888D01*
X395611Y43506D01*
X395693Y43121D01*
X395764Y42735D01*
X395827Y42348D01*
X395880Y41959D01*
X395923Y41568D01*
X395957Y41177D01*
X395981Y40785D01*
X395995Y40393D01*
X396000Y40000D01*
X395995Y39607D01*
X395981Y39215D01*
X395957Y38823D01*
X395923Y38432D01*
X395880Y38041D01*
X395827Y37652D01*
X395764Y37265D01*
X395693Y36879D01*
X395611Y36494D01*
X395521Y36112D01*
X395420Y35733D01*
X395311Y35355D01*
X395192Y34981D01*
X395065Y34610D01*
X394928Y34242D01*
X394782Y33877D01*
X394627Y33516D01*
X394464Y33159D01*
X394292Y32806D01*
X394111Y32458D01*
X393921Y32114D01*
X393724Y31774D01*
X393518Y31440D01*
X393304Y31111D01*
X393081Y30787D01*
X392851Y30469D01*
X392614Y30156D01*
X392368Y29850D01*
X392115Y29549D01*
X391855Y29255D01*
X391588Y28967D01*
X391314Y28686D01*
X391033Y28412D01*
X390745Y28145D01*
X390451Y27885D01*
X390150Y27632D01*
X389844Y27386D01*
X389531Y27149D01*
X389213Y26919D01*
X388889Y26696D01*
X388560Y26482D01*
X388226Y26276D01*
X387886Y26079D01*
X387542Y25889D01*
X387194Y25708D01*
X386841Y25536D01*
X386484Y25373D01*
X386123Y25218D01*
X385758Y25072D01*
X385390Y24935D01*
X385019Y24808D01*
X384645Y24689D01*
X384267Y24580D01*
X383888Y24479D01*
X383506Y24389D01*
X383121Y24307D01*
X382735Y24236D01*
X382348Y24173D01*
X381959Y24120D01*
X381568Y24077D01*
X381177Y24043D01*
X380785Y24019D01*
X380393Y24005D01*
X380000Y24000D01*
X379607Y24005D01*
X379215Y24019D01*
X378823Y24043D01*
X378432Y24077D01*
X378041Y24120D01*
X377652Y24173D01*
X377265Y24236D01*
X376879Y24307D01*
X376494Y24389D01*
X376112Y24479D01*
X375733Y24580D01*
X375355Y24689D01*
X374981Y24808D01*
X374610Y24935D01*
X374242Y25072D01*
X373877Y25218D01*
X373516Y25373D01*
X373159Y25536D01*
X372806Y25708D01*
X372458Y25889D01*
X372114Y26079D01*
X371774Y26276D01*
X371440Y26482D01*
X371111Y26696D01*
X370787Y26919D01*
X370469Y27149D01*
X370156Y27386D01*
X369850Y27632D01*
X369549Y27885D01*
X369255Y28145D01*
X368967Y28412D01*
X368686Y28686D01*
X368412Y28967D01*
X368145Y29255D01*
X367885Y29549D01*
X367632Y29850D01*
X367386Y30156D01*
X367149Y30469D01*
X366919Y30787D01*
X366696Y31111D01*
X366482Y31440D01*
X366276Y31774D01*
X366079Y32114D01*
X365889Y32458D01*
X365708Y32806D01*
X365536Y33159D01*
X365373Y33516D01*
X365218Y33877D01*
X365072Y34242D01*
X364935Y34610D01*
X364808Y34981D01*
X364689Y35355D01*
X364580Y35733D01*
X364479Y36112D01*
X364389Y36494D01*
X364307Y36879D01*
X364236Y37265D01*
X364173Y37652D01*
X364120Y38041D01*
X364077Y38432D01*
X364043Y38823D01*
X364019Y39215D01*
X364005Y39607D01*
X364000Y40000D01*
X24000Y380000D02*
X24005Y380393D01*
X24019Y380785D01*
X24043Y381177D01*
X24077Y381568D01*
X24120Y381959D01*
X24173Y382348D01*
X24236Y382735D01*
X24307Y383121D01*
X24389Y383506D01*
X24479Y383888D01*
X24580Y384267D01*
X24689Y384645D01*
X24808Y385019D01*
X24935Y385390D01*
X25072Y385758D01*
X25218Y386123D01*
X25373Y386484D01*
X25536Y386841D01*
X25708Y387194D01*
X25889Y387542D01*
X26079Y387886D01*
X26276Y388226D01*
X26482Y388560D01*
X26696Y388889D01*
X26919Y389213D01*
X27149Y389531D01*
X27386Y389844D01*
X27632Y390150D01*
X27885Y390451D01*
X28145Y390745D01*
X28412Y391033D01*
X28686Y391314D01*
X28967Y391588D01*
X29255Y391855D01*
X29549Y392115D01*
X29850Y392368D01*
X30156Y392614D01*
X30469Y392851D01*
X30787Y393081D01*
X31111Y393304D01*
X31440Y393518D01*
X31774Y393724D01*
X32114Y393921D01*
X32458Y394111D01*
X32806Y394292D01*
X33159Y394464D01*
X33516Y394627D01*
X33877Y394782D01*
X34242Y394928D01*
X34610Y395065D01*
X34981Y395192D01*
X35355Y395311D01*
X35733Y395420D01*
X36112Y395521D01*
X36494Y395611D01*
X36879Y395693D01*
X37265Y395764D01*
X37652Y395827D01*
X38041Y395880D01*
X38432Y395923D01*
X38823Y395957D01*
X39215Y395981D01*
X39607Y395995D01*
X40000Y396000D01*
X40393Y395995D01*
X40785Y395981D01*
X41177Y395957D01*
X41568Y395923D01*
X41959Y395880D01*
X42348Y395827D01*
X42735Y395764D01*
X43121Y395693D01*
X43506Y395611D01*
X43888Y395521D01*
X44267Y395420D01*
X44645Y395311D01*
X45019Y395192D01*
X45390Y395065D01*
X45758Y394928D01*
X46123Y394782D01*
X46484Y394627D01*
X46841Y394464D01*
X47194Y394292D01*
X47542Y394111D01*
X47886Y393921D01*
X48226Y393724D01*
X48560Y393518D01*
X48889Y393304D01*
X49213Y393081D01*
X49531Y392851D01*
X49844Y392614D01*
X50150Y392368D01*
X50451Y392115D01*
X50745Y391855D01*
X51033Y391588D01*
X51314Y391314D01*
X51588Y391033D01*
X51855Y390745D01*
X52115Y390451D01*
X52368Y390150D01*
X52614Y389844D01*
X52851Y389531D01*
X53081Y389213D01*
X53304Y388889D01*
X53518Y388560D01*
X53724Y388226D01*
X53921Y387886D01*
X54111Y387542D01*
X54292Y387194D01*
X54464Y386841D01*
X54627Y386484D01*
X54782Y386123D01*
X54928Y385758D01*
X55065Y385390D01*
X55192Y385019D01*
X55311Y384645D01*
X55420Y384267D01*
X55521Y383888D01*
X55611Y383506D01*
X55693Y383121D01*
X55764Y382735D01*
X55827Y382348D01*
X55880Y381959D01*
X55923Y381568D01*
X55957Y381177D01*
X55981Y380785D01*
X55995Y380393D01*
X56000Y380000D01*
X55995Y379607D01*
X55981Y379215D01*
X55957Y378823D01*
X55923Y378432D01*
X55880Y378041D01*
X55827Y377652D01*
X55764Y377265D01*
X55693Y376879D01*
X55611Y376494D01*
X55521Y376112D01*
X55420Y375733D01*
X55311Y375355D01*
X55192Y374981D01*
X55065Y374610D01*
X54928Y374242D01*
X54782Y373877D01*
X54627Y373516D01*
X54464Y373159D01*
X54292Y372806D01*
X54111Y372458D01*
X53921Y372114D01*
X53724Y371774D01*
X53518Y371440D01*
X53304Y371111D01*
X53081Y370787D01*
X52851Y370469D01*
X52614Y370156D01*
X52368Y369850D01*
X52115Y369549D01*
X51855Y369255D01*
X51588Y368967D01*
X51314Y368686D01*
X51033Y368412D01*
X50745Y368145D01*
X50451Y367885D01*
X50150Y367632D01*
X49844Y367386D01*
X49531Y367149D01*
X49213Y366919D01*
X48889Y366696D01*
X48560Y366482D01*
X48226Y366276D01*
X47886Y366079D01*
X47542Y365889D01*
X47194Y365708D01*
X46841Y365536D01*
X46484Y365373D01*
X46123Y365218D01*
X45758Y365072D01*
X45390Y364935D01*
X45019Y364808D01*
X44645Y364689D01*
X44267Y364580D01*
X43888Y364479D01*
X43506Y364389D01*
X43121Y364307D01*
X42735Y364236D01*
X42348Y364173D01*
X41959Y364120D01*
X41568Y364077D01*
X41177Y364043D01*
X40785Y364019D01*
X40393Y364005D01*
X40000Y364000D01*
X39607Y364005D01*
X39215Y364019D01*
X38823Y364043D01*
X38432Y364077D01*
X38041Y364120D01*
X37652Y364173D01*
X37265Y364236D01*
X36879Y364307D01*
X36494Y364389D01*
X36112Y364479D01*
X35733Y364580D01*
X35355Y364689D01*
X34981Y364808D01*
X34610Y364935D01*
X34242Y365072D01*
X33877Y365218D01*
X33516Y365373D01*
X33159Y365536D01*
X32806Y365708D01*
X32458Y365889D01*
X32114Y366079D01*
X31774Y366276D01*
X31440Y366482D01*
X31111Y366696D01*
X30787Y366919D01*
X30469Y367149D01*
X30156Y367386D01*
X29850Y367632D01*
X29549Y367885D01*
X29255Y368145D01*
X28967Y368412D01*
X28686Y368686D01*
X28412Y368967D01*
X28145Y369255D01*
X27885Y369549D01*
X27632Y369850D01*
X27386Y370156D01*
X27149Y370469D01*
X26919Y370787D01*
X26696Y371111D01*
X26482Y371440D01*
X26276Y371774D01*
X26079Y372114D01*
X25889Y372458D01*
X25708Y372806D01*
X25536Y373159D01*
X25373Y373516D01*
X25218Y373877D01*
X25072Y374242D01*
X24935Y374610D01*
X24808Y374981D01*
X24689Y375355D01*
X24580Y375733D01*
X24479Y376112D01*
X24389Y376494D01*
X24307Y376879D01*
X24236Y377265D01*
X24173Y377652D01*
X24120Y378041D01*
X24077Y378432D01*
X24043Y378823D01*
X24019Y379215D01*
X24005Y379607D01*
X24000Y380000D01*
X0Y790000D02*
X375000Y790000D01*
X375000Y990000D01*
X0Y990000D01*
X0Y790000D01*
X32500Y970000D02*
X32504Y970307D01*
X32515Y970613D01*
X32534Y970920D01*
X32560Y971225D01*
X32594Y971530D01*
X32635Y971834D01*
X32684Y972137D01*
X32740Y972439D01*
X32804Y972739D01*
X32875Y973037D01*
X32953Y973334D01*
X33038Y973629D01*
X33131Y973921D01*
X33231Y974211D01*
X33338Y974499D01*
X33452Y974784D01*
X33572Y975066D01*
X33700Y975344D01*
X33835Y975620D01*
X33976Y975892D01*
X34124Y976161D01*
X34278Y976426D01*
X34439Y976687D01*
X34607Y976945D01*
X34780Y977198D01*
X34960Y977446D01*
X35146Y977690D01*
X35337Y977930D01*
X35535Y978165D01*
X35738Y978394D01*
X35947Y978619D01*
X36161Y978839D01*
X36381Y979053D01*
X36606Y979262D01*
X36835Y979465D01*
X37070Y979663D01*
X37310Y979854D01*
X37554Y980040D01*
X37802Y980220D01*
X38055Y980393D01*
X38313Y980561D01*
X38574Y980722D01*
X38839Y980876D01*
X39108Y981024D01*
X39380Y981165D01*
X39656Y981300D01*
X39934Y981428D01*
X40216Y981548D01*
X40501Y981662D01*
X40789Y981769D01*
X41079Y981869D01*
X41371Y981962D01*
X41666Y982047D01*
X41963Y982125D01*
X42261Y982196D01*
X42561Y982260D01*
X42863Y982316D01*
X43166Y982365D01*
X43470Y982406D01*
X43775Y982440D01*
X44080Y982466D01*
X44387Y982485D01*
X44693Y982496D01*
X45000Y982500D01*
X45307Y982496D01*
X45613Y982485D01*
X45920Y982466D01*
X46225Y982440D01*
X46530Y982406D01*
X46834Y982365D01*
X47137Y982316D01*
X47439Y982260D01*
X47739Y982196D01*
X48037Y982125D01*
X48334Y982047D01*
X48629Y981962D01*
X48921Y981869D01*
X49211Y981769D01*
X49499Y981662D01*
X49784Y981548D01*
X50066Y981428D01*
X50344Y981300D01*
X50620Y981165D01*
X50892Y981024D01*
X51161Y980876D01*
X51426Y980722D01*
X51687Y980561D01*
X51945Y980393D01*
X52198Y980220D01*
X52446Y980040D01*
X52690Y979854D01*
X52930Y979663D01*
X53165Y979465D01*
X53394Y979262D01*
X53619Y979053D01*
X53839Y978839D01*
X54053Y978619D01*
X54262Y978394D01*
X54465Y978165D01*
X54663Y977930D01*
X54854Y977690D01*
X55040Y977446D01*
X55220Y977198D01*
X55393Y976945D01*
X55561Y976687D01*
X55722Y976426D01*
X55876Y976161D01*
X56024Y975892D01*
X56165Y975620D01*
X56300Y975344D01*
X56428Y975066D01*
X56548Y974784D01*
X56662Y974499D01*
X56769Y974211D01*
X56869Y973921D01*
X56962Y973629D01*
X57047Y973334D01*
X57125Y973037D01*
X57196Y972739D01*
X57260Y972439D01*
X57316Y972137D01*
X57365Y971834D01*
X57406Y971530D01*
X57440Y971225D01*
X57466Y970920D01*
X57485Y970613D01*
X57496Y970307D01*
X57500Y970000D01*
X57496Y969693D01*
X57485Y969387D01*
X57466Y969080D01*
X57440Y968775D01*
X57406Y968470D01*
X57365Y968166D01*
X57316Y967863D01*
X57260Y967561D01*
X57196Y967261D01*
X57125Y966963D01*
X57047Y966666D01*
X56962Y966371D01*
X56869Y966079D01*
X56769Y965789D01*
X56662Y965501D01*
X56548Y965216D01*
X56428Y964934D01*
X56300Y964656D01*
X56165Y964380D01*
X56024Y964108D01*
X55876Y963839D01*
X55722Y963574D01*
X55561Y963313D01*
X55393Y963055D01*
X55220Y962802D01*
X55040Y962554D01*
X54854Y962310D01*
X54663Y962070D01*
X54465Y961835D01*
X54262Y961606D01*
X54053Y961381D01*
X53839Y961161D01*
X53619Y960947D01*
X53394Y960738D01*
X53165Y960535D01*
X52930Y960337D01*
X52690Y960146D01*
X52446Y959960D01*
X52198Y959780D01*
X51945Y959607D01*
X51687Y959439D01*
X51426Y959278D01*
X51161Y959124D01*
X50892Y958976D01*
X50620Y958835D01*
X50344Y958700D01*
X50066Y958572D01*
X49784Y958452D01*
X49499Y958338D01*
X49211Y958231D01*
X48921Y958131D01*
X48629Y958038D01*
X48334Y957953D01*
X48037Y957875D01*
X47739Y957804D01*
X47439Y957740D01*
X47137Y957684D01*
X46834Y957635D01*
X46530Y957594D01*
X46225Y957560D01*
X45920Y957534D01*
X45613Y957515D01*
X45307Y957504D01*
X45000Y957500D01*
X44693Y957504D01*
X44387Y957515D01*
X44080Y957534D01*
X43775Y957560D01*
X43470Y957594D01*
X43166Y957635D01*
X42863Y957684D01*
X42561Y957740D01*
X42261Y957804D01*
X41963Y957875D01*
X41666Y957953D01*
X41371Y958038D01*
X41079Y958131D01*
X40789Y958231D01*
X40501Y958338D01*
X40216Y958452D01*
X39934Y958572D01*
X39656Y958700D01*
X39380Y958835D01*
X39108Y958976D01*
X38839Y959124D01*
X38574Y959278D01*
X38313Y959439D01*
X38055Y959607D01*
X37802Y959780D01*
X37554Y959960D01*
X37310Y960146D01*
X37070Y960337D01*
X36835Y960535D01*
X36606Y960738D01*
X36381Y960947D01*
X36161Y961161D01*
X35947Y961381D01*
X35738Y961606D01*
X35535Y961835D01*
X35337Y962070D01*
X35146Y962310D01*
X34960Y962554D01*
X34780Y962802D01*
X34607Y963055D01*
X34439Y963313D01*
X34278Y963574D01*
X34124Y963839D01*
X33976Y964108D01*
X33835Y964380D01*
X33700Y964656D01*
X33572Y964934D01*
X33452Y965216D01*
X33338Y965501D01*
X33231Y965789D01*
X33131Y966079D01*
X33038Y966371D01*
X32953Y966666D01*
X32875Y966963D01*
X32804Y967261D01*
X32740Y967561D01*
X32684Y967863D01*
X32635Y968166D01*
X32594Y968470D01*
X32560Y968775D01*
X32534Y969080D01*
X32515Y969387D01*
X32504Y969693D01*
X32500Y970000D01*
X32500Y810000D02*
X32504Y810307D01*
X32515Y810613D01*
X32534Y810920D01*
X32560Y811225D01*
X32594Y811530D01*
X32635Y811834D01*
X32684Y812137D01*
X32740Y812439D01*
X32804Y812739D01*
X32875Y813037D01*
X32953Y813334D01*
X33038Y813629D01*
X33131Y813921D01*
X33231Y814211D01*
X33338Y814499D01*
X33452Y814784D01*
X33572Y815066D01*
X33700Y815344D01*
X33835Y815620D01*
X33976Y815892D01*
X34124Y816161D01*
X34278Y816426D01*
X34439Y816687D01*
X34607Y816945D01*
X34780Y817198D01*
X34960Y817446D01*
X35146Y817690D01*
X35337Y817930D01*
X35535Y818165D01*
X35738Y818394D01*
X35947Y818619D01*
X36161Y818839D01*
X36381Y819053D01*
X36606Y819262D01*
X36835Y819465D01*
X37070Y819663D01*
X37310Y819854D01*
X37554Y820040D01*
X37802Y820220D01*
X38055Y820393D01*
X38313Y820561D01*
X38574Y820722D01*
X38839Y820876D01*
X39108Y821024D01*
X39380Y821165D01*
X39656Y821300D01*
X39934Y821428D01*
X40216Y821548D01*
X40501Y821662D01*
X40789Y821769D01*
X41079Y821869D01*
X41371Y821962D01*
X41666Y822047D01*
X41963Y822125D01*
X42261Y822196D01*
X42561Y822260D01*
X42863Y822316D01*
X43166Y822365D01*
X43470Y822406D01*
X43775Y822440D01*
X44080Y822466D01*
X44387Y822485D01*
X44693Y822496D01*
X45000Y822500D01*
X45307Y822496D01*
X45613Y822485D01*
X45920Y822466D01*
X46225Y822440D01*
X46530Y822406D01*
X46834Y822365D01*
X47137Y822316D01*
X47439Y822260D01*
X47739Y822196D01*
X48037Y822125D01*
X48334Y822047D01*
X48629Y821962D01*
X48921Y821869D01*
X49211Y821769D01*
X49499Y821662D01*
X49784Y821548D01*
X50066Y821428D01*
X50344Y821300D01*
X50620Y821165D01*
X50892Y821024D01*
X51161Y820876D01*
X51426Y820722D01*
X51687Y820561D01*
X51945Y820393D01*
X52198Y820220D01*
X52446Y820040D01*
X52690Y819854D01*
X52930Y819663D01*
X53165Y819465D01*
X53394Y819262D01*
X53619Y819053D01*
X53839Y818839D01*
X54053Y818619D01*
X54262Y818394D01*
X54465Y818165D01*
X54663Y817930D01*
X54854Y817690D01*
X55040Y817446D01*
X55220Y817198D01*
X55393Y816945D01*
X55561Y816687D01*
X55722Y816426D01*
X55876Y816161D01*
X56024Y815892D01*
X56165Y815620D01*
X56300Y815344D01*
X56428Y815066D01*
X56548Y814784D01*
X56662Y814499D01*
X56769Y814211D01*
X56869Y813921D01*
X56962Y813629D01*
X57047Y813334D01*
X57125Y813037D01*
X57196Y812739D01*
X57260Y812439D01*
X57316Y812137D01*
X57365Y811834D01*
X57406Y811530D01*
X57440Y811225D01*
X57466Y810920D01*
X57485Y810613D01*
X57496Y810307D01*
X57500Y810000D01*
X57496Y809693D01*
X57485Y809387D01*
X57466Y809080D01*
X57440Y808775D01*
X57406Y808470D01*
X57365Y808166D01*
X57316Y807863D01*
X57260Y807561D01*
X57196Y807261D01*
X57125Y806963D01*
X57047Y806666D01*
X56962Y806371D01*
X56869Y806079D01*
X56769Y805789D01*
X56662Y805501D01*
X56548Y805216D01*
X56428Y804934D01*
X56300Y804656D01*
X56165Y804380D01*
X56024Y804108D01*
X55876Y803839D01*
X55722Y803574D01*
X55561Y803313D01*
X55393Y803055D01*
X55220Y802802D01*
X55040Y802554D01*
X54854Y802310D01*
X54663Y802070D01*
X54465Y801835D01*
X54262Y801606D01*
X54053Y801381D01*
X53839Y801161D01*
X53619Y800947D01*
X53394Y800738D01*
X53165Y800535D01*
X52930Y800337D01*
X52690Y800146D01*
X52446Y799960D01*
X52198Y799780D01*
X51945Y799607D01*
X51687Y799439D01*
X51426Y799278D01*
X51161Y799124D01*
X50892Y798976D01*
X50620Y798835D01*
X50344Y798700D01*
X50066Y798572D01*
X49784Y798452D01*
X49499Y798338D01*
X49211Y798231D01*
X48921Y798131D01*
X48629Y798038D01*
X48334Y797953D01*
X48037Y797875D01*
X47739Y797804D01*
X47439Y797740D01*
X47137Y797684D01*
X46834Y797635D01*
X46530Y797594D01*
X46225Y797560D01*
X45920Y797534D01*
X45613Y797515D01*
X45307Y797504D01*
X45000Y797500D01*
X44693Y797504D01*
X44387Y797515D01*
X44080Y797534D01*
X43775Y797560D01*
X43470Y797594D01*
X43166Y797635D01*
X42863Y797684D01*
X42561Y797740D01*
X42261Y797804D01*
X41963Y797875D01*
X41666Y797953D01*
X41371Y798038D01*
X41079Y798131D01*
X40789Y798231D01*
X40501Y798338D01*
X40216Y798452D01*
X39934Y798572D01*
X39656Y798700D01*
X39380Y798835D01*
X39108Y798976D01*
X38839Y799124D01*
X38574Y799278D01*
X38313Y799439D01*
X38055Y799607D01*
X37802Y799780D01*
X37554Y799960D01*
X37310Y800146D01*
X37070Y800337D01*
X36835Y800535D01*
X36606Y800738D01*
X36381Y800947D01*
X36161Y801161D01*
X35947Y801381D01*
X35738Y801606D01*
X35535Y801835D01*
X35337Y802070D01*
X35146Y802310D01*
X34960Y802554D01*
X34780Y802802D01*
X34607Y803055D01*
X34439Y803313D01*
X34278Y803574D01*
X34124Y803839D01*
X33976Y804108D01*
X33835Y804380D01*
X33700Y804656D01*
X33572Y804934D01*
X33452Y805216D01*
X33338Y805501D01*
X33231Y805789D01*
X33131Y806079D01*
X33038Y806371D01*
X32953Y806666D01*
X32875Y806963D01*
X32804Y807261D01*
X32740Y807561D01*
X32684Y807863D01*
X32635Y808166D01*
X32594Y808470D01*
X32560Y808775D01*
X32534Y809080D01*
X32515Y809387D01*
X32504Y809693D01*
X32500Y810000D01*
X342500Y970000D02*
X342504Y970307D01*
X342515Y970613D01*
X342534Y970920D01*
X342560Y971225D01*
X342594Y971530D01*
X342635Y971834D01*
X342684Y972137D01*
X342740Y972439D01*
X342804Y972739D01*
X342875Y973037D01*
X342953Y973334D01*
X343038Y973629D01*
X343131Y973921D01*
X343231Y974211D01*
X343338Y974499D01*
X343452Y974784D01*
X343572Y975066D01*
X343700Y975344D01*
X343835Y975620D01*
X343976Y975892D01*
X344124Y976161D01*
X344278Y976426D01*
X344439Y976687D01*
X344607Y976945D01*
X344780Y977198D01*
X344960Y977446D01*
X345146Y977690D01*
X345337Y977930D01*
X345535Y978165D01*
X345738Y978394D01*
X345947Y978619D01*
X346161Y978839D01*
X346381Y979053D01*
X346606Y979262D01*
X346835Y979465D01*
X347070Y979663D01*
X347310Y979854D01*
X347554Y980040D01*
X347802Y980220D01*
X348055Y980393D01*
X348313Y980561D01*
X348574Y980722D01*
X348839Y980876D01*
X349108Y981024D01*
X349380Y981165D01*
X349656Y981300D01*
X349934Y981428D01*
X350216Y981548D01*
X350501Y981662D01*
X350789Y981769D01*
X351079Y981869D01*
X351371Y981962D01*
X351666Y982047D01*
X351963Y982125D01*
X352261Y982196D01*
X352561Y982260D01*
X352863Y982316D01*
X353166Y982365D01*
X353470Y982406D01*
X353775Y982440D01*
X354080Y982466D01*
X354387Y982485D01*
X354693Y982496D01*
X355000Y982500D01*
X355307Y982496D01*
X355613Y982485D01*
X355920Y982466D01*
X356225Y982440D01*
X356530Y982406D01*
X356834Y982365D01*
X357137Y982316D01*
X357439Y982260D01*
X357739Y982196D01*
X358037Y982125D01*
X358334Y982047D01*
X358629Y981962D01*
X358921Y981869D01*
X359211Y981769D01*
X359499Y981662D01*
X359784Y981548D01*
X360066Y981428D01*
X360344Y981300D01*
X360620Y981165D01*
X360892Y981024D01*
X361161Y980876D01*
X361426Y980722D01*
X361687Y980561D01*
X361945Y980393D01*
X362198Y980220D01*
X362446Y980040D01*
X362690Y979854D01*
X362930Y979663D01*
X363165Y979465D01*
X363394Y979262D01*
X363619Y979053D01*
X363839Y978839D01*
X364053Y978619D01*
X364262Y978394D01*
X364465Y978165D01*
X364663Y977930D01*
X364854Y977690D01*
X365040Y977446D01*
X365220Y977198D01*
X365393Y976945D01*
X365561Y976687D01*
X365722Y976426D01*
X365876Y976161D01*
X366024Y975892D01*
X366165Y975620D01*
X366300Y975344D01*
X366428Y975066D01*
X366548Y974784D01*
X366662Y974499D01*
X366769Y974211D01*
X366869Y973921D01*
X366962Y973629D01*
X367047Y973334D01*
X367125Y973037D01*
X367196Y972739D01*
X367260Y972439D01*
X367316Y972137D01*
X367365Y971834D01*
X367406Y971530D01*
X367440Y971225D01*
X367466Y970920D01*
X367485Y970613D01*
X367496Y970307D01*
X367500Y970000D01*
X367496Y969693D01*
X367485Y969387D01*
X367466Y969080D01*
X367440Y968775D01*
X367406Y968470D01*
X367365Y968166D01*
X367316Y967863D01*
X367260Y967561D01*
X367196Y967261D01*
X367125Y966963D01*
X367047Y966666D01*
X366962Y966371D01*
X366869Y966079D01*
X366769Y965789D01*
X366662Y965501D01*
X366548Y965216D01*
X366428Y964934D01*
X366300Y964656D01*
X366165Y964380D01*
X366024Y964108D01*
X365876Y963839D01*
X365722Y963574D01*
X365561Y963313D01*
X365393Y963055D01*
X365220Y962802D01*
X365040Y962554D01*
X364854Y962310D01*
X364663Y962070D01*
X364465Y961835D01*
X364262Y961606D01*
X364053Y961381D01*
X363839Y961161D01*
X363619Y960947D01*
X363394Y960738D01*
X363165Y960535D01*
X362930Y960337D01*
X362690Y960146D01*
X362446Y959960D01*
X362198Y959780D01*
X361945Y959607D01*
X361687Y959439D01*
X361426Y959278D01*
X361161Y959124D01*
X360892Y958976D01*
X360620Y958835D01*
X360344Y958700D01*
X360066Y958572D01*
X359784Y958452D01*
X359499Y958338D01*
X359211Y958231D01*
X358921Y958131D01*
X358629Y958038D01*
X358334Y957953D01*
X358037Y957875D01*
X357739Y957804D01*
X357439Y957740D01*
X357137Y957684D01*
X356834Y957635D01*
X356530Y957594D01*
X356225Y957560D01*
X355920Y957534D01*
X355613Y957515D01*
X355307Y957504D01*
X355000Y957500D01*
X354693Y957504D01*
X354387Y957515D01*
X354080Y957534D01*
X353775Y957560D01*
X353470Y957594D01*
X353166Y957635D01*
X352863Y957684D01*
X352561Y957740D01*
X352261Y957804D01*
X351963Y957875D01*
X351666Y957953D01*
X351371Y958038D01*
X351079Y958131D01*
X350789Y958231D01*
X350501Y958338D01*
X350216Y958452D01*
X349934Y958572D01*
X349656Y958700D01*
X349380Y958835D01*
X349108Y958976D01*
X348839Y959124D01*
X348574Y959278D01*
X348313Y959439D01*
X348055Y959607D01*
X347802Y959780D01*
X347554Y959960D01*
X347310Y960146D01*
X347070Y960337D01*
X346835Y960535D01*
X346606Y960738D01*
X346381Y960947D01*
X346161Y961161D01*
X345947Y961381D01*
X345738Y961606D01*
X345535Y961835D01*
X345337Y962070D01*
X345146Y962310D01*
X344960Y962554D01*
X344780Y962802D01*
X344607Y963055D01*
X344439Y963313D01*
X344278Y963574D01*
X344124Y963839D01*
X343976Y964108D01*
X343835Y964380D01*
X343700Y964656D01*
X343572Y964934D01*
X343452Y965216D01*
X343338Y965501D01*
X343231Y965789D01*
X343131Y966079D01*
X343038Y966371D01*
X342953Y966666D01*
X342875Y966963D01*
X342804Y967261D01*
X342740Y967561D01*
X342684Y967863D01*
X342635Y968166D01*
X342594Y968470D01*
X342560Y968775D01*
X342534Y969080D01*
X342515Y969387D01*
X342504Y969693D01*
X342500Y970000D01*
X342500Y810000D02*
X342504Y810307D01*
X342515Y810613D01*
X342534Y810920D01*
X342560Y811225D01*
X342594Y811530D01*
X342635Y811834D01*
X342684Y812137D01*
X342740Y812439D01*
X342804Y812739D01*
X342875Y813037D01*
X342953Y813334D01*
X343038Y813629D01*
X343131Y813921D01*
X343231Y814211D01*
X343338Y814499D01*
X343452Y814784D01*
X343572Y815066D01*
X343700Y815344D01*
X343835Y815620D01*
X343976Y815892D01*
X344124Y816161D01*
X344278Y816426D01*
X344439Y816687D01*
X344607Y816945D01*
X344780Y817198D01*
X344960Y817446D01*
X345146Y817690D01*
X345337Y817930D01*
X345535Y818165D01*
X345738Y818394D01*
X345947Y818619D01*
X346161Y818839D01*
X346381Y819053D01*
X346606Y819262D01*
X346835Y819465D01*
X347070Y819663D01*
X347310Y819854D01*
X347554Y820040D01*
X347802Y820220D01*
X348055Y820393D01*
X348313Y820561D01*
X348574Y820722D01*
X348839Y820876D01*
X349108Y821024D01*
X349380Y821165D01*
X349656Y821300D01*
X349934Y821428D01*
X350216Y821548D01*
X350501Y821662D01*
X350789Y821769D01*
X351079Y821869D01*
X351371Y821962D01*
X351666Y822047D01*
X351963Y822125D01*
X352261Y822196D01*
X352561Y822260D01*
X352863Y822316D01*
X353166Y822365D01*
X353470Y822406D01*
X353775Y822440D01*
X354080Y822466D01*
X354387Y822485D01*
X354693Y822496D01*
X355000Y822500D01*
X355307Y822496D01*
X355613Y822485D01*
X355920Y822466D01*
X356225Y822440D01*
X356530Y822406D01*
X356834Y822365D01*
X357137Y822316D01*
X357439Y822260D01*
X357739Y822196D01*
X358037Y822125D01*
X358334Y822047D01*
X358629Y821962D01*
X358921Y821869D01*
X359211Y821769D01*
X359499Y821662D01*
X359784Y821548D01*
X360066Y821428D01*
X360344Y821300D01*
X360620Y821165D01*
X360892Y821024D01*
X361161Y820876D01*
X361426Y820722D01*
X361687Y820561D01*
X361945Y820393D01*
X362198Y820220D01*
X362446Y820040D01*
X362690Y819854D01*
X362930Y819663D01*
X363165Y819465D01*
X363394Y819262D01*
X363619Y819053D01*
X363839Y818839D01*
X364053Y818619D01*
X364262Y818394D01*
X364465Y818165D01*
X364663Y817930D01*
X364854Y817690D01*
X365040Y817446D01*
X365220Y817198D01*
X365393Y816945D01*
X365561Y816687D01*
X365722Y816426D01*
X365876Y816161D01*
X366024Y815892D01*
X366165Y815620D01*
X366300Y815344D01*
X366428Y815066D01*
X366548Y814784D01*
X366662Y814499D01*
X366769Y814211D01*
X366869Y813921D01*
X366962Y813629D01*
X367047Y813334D01*
X367125Y813037D01*
X367196Y812739D01*
X367260Y812439D01*
X367316Y812137D01*
X367365Y811834D01*
X367406Y811530D01*
X367440Y811225D01*
X367466Y810920D01*
X367485Y810613D01*
X367496Y810307D01*
X367500Y810000D01*
X367496Y809693D01*
X367485Y809387D01*
X367466Y809080D01*
X367440Y808775D01*
X367406Y808470D01*
X367365Y808166D01*
X367316Y807863D01*
X367260Y807561D01*
X367196Y807261D01*
X367125Y806963D01*
X367047Y806666D01*
X366962Y806371D01*
X366869Y806079D01*
X366769Y805789D01*
X366662Y805501D01*
X366548Y805216D01*
X366428Y804934D01*
X366300Y804656D01*
X366165Y804380D01*
X366024Y804108D01*
X365876Y803839D01*
X365722Y803574D01*
X365561Y803313D01*
X365393Y803055D01*
X365220Y802802D01*
X365040Y802554D01*
X364854Y802310D01*
X364663Y802070D01*
X364465Y801835D01*
X364262Y801606D01*
X364053Y801381D01*
X363839Y801161D01*
X363619Y800947D01*
X363394Y800738D01*
X363165Y800535D01*
X362930Y800337D01*
X362690Y800146D01*
X362446Y799960D01*
X362198Y799780D01*
X361945Y799607D01*
X361687Y799439D01*
X361426Y799278D01*
X361161Y799124D01*
X360892Y798976D01*
X360620Y798835D01*
X360344Y798700D01*
X360066Y798572D01*
X359784Y798452D01*
X359499Y798338D01*
X359211Y798231D01*
X358921Y798131D01*
X358629Y798038D01*
X358334Y797953D01*
X358037Y797875D01*
X357739Y797804D01*
X357439Y797740D01*
X357137Y797684D01*
X356834Y797635D01*
X356530Y797594D01*
X356225Y797560D01*
X355920Y797534D01*
X355613Y797515D01*
X355307Y797504D01*
X355000Y797500D01*
X354693Y797504D01*
X354387Y797515D01*
X354080Y797534D01*
X353775Y797560D01*
X353470Y797594D01*
X353166Y797635D01*
X352863Y797684D01*
X352561Y797740D01*
X352261Y797804D01*
X351963Y797875D01*
X351666Y797953D01*
X351371Y798038D01*
X351079Y798131D01*
X350789Y798231D01*
X350501Y798338D01*
X350216Y798452D01*
X349934Y798572D01*
X349656Y798700D01*
X349380Y798835D01*
X349108Y798976D01*
X348839Y799124D01*
X348574Y799278D01*
X348313Y799439D01*
X348055Y799607D01*
X347802Y799780D01*
X347554Y799960D01*
X347310Y800146D01*
X347070Y800337D01*
X346835Y800535D01*
X346606Y800738D01*
X346381Y800947D01*
X346161Y801161D01*
X345947Y801381D01*
X345738Y801606D01*
X345535Y801835D01*
X345337Y802070D01*
X345146Y802310D01*
X344960Y802554D01*
X344780Y802802D01*
X344607Y803055D01*
X344439Y803313D01*
X344278Y803574D01*
X344124Y803839D01*
X343976Y804108D01*
X343835Y804380D01*
X343700Y804656D01*
X343572Y804934D01*
X343452Y805216D01*
X343338Y805501D01*
X343231Y805789D01*
X343131Y806079D01*
X343038Y806371D01*
X342953Y806666D01*
X342875Y806963D01*
X342804Y807261D01*
X342740Y807561D01*
X342684Y807863D01*
X342635Y808166D01*
X342594Y808470D01*
X342560Y808775D01*
X342534Y809080D01*
X342515Y809387D01*
X342504Y809693D01*
X342500Y810000D01*
X430000Y816000D02*
X530000Y816000D01*
X530000Y956000D01*
X430000Y956000D01*
X430000Y816000D01*
X500000Y941000D02*
X500003Y941245D01*
X500012Y941491D01*
X500027Y941736D01*
X500048Y941980D01*
X500075Y942224D01*
X500108Y942467D01*
X500147Y942710D01*
X500192Y942951D01*
X500243Y943191D01*
X500300Y943430D01*
X500362Y943667D01*
X500431Y943903D01*
X500505Y944137D01*
X500585Y944369D01*
X500670Y944599D01*
X500761Y944827D01*
X500858Y945052D01*
X500960Y945276D01*
X501068Y945496D01*
X501181Y945714D01*
X501299Y945929D01*
X501423Y946141D01*
X501551Y946350D01*
X501685Y946556D01*
X501824Y946758D01*
X501968Y946957D01*
X502117Y947152D01*
X502270Y947344D01*
X502428Y947532D01*
X502590Y947716D01*
X502758Y947895D01*
X502929Y948071D01*
X503105Y948242D01*
X503284Y948410D01*
X503468Y948572D01*
X503656Y948730D01*
X503848Y948883D01*
X504043Y949032D01*
X504242Y949176D01*
X504444Y949315D01*
X504650Y949449D01*
X504859Y949577D01*
X505071Y949701D01*
X505286Y949819D01*
X505504Y949932D01*
X505724Y950040D01*
X505948Y950142D01*
X506173Y950239D01*
X506401Y950330D01*
X506631Y950415D01*
X506863Y950495D01*
X507097Y950569D01*
X507333Y950638D01*
X507570Y950700D01*
X507809Y950757D01*
X508049Y950808D01*
X508290Y950853D01*
X508533Y950892D01*
X508776Y950925D01*
X509020Y950952D01*
X509264Y950973D01*
X509509Y950988D01*
X509755Y950997D01*
X510000Y951000D01*
X510245Y950997D01*
X510491Y950988D01*
X510736Y950973D01*
X510980Y950952D01*
X511224Y950925D01*
X511467Y950892D01*
X511710Y950853D01*
X511951Y950808D01*
X512191Y950757D01*
X512430Y950700D01*
X512667Y950638D01*
X512903Y950569D01*
X513137Y950495D01*
X513369Y950415D01*
X513599Y950330D01*
X513827Y950239D01*
X514052Y950142D01*
X514276Y950040D01*
X514496Y949932D01*
X514714Y949819D01*
X514929Y949701D01*
X515141Y949577D01*
X515350Y949449D01*
X515556Y949315D01*
X515758Y949176D01*
X515957Y949032D01*
X516152Y948883D01*
X516344Y948730D01*
X516532Y948572D01*
X516716Y948410D01*
X516895Y948242D01*
X517071Y948071D01*
X517242Y947895D01*
X517410Y947716D01*
X517572Y947532D01*
X517730Y947344D01*
X517883Y947152D01*
X518032Y946957D01*
X518176Y946758D01*
X518315Y946556D01*
X518449Y946350D01*
X518577Y946141D01*
X518701Y945929D01*
X518819Y945714D01*
X518932Y945496D01*
X519040Y945276D01*
X519142Y945052D01*
X519239Y944827D01*
X519330Y944599D01*
X519415Y944369D01*
X519495Y944137D01*
X519569Y943903D01*
X519638Y943667D01*
X519700Y943430D01*
X519757Y943191D01*
X519808Y942951D01*
X519853Y942710D01*
X519892Y942467D01*
X519925Y942224D01*
X519952Y941980D01*
X519973Y941736D01*
X519988Y941491D01*
X519997Y941245D01*
X520000Y941000D01*
X519997Y940755D01*
X519988Y940509D01*
X519973Y940264D01*
X519952Y940020D01*
X519925Y939776D01*
X519892Y939533D01*
X519853Y939290D01*
X519808Y939049D01*
X519757Y938809D01*
X519700Y938570D01*
X519638Y938333D01*
X519569Y938097D01*
X519495Y937863D01*
X519415Y937631D01*
X519330Y937401D01*
X519239Y937173D01*
X519142Y936948D01*
X519040Y936724D01*
X518932Y936504D01*
X518819Y936286D01*
X518701Y936071D01*
X518577Y935859D01*
X518449Y935650D01*
X518315Y935444D01*
X518176Y935242D01*
X518032Y935043D01*
X517883Y934848D01*
X517730Y934656D01*
X517572Y934468D01*
X517410Y934284D01*
X517242Y934105D01*
X517071Y933929D01*
X516895Y933758D01*
X516716Y933590D01*
X516532Y933428D01*
X516344Y933270D01*
X516152Y933117D01*
X515957Y932968D01*
X515758Y932824D01*
X515556Y932685D01*
X515350Y932551D01*
X515141Y932423D01*
X514929Y932299D01*
X514714Y932181D01*
X514496Y932068D01*
X514276Y931960D01*
X514052Y931858D01*
X513827Y931761D01*
X513599Y931670D01*
X513369Y931585D01*
X513137Y931505D01*
X512903Y931431D01*
X512667Y931362D01*
X512430Y931300D01*
X512191Y931243D01*
X511951Y931192D01*
X511710Y931147D01*
X511467Y931108D01*
X511224Y931075D01*
X510980Y931048D01*
X510736Y931027D01*
X510491Y931012D01*
X510245Y931003D01*
X510000Y931000D01*
X509755Y931003D01*
X509509Y931012D01*
X509264Y931027D01*
X509020Y931048D01*
X508776Y931075D01*
X508533Y931108D01*
X508290Y931147D01*
X508049Y931192D01*
X507809Y931243D01*
X507570Y931300D01*
X507333Y931362D01*
X507097Y931431D01*
X506863Y931505D01*
X506631Y931585D01*
X506401Y931670D01*
X506173Y931761D01*
X505948Y931858D01*
X505724Y931960D01*
X505504Y932068D01*
X505286Y932181D01*
X505071Y932299D01*
X504859Y932423D01*
X504650Y932551D01*
X504444Y932685D01*
X504242Y932824D01*
X504043Y932968D01*
X503848Y933117D01*
X503656Y933270D01*
X503468Y933428D01*
X503284Y933590D01*
X503105Y933758D01*
X502929Y933929D01*
X502758Y934105D01*
X502590Y934284D01*
X502428Y934468D01*
X502270Y934656D01*
X502117Y934848D01*
X501968Y935043D01*
X501824Y935242D01*
X501685Y935444D01*
X501551Y935650D01*
X501423Y935859D01*
X501299Y936071D01*
X501181Y936286D01*
X501068Y936504D01*
X500960Y936724D01*
X500858Y936948D01*
X500761Y937173D01*
X500670Y937401D01*
X500585Y937631D01*
X500505Y937863D01*
X500431Y938097D01*
X500362Y938333D01*
X500300Y938570D01*
X500243Y938809D01*
X500192Y939049D01*
X500147Y939290D01*
X500108Y939533D01*
X500075Y939776D01*
X500048Y940020D01*
X500027Y940264D01*
X500012Y940509D01*
X500003Y940755D01*
X500000Y941000D01*
X192000Y358000D02*
X192005Y358368D01*
X192018Y358736D01*
X192041Y359103D01*
X192072Y359470D01*
X192113Y359836D01*
X192162Y360201D01*
X192221Y360564D01*
X192288Y360926D01*
X192364Y361287D01*
X192450Y361645D01*
X192543Y362001D01*
X192646Y362354D01*
X192757Y362705D01*
X192877Y363053D01*
X193005Y363398D01*
X193142Y363740D01*
X193287Y364079D01*
X193440Y364413D01*
X193602Y364744D01*
X193771Y365071D01*
X193949Y365393D01*
X194134Y365712D01*
X194327Y366025D01*
X194528Y366334D01*
X194736Y366637D01*
X194952Y366935D01*
X195175Y367228D01*
X195405Y367516D01*
X195642Y367798D01*
X195886Y368073D01*
X196136Y368343D01*
X196393Y368607D01*
X196657Y368864D01*
X196927Y369114D01*
X197202Y369358D01*
X197484Y369595D01*
X197772Y369825D01*
X198065Y370048D01*
X198363Y370264D01*
X198666Y370472D01*
X198975Y370673D01*
X199288Y370866D01*
X199607Y371051D01*
X199929Y371229D01*
X200256Y371398D01*
X200587Y371560D01*
X200921Y371713D01*
X201260Y371858D01*
X201602Y371995D01*
X201947Y372123D01*
X202295Y372243D01*
X202646Y372354D01*
X202999Y372457D01*
X203355Y372550D01*
X203713Y372636D01*
X204074Y372712D01*
X204436Y372779D01*
X204799Y372838D01*
X205164Y372887D01*
X205530Y372928D01*
X205897Y372959D01*
X206264Y372982D01*
X206632Y372995D01*
X207000Y373000D01*
X207368Y372995D01*
X207736Y372982D01*
X208103Y372959D01*
X208470Y372928D01*
X208836Y372887D01*
X209201Y372838D01*
X209564Y372779D01*
X209926Y372712D01*
X210287Y372636D01*
X210645Y372550D01*
X211001Y372457D01*
X211354Y372354D01*
X211705Y372243D01*
X212053Y372123D01*
X212398Y371995D01*
X212740Y371858D01*
X213079Y371713D01*
X213413Y371560D01*
X213744Y371398D01*
X214071Y371229D01*
X214393Y371051D01*
X214712Y370866D01*
X215025Y370673D01*
X215334Y370472D01*
X215637Y370264D01*
X215935Y370048D01*
X216228Y369825D01*
X216516Y369595D01*
X216798Y369358D01*
X217073Y369114D01*
X217343Y368864D01*
X217607Y368607D01*
X217864Y368343D01*
X218114Y368073D01*
X218358Y367798D01*
X218595Y367516D01*
X218825Y367228D01*
X219048Y366935D01*
X219264Y366637D01*
X219472Y366334D01*
X219673Y366025D01*
X219866Y365712D01*
X220051Y365393D01*
X220229Y365071D01*
X220398Y364744D01*
X220560Y364413D01*
X220713Y364079D01*
X220858Y363740D01*
X220995Y363398D01*
X221123Y363053D01*
X221243Y362705D01*
X221354Y362354D01*
X221457Y362001D01*
X221550Y361645D01*
X221636Y361287D01*
X221712Y360926D01*
X221779Y360564D01*
X221838Y360201D01*
X221887Y359836D01*
X221928Y359470D01*
X221959Y359103D01*
X221982Y358736D01*
X221995Y358368D01*
X222000Y358000D01*
X221995Y357632D01*
X221982Y357264D01*
X221959Y356897D01*
X221928Y356530D01*
X221887Y356164D01*
X221838Y355799D01*
X221779Y355436D01*
X221712Y355074D01*
X221636Y354713D01*
X221550Y354355D01*
X221457Y353999D01*
X221354Y353646D01*
X221243Y353295D01*
X221123Y352947D01*
X220995Y352602D01*
X220858Y352260D01*
X220713Y351921D01*
X220560Y351587D01*
X220398Y351256D01*
X220229Y350929D01*
X220051Y350607D01*
X219866Y350288D01*
X219673Y349975D01*
X219472Y349666D01*
X219264Y349363D01*
X219048Y349065D01*
X218825Y348772D01*
X218595Y348484D01*
X218358Y348202D01*
X218114Y347927D01*
X217864Y347657D01*
X217607Y347393D01*
X217343Y347136D01*
X217073Y346886D01*
X216798Y346642D01*
X216516Y346405D01*
X216228Y346175D01*
X215935Y345952D01*
X215637Y345736D01*
X215334Y345528D01*
X215025Y345327D01*
X214712Y345134D01*
X214393Y344949D01*
X214071Y344771D01*
X213744Y344602D01*
X213413Y344440D01*
X213079Y344287D01*
X212740Y344142D01*
X212398Y344005D01*
X212053Y343877D01*
X211705Y343757D01*
X211354Y343646D01*
X211001Y343543D01*
X210645Y343450D01*
X210287Y343364D01*
X209926Y343288D01*
X209564Y343221D01*
X209201Y343162D01*
X208836Y343113D01*
X208470Y343072D01*
X208103Y343041D01*
X207736Y343018D01*
X207368Y343005D01*
X207000Y343000D01*
X206632Y343005D01*
X206264Y343018D01*
X205897Y343041D01*
X205530Y343072D01*
X205164Y343113D01*
X204799Y343162D01*
X204436Y343221D01*
X204074Y343288D01*
X203713Y343364D01*
X203355Y343450D01*
X202999Y343543D01*
X202646Y343646D01*
X202295Y343757D01*
X201947Y343877D01*
X201602Y344005D01*
X201260Y344142D01*
X200921Y344287D01*
X200587Y344440D01*
X200256Y344602D01*
X199929Y344771D01*
X199607Y344949D01*
X199288Y345134D01*
X198975Y345327D01*
X198666Y345528D01*
X198363Y345736D01*
X198065Y345952D01*
X197772Y346175D01*
X197484Y346405D01*
X197202Y346642D01*
X196927Y346886D01*
X196657Y347136D01*
X196393Y347393D01*
X196136Y347657D01*
X195886Y347927D01*
X195642Y348202D01*
X195405Y348484D01*
X195175Y348772D01*
X194952Y349065D01*
X194736Y349363D01*
X194528Y349666D01*
X194327Y349975D01*
X194134Y350288D01*
X193949Y350607D01*
X193771Y350929D01*
X193602Y351256D01*
X193440Y351587D01*
X193287Y351921D01*
X193142Y352260D01*
X193005Y352602D01*
X192877Y352947D01*
X192757Y353295D01*
X192646Y353646D01*
X192543Y353999D01*
X192450Y354355D01*
X192364Y354713D01*
X192288Y355074D01*
X192221Y355436D01*
X192162Y355799D01*
X192113Y356164D01*
X192072Y356530D01*
X192041Y356897D01*
X192018Y357264D01*
X192005Y357632D01*
X192000Y358000D01*
X192000Y572000D02*
X192005Y572368D01*
X192018Y572736D01*
X192041Y573103D01*
X192072Y573470D01*
X192113Y573836D01*
X192162Y574201D01*
X192221Y574564D01*
X192288Y574926D01*
X192364Y575287D01*
X192450Y575645D01*
X192543Y576001D01*
X192646Y576354D01*
X192757Y576705D01*
X192877Y577053D01*
X193005Y577398D01*
X193142Y577740D01*
X193287Y578079D01*
X193440Y578413D01*
X193602Y578744D01*
X193771Y579071D01*
X193949Y579393D01*
X194134Y579712D01*
X194327Y580025D01*
X194528Y580334D01*
X194736Y580637D01*
X194952Y580935D01*
X195175Y581228D01*
X195405Y581516D01*
X195642Y581798D01*
X195886Y582073D01*
X196136Y582343D01*
X196393Y582607D01*
X196657Y582864D01*
X196927Y583114D01*
X197202Y583358D01*
X197484Y583595D01*
X197772Y583825D01*
X198065Y584048D01*
X198363Y584264D01*
X198666Y584472D01*
X198975Y584673D01*
X199288Y584866D01*
X199607Y585051D01*
X199929Y585229D01*
X200256Y585398D01*
X200587Y585560D01*
X200921Y585713D01*
X201260Y585858D01*
X201602Y585995D01*
X201947Y586123D01*
X202295Y586243D01*
X202646Y586354D01*
X202999Y586457D01*
X203355Y586550D01*
X203713Y586636D01*
X204074Y586712D01*
X204436Y586779D01*
X204799Y586838D01*
X205164Y586887D01*
X205530Y586928D01*
X205897Y586959D01*
X206264Y586982D01*
X206632Y586995D01*
X207000Y587000D01*
X207368Y586995D01*
X207736Y586982D01*
X208103Y586959D01*
X208470Y586928D01*
X208836Y586887D01*
X209201Y586838D01*
X209564Y586779D01*
X209926Y586712D01*
X210287Y586636D01*
X210645Y586550D01*
X211001Y586457D01*
X211354Y586354D01*
X211705Y586243D01*
X212053Y586123D01*
X212398Y585995D01*
X212740Y585858D01*
X213079Y585713D01*
X213413Y585560D01*
X213744Y585398D01*
X214071Y585229D01*
X214393Y585051D01*
X214712Y584866D01*
X215025Y584673D01*
X215334Y584472D01*
X215637Y584264D01*
X215935Y584048D01*
X216228Y583825D01*
X216516Y583595D01*
X216798Y583358D01*
X217073Y583114D01*
X217343Y582864D01*
X217607Y582607D01*
X217864Y582343D01*
X218114Y582073D01*
X218358Y581798D01*
X218595Y581516D01*
X218825Y581228D01*
X219048Y580935D01*
X219264Y580637D01*
X219472Y580334D01*
X219673Y580025D01*
X219866Y579712D01*
X220051Y579393D01*
X220229Y579071D01*
X220398Y578744D01*
X220560Y578413D01*
X220713Y578079D01*
X220858Y577740D01*
X220995Y577398D01*
X221123Y577053D01*
X221243Y576705D01*
X221354Y576354D01*
X221457Y576001D01*
X221550Y575645D01*
X221636Y575287D01*
X221712Y574926D01*
X221779Y574564D01*
X221838Y574201D01*
X221887Y573836D01*
X221928Y573470D01*
X221959Y573103D01*
X221982Y572736D01*
X221995Y572368D01*
X222000Y572000D01*
X221995Y571632D01*
X221982Y571264D01*
X221959Y570897D01*
X221928Y570530D01*
X221887Y570164D01*
X221838Y569799D01*
X221779Y569436D01*
X221712Y569074D01*
X221636Y568713D01*
X221550Y568355D01*
X221457Y567999D01*
X221354Y567646D01*
X221243Y567295D01*
X221123Y566947D01*
X220995Y566602D01*
X220858Y566260D01*
X220713Y565921D01*
X220560Y565587D01*
X220398Y565256D01*
X220229Y564929D01*
X220051Y564607D01*
X219866Y564288D01*
X219673Y563975D01*
X219472Y563666D01*
X219264Y563363D01*
X219048Y563065D01*
X218825Y562772D01*
X218595Y562484D01*
X218358Y562202D01*
X218114Y561927D01*
X217864Y561657D01*
X217607Y561393D01*
X217343Y561136D01*
X217073Y560886D01*
X216798Y560642D01*
X216516Y560405D01*
X216228Y560175D01*
X215935Y559952D01*
X215637Y559736D01*
X215334Y559528D01*
X215025Y559327D01*
X214712Y559134D01*
X214393Y558949D01*
X214071Y558771D01*
X213744Y558602D01*
X213413Y558440D01*
X213079Y558287D01*
X212740Y558142D01*
X212398Y558005D01*
X212053Y557877D01*
X211705Y557757D01*
X211354Y557646D01*
X211001Y557543D01*
X210645Y557450D01*
X210287Y557364D01*
X209926Y557288D01*
X209564Y557221D01*
X209201Y557162D01*
X208836Y557113D01*
X208470Y557072D01*
X208103Y557041D01*
X207736Y557018D01*
X207368Y557005D01*
X207000Y557000D01*
X206632Y557005D01*
X206264Y557018D01*
X205897Y557041D01*
X205530Y557072D01*
X205164Y557113D01*
X204799Y557162D01*
X204436Y557221D01*
X204074Y557288D01*
X203713Y557364D01*
X203355Y557450D01*
X202999Y557543D01*
X202646Y557646D01*
X202295Y557757D01*
X201947Y557877D01*
X201602Y558005D01*
X201260Y558142D01*
X200921Y558287D01*
X200587Y558440D01*
X200256Y558602D01*
X199929Y558771D01*
X199607Y558949D01*
X199288Y559134D01*
X198975Y559327D01*
X198666Y559528D01*
X198363Y559736D01*
X198065Y559952D01*
X197772Y560175D01*
X197484Y560405D01*
X197202Y560642D01*
X196927Y560886D01*
X196657Y561136D01*
X196393Y561393D01*
X196136Y561657D01*
X195886Y561927D01*
X195642Y562202D01*
X195405Y562484D01*
X195175Y562772D01*
X194952Y563065D01*
X194736Y563363D01*
X194528Y563666D01*
X194327Y563975D01*
X194134Y564288D01*
X193949Y564607D01*
X193771Y564929D01*
X193602Y565256D01*
X193440Y565587D01*
X193287Y565921D01*
X193142Y566260D01*
X193005Y566602D01*
X192877Y566947D01*
X192757Y567295D01*
X192646Y567646D01*
X192543Y567999D01*
X192450Y568355D01*
X192364Y568713D01*
X192288Y569074D01*
X192221Y569436D01*
X192162Y569799D01*
X192113Y570164D01*
X192072Y570530D01*
X192041Y570897D01*
X192018Y571264D01*
X192005Y571632D01*
X192000Y572000D01*
X506000Y572000D02*
X506005Y572368D01*
X506018Y572736D01*
X506041Y573103D01*
X506072Y573470D01*
X506113Y573836D01*
X506162Y574201D01*
X506221Y574564D01*
X506288Y574926D01*
X506364Y575287D01*
X506450Y575645D01*
X506543Y576001D01*
X506646Y576354D01*
X506757Y576705D01*
X506877Y577053D01*
X507005Y577398D01*
X507142Y577740D01*
X507287Y578079D01*
X507440Y578413D01*
X507602Y578744D01*
X507771Y579071D01*
X507949Y579393D01*
X508134Y579712D01*
X508327Y580025D01*
X508528Y580334D01*
X508736Y580637D01*
X508952Y580935D01*
X509175Y581228D01*
X509405Y581516D01*
X509642Y581798D01*
X509886Y582073D01*
X510136Y582343D01*
X510393Y582607D01*
X510657Y582864D01*
X510927Y583114D01*
X511202Y583358D01*
X511484Y583595D01*
X511772Y583825D01*
X512065Y584048D01*
X512363Y584264D01*
X512666Y584472D01*
X512975Y584673D01*
X513288Y584866D01*
X513607Y585051D01*
X513929Y585229D01*
X514256Y585398D01*
X514587Y585560D01*
X514921Y585713D01*
X515260Y585858D01*
X515602Y585995D01*
X515947Y586123D01*
X516295Y586243D01*
X516646Y586354D01*
X516999Y586457D01*
X517355Y586550D01*
X517713Y586636D01*
X518074Y586712D01*
X518436Y586779D01*
X518799Y586838D01*
X519164Y586887D01*
X519530Y586928D01*
X519897Y586959D01*
X520264Y586982D01*
X520632Y586995D01*
X521000Y587000D01*
X521368Y586995D01*
X521736Y586982D01*
X522103Y586959D01*
X522470Y586928D01*
X522836Y586887D01*
X523201Y586838D01*
X523564Y586779D01*
X523926Y586712D01*
X524287Y586636D01*
X524645Y586550D01*
X525001Y586457D01*
X525354Y586354D01*
X525705Y586243D01*
X526053Y586123D01*
X526398Y585995D01*
X526740Y585858D01*
X527079Y585713D01*
X527413Y585560D01*
X527744Y585398D01*
X528071Y585229D01*
X528393Y585051D01*
X528712Y584866D01*
X529025Y584673D01*
X529334Y584472D01*
X529637Y584264D01*
X529935Y584048D01*
X530228Y583825D01*
X530516Y583595D01*
X530798Y583358D01*
X531073Y583114D01*
X531343Y582864D01*
X531607Y582607D01*
X531864Y582343D01*
X532114Y582073D01*
X532358Y581798D01*
X532595Y581516D01*
X532825Y581228D01*
X533048Y580935D01*
X533264Y580637D01*
X533472Y580334D01*
X533673Y580025D01*
X533866Y579712D01*
X534051Y579393D01*
X534229Y579071D01*
X534398Y578744D01*
X534560Y578413D01*
X534713Y578079D01*
X534858Y577740D01*
X534995Y577398D01*
X535123Y577053D01*
X535243Y576705D01*
X535354Y576354D01*
X535457Y576001D01*
X535550Y575645D01*
X535636Y575287D01*
X535712Y574926D01*
X535779Y574564D01*
X535838Y574201D01*
X535887Y573836D01*
X535928Y573470D01*
X535959Y573103D01*
X535982Y572736D01*
X535995Y572368D01*
X536000Y572000D01*
X535995Y571632D01*
X535982Y571264D01*
X535959Y570897D01*
X535928Y570530D01*
X535887Y570164D01*
X535838Y569799D01*
X535779Y569436D01*
X535712Y569074D01*
X535636Y568713D01*
X535550Y568355D01*
X535457Y567999D01*
X535354Y567646D01*
X535243Y567295D01*
X535123Y566947D01*
X534995Y566602D01*
X534858Y566260D01*
X534713Y565921D01*
X534560Y565587D01*
X534398Y565256D01*
X534229Y564929D01*
X534051Y564607D01*
X533866Y564288D01*
X533673Y563975D01*
X533472Y563666D01*
X533264Y563363D01*
X533048Y563065D01*
X532825Y562772D01*
X532595Y562484D01*
X532358Y562202D01*
X532114Y561927D01*
X531864Y561657D01*
X531607Y561393D01*
X531343Y561136D01*
X531073Y560886D01*
X530798Y560642D01*
X530516Y560405D01*
X530228Y560175D01*
X529935Y559952D01*
X529637Y559736D01*
X529334Y559528D01*
X529025Y559327D01*
X528712Y559134D01*
X528393Y558949D01*
X528071Y558771D01*
X527744Y558602D01*
X527413Y558440D01*
X527079Y558287D01*
X526740Y558142D01*
X526398Y558005D01*
X526053Y557877D01*
X525705Y557757D01*
X525354Y557646D01*
X525001Y557543D01*
X524645Y557450D01*
X524287Y557364D01*
X523926Y557288D01*
X523564Y557221D01*
X523201Y557162D01*
X522836Y557113D01*
X522470Y557072D01*
X522103Y557041D01*
X521736Y557018D01*
X521368Y557005D01*
X521000Y557000D01*
X520632Y557005D01*
X520264Y557018D01*
X519897Y557041D01*
X519530Y557072D01*
X519164Y557113D01*
X518799Y557162D01*
X518436Y557221D01*
X518074Y557288D01*
X517713Y557364D01*
X517355Y557450D01*
X516999Y557543D01*
X516646Y557646D01*
X516295Y557757D01*
X515947Y557877D01*
X515602Y558005D01*
X515260Y558142D01*
X514921Y558287D01*
X514587Y558440D01*
X514256Y558602D01*
X513929Y558771D01*
X513607Y558949D01*
X513288Y559134D01*
X512975Y559327D01*
X512666Y559528D01*
X512363Y559736D01*
X512065Y559952D01*
X511772Y560175D01*
X511484Y560405D01*
X511202Y560642D01*
X510927Y560886D01*
X510657Y561136D01*
X510393Y561393D01*
X510136Y561657D01*
X509886Y561927D01*
X509642Y562202D01*
X509405Y562484D01*
X509175Y562772D01*
X508952Y563065D01*
X508736Y563363D01*
X508528Y563666D01*
X508327Y563975D01*
X508134Y564288D01*
X507949Y564607D01*
X507771Y564929D01*
X507602Y565256D01*
X507440Y565587D01*
X507287Y565921D01*
X507142Y566260D01*
X507005Y566602D01*
X506877Y566947D01*
X506757Y567295D01*
X506646Y567646D01*
X506543Y567999D01*
X506450Y568355D01*
X506364Y568713D01*
X506288Y569074D01*
X506221Y569436D01*
X506162Y569799D01*
X506113Y570164D01*
X506072Y570530D01*
X506041Y570897D01*
X506018Y571264D01*
X506005Y571632D01*
X506000Y572000D01*
X506000Y358000D02*
X506005Y358368D01*
X506018Y358736D01*
X506041Y359103D01*
X506072Y359470D01*
X506113Y359836D01*
X506162Y360201D01*
X506221Y360564D01*
X506288Y360926D01*
X506364Y361287D01*
X506450Y361645D01*
X506543Y362001D01*
X506646Y362354D01*
X506757Y362705D01*
X506877Y363053D01*
X507005Y363398D01*
X507142Y363740D01*
X507287Y364079D01*
X507440Y364413D01*
X507602Y364744D01*
X507771Y365071D01*
X507949Y365393D01*
X508134Y365712D01*
X508327Y366025D01*
X508528Y366334D01*
X508736Y366637D01*
X508952Y366935D01*
X509175Y367228D01*
X509405Y367516D01*
X509642Y367798D01*
X509886Y368073D01*
X510136Y368343D01*
X510393Y368607D01*
X510657Y368864D01*
X510927Y369114D01*
X511202Y369358D01*
X511484Y369595D01*
X511772Y369825D01*
X512065Y370048D01*
X512363Y370264D01*
X512666Y370472D01*
X512975Y370673D01*
X513288Y370866D01*
X513607Y371051D01*
X513929Y371229D01*
X514256Y371398D01*
X514587Y371560D01*
X514921Y371713D01*
X515260Y371858D01*
X515602Y371995D01*
X515947Y372123D01*
X516295Y372243D01*
X516646Y372354D01*
X516999Y372457D01*
X517355Y372550D01*
X517713Y372636D01*
X518074Y372712D01*
X518436Y372779D01*
X518799Y372838D01*
X519164Y372887D01*
X519530Y372928D01*
X519897Y372959D01*
X520264Y372982D01*
X520632Y372995D01*
X521000Y373000D01*
X521368Y372995D01*
X521736Y372982D01*
X522103Y372959D01*
X522470Y372928D01*
X522836Y372887D01*
X523201Y372838D01*
X523564Y372779D01*
X523926Y372712D01*
X524287Y372636D01*
X524645Y372550D01*
X525001Y372457D01*
X525354Y372354D01*
X525705Y372243D01*
X526053Y372123D01*
X526398Y371995D01*
X526740Y371858D01*
X527079Y371713D01*
X527413Y371560D01*
X527744Y371398D01*
X528071Y371229D01*
X528393Y371051D01*
X528712Y370866D01*
X529025Y370673D01*
X529334Y370472D01*
X529637Y370264D01*
X529935Y370048D01*
X530228Y369825D01*
X530516Y369595D01*
X530798Y369358D01*
X531073Y369114D01*
X531343Y368864D01*
X531607Y368607D01*
X531864Y368343D01*
X532114Y368073D01*
X532358Y367798D01*
X532595Y367516D01*
X532825Y367228D01*
X533048Y366935D01*
X533264Y366637D01*
X533472Y366334D01*
X533673Y366025D01*
X533866Y365712D01*
X534051Y365393D01*
X534229Y365071D01*
X534398Y364744D01*
X534560Y364413D01*
X534713Y364079D01*
X534858Y363740D01*
X534995Y363398D01*
X535123Y363053D01*
X535243Y362705D01*
X535354Y362354D01*
X535457Y362001D01*
X535550Y361645D01*
X535636Y361287D01*
X535712Y360926D01*
X535779Y360564D01*
X535838Y360201D01*
X535887Y359836D01*
X535928Y359470D01*
X535959Y359103D01*
X535982Y358736D01*
X535995Y358368D01*
X536000Y358000D01*
X535995Y357632D01*
X535982Y357264D01*
X535959Y356897D01*
X535928Y356530D01*
X535887Y356164D01*
X535838Y355799D01*
X535779Y355436D01*
X535712Y355074D01*
X535636Y354713D01*
X535550Y354355D01*
X535457Y353999D01*
X535354Y353646D01*
X535243Y353295D01*
X535123Y352947D01*
X534995Y352602D01*
X534858Y352260D01*
X534713Y351921D01*
X534560Y351587D01*
X534398Y351256D01*
X534229Y350929D01*
X534051Y350607D01*
X533866Y350288D01*
X533673Y349975D01*
X533472Y349666D01*
X533264Y349363D01*
X533048Y349065D01*
X532825Y348772D01*
X532595Y348484D01*
X532358Y348202D01*
X532114Y347927D01*
X531864Y347657D01*
X531607Y347393D01*
X531343Y347136D01*
X531073Y346886D01*
X530798Y346642D01*
X530516Y346405D01*
X530228Y346175D01*
X529935Y345952D01*
X529637Y345736D01*
X529334Y345528D01*
X529025Y345327D01*
X528712Y345134D01*
X528393Y344949D01*
X528071Y344771D01*
X527744Y344602D01*
X527413Y344440D01*
X527079Y344287D01*
X526740Y344142D01*
X526398Y344005D01*
X526053Y343877D01*
X525705Y343757D01*
X525354Y343646D01*
X525001Y343543D01*
X524645Y343450D01*
X524287Y343364D01*
X523926Y343288D01*
X523564Y343221D01*
X523201Y343162D01*
X522836Y343113D01*
X522470Y343072D01*
X522103Y343041D01*
X521736Y343018D01*
X521368Y343005D01*
X521000Y343000D01*
X520632Y343005D01*
X520264Y343018D01*
X519897Y343041D01*
X519530Y343072D01*
X519164Y343113D01*
X518799Y343162D01*
X518436Y343221D01*
X518074Y343288D01*
X517713Y343364D01*
X517355Y343450D01*
X516999Y343543D01*
X516646Y343646D01*
X516295Y343757D01*
X515947Y343877D01*
X515602Y344005D01*
X515260Y344142D01*
X514921Y344287D01*
X514587Y344440D01*
X514256Y344602D01*
X513929Y344771D01*
X513607Y344949D01*
X513288Y345134D01*
X512975Y345327D01*
X512666Y345528D01*
X512363Y345736D01*
X512065Y345952D01*
X511772Y346175D01*
X511484Y346405D01*
X511202Y346642D01*
X510927Y346886D01*
X510657Y347136D01*
X510393Y347393D01*
X510136Y347657D01*
X509886Y347927D01*
X509642Y348202D01*
X509405Y348484D01*
X509175Y348772D01*
X508952Y349065D01*
X508736Y349363D01*
X508528Y349666D01*
X508327Y349975D01*
X508134Y350288D01*
X507949Y350607D01*
X507771Y350929D01*
X507602Y351256D01*
X507440Y351587D01*
X507287Y351921D01*
X507142Y352260D01*
X507005Y352602D01*
X506877Y352947D01*
X506757Y353295D01*
X506646Y353646D01*
X506543Y353999D01*
X506450Y354355D01*
X506364Y354713D01*
X506288Y355074D01*
X506221Y355436D01*
X506162Y355799D01*
X506113Y356164D01*
X506072Y356530D01*
X506041Y356897D01*
X506018Y357264D01*
X506005Y357632D01*
X506000Y358000D01*
X186200Y935000D02*
X186202Y935184D01*
X186209Y935368D01*
X186220Y935552D01*
X186236Y935735D01*
X186256Y935918D01*
X186281Y936100D01*
X186310Y936282D01*
X186344Y936463D01*
X186382Y936643D01*
X186425Y936822D01*
X186472Y937000D01*
X186523Y937177D01*
X186579Y937353D01*
X186638Y937527D01*
X186703Y937699D01*
X186771Y937870D01*
X186843Y938039D01*
X186920Y938207D01*
X187001Y938372D01*
X187086Y938535D01*
X187174Y938697D01*
X187267Y938856D01*
X187364Y939012D01*
X187464Y939167D01*
X187568Y939319D01*
X187676Y939468D01*
X187787Y939614D01*
X187902Y939758D01*
X188021Y939899D01*
X188143Y940037D01*
X188268Y940172D01*
X188397Y940303D01*
X188528Y940432D01*
X188663Y940557D01*
X188801Y940679D01*
X188942Y940798D01*
X189086Y940913D01*
X189232Y941024D01*
X189381Y941132D01*
X189533Y941236D01*
X189688Y941336D01*
X189844Y941433D01*
X190003Y941526D01*
X190165Y941614D01*
X190328Y941699D01*
X190493Y941780D01*
X190661Y941857D01*
X190830Y941929D01*
X191001Y941997D01*
X191173Y942062D01*
X191347Y942121D01*
X191523Y942177D01*
X191700Y942228D01*
X191878Y942275D01*
X192057Y942318D01*
X192237Y942356D01*
X192418Y942390D01*
X192600Y942419D01*
X192782Y942444D01*
X192965Y942464D01*
X193148Y942480D01*
X193332Y942491D01*
X193516Y942498D01*
X193700Y942500D01*
X193884Y942498D01*
X194068Y942491D01*
X194252Y942480D01*
X194435Y942464D01*
X194618Y942444D01*
X194800Y942419D01*
X194982Y942390D01*
X195163Y942356D01*
X195343Y942318D01*
X195522Y942275D01*
X195700Y942228D01*
X195877Y942177D01*
X196053Y942121D01*
X196227Y942062D01*
X196399Y941997D01*
X196570Y941929D01*
X196739Y941857D01*
X196907Y941780D01*
X197072Y941699D01*
X197235Y941614D01*
X197397Y941526D01*
X197556Y941433D01*
X197712Y941336D01*
X197867Y941236D01*
X198019Y941132D01*
X198168Y941024D01*
X198314Y940913D01*
X198458Y940798D01*
X198599Y940679D01*
X198737Y940557D01*
X198872Y940432D01*
X199003Y940303D01*
X199132Y940172D01*
X199257Y940037D01*
X199379Y939899D01*
X199498Y939758D01*
X199613Y939614D01*
X199724Y939468D01*
X199832Y939319D01*
X199936Y939167D01*
X200036Y939012D01*
X200133Y938856D01*
X200226Y938697D01*
X200314Y938535D01*
X200399Y938372D01*
X200480Y938207D01*
X200557Y938039D01*
X200629Y937870D01*
X200697Y937699D01*
X200762Y937527D01*
X200821Y937353D01*
X200877Y937177D01*
X200928Y937000D01*
X200975Y936822D01*
X201018Y936643D01*
X201056Y936463D01*
X201090Y936282D01*
X201119Y936100D01*
X201144Y935918D01*
X201164Y935735D01*
X201180Y935552D01*
X201191Y935368D01*
X201198Y935184D01*
X201200Y935000D01*
X201198Y934816D01*
X201191Y934632D01*
X201180Y934448D01*
X201164Y934265D01*
X201144Y934082D01*
X201119Y933900D01*
X201090Y933718D01*
X201056Y933537D01*
X201018Y933357D01*
X200975Y933178D01*
X200928Y933000D01*
X200877Y932823D01*
X200821Y932647D01*
X200762Y932473D01*
X200697Y932301D01*
X200629Y932130D01*
X200557Y931961D01*
X200480Y931793D01*
X200399Y931628D01*
X200314Y931465D01*
X200226Y931303D01*
X200133Y931144D01*
X200036Y930988D01*
X199936Y930833D01*
X199832Y930681D01*
X199724Y930532D01*
X199613Y930386D01*
X199498Y930242D01*
X199379Y930101D01*
X199257Y929963D01*
X199132Y929828D01*
X199003Y929697D01*
X198872Y929568D01*
X198737Y929443D01*
X198599Y929321D01*
X198458Y929202D01*
X198314Y929087D01*
X198168Y928976D01*
X198019Y928868D01*
X197867Y928764D01*
X197712Y928664D01*
X197556Y928567D01*
X197397Y928474D01*
X197235Y928386D01*
X197072Y928301D01*
X196907Y928220D01*
X196739Y928143D01*
X196570Y928071D01*
X196399Y928003D01*
X196227Y927938D01*
X196053Y927879D01*
X195877Y927823D01*
X195700Y927772D01*
X195522Y927725D01*
X195343Y927682D01*
X195163Y927644D01*
X194982Y927610D01*
X194800Y927581D01*
X194618Y927556D01*
X194435Y927536D01*
X194252Y927520D01*
X194068Y927509D01*
X193884Y927502D01*
X193700Y927500D01*
X193516Y927502D01*
X193332Y927509D01*
X193148Y927520D01*
X192965Y927536D01*
X192782Y927556D01*
X192600Y927581D01*
X192418Y927610D01*
X192237Y927644D01*
X192057Y927682D01*
X191878Y927725D01*
X191700Y927772D01*
X191523Y927823D01*
X191347Y927879D01*
X191173Y927938D01*
X191001Y928003D01*
X190830Y928071D01*
X190661Y928143D01*
X190493Y928220D01*
X190328Y928301D01*
X190165Y928386D01*
X190003Y928474D01*
X189844Y928567D01*
X189688Y928664D01*
X189533Y928764D01*
X189381Y928868D01*
X189232Y928976D01*
X189086Y929087D01*
X188942Y929202D01*
X188801Y929321D01*
X188663Y929443D01*
X188528Y929568D01*
X188397Y929697D01*
X188268Y929828D01*
X188143Y929963D01*
X188021Y930101D01*
X187902Y930242D01*
X187787Y930386D01*
X187676Y930532D01*
X187568Y930681D01*
X187464Y930833D01*
X187364Y930988D01*
X187267Y931144D01*
X187174Y931303D01*
X187086Y931465D01*
X187001Y931628D01*
X186920Y931793D01*
X186843Y931961D01*
X186771Y932130D01*
X186703Y932301D01*
X186638Y932473D01*
X186579Y932647D01*
X186523Y932823D01*
X186472Y933000D01*
X186425Y933178D01*
X186382Y933357D01*
X186344Y933537D01*
X186310Y933718D01*
X186281Y933900D01*
X186256Y934082D01*
X186236Y934265D01*
X186220Y934448D01*
X186209Y934632D01*
X186202Y934816D01*
X186200Y935000D01*
M02*
