G04 EAGLE Gerber RS-274X export*
G75*
%MOMM*%
%FSLAX34Y34*%
%LPD*%
%INSolderpaste Bottom*%
%IPPOS*%
%AMOC8*
5,1,8,0,0,1.08239X$1,22.5*%
G01*
%ADD10R,0.560000X0.730000*%
%ADD11R,1.000000X1.100000*%
%ADD12R,1.260000X0.360000*%
%ADD13R,3.200000X1.800000*%
%ADD14R,1.780000X0.720000*%
%ADD15R,1.100000X1.000000*%
%ADD16R,0.720000X1.780000*%
%ADD17R,0.600000X0.600000*%
%ADD18R,0.900000X0.400000*%
%ADD19R,0.400000X1.200000*%
%ADD20R,1.800000X1.600000*%
%ADD21R,1.600000X1.800000*%
%ADD22R,2.800000X1.400000*%
%ADD23R,1.200000X0.400000*%
%ADD24R,1.400000X2.800000*%
%ADD25R,0.800000X0.800000*%
%ADD26R,1.400000X0.635000*%


D10*
X177623Y1425058D03*
X187123Y1445058D03*
X168123Y1445058D03*
D11*
X169500Y1460000D03*
X186500Y1460000D03*
X186500Y1481000D03*
X169500Y1481000D03*
X292500Y1564000D03*
X309500Y1564000D03*
X292500Y1586000D03*
X309500Y1586000D03*
D12*
X261000Y1368750D03*
X261000Y1362250D03*
X261000Y1355750D03*
X261000Y1349250D03*
X261000Y1342750D03*
X261000Y1336250D03*
X261000Y1329750D03*
X261000Y1323250D03*
X203000Y1323250D03*
X203000Y1329750D03*
X203000Y1336250D03*
X203000Y1342750D03*
X203000Y1349250D03*
X203000Y1355750D03*
X203000Y1362250D03*
X203000Y1368750D03*
D11*
X219500Y1545000D03*
X236500Y1545000D03*
X219500Y1605000D03*
X236500Y1605000D03*
X223000Y1564500D03*
X223000Y1581500D03*
D13*
X192000Y1603000D03*
X192000Y1547000D03*
D14*
X366300Y1703050D03*
X366300Y1690350D03*
X366300Y1677650D03*
X366300Y1664950D03*
X301700Y1664950D03*
X301700Y1677650D03*
X301700Y1690350D03*
X301700Y1703050D03*
D15*
X388000Y1691500D03*
X388000Y1708500D03*
X409000Y1708500D03*
X409000Y1691500D03*
X388000Y1660500D03*
X388000Y1677500D03*
X409000Y1677500D03*
X409000Y1660500D03*
D16*
X458950Y1252300D03*
X471650Y1252300D03*
X484350Y1252300D03*
X497050Y1252300D03*
X497050Y1187700D03*
X484350Y1187700D03*
X471650Y1187700D03*
X458950Y1187700D03*
D17*
X478500Y1295000D03*
X488000Y1295000D03*
X497500Y1295000D03*
X497500Y1269000D03*
X488000Y1269000D03*
X478500Y1269000D03*
D15*
X440000Y1235500D03*
X440000Y1252500D03*
X515000Y1235500D03*
X515000Y1252500D03*
X461000Y1275500D03*
X461000Y1292500D03*
X515000Y1275500D03*
X515000Y1292500D03*
D11*
X474500Y1311000D03*
X457500Y1311000D03*
X501500Y1310000D03*
X518500Y1310000D03*
D16*
X500050Y1453700D03*
X487350Y1453700D03*
X474650Y1453700D03*
X461950Y1453700D03*
X461950Y1518300D03*
X474650Y1518300D03*
X487350Y1518300D03*
X500050Y1518300D03*
D17*
X480500Y1411000D03*
X471000Y1411000D03*
X461500Y1411000D03*
X461500Y1437000D03*
X471000Y1437000D03*
X480500Y1437000D03*
D15*
X519000Y1470500D03*
X519000Y1453500D03*
X444000Y1470500D03*
X444000Y1453500D03*
X498000Y1430500D03*
X498000Y1413500D03*
X444000Y1430500D03*
X444000Y1413500D03*
D11*
X484500Y1396000D03*
X501500Y1396000D03*
X457500Y1396000D03*
X440500Y1396000D03*
X169500Y1350000D03*
X186500Y1350000D03*
D18*
X239000Y1569250D03*
X239000Y1575750D03*
X239000Y1582250D03*
X239000Y1588750D03*
X265000Y1588750D03*
X265000Y1582250D03*
X265000Y1575750D03*
X265000Y1569250D03*
D19*
X566750Y460000D03*
X560250Y460000D03*
X553750Y460000D03*
X547250Y460000D03*
X547250Y486000D03*
X553750Y486000D03*
X560250Y486000D03*
X566750Y486000D03*
D11*
X589000Y458500D03*
X589000Y475500D03*
D15*
X591000Y415500D03*
X591000Y398500D03*
D20*
X354000Y495000D03*
X354000Y523000D03*
D11*
X378000Y500500D03*
X378000Y517500D03*
D15*
X507500Y502000D03*
X524500Y502000D03*
D11*
X571500Y518000D03*
X588500Y518000D03*
X556500Y518000D03*
X539500Y518000D03*
D15*
X539500Y539000D03*
X556500Y539000D03*
D21*
X504000Y422000D03*
X476000Y422000D03*
X504000Y400000D03*
X476000Y400000D03*
D22*
X465000Y471000D03*
X465000Y515000D03*
D23*
X316000Y524750D03*
X316000Y518250D03*
X316000Y511750D03*
X316000Y505250D03*
X290000Y505250D03*
X290000Y511750D03*
X290000Y518250D03*
X290000Y524750D03*
D15*
X317500Y547000D03*
X300500Y547000D03*
D11*
X360500Y548000D03*
X377500Y548000D03*
D21*
X537200Y421600D03*
X565200Y421600D03*
D15*
X542600Y399600D03*
X559600Y399600D03*
D11*
X274000Y464500D03*
X274000Y481500D03*
D15*
X258000Y529500D03*
X258000Y546500D03*
X258000Y513500D03*
X258000Y496500D03*
D11*
X237000Y496500D03*
X237000Y513500D03*
D20*
X375500Y462000D03*
X375500Y434000D03*
X353500Y462000D03*
X353500Y434000D03*
D24*
X305000Y423000D03*
X261000Y423000D03*
D25*
X25000Y292500D03*
X25000Y277500D03*
D15*
X41000Y276500D03*
X41000Y293500D03*
D25*
X25000Y326500D03*
X25000Y311500D03*
D15*
X41000Y310500D03*
X41000Y327500D03*
X307800Y881700D03*
X324800Y881700D03*
X183700Y910500D03*
X200700Y910500D03*
D11*
X281800Y892500D03*
X264800Y892500D03*
X286900Y859500D03*
X269900Y859500D03*
D15*
X240500Y909100D03*
X240500Y892100D03*
X273500Y928900D03*
X273500Y911900D03*
D11*
X318700Y859500D03*
X301700Y859500D03*
X277000Y947500D03*
X260000Y947500D03*
D26*
X305000Y901700D03*
X305000Y914400D03*
X305000Y927100D03*
X305000Y939800D03*
X357000Y939800D03*
X357000Y927100D03*
X357000Y914400D03*
X357000Y901700D03*
X218800Y888300D03*
X218800Y875600D03*
X218800Y862900D03*
X218800Y850200D03*
X166800Y850200D03*
X166800Y862900D03*
X166800Y875600D03*
X166800Y888300D03*
M02*
