G04 EAGLE Gerber RS-274X export*
G75*
%MOMM*%
%FSLAX34Y34*%
%LPD*%
%INSoldermask Top*%
%IPPOS*%
%AMOC8*
5,1,8,0,0,1.08239X$1,22.5*%
G01*
%ADD10C,2.703200*%
%ADD11C,3.403200*%
%ADD12C,2.203200*%
%ADD13R,1.203200X1.303200*%
%ADD14R,1.303200X1.203200*%
%ADD15R,0.923200X1.983200*%
%ADD16R,2.703200X1.003200*%
%ADD17R,0.503200X1.478200*%
%ADD18C,1.111200*%
%ADD19R,1.503200X1.503200*%
%ADD20P,1.627049X8X292.500000*%
%ADD21R,0.903200X0.703200*%
%ADD22R,2.203200X1.003200*%
%ADD23R,1.703200X1.903200*%
%ADD24R,1.803200X1.703200*%
%ADD25R,1.503200X1.493200*%
%ADD26R,1.603200X1.493200*%
%ADD27P,1.852186X8X112.500000*%
%ADD28C,1.727200*%
%ADD29P,1.869504X8X292.500000*%
%ADD30R,1.003200X1.003200*%
%ADD31P,1.852186X8X217.500000*%
%ADD32P,1.852186X8X232.500000*%
%ADD33C,1.211200*%
%ADD34P,1.649562X8X22.500000*%
%ADD35C,3.203200*%
%ADD36R,1.727200X1.727200*%
%ADD37P,1.869504X8X112.500000*%
%ADD38P,1.869504X8X202.500000*%
%ADD39R,1.203200X1.703200*%
%ADD40P,3.467112X8X128.000000*%
%ADD41P,1.852186X8X367.500000*%
%ADD42R,0.763200X0.933200*%
%ADD43R,2.803200X1.803200*%
%ADD44R,1.803200X2.803200*%
%ADD45C,2.453200*%
%ADD46C,1.703200*%
%ADD47R,0.838200X1.473200*%
%ADD48R,0.933200X0.763200*%
%ADD49C,0.959600*%
%ADD50C,1.309600*%
%ADD51C,1.109600*%


D10*
X680000Y1010000D03*
X705000Y775000D03*
D11*
X40000Y1400000D03*
X380000Y1060000D03*
X720000Y1400000D03*
X380000Y1740000D03*
X380000Y720000D03*
X720000Y380000D03*
X380000Y40000D03*
X40000Y380000D03*
D10*
X45000Y970000D03*
X45000Y810000D03*
X355000Y970000D03*
X355000Y810000D03*
D12*
X510000Y941000D03*
D13*
X649000Y966500D03*
X649000Y949500D03*
D14*
X678000Y897000D03*
X678000Y914000D03*
X700000Y914000D03*
X700000Y897000D03*
D13*
X706500Y1010000D03*
X723500Y1010000D03*
D14*
X628000Y949500D03*
X628000Y966500D03*
D15*
X677950Y813700D03*
X690650Y813700D03*
X703350Y813700D03*
X716050Y813700D03*
X716050Y878300D03*
X703350Y878300D03*
X690650Y878300D03*
X677950Y878300D03*
D16*
X716000Y1022500D03*
X716000Y997500D03*
D14*
X691000Y966500D03*
X691000Y949500D03*
X670000Y966500D03*
X670000Y949500D03*
D17*
X648000Y1025400D03*
X643000Y1025400D03*
X638000Y1025400D03*
X633000Y1025400D03*
X628000Y1025400D03*
X628000Y980600D03*
X633000Y980600D03*
X638000Y980600D03*
X643000Y980600D03*
X648000Y980600D03*
D14*
X637000Y872500D03*
X637000Y889500D03*
X658000Y889500D03*
X658000Y872500D03*
X637000Y795500D03*
X637000Y812500D03*
X658000Y795500D03*
X658000Y812500D03*
D18*
X601540Y973750D02*
X592460Y973750D01*
X592460Y961250D02*
X601540Y961250D01*
X601540Y948750D02*
X592460Y948750D01*
X592460Y936250D02*
X601540Y936250D01*
X601540Y923750D02*
X592460Y923750D01*
X592460Y1019750D02*
X601540Y1019750D01*
X601540Y1007250D02*
X592460Y1007250D01*
D19*
X608000Y855500D03*
D20*
X608000Y880500D03*
D19*
X608000Y776500D03*
D20*
X608000Y801500D03*
D21*
X636500Y855000D03*
X636500Y845000D03*
X636500Y835000D03*
X659500Y835000D03*
X659500Y845000D03*
X659500Y855000D03*
D22*
G36*
X237500Y1216897D02*
X254127Y1231350D01*
X260708Y1223779D01*
X244081Y1209326D01*
X237500Y1216897D01*
G37*
G36*
X230283Y1225198D02*
X246910Y1239651D01*
X253491Y1232080D01*
X236864Y1217627D01*
X230283Y1225198D01*
G37*
G36*
X223067Y1233500D02*
X239694Y1247953D01*
X246275Y1240382D01*
X229648Y1225929D01*
X223067Y1233500D01*
G37*
G36*
X215850Y1241802D02*
X232477Y1256255D01*
X239058Y1248684D01*
X222431Y1234231D01*
X215850Y1241802D01*
G37*
G36*
X208634Y1250104D02*
X225261Y1264557D01*
X231842Y1256986D01*
X215215Y1242533D01*
X208634Y1250104D01*
G37*
G36*
X201417Y1258406D02*
X218044Y1272859D01*
X224625Y1265288D01*
X207998Y1250835D01*
X201417Y1258406D01*
G37*
G36*
X194200Y1266707D02*
X210827Y1281160D01*
X217408Y1273589D01*
X200781Y1259136D01*
X194200Y1266707D01*
G37*
G36*
X186984Y1275009D02*
X203611Y1289462D01*
X210192Y1281891D01*
X193565Y1267438D01*
X186984Y1275009D01*
G37*
D23*
G36*
X150889Y1120407D02*
X162063Y1107553D01*
X147701Y1095067D01*
X136527Y1107921D01*
X150889Y1120407D01*
G37*
D24*
G36*
X257249Y1196921D02*
X245419Y1210529D01*
X258273Y1221703D01*
X270103Y1208095D01*
X257249Y1196921D01*
G37*
D25*
G36*
X260175Y1192841D02*
X248831Y1182979D01*
X239035Y1194247D01*
X250379Y1204109D01*
X260175Y1192841D01*
G37*
D26*
G36*
X182810Y1145371D02*
X194908Y1155889D01*
X204704Y1144621D01*
X192606Y1134103D01*
X182810Y1145371D01*
G37*
D23*
G36*
X62321Y1222293D02*
X73495Y1209439D01*
X59133Y1196953D01*
X47959Y1209807D01*
X62321Y1222293D01*
G37*
G36*
X171940Y1295057D02*
X184794Y1306231D01*
X197280Y1291869D01*
X184426Y1280695D01*
X171940Y1295057D01*
G37*
D27*
X158000Y1425000D03*
X158000Y1505000D03*
D28*
X479149Y1070937D02*
X482447Y1056058D01*
X457649Y1050561D02*
X454351Y1065439D01*
X429553Y1059942D02*
X432851Y1045063D01*
D13*
G36*
X466016Y1099899D02*
X477762Y1102503D01*
X480582Y1089781D01*
X468836Y1087177D01*
X466016Y1099899D01*
G37*
G36*
X449418Y1096219D02*
X461164Y1098823D01*
X463984Y1086101D01*
X452238Y1083497D01*
X449418Y1096219D01*
G37*
D28*
X412620Y1621300D02*
X397380Y1621300D01*
X397380Y1595900D02*
X412620Y1595900D01*
X412620Y1570500D02*
X397380Y1570500D01*
X397380Y1545100D02*
X412620Y1545100D01*
X412620Y1519700D02*
X397380Y1519700D01*
X397380Y1494300D02*
X412620Y1494300D01*
X412620Y1468900D02*
X397380Y1468900D01*
X397380Y1443500D02*
X412620Y1443500D01*
X412620Y1418100D02*
X397380Y1418100D01*
X397380Y1392700D02*
X412620Y1392700D01*
X412620Y1367300D02*
X397380Y1367300D01*
X397380Y1341900D02*
X412620Y1341900D01*
X412620Y1316500D02*
X397380Y1316500D01*
X397380Y1291100D02*
X412620Y1291100D01*
X412620Y1265700D02*
X397380Y1265700D01*
X397380Y1240300D02*
X412620Y1240300D01*
X412620Y1214900D02*
X397380Y1214900D01*
X397380Y1189500D02*
X412620Y1189500D01*
X412620Y1164100D02*
X397380Y1164100D01*
X397380Y1138700D02*
X412620Y1138700D01*
X547380Y1138700D02*
X562620Y1138700D01*
X562620Y1164100D02*
X547380Y1164100D01*
X547380Y1189500D02*
X562620Y1189500D01*
X562620Y1214900D02*
X547380Y1214900D01*
X547380Y1240300D02*
X562620Y1240300D01*
X562620Y1265700D02*
X547380Y1265700D01*
X547380Y1291100D02*
X562620Y1291100D01*
X562620Y1316500D02*
X547380Y1316500D01*
X547380Y1341900D02*
X562620Y1341900D01*
X562620Y1367300D02*
X547380Y1367300D01*
X547380Y1392700D02*
X562620Y1392700D01*
X562620Y1418100D02*
X547380Y1418100D01*
X547380Y1443500D02*
X562620Y1443500D01*
X562620Y1468900D02*
X547380Y1468900D01*
X547380Y1494300D02*
X562620Y1494300D01*
X562620Y1519700D02*
X547380Y1519700D01*
X547380Y1545100D02*
X562620Y1545100D01*
X562620Y1570500D02*
X547380Y1570500D01*
X547380Y1595900D02*
X562620Y1595900D01*
X562620Y1621300D02*
X547380Y1621300D01*
D29*
X326300Y1593100D03*
X326300Y1567700D03*
X326300Y1542300D03*
X326300Y1516900D03*
D13*
G36*
X265453Y1265600D02*
X257559Y1274680D01*
X267393Y1283230D01*
X275287Y1274150D01*
X265453Y1265600D01*
G37*
G36*
X276607Y1252770D02*
X268713Y1261850D01*
X278547Y1270400D01*
X286441Y1261320D01*
X276607Y1252770D01*
G37*
G36*
X256547Y1293400D02*
X264441Y1284320D01*
X254607Y1275770D01*
X246713Y1284850D01*
X256547Y1293400D01*
G37*
G36*
X245393Y1306230D02*
X253287Y1297150D01*
X243453Y1288600D01*
X235559Y1297680D01*
X245393Y1306230D01*
G37*
D14*
G36*
X252842Y1264449D02*
X261392Y1254615D01*
X252312Y1246721D01*
X243762Y1256555D01*
X252842Y1264449D01*
G37*
G36*
X241688Y1277279D02*
X250238Y1267445D01*
X241158Y1259551D01*
X232608Y1269385D01*
X241688Y1277279D01*
G37*
D30*
G36*
X518359Y1069511D02*
X508566Y1067340D01*
X506395Y1077133D01*
X516188Y1079304D01*
X518359Y1069511D01*
G37*
G36*
X521605Y1054867D02*
X511812Y1052696D01*
X509641Y1062489D01*
X519434Y1064660D01*
X521605Y1054867D01*
G37*
D16*
G36*
X561278Y1700239D02*
X546755Y1677441D01*
X538294Y1682831D01*
X552817Y1705629D01*
X561278Y1700239D01*
G37*
G36*
X582363Y1686807D02*
X567840Y1664009D01*
X559379Y1669399D01*
X573902Y1692197D01*
X582363Y1686807D01*
G37*
D13*
G36*
X563160Y1677403D02*
X556696Y1667257D01*
X545706Y1674259D01*
X552170Y1684405D01*
X563160Y1677403D01*
G37*
G36*
X572294Y1691741D02*
X565830Y1681595D01*
X554840Y1688597D01*
X561304Y1698743D01*
X572294Y1691741D01*
G37*
G36*
X251437Y1097727D02*
X240132Y1101842D01*
X244589Y1114087D01*
X255894Y1109972D01*
X251437Y1097727D01*
G37*
G36*
X267411Y1091913D02*
X256106Y1096028D01*
X260563Y1108273D01*
X271868Y1104158D01*
X267411Y1091913D01*
G37*
D31*
X277926Y1734765D03*
X302074Y1741235D03*
D32*
X194175Y1696750D03*
X215825Y1709250D03*
D33*
X433188Y1736690D02*
X434939Y1746617D01*
X447249Y1744446D02*
X445498Y1734520D01*
X326812Y1063310D02*
X325061Y1053383D01*
X312751Y1055554D02*
X314502Y1065480D01*
X269136Y1077827D02*
X265688Y1068355D01*
X253942Y1072630D02*
X257390Y1082102D01*
D34*
X191800Y1641000D03*
X344200Y1641000D03*
D28*
X672380Y1565100D02*
X687620Y1565100D01*
X687620Y1539700D02*
X672380Y1539700D01*
X672380Y1514300D02*
X687620Y1514300D01*
X687620Y1488900D02*
X672380Y1488900D01*
X672380Y1463500D02*
X687620Y1463500D01*
X687620Y1438100D02*
X672380Y1438100D01*
X672380Y1412700D02*
X687620Y1412700D01*
X687620Y1387300D02*
X672380Y1387300D01*
X672380Y1361900D02*
X687620Y1361900D01*
X687620Y1336500D02*
X672380Y1336500D01*
X672380Y1311100D02*
X687620Y1311100D01*
X687620Y1285700D02*
X672380Y1285700D01*
X672380Y1260300D02*
X687620Y1260300D01*
X687620Y1234900D02*
X672380Y1234900D01*
X87620Y1559700D02*
X72380Y1559700D01*
X72380Y1534300D02*
X87620Y1534300D01*
X87620Y1508900D02*
X72380Y1508900D01*
X72380Y1483500D02*
X87620Y1483500D01*
X87620Y1458100D02*
X72380Y1458100D01*
X72380Y1432700D02*
X87620Y1432700D01*
X87620Y1407300D02*
X72380Y1407300D01*
X72380Y1381900D02*
X87620Y1381900D01*
X87620Y1356500D02*
X72380Y1356500D01*
X72380Y1331100D02*
X87620Y1331100D01*
X87620Y1305700D02*
X72380Y1305700D01*
X72380Y1280300D02*
X87620Y1280300D01*
D33*
X215183Y1102137D02*
X210143Y1093407D01*
X199317Y1099657D02*
X204357Y1108387D01*
D35*
X207000Y358000D03*
X207000Y572000D03*
X521000Y572000D03*
D36*
X204000Y426900D03*
D37*
X204000Y452300D03*
X204000Y477700D03*
X204000Y503100D03*
D35*
X521000Y358000D03*
D38*
X609500Y401300D03*
X609500Y426700D03*
X609500Y501300D03*
X609500Y526700D03*
X424500Y526700D03*
X424500Y501300D03*
X424500Y426700D03*
X424500Y401300D03*
D29*
X374700Y567500D03*
X349300Y567500D03*
X274700Y567500D03*
X249300Y567500D03*
X249300Y382500D03*
X274700Y382500D03*
X349300Y382500D03*
X374700Y382500D03*
D39*
X401000Y154000D03*
X413700Y154000D03*
X426400Y154000D03*
X439100Y154000D03*
X451800Y154000D03*
X464500Y154000D03*
X477200Y154000D03*
X489900Y154000D03*
X601600Y154000D03*
X614300Y154000D03*
X627000Y154000D03*
X401000Y314000D03*
X413700Y314000D03*
X426400Y314000D03*
X439100Y314000D03*
X451800Y314000D03*
X464500Y314000D03*
X477200Y314000D03*
X489900Y314000D03*
X601600Y314000D03*
X614300Y314000D03*
X627000Y314000D03*
D37*
X227000Y157800D03*
X227000Y183200D03*
X227000Y208600D03*
X227000Y234000D03*
X227000Y259400D03*
X227000Y284800D03*
X227000Y310200D03*
D38*
X355800Y236700D03*
X355800Y211300D03*
X355800Y185900D03*
X355800Y160500D03*
X355800Y135100D03*
X355800Y262100D03*
X355800Y287500D03*
X355800Y312900D03*
D40*
X264709Y620440D03*
X310000Y633000D03*
X355291Y645560D03*
D41*
X487341Y682478D03*
X463193Y688948D03*
X438272Y695626D03*
D42*
X147000Y552000D03*
X156500Y532000D03*
X137500Y532000D03*
D13*
X137500Y516000D03*
X154500Y516000D03*
X154500Y495000D03*
X137500Y495000D03*
D33*
X225271Y649042D02*
X220079Y657682D01*
X209365Y651244D02*
X214556Y642604D01*
X173077Y611285D02*
X166203Y618657D01*
X157061Y610132D02*
X163935Y602760D01*
X129400Y563648D02*
X121143Y569429D01*
X113973Y559190D02*
X122230Y553408D01*
D28*
X672380Y545100D02*
X687620Y545100D01*
X687620Y519700D02*
X672380Y519700D01*
X672380Y494300D02*
X687620Y494300D01*
X687620Y468900D02*
X672380Y468900D01*
X672380Y443500D02*
X687620Y443500D01*
X687620Y418100D02*
X672380Y418100D01*
X672380Y392700D02*
X687620Y392700D01*
X687620Y367300D02*
X672380Y367300D01*
X672380Y341900D02*
X687620Y341900D01*
X687620Y316500D02*
X672380Y316500D01*
X672380Y291100D02*
X687620Y291100D01*
X687620Y265700D02*
X672380Y265700D01*
X672380Y240300D02*
X687620Y240300D01*
X687620Y214900D02*
X672380Y214900D01*
X87620Y539700D02*
X72380Y539700D01*
X72380Y514300D02*
X87620Y514300D01*
X87620Y488900D02*
X72380Y488900D01*
X72380Y463500D02*
X87620Y463500D01*
X87620Y438100D02*
X72380Y438100D01*
X72380Y412700D02*
X87620Y412700D01*
X87620Y387300D02*
X72380Y387300D01*
X72380Y361900D02*
X87620Y361900D01*
X87620Y336500D02*
X72380Y336500D01*
X72380Y311100D02*
X87620Y311100D01*
X87620Y285700D02*
X72380Y285700D01*
X72380Y260300D02*
X87620Y260300D01*
D33*
X629744Y565504D02*
X637466Y571984D01*
X629431Y581559D02*
X621709Y575080D01*
X613675Y584656D02*
X621396Y591135D01*
X613361Y600710D02*
X605640Y594231D01*
X574391Y623111D02*
X580028Y631468D01*
X569665Y638458D02*
X564028Y630101D01*
X553665Y637091D02*
X559302Y645448D01*
X548939Y652438D02*
X543302Y644081D01*
X532939Y651071D02*
X538576Y659427D01*
D28*
X467700Y82620D02*
X467700Y67380D01*
X442300Y67380D02*
X442300Y82620D01*
X241900Y82620D02*
X241900Y67380D01*
X267300Y67380D02*
X267300Y82620D01*
X292700Y82620D02*
X292700Y67380D01*
X318100Y67380D02*
X318100Y82620D01*
D43*
X282000Y815800D03*
X246000Y815800D03*
X352900Y857100D03*
X316900Y857100D03*
D44*
X277900Y891700D03*
X277900Y855700D03*
X267900Y970500D03*
X267900Y934500D03*
D43*
X352900Y917100D03*
X316900Y917100D03*
D45*
X103700Y845000D03*
X103700Y935000D03*
D46*
X193700Y935000D03*
D47*
X317500Y978300D03*
X308000Y958300D03*
X327000Y958300D03*
D28*
X32620Y859600D02*
X17380Y859600D01*
X17380Y885000D02*
X32620Y885000D01*
X32620Y910400D02*
X17380Y910400D01*
D13*
X457600Y876600D03*
X440600Y876600D03*
X440400Y898200D03*
X457400Y898200D03*
D48*
X522700Y888400D03*
X502700Y878900D03*
X502700Y897900D03*
D28*
X446600Y841620D02*
X446600Y826380D01*
X472000Y826380D02*
X472000Y841620D01*
X497400Y841620D02*
X497400Y826380D01*
D14*
X477000Y879500D03*
X477000Y896500D03*
D13*
X514500Y914000D03*
X497500Y914000D03*
D28*
X474700Y930380D02*
X474700Y945620D01*
X449300Y945620D02*
X449300Y930380D01*
D49*
X703000Y863000D03*
X702514Y828514D03*
X656419Y784018D03*
X720000Y985000D03*
X650308Y903218D03*
X615000Y905000D03*
X657718Y977318D03*
X643000Y1011348D03*
X620000Y810000D03*
X640174Y900174D03*
X649000Y834000D03*
X712178Y840500D03*
X252000Y1605000D03*
X252000Y1545000D03*
X182000Y1575000D03*
X484000Y1208000D03*
X231000Y1210000D03*
X246000Y1335000D03*
X158282Y1350000D03*
X187123Y1434000D03*
X475000Y1474000D03*
X516000Y1439000D03*
X488000Y1339000D03*
X488000Y1309000D03*
X531000Y1501000D03*
X509000Y1084000D03*
X440000Y1220000D03*
X515000Y1220000D03*
X519000Y1487000D03*
X444000Y1487000D03*
X347000Y1477000D03*
X310000Y1607000D03*
X480000Y1130000D03*
X458000Y1103000D03*
X220000Y1321000D03*
X300089Y1575089D03*
X292000Y1284000D03*
X292000Y1272000D03*
X487000Y1549000D03*
X487000Y1499000D03*
X472000Y1155000D03*
X472000Y1208000D03*
X235000Y1352000D03*
X185000Y1336000D03*
X516295Y460797D03*
X536295Y460797D03*
X526295Y460797D03*
X506295Y460797D03*
X496295Y460797D03*
X536295Y450797D03*
X526295Y450797D03*
X516295Y450797D03*
X506295Y450797D03*
X496295Y450797D03*
X620295Y467797D03*
X610295Y467797D03*
X610295Y457797D03*
X620295Y457797D03*
X610295Y447797D03*
X620295Y447797D03*
X315203Y474295D03*
X315203Y494295D03*
X315203Y484295D03*
X315203Y464295D03*
X315203Y454295D03*
X325203Y494295D03*
X325203Y484295D03*
X325203Y474295D03*
X325203Y464295D03*
X325203Y454295D03*
X308203Y578295D03*
X308203Y568295D03*
X318203Y568295D03*
X318203Y578295D03*
X328203Y568295D03*
X328203Y578295D03*
X501000Y314000D03*
X390000Y314000D03*
D50*
X590000Y579000D03*
D49*
X16000Y340000D03*
X627000Y279000D03*
X627000Y169000D03*
X417000Y293000D03*
X460000Y536000D03*
X460000Y560000D03*
X170000Y540000D03*
X223000Y522000D03*
X575295Y395797D03*
X562295Y501797D03*
X380203Y533295D03*
X274203Y520295D03*
X446000Y197000D03*
X439000Y298000D03*
X457000Y197000D03*
X452000Y298000D03*
D51*
X398000Y220000D03*
X553000Y230000D03*
X540000Y231000D03*
D49*
X386000Y200000D03*
X526000Y629000D03*
X170718Y495000D03*
X671000Y592000D03*
X285000Y835000D03*
X298000Y892000D03*
X160000Y830000D03*
X225000Y905000D03*
X253000Y892000D03*
X345000Y875000D03*
X315000Y825000D03*
X250000Y865000D03*
X250000Y850000D03*
X60000Y945000D03*
X357000Y888000D03*
X290000Y928900D03*
X516000Y858000D03*
M02*
