G04 EAGLE Gerber RS-274X export*
G75*
%MOMM*%
%FSLAX34Y34*%
%LPD*%
%INSoldermask Bottom*%
%IPPOS*%
%AMOC8*
5,1,8,0,0,1.08239X$1,22.5*%
G01*
%ADD10C,2.703200*%
%ADD11C,3.403200*%
%ADD12C,1.200000*%
%ADD13C,2.203200*%
%ADD14C,1.111200*%
%ADD15R,1.503200X1.503200*%
%ADD16P,1.627049X8X292.500000*%
%ADD17P,1.852186X8X112.500000*%
%ADD18R,0.763200X0.933200*%
%ADD19R,1.203200X1.303200*%
%ADD20C,1.727200*%
%ADD21P,1.869504X8X292.500000*%
%ADD22R,1.463200X0.563200*%
%ADD23R,3.403200X2.003200*%
%ADD24R,1.983200X0.923200*%
%ADD25P,1.852186X8X217.500000*%
%ADD26R,1.303200X1.203200*%
%ADD27P,1.852186X8X232.500000*%
%ADD28C,1.211200*%
%ADD29R,0.923200X1.983200*%
%ADD30R,0.803200X0.803200*%
%ADD31P,1.649562X8X22.500000*%
%ADD32R,1.103200X0.603200*%
%ADD33C,3.203200*%
%ADD34R,1.727200X1.727200*%
%ADD35P,1.869504X8X112.500000*%
%ADD36P,1.869504X8X202.500000*%
%ADD37R,0.603200X1.403200*%
%ADD38R,2.003200X1.803200*%
%ADD39R,1.803200X2.003200*%
%ADD40R,3.003200X1.603200*%
%ADD41R,1.403200X0.603200*%
%ADD42R,1.603200X3.003200*%
%ADD43R,1.003200X1.003200*%
%ADD44P,3.467112X8X128.000000*%
%ADD45P,1.852186X8X367.500000*%
%ADD46R,1.603200X0.838200*%
%ADD47C,2.453200*%
%ADD48C,1.703200*%
%ADD49C,0.959600*%
%ADD50C,1.309600*%
%ADD51C,1.109600*%


D10*
X680000Y1010000D03*
X705000Y775000D03*
D11*
X40000Y1400000D03*
X380000Y1060000D03*
X720000Y1400000D03*
X380000Y1740000D03*
D12*
X277000Y1530000D02*
X167000Y1530000D01*
X277000Y1530000D02*
X277000Y1573000D01*
X167000Y1536000D02*
X167000Y1530000D01*
X167000Y1620000D02*
X181000Y1620000D01*
X203000Y1620000D02*
X277000Y1620000D01*
X167000Y1620000D02*
X167000Y1558000D01*
X277000Y1608000D02*
X277000Y1620000D01*
D11*
X380000Y720000D03*
X720000Y380000D03*
X380000Y40000D03*
X40000Y380000D03*
D10*
X45000Y970000D03*
X45000Y810000D03*
X355000Y970000D03*
X355000Y810000D03*
D13*
X510000Y941000D03*
D14*
X592460Y973750D02*
X601540Y973750D01*
X601540Y961250D02*
X592460Y961250D01*
X592460Y948750D02*
X601540Y948750D01*
X601540Y936250D02*
X592460Y936250D01*
X592460Y923750D02*
X601540Y923750D01*
X601540Y1019750D02*
X592460Y1019750D01*
X592460Y1007250D02*
X601540Y1007250D01*
D15*
X608000Y855500D03*
D16*
X608000Y880500D03*
D15*
X608000Y776500D03*
D16*
X608000Y801500D03*
D17*
X158000Y1425000D03*
X158000Y1505000D03*
D18*
X177623Y1425058D03*
X187123Y1445058D03*
X168123Y1445058D03*
D19*
X169500Y1460000D03*
X186500Y1460000D03*
X186500Y1481000D03*
X169500Y1481000D03*
D20*
X479149Y1070937D02*
X482447Y1056058D01*
X457649Y1050561D02*
X454351Y1065439D01*
X429553Y1059942D02*
X432851Y1045063D01*
X412620Y1621300D02*
X397380Y1621300D01*
X397380Y1595900D02*
X412620Y1595900D01*
X412620Y1570500D02*
X397380Y1570500D01*
X397380Y1545100D02*
X412620Y1545100D01*
X412620Y1519700D02*
X397380Y1519700D01*
X397380Y1494300D02*
X412620Y1494300D01*
X412620Y1468900D02*
X397380Y1468900D01*
X397380Y1443500D02*
X412620Y1443500D01*
X412620Y1418100D02*
X397380Y1418100D01*
X397380Y1392700D02*
X412620Y1392700D01*
X412620Y1367300D02*
X397380Y1367300D01*
X397380Y1341900D02*
X412620Y1341900D01*
X412620Y1316500D02*
X397380Y1316500D01*
X397380Y1291100D02*
X412620Y1291100D01*
X412620Y1265700D02*
X397380Y1265700D01*
X397380Y1240300D02*
X412620Y1240300D01*
X412620Y1214900D02*
X397380Y1214900D01*
X397380Y1189500D02*
X412620Y1189500D01*
X412620Y1164100D02*
X397380Y1164100D01*
X397380Y1138700D02*
X412620Y1138700D01*
X547380Y1138700D02*
X562620Y1138700D01*
X562620Y1164100D02*
X547380Y1164100D01*
X547380Y1189500D02*
X562620Y1189500D01*
X562620Y1214900D02*
X547380Y1214900D01*
X547380Y1240300D02*
X562620Y1240300D01*
X562620Y1265700D02*
X547380Y1265700D01*
X547380Y1291100D02*
X562620Y1291100D01*
X562620Y1316500D02*
X547380Y1316500D01*
X547380Y1341900D02*
X562620Y1341900D01*
X562620Y1367300D02*
X547380Y1367300D01*
X547380Y1392700D02*
X562620Y1392700D01*
X562620Y1418100D02*
X547380Y1418100D01*
X547380Y1443500D02*
X562620Y1443500D01*
X562620Y1468900D02*
X547380Y1468900D01*
X547380Y1494300D02*
X562620Y1494300D01*
X562620Y1519700D02*
X547380Y1519700D01*
X547380Y1545100D02*
X562620Y1545100D01*
X562620Y1570500D02*
X547380Y1570500D01*
X547380Y1595900D02*
X562620Y1595900D01*
X562620Y1621300D02*
X547380Y1621300D01*
D21*
X326300Y1593100D03*
X326300Y1567700D03*
X326300Y1542300D03*
X326300Y1516900D03*
D19*
X292500Y1564000D03*
X309500Y1564000D03*
X292500Y1586000D03*
X309500Y1586000D03*
D22*
X261000Y1368750D03*
X261000Y1362250D03*
X261000Y1355750D03*
X261000Y1349250D03*
X261000Y1342750D03*
X261000Y1336250D03*
X261000Y1329750D03*
X261000Y1323250D03*
X203000Y1323250D03*
X203000Y1329750D03*
X203000Y1336250D03*
X203000Y1342750D03*
X203000Y1349250D03*
X203000Y1355750D03*
X203000Y1362250D03*
X203000Y1368750D03*
D19*
X219500Y1545000D03*
X236500Y1545000D03*
X219500Y1605000D03*
X236500Y1605000D03*
X223000Y1564500D03*
X223000Y1581500D03*
D23*
X192000Y1603000D03*
X192000Y1547000D03*
D24*
X366300Y1703050D03*
X366300Y1690350D03*
X366300Y1677650D03*
X366300Y1664950D03*
X301700Y1664950D03*
X301700Y1677650D03*
X301700Y1690350D03*
X301700Y1703050D03*
D25*
X277926Y1734765D03*
X302074Y1741235D03*
D26*
X388000Y1691500D03*
X388000Y1708500D03*
X409000Y1708500D03*
X409000Y1691500D03*
D27*
X194175Y1696750D03*
X215825Y1709250D03*
D26*
X388000Y1660500D03*
X388000Y1677500D03*
X409000Y1677500D03*
X409000Y1660500D03*
D28*
X433188Y1736690D02*
X434939Y1746617D01*
X447249Y1744446D02*
X445498Y1734520D01*
X326812Y1063310D02*
X325061Y1053383D01*
X312751Y1055554D02*
X314502Y1065480D01*
X269136Y1077827D02*
X265688Y1068355D01*
X253942Y1072630D02*
X257390Y1082102D01*
D29*
X458950Y1252300D03*
X471650Y1252300D03*
X484350Y1252300D03*
X497050Y1252300D03*
X497050Y1187700D03*
X484350Y1187700D03*
X471650Y1187700D03*
X458950Y1187700D03*
D30*
X478500Y1295000D03*
X488000Y1295000D03*
X497500Y1295000D03*
X497500Y1269000D03*
X488000Y1269000D03*
X478500Y1269000D03*
D26*
X440000Y1235500D03*
X440000Y1252500D03*
X515000Y1235500D03*
X515000Y1252500D03*
X461000Y1275500D03*
X461000Y1292500D03*
X515000Y1275500D03*
X515000Y1292500D03*
D19*
X474500Y1311000D03*
X457500Y1311000D03*
X501500Y1310000D03*
X518500Y1310000D03*
D29*
X500050Y1453700D03*
X487350Y1453700D03*
X474650Y1453700D03*
X461950Y1453700D03*
X461950Y1518300D03*
X474650Y1518300D03*
X487350Y1518300D03*
X500050Y1518300D03*
D30*
X480500Y1411000D03*
X471000Y1411000D03*
X461500Y1411000D03*
X461500Y1437000D03*
X471000Y1437000D03*
X480500Y1437000D03*
D26*
X519000Y1470500D03*
X519000Y1453500D03*
X444000Y1470500D03*
X444000Y1453500D03*
X498000Y1430500D03*
X498000Y1413500D03*
X444000Y1430500D03*
X444000Y1413500D03*
D19*
X484500Y1396000D03*
X501500Y1396000D03*
X457500Y1396000D03*
X440500Y1396000D03*
X169500Y1350000D03*
X186500Y1350000D03*
D31*
X191800Y1641000D03*
X344200Y1641000D03*
D20*
X672380Y1565100D02*
X687620Y1565100D01*
X687620Y1539700D02*
X672380Y1539700D01*
X672380Y1514300D02*
X687620Y1514300D01*
X687620Y1488900D02*
X672380Y1488900D01*
X672380Y1463500D02*
X687620Y1463500D01*
X687620Y1438100D02*
X672380Y1438100D01*
X672380Y1412700D02*
X687620Y1412700D01*
X687620Y1387300D02*
X672380Y1387300D01*
X672380Y1361900D02*
X687620Y1361900D01*
X687620Y1336500D02*
X672380Y1336500D01*
X672380Y1311100D02*
X687620Y1311100D01*
X687620Y1285700D02*
X672380Y1285700D01*
X672380Y1260300D02*
X687620Y1260300D01*
X687620Y1234900D02*
X672380Y1234900D01*
X87620Y1559700D02*
X72380Y1559700D01*
X72380Y1534300D02*
X87620Y1534300D01*
X87620Y1508900D02*
X72380Y1508900D01*
X72380Y1483500D02*
X87620Y1483500D01*
X87620Y1458100D02*
X72380Y1458100D01*
X72380Y1432700D02*
X87620Y1432700D01*
X87620Y1407300D02*
X72380Y1407300D01*
X72380Y1381900D02*
X87620Y1381900D01*
X87620Y1356500D02*
X72380Y1356500D01*
X72380Y1331100D02*
X87620Y1331100D01*
X87620Y1305700D02*
X72380Y1305700D01*
X72380Y1280300D02*
X87620Y1280300D01*
D28*
X215183Y1102137D02*
X210143Y1093407D01*
X199317Y1099657D02*
X204357Y1108387D01*
D32*
X239000Y1569250D03*
X239000Y1575750D03*
X239000Y1582250D03*
X239000Y1588750D03*
X265000Y1588750D03*
X265000Y1582250D03*
X265000Y1575750D03*
X265000Y1569250D03*
D33*
X207000Y358000D03*
X207000Y572000D03*
X521000Y572000D03*
D34*
X204000Y426900D03*
D35*
X204000Y452300D03*
X204000Y477700D03*
X204000Y503100D03*
D33*
X521000Y358000D03*
D36*
X609500Y401300D03*
X609500Y426700D03*
X609500Y501300D03*
X609500Y526700D03*
X424500Y526700D03*
X424500Y501300D03*
X424500Y426700D03*
X424500Y401300D03*
D37*
X566750Y460000D03*
X560250Y460000D03*
X553750Y460000D03*
X547250Y460000D03*
X547250Y486000D03*
X553750Y486000D03*
X560250Y486000D03*
X566750Y486000D03*
D19*
X589000Y458500D03*
X589000Y475500D03*
D26*
X591000Y415500D03*
X591000Y398500D03*
D38*
X354000Y495000D03*
X354000Y523000D03*
D19*
X378000Y500500D03*
X378000Y517500D03*
D26*
X507500Y502000D03*
X524500Y502000D03*
D19*
X571500Y518000D03*
X588500Y518000D03*
X556500Y518000D03*
X539500Y518000D03*
D26*
X539500Y539000D03*
X556500Y539000D03*
D39*
X504000Y422000D03*
X476000Y422000D03*
X504000Y400000D03*
X476000Y400000D03*
D40*
X465000Y471000D03*
X465000Y515000D03*
D21*
X374700Y567500D03*
X349300Y567500D03*
X274700Y567500D03*
X249300Y567500D03*
X249300Y382500D03*
X274700Y382500D03*
X349300Y382500D03*
X374700Y382500D03*
D41*
X316000Y524750D03*
X316000Y518250D03*
X316000Y511750D03*
X316000Y505250D03*
X290000Y505250D03*
X290000Y511750D03*
X290000Y518250D03*
X290000Y524750D03*
D26*
X317500Y547000D03*
X300500Y547000D03*
D19*
X360500Y548000D03*
X377500Y548000D03*
D39*
X537200Y421600D03*
X565200Y421600D03*
D26*
X542600Y399600D03*
X559600Y399600D03*
D19*
X274000Y464500D03*
X274000Y481500D03*
D26*
X258000Y529500D03*
X258000Y546500D03*
X258000Y513500D03*
X258000Y496500D03*
D19*
X237000Y496500D03*
X237000Y513500D03*
D38*
X375500Y462000D03*
X375500Y434000D03*
X353500Y462000D03*
X353500Y434000D03*
D42*
X305000Y423000D03*
X261000Y423000D03*
D43*
X25000Y292500D03*
X25000Y277500D03*
D26*
X41000Y276500D03*
X41000Y293500D03*
D43*
X25000Y326500D03*
X25000Y311500D03*
D26*
X41000Y310500D03*
X41000Y327500D03*
D35*
X227000Y157800D03*
X227000Y183200D03*
X227000Y208600D03*
X227000Y234000D03*
X227000Y259400D03*
X227000Y284800D03*
X227000Y310200D03*
D36*
X355800Y236700D03*
X355800Y211300D03*
X355800Y185900D03*
X355800Y160500D03*
X355800Y135100D03*
X355800Y262100D03*
X355800Y287500D03*
X355800Y312900D03*
D44*
X264709Y620440D03*
X310000Y633000D03*
X355291Y645560D03*
D45*
X487341Y682478D03*
X463193Y688948D03*
X438272Y695626D03*
D28*
X225271Y649042D02*
X220079Y657682D01*
X209365Y651244D02*
X214556Y642604D01*
X173077Y611285D02*
X166203Y618657D01*
X157061Y610132D02*
X163935Y602760D01*
X129400Y563648D02*
X121143Y569429D01*
X113973Y559190D02*
X122230Y553408D01*
D20*
X672380Y545100D02*
X687620Y545100D01*
X687620Y519700D02*
X672380Y519700D01*
X672380Y494300D02*
X687620Y494300D01*
X687620Y468900D02*
X672380Y468900D01*
X672380Y443500D02*
X687620Y443500D01*
X687620Y418100D02*
X672380Y418100D01*
X672380Y392700D02*
X687620Y392700D01*
X687620Y367300D02*
X672380Y367300D01*
X672380Y341900D02*
X687620Y341900D01*
X687620Y316500D02*
X672380Y316500D01*
X672380Y291100D02*
X687620Y291100D01*
X687620Y265700D02*
X672380Y265700D01*
X672380Y240300D02*
X687620Y240300D01*
X687620Y214900D02*
X672380Y214900D01*
X87620Y539700D02*
X72380Y539700D01*
X72380Y514300D02*
X87620Y514300D01*
X87620Y488900D02*
X72380Y488900D01*
X72380Y463500D02*
X87620Y463500D01*
X87620Y438100D02*
X72380Y438100D01*
X72380Y412700D02*
X87620Y412700D01*
X87620Y387300D02*
X72380Y387300D01*
X72380Y361900D02*
X87620Y361900D01*
X87620Y336500D02*
X72380Y336500D01*
X72380Y311100D02*
X87620Y311100D01*
X87620Y285700D02*
X72380Y285700D01*
X72380Y260300D02*
X87620Y260300D01*
D28*
X629744Y565504D02*
X637466Y571984D01*
X629431Y581559D02*
X621709Y575080D01*
X613675Y584656D02*
X621396Y591135D01*
X613361Y600710D02*
X605640Y594231D01*
X574391Y623111D02*
X580028Y631468D01*
X569665Y638458D02*
X564028Y630101D01*
X553665Y637091D02*
X559302Y645448D01*
X548939Y652438D02*
X543302Y644081D01*
X532939Y651071D02*
X538576Y659427D01*
D20*
X467700Y82620D02*
X467700Y67380D01*
X442300Y67380D02*
X442300Y82620D01*
X241900Y82620D02*
X241900Y67380D01*
X267300Y67380D02*
X267300Y82620D01*
X292700Y82620D02*
X292700Y67380D01*
X318100Y67380D02*
X318100Y82620D01*
D26*
X307800Y881700D03*
X324800Y881700D03*
X183700Y910500D03*
X200700Y910500D03*
D19*
X281800Y892500D03*
X264800Y892500D03*
X286900Y859500D03*
X269900Y859500D03*
D26*
X240500Y909100D03*
X240500Y892100D03*
X273500Y928900D03*
X273500Y911900D03*
D19*
X318700Y859500D03*
X301700Y859500D03*
X277000Y947500D03*
X260000Y947500D03*
D46*
X305000Y901700D03*
X305000Y914400D03*
X305000Y927100D03*
X305000Y939800D03*
X357000Y939800D03*
X357000Y927100D03*
X357000Y914400D03*
X357000Y901700D03*
D47*
X103700Y845000D03*
X103700Y935000D03*
D48*
X193700Y935000D03*
D46*
X218800Y888300D03*
X218800Y875600D03*
X218800Y862900D03*
X218800Y850200D03*
X166800Y850200D03*
X166800Y862900D03*
X166800Y875600D03*
X166800Y888300D03*
D20*
X32620Y859600D02*
X17380Y859600D01*
X17380Y885000D02*
X32620Y885000D01*
X32620Y910400D02*
X17380Y910400D01*
X446600Y841620D02*
X446600Y826380D01*
X472000Y826380D02*
X472000Y841620D01*
X497400Y841620D02*
X497400Y826380D01*
X474700Y930380D02*
X474700Y945620D01*
X449300Y945620D02*
X449300Y930380D01*
D49*
X703000Y863000D03*
X702514Y828514D03*
X656419Y784018D03*
X720000Y985000D03*
X650308Y903218D03*
X615000Y905000D03*
X657718Y977318D03*
X643000Y1011348D03*
X620000Y810000D03*
X640174Y900174D03*
X649000Y834000D03*
X712178Y840500D03*
X252000Y1605000D03*
X252000Y1545000D03*
X182000Y1575000D03*
X484000Y1208000D03*
X231000Y1210000D03*
X246000Y1335000D03*
X158282Y1350000D03*
X187123Y1434000D03*
X475000Y1474000D03*
X516000Y1439000D03*
X488000Y1339000D03*
X488000Y1309000D03*
X531000Y1501000D03*
X509000Y1084000D03*
X440000Y1220000D03*
X515000Y1220000D03*
X519000Y1487000D03*
X444000Y1487000D03*
X347000Y1477000D03*
X310000Y1607000D03*
X480000Y1130000D03*
X458000Y1103000D03*
X220000Y1321000D03*
X300089Y1575089D03*
X292000Y1284000D03*
X292000Y1272000D03*
X487000Y1549000D03*
X487000Y1499000D03*
X472000Y1155000D03*
X472000Y1208000D03*
X235000Y1352000D03*
X185000Y1336000D03*
X516295Y460797D03*
X536295Y460797D03*
X526295Y460797D03*
X506295Y460797D03*
X496295Y460797D03*
X536295Y450797D03*
X526295Y450797D03*
X516295Y450797D03*
X506295Y450797D03*
X496295Y450797D03*
X620295Y467797D03*
X610295Y467797D03*
X610295Y457797D03*
X620295Y457797D03*
X610295Y447797D03*
X620295Y447797D03*
X315203Y474295D03*
X315203Y494295D03*
X315203Y484295D03*
X315203Y464295D03*
X315203Y454295D03*
X325203Y494295D03*
X325203Y484295D03*
X325203Y474295D03*
X325203Y464295D03*
X325203Y454295D03*
X308203Y578295D03*
X308203Y568295D03*
X318203Y568295D03*
X318203Y578295D03*
X328203Y568295D03*
X328203Y578295D03*
X501000Y314000D03*
X390000Y314000D03*
D50*
X590000Y579000D03*
D49*
X16000Y340000D03*
X627000Y279000D03*
X627000Y169000D03*
X417000Y293000D03*
X460000Y536000D03*
X460000Y560000D03*
X170000Y540000D03*
X223000Y522000D03*
X575295Y395797D03*
X562295Y501797D03*
X380203Y533295D03*
X274203Y520295D03*
X446000Y197000D03*
X439000Y298000D03*
X457000Y197000D03*
X452000Y298000D03*
D51*
X398000Y220000D03*
X553000Y230000D03*
X540000Y231000D03*
D49*
X386000Y200000D03*
X526000Y629000D03*
X170718Y495000D03*
X671000Y592000D03*
X285000Y835000D03*
X298000Y892000D03*
X160000Y830000D03*
X225000Y905000D03*
X253000Y892000D03*
X345000Y875000D03*
X315000Y825000D03*
X250000Y865000D03*
X250000Y850000D03*
X60000Y945000D03*
X357000Y888000D03*
X290000Y928900D03*
X516000Y858000D03*
M02*
