G04 EAGLE Gerber RS-274X export*
G75*
%MOMM*%
%FSLAX34Y34*%
%LPD*%
%INSolderpaste Top*%
%IPPOS*%
%AMOC8*
5,1,8,0,0,1.08239X$1,22.5*%
G01*
%ADD10R,1.000000X1.500000*%
%ADD11R,0.560000X0.730000*%
%ADD12R,1.000000X1.100000*%
%ADD13R,0.730000X0.560000*%
%ADD14R,1.100000X1.000000*%
%ADD15R,2.500000X0.800000*%
%ADD16R,0.300000X1.275000*%
%ADD17R,0.700000X0.500000*%
%ADD18R,0.500000X0.700000*%
%ADD19R,2.000000X0.800000*%
%ADD20R,1.500000X1.700000*%
%ADD21R,1.600000X1.500000*%
%ADD22R,1.300000X1.290000*%
%ADD23R,1.400000X1.290000*%
%ADD24R,0.800000X0.800000*%
%ADD25R,2.600000X1.600000*%
%ADD26R,1.600000X2.600000*%


D10*
X401000Y154000D03*
X413700Y154000D03*
X426400Y154000D03*
X439100Y154000D03*
X451800Y154000D03*
X464500Y154000D03*
X477200Y154000D03*
X489900Y154000D03*
X601600Y154000D03*
X614300Y154000D03*
X627000Y154000D03*
X401000Y314000D03*
X413700Y314000D03*
X426400Y314000D03*
X439100Y314000D03*
X451800Y314000D03*
X464500Y314000D03*
X477200Y314000D03*
X489900Y314000D03*
X601600Y314000D03*
X614300Y314000D03*
X627000Y314000D03*
D11*
X147000Y552000D03*
X156500Y532000D03*
X137500Y532000D03*
D12*
X137500Y516000D03*
X154500Y516000D03*
X154500Y495000D03*
X137500Y495000D03*
X457600Y876600D03*
X440600Y876600D03*
X440400Y898200D03*
X457400Y898200D03*
D13*
X522700Y888400D03*
X502700Y878900D03*
X502700Y897900D03*
D14*
X477000Y879500D03*
X477000Y896500D03*
D12*
X514500Y914000D03*
X497500Y914000D03*
X646500Y961500D03*
X646500Y944500D03*
D14*
X676500Y853500D03*
X676500Y870500D03*
X676500Y809500D03*
X676500Y826500D03*
D12*
X704000Y1005000D03*
X721000Y1005000D03*
D14*
X625500Y944500D03*
X625500Y961500D03*
D15*
X713500Y1017500D03*
X713500Y992500D03*
D14*
X688500Y961500D03*
X688500Y944500D03*
X667500Y961500D03*
X667500Y944500D03*
D16*
X645500Y1020400D03*
X640500Y1020400D03*
X635500Y1020400D03*
X630500Y1020400D03*
X625500Y1020400D03*
X625500Y975600D03*
X630500Y975600D03*
X635500Y975600D03*
X640500Y975600D03*
X645500Y975600D03*
D14*
X634500Y867500D03*
X634500Y884500D03*
X655500Y884500D03*
X655500Y867500D03*
X634500Y790500D03*
X634500Y807500D03*
X655500Y790500D03*
X655500Y807500D03*
D17*
X634000Y850000D03*
X634000Y840000D03*
X634000Y830000D03*
X657000Y830000D03*
X657000Y840000D03*
X657000Y850000D03*
D18*
X692500Y809000D03*
X702500Y809000D03*
X712500Y809000D03*
X712500Y832000D03*
X702500Y832000D03*
X692500Y832000D03*
X712500Y871000D03*
X702500Y871000D03*
X692500Y871000D03*
X692500Y848000D03*
X702500Y848000D03*
X712500Y848000D03*
D19*
G36*
X294982Y1184657D02*
X305727Y1201524D01*
X312474Y1197225D01*
X301729Y1180358D01*
X294982Y1184657D01*
G37*
G36*
X285704Y1190567D02*
X296449Y1207434D01*
X303196Y1203135D01*
X292451Y1186268D01*
X285704Y1190567D01*
G37*
G36*
X276427Y1196478D02*
X287172Y1213345D01*
X293919Y1209046D01*
X283174Y1192179D01*
X276427Y1196478D01*
G37*
G36*
X267150Y1202388D02*
X277895Y1219255D01*
X284642Y1214956D01*
X273897Y1198089D01*
X267150Y1202388D01*
G37*
G36*
X257872Y1208298D02*
X268617Y1225165D01*
X275364Y1220866D01*
X264619Y1203999D01*
X257872Y1208298D01*
G37*
G36*
X248595Y1214208D02*
X259340Y1231075D01*
X266087Y1226776D01*
X255342Y1209909D01*
X248595Y1214208D01*
G37*
G36*
X239318Y1220119D02*
X250063Y1236986D01*
X256810Y1232687D01*
X246065Y1215820D01*
X239318Y1220119D01*
G37*
G36*
X230040Y1226029D02*
X240785Y1242896D01*
X247532Y1238597D01*
X236787Y1221730D01*
X230040Y1226029D01*
G37*
D20*
G36*
X238251Y1065828D02*
X250901Y1057769D01*
X241767Y1043432D01*
X229117Y1051491D01*
X238251Y1065828D01*
G37*
D21*
G36*
X317876Y1172205D02*
X304383Y1180801D01*
X312442Y1193451D01*
X325935Y1184855D01*
X317876Y1172205D01*
G37*
D22*
G36*
X320750Y1167409D02*
X313765Y1156446D01*
X302886Y1163377D01*
X309871Y1174340D01*
X320750Y1167409D01*
G37*
D23*
G36*
X262858Y1100544D02*
X270380Y1112351D01*
X281258Y1105420D01*
X273736Y1093613D01*
X262858Y1100544D01*
G37*
D20*
G36*
X124393Y1138363D02*
X137043Y1130304D01*
X127909Y1115967D01*
X115259Y1124026D01*
X124393Y1138363D01*
G37*
G36*
X209923Y1240979D02*
X217982Y1253629D01*
X232319Y1244495D01*
X224260Y1231845D01*
X209923Y1240979D01*
G37*
D12*
G36*
X467228Y1099127D02*
X476990Y1101291D01*
X479370Y1090553D01*
X469608Y1088389D01*
X467228Y1099127D01*
G37*
G36*
X450630Y1095447D02*
X460392Y1097611D01*
X462772Y1086873D01*
X453010Y1084709D01*
X450630Y1095447D01*
G37*
G36*
X307092Y1235242D02*
X298659Y1240615D01*
X304570Y1249892D01*
X313003Y1244519D01*
X307092Y1235242D01*
G37*
G36*
X321430Y1226108D02*
X312997Y1231481D01*
X318908Y1240758D01*
X327341Y1235385D01*
X321430Y1226108D01*
G37*
G36*
X290908Y1258758D02*
X299341Y1253385D01*
X293430Y1244108D01*
X284997Y1249481D01*
X290908Y1258758D01*
G37*
G36*
X276570Y1267892D02*
X285003Y1262519D01*
X279092Y1253242D01*
X270659Y1258615D01*
X276570Y1267892D01*
G37*
D14*
G36*
X293217Y1230605D02*
X302494Y1224694D01*
X297121Y1216261D01*
X287844Y1222172D01*
X293217Y1230605D01*
G37*
G36*
X278879Y1239739D02*
X288156Y1233828D01*
X282783Y1225395D01*
X273506Y1231306D01*
X278879Y1239739D01*
G37*
D24*
G36*
X517147Y1070283D02*
X509338Y1068552D01*
X507607Y1076361D01*
X515416Y1078092D01*
X517147Y1070283D01*
G37*
G36*
X520393Y1055639D02*
X512584Y1053908D01*
X510853Y1061717D01*
X518662Y1063448D01*
X520393Y1055639D01*
G37*
D15*
G36*
X560616Y1699332D02*
X547185Y1678248D01*
X540438Y1682546D01*
X553869Y1703630D01*
X560616Y1699332D01*
G37*
G36*
X581701Y1685900D02*
X568270Y1664816D01*
X561523Y1669114D01*
X574954Y1690198D01*
X581701Y1685900D01*
G37*
D12*
G36*
X561758Y1675092D02*
X556385Y1666659D01*
X547108Y1672570D01*
X552481Y1681003D01*
X561758Y1675092D01*
G37*
G36*
X570892Y1689430D02*
X565519Y1680997D01*
X556242Y1686908D01*
X561615Y1695341D01*
X570892Y1689430D01*
G37*
G36*
X128372Y1219488D02*
X136251Y1225645D01*
X143024Y1216978D01*
X135145Y1210821D01*
X128372Y1219488D01*
G37*
G36*
X114976Y1209022D02*
X122855Y1215179D01*
X129628Y1206512D01*
X121749Y1200355D01*
X114976Y1209022D01*
G37*
D25*
X303000Y890000D03*
X267000Y890000D03*
D26*
X315000Y807000D03*
X315000Y843000D03*
X265000Y807000D03*
X265000Y843000D03*
X265000Y973000D03*
X265000Y937000D03*
X315000Y973000D03*
X315000Y937000D03*
M02*
