G04 EAGLE Gerber RS-274X export*
G75*
%MOMM*%
%FSLAX34Y34*%
%LPD*%
%INSoldermask Bottom*%
%IPPOS*%
%AMOC8*
5,1,8,0,0,1.08239X$1,22.5*%
G01*
%ADD10C,3.403200*%
%ADD11C,2.203200*%
%ADD12C,2.703200*%
%ADD13C,1.200000*%
%ADD14C,3.203200*%
%ADD15R,1.619200X1.619200*%
%ADD16P,1.752606X8X112.500000*%
%ADD17P,1.752606X8X202.500000*%
%ADD18R,0.603200X1.403200*%
%ADD19R,1.203200X1.303200*%
%ADD20R,1.303200X1.203200*%
%ADD21R,2.003200X1.803200*%
%ADD22R,1.803200X2.003200*%
%ADD23R,3.003200X1.603200*%
%ADD24P,1.752606X8X292.500000*%
%ADD25R,1.403200X0.603200*%
%ADD26R,1.603200X3.003200*%
%ADD27R,1.003200X1.003200*%
%ADD28P,3.467112X8X128.000000*%
%ADD29P,1.843527X8X367.500000*%
%ADD30C,1.103200*%
%ADD31C,1.619200*%
%ADD32C,1.003200*%
%ADD33R,1.503200X1.503200*%
%ADD34P,1.627049X8X292.500000*%
%ADD35P,1.735288X8X112.500000*%
%ADD36R,0.763200X0.933200*%
%ADD37R,1.463200X0.563200*%
%ADD38R,3.403200X2.003200*%
%ADD39R,1.983200X0.923200*%
%ADD40P,1.843527X8X217.500000*%
%ADD41P,1.843527X8X232.500000*%
%ADD42R,0.803200X0.803200*%
%ADD43P,1.532664X8X22.500000*%
%ADD44R,1.103200X0.603200*%
%ADD45R,0.903200X0.703200*%
%ADD46R,1.603200X0.838200*%
%ADD47C,1.703200*%
%ADD48R,0.838200X1.603200*%
%ADD49R,0.838200X1.473200*%
%ADD50C,0.953200*%
%ADD51C,1.303200*%
%ADD52C,1.103200*%


D10*
X380000Y720000D03*
X720000Y380000D03*
X380000Y40000D03*
X40000Y380000D03*
D11*
X510000Y941000D03*
D12*
X677500Y1005000D03*
X702500Y770000D03*
D10*
X40000Y1400000D03*
X380000Y1060000D03*
X720000Y1400000D03*
X380000Y1740000D03*
D13*
X277000Y1530000D02*
X167000Y1530000D01*
X277000Y1530000D02*
X277000Y1573000D01*
X167000Y1536000D02*
X167000Y1530000D01*
X167000Y1620000D02*
X181000Y1620000D01*
X203000Y1620000D02*
X277000Y1620000D01*
X167000Y1620000D02*
X167000Y1558000D01*
X277000Y1608000D02*
X277000Y1620000D01*
D12*
X50000Y970000D03*
X50000Y810000D03*
X360000Y970000D03*
X360000Y810000D03*
D14*
X207000Y358000D03*
X207000Y572000D03*
X521000Y572000D03*
D15*
X204000Y426900D03*
D16*
X204000Y452300D03*
X204000Y477700D03*
X204000Y503100D03*
D14*
X521000Y358000D03*
D17*
X609500Y401300D03*
X609500Y426700D03*
X609500Y501300D03*
X609500Y526700D03*
X424500Y526700D03*
X424500Y501300D03*
X424500Y426700D03*
X424500Y401300D03*
D18*
X566750Y460000D03*
X560250Y460000D03*
X553750Y460000D03*
X547250Y460000D03*
X547250Y486000D03*
X553750Y486000D03*
X560250Y486000D03*
X566750Y486000D03*
D19*
X589000Y458500D03*
X589000Y475500D03*
D20*
X591000Y415500D03*
X591000Y398500D03*
D21*
X354000Y495000D03*
X354000Y523000D03*
D19*
X378000Y500500D03*
X378000Y517500D03*
D20*
X507500Y502000D03*
X524500Y502000D03*
D19*
X571500Y518000D03*
X588500Y518000D03*
X556500Y518000D03*
X539500Y518000D03*
D20*
X539500Y539000D03*
X556500Y539000D03*
D22*
X504000Y422000D03*
X476000Y422000D03*
X504000Y400000D03*
X476000Y400000D03*
D23*
X465000Y471000D03*
X465000Y515000D03*
D24*
X374700Y567500D03*
X349300Y567500D03*
X274700Y567500D03*
X249300Y567500D03*
X249300Y382500D03*
X274700Y382500D03*
X349300Y382500D03*
X374700Y382500D03*
D25*
X316000Y524750D03*
X316000Y518250D03*
X316000Y511750D03*
X316000Y505250D03*
X290000Y505250D03*
X290000Y511750D03*
X290000Y518250D03*
X290000Y524750D03*
D20*
X317500Y547000D03*
X300500Y547000D03*
D19*
X360500Y548000D03*
X377500Y548000D03*
D22*
X537200Y421600D03*
X565200Y421600D03*
D20*
X542600Y399600D03*
X559600Y399600D03*
D19*
X274000Y464500D03*
X274000Y481500D03*
D20*
X258000Y529500D03*
X258000Y546500D03*
X258000Y513500D03*
X258000Y496500D03*
D19*
X237000Y496500D03*
X237000Y513500D03*
D21*
X375500Y462000D03*
X375500Y434000D03*
X353500Y462000D03*
X353500Y434000D03*
D26*
X305000Y423000D03*
X261000Y423000D03*
D27*
X25000Y292500D03*
X25000Y277500D03*
D20*
X41000Y276500D03*
X41000Y293500D03*
D27*
X25000Y326500D03*
X25000Y311500D03*
D20*
X41000Y310500D03*
X41000Y327500D03*
D16*
X227000Y157800D03*
X227000Y183200D03*
X227000Y208600D03*
X227000Y234000D03*
X227000Y259400D03*
X227000Y284800D03*
X227000Y310200D03*
D17*
X355800Y236700D03*
X355800Y211300D03*
X355800Y185900D03*
X355800Y160500D03*
X355800Y135100D03*
X355800Y262100D03*
X355800Y287500D03*
X355800Y312900D03*
D28*
X264709Y620440D03*
X310000Y633000D03*
X355291Y645560D03*
D29*
X487341Y682478D03*
X463193Y688948D03*
X438272Y695626D03*
D30*
X224993Y649504D02*
X220357Y657219D01*
X209643Y650781D02*
X214278Y643067D01*
X172709Y611680D02*
X166571Y618262D01*
X157429Y609737D02*
X163567Y603155D01*
X128957Y563958D02*
X121585Y569120D01*
X114415Y558880D02*
X121788Y553718D01*
D31*
X672920Y545100D02*
X687080Y545100D01*
X687080Y519700D02*
X672920Y519700D01*
X672920Y494300D02*
X687080Y494300D01*
X687080Y468900D02*
X672920Y468900D01*
X672920Y443500D02*
X687080Y443500D01*
X687080Y418100D02*
X672920Y418100D01*
X672920Y392700D02*
X687080Y392700D01*
X687080Y367300D02*
X672920Y367300D01*
X672920Y341900D02*
X687080Y341900D01*
X687080Y316500D02*
X672920Y316500D01*
X672920Y291100D02*
X687080Y291100D01*
X687080Y265700D02*
X672920Y265700D01*
X672920Y240300D02*
X687080Y240300D01*
X687080Y214900D02*
X672920Y214900D01*
X87080Y539700D02*
X72920Y539700D01*
X72920Y514300D02*
X87080Y514300D01*
X87080Y488900D02*
X72920Y488900D01*
X72920Y463500D02*
X87080Y463500D01*
X87080Y438100D02*
X72920Y438100D01*
X72920Y412700D02*
X87080Y412700D01*
X87080Y387300D02*
X72920Y387300D01*
X72920Y361900D02*
X87080Y361900D01*
X87080Y336500D02*
X72920Y336500D01*
X72920Y311100D02*
X87080Y311100D01*
X87080Y285700D02*
X72920Y285700D01*
X72920Y260300D02*
X87080Y260300D01*
D30*
X630158Y565852D02*
X637052Y571637D01*
X629017Y581212D02*
X622123Y575427D01*
X614088Y585003D02*
X620983Y590788D01*
X612948Y600363D02*
X606053Y594578D01*
X574693Y623559D02*
X579726Y631020D01*
X569363Y638010D02*
X564330Y630549D01*
X553967Y637539D02*
X559000Y645000D01*
X548637Y651990D02*
X543604Y644529D01*
X533241Y651518D02*
X538274Y658980D01*
D31*
X467700Y82080D02*
X467700Y67920D01*
X442300Y67920D02*
X442300Y82080D01*
X241900Y82080D02*
X241900Y67920D01*
X267300Y67920D02*
X267300Y82080D01*
X292700Y82080D02*
X292700Y67920D01*
X318100Y67920D02*
X318100Y82080D01*
X446600Y826920D02*
X446600Y841080D01*
X472000Y841080D02*
X472000Y826920D01*
X497400Y826920D02*
X497400Y841080D01*
X474700Y930920D02*
X474700Y945080D01*
X449300Y945080D02*
X449300Y930920D01*
D32*
X590500Y968750D02*
X598500Y968750D01*
X598500Y956250D02*
X590500Y956250D01*
X590500Y943750D02*
X598500Y943750D01*
X598500Y931250D02*
X590500Y931250D01*
X590500Y918750D02*
X598500Y918750D01*
X598500Y1014750D02*
X590500Y1014750D01*
X590500Y1002250D02*
X598500Y1002250D01*
D33*
X605500Y850500D03*
D34*
X605500Y875500D03*
D33*
X605500Y771500D03*
D34*
X605500Y796500D03*
D35*
X158000Y1425000D03*
X158000Y1505000D03*
D36*
X177623Y1425058D03*
X187123Y1445058D03*
X168123Y1445058D03*
D19*
X169500Y1460000D03*
X186500Y1460000D03*
X186500Y1481000D03*
X169500Y1481000D03*
D31*
X479266Y1070410D02*
X482330Y1056585D01*
X457532Y1051088D02*
X454468Y1064912D01*
X429670Y1059415D02*
X432734Y1045590D01*
X412080Y1621300D02*
X397920Y1621300D01*
X397920Y1595900D02*
X412080Y1595900D01*
X412080Y1570500D02*
X397920Y1570500D01*
X397920Y1545100D02*
X412080Y1545100D01*
X412080Y1519700D02*
X397920Y1519700D01*
X397920Y1494300D02*
X412080Y1494300D01*
X412080Y1468900D02*
X397920Y1468900D01*
X397920Y1443500D02*
X412080Y1443500D01*
X412080Y1418100D02*
X397920Y1418100D01*
X397920Y1392700D02*
X412080Y1392700D01*
X412080Y1367300D02*
X397920Y1367300D01*
X397920Y1341900D02*
X412080Y1341900D01*
X412080Y1316500D02*
X397920Y1316500D01*
X397920Y1291100D02*
X412080Y1291100D01*
X412080Y1265700D02*
X397920Y1265700D01*
X397920Y1240300D02*
X412080Y1240300D01*
X412080Y1214900D02*
X397920Y1214900D01*
X397920Y1189500D02*
X412080Y1189500D01*
X412080Y1164100D02*
X397920Y1164100D01*
X397920Y1138700D02*
X412080Y1138700D01*
X547920Y1138700D02*
X562080Y1138700D01*
X562080Y1164100D02*
X547920Y1164100D01*
X547920Y1189500D02*
X562080Y1189500D01*
X562080Y1214900D02*
X547920Y1214900D01*
X547920Y1240300D02*
X562080Y1240300D01*
X562080Y1265700D02*
X547920Y1265700D01*
X547920Y1291100D02*
X562080Y1291100D01*
X562080Y1316500D02*
X547920Y1316500D01*
X547920Y1341900D02*
X562080Y1341900D01*
X562080Y1367300D02*
X547920Y1367300D01*
X547920Y1392700D02*
X562080Y1392700D01*
X562080Y1418100D02*
X547920Y1418100D01*
X547920Y1443500D02*
X562080Y1443500D01*
X562080Y1468900D02*
X547920Y1468900D01*
X547920Y1494300D02*
X562080Y1494300D01*
X562080Y1519700D02*
X547920Y1519700D01*
X547920Y1545100D02*
X562080Y1545100D01*
X562080Y1570500D02*
X547920Y1570500D01*
X547920Y1595900D02*
X562080Y1595900D01*
X562080Y1621300D02*
X547920Y1621300D01*
D24*
X326300Y1593100D03*
X326300Y1567700D03*
X326300Y1542300D03*
X326300Y1516900D03*
D19*
X292500Y1564000D03*
X309500Y1564000D03*
X292500Y1586000D03*
X309500Y1586000D03*
D37*
X261000Y1368750D03*
X261000Y1362250D03*
X261000Y1355750D03*
X261000Y1349250D03*
X261000Y1342750D03*
X261000Y1336250D03*
X261000Y1329750D03*
X261000Y1323250D03*
X203000Y1323250D03*
X203000Y1329750D03*
X203000Y1336250D03*
X203000Y1342750D03*
X203000Y1349250D03*
X203000Y1355750D03*
X203000Y1362250D03*
X203000Y1368750D03*
D19*
X219500Y1545000D03*
X236500Y1545000D03*
X219500Y1605000D03*
X236500Y1605000D03*
X223000Y1564500D03*
X223000Y1581500D03*
D38*
X192000Y1603000D03*
X192000Y1547000D03*
D39*
X366300Y1703050D03*
X366300Y1690350D03*
X366300Y1677650D03*
X366300Y1664950D03*
X301700Y1664950D03*
X301700Y1677650D03*
X301700Y1690350D03*
X301700Y1703050D03*
D40*
X277926Y1734765D03*
X302074Y1741235D03*
D20*
X388000Y1691500D03*
X388000Y1708500D03*
X409000Y1708500D03*
X409000Y1691500D03*
D41*
X194175Y1696750D03*
X215825Y1709250D03*
D20*
X388000Y1660500D03*
X388000Y1677500D03*
X409000Y1677500D03*
X409000Y1660500D03*
D30*
X433282Y1737222D02*
X434845Y1746085D01*
X447155Y1743915D02*
X445592Y1735051D01*
X326718Y1062778D02*
X325155Y1053915D01*
X312845Y1056085D02*
X314408Y1064949D01*
X115136Y1184796D02*
X108044Y1179255D01*
X100348Y1189105D02*
X107440Y1194646D01*
D42*
X478500Y1295000D03*
X488000Y1295000D03*
X497500Y1295000D03*
X497500Y1269000D03*
X488000Y1269000D03*
X478500Y1269000D03*
D19*
X440500Y1210000D03*
X457500Y1210000D03*
X519500Y1210000D03*
X502500Y1210000D03*
D20*
X461000Y1275500D03*
X461000Y1292500D03*
X515000Y1275500D03*
X515000Y1292500D03*
D19*
X474500Y1311000D03*
X457500Y1311000D03*
X501500Y1310000D03*
X518500Y1310000D03*
D42*
X480500Y1411000D03*
X471000Y1411000D03*
X461500Y1411000D03*
X461500Y1437000D03*
X471000Y1437000D03*
X480500Y1437000D03*
D19*
X516500Y1506000D03*
X499500Y1506000D03*
X437500Y1506000D03*
X454500Y1506000D03*
D20*
X498000Y1430500D03*
X498000Y1413500D03*
X444000Y1430500D03*
X444000Y1413500D03*
D19*
X484500Y1396000D03*
X501500Y1396000D03*
X457500Y1396000D03*
X440500Y1396000D03*
X169500Y1350000D03*
X186500Y1350000D03*
D43*
X191800Y1641000D03*
X344200Y1641000D03*
D31*
X672920Y1565100D02*
X687080Y1565100D01*
X687080Y1539700D02*
X672920Y1539700D01*
X672920Y1514300D02*
X687080Y1514300D01*
X687080Y1488900D02*
X672920Y1488900D01*
X672920Y1463500D02*
X687080Y1463500D01*
X687080Y1438100D02*
X672920Y1438100D01*
X672920Y1412700D02*
X687080Y1412700D01*
X687080Y1387300D02*
X672920Y1387300D01*
X672920Y1361900D02*
X687080Y1361900D01*
X687080Y1336500D02*
X672920Y1336500D01*
X672920Y1311100D02*
X687080Y1311100D01*
X687080Y1285700D02*
X672920Y1285700D01*
X672920Y1260300D02*
X687080Y1260300D01*
X687080Y1234900D02*
X672920Y1234900D01*
X87080Y1559700D02*
X72920Y1559700D01*
X72920Y1534300D02*
X87080Y1534300D01*
X87080Y1508900D02*
X72920Y1508900D01*
X72920Y1483500D02*
X87080Y1483500D01*
X87080Y1458100D02*
X72920Y1458100D01*
X72920Y1432700D02*
X87080Y1432700D01*
X87080Y1407300D02*
X72920Y1407300D01*
X72920Y1381900D02*
X87080Y1381900D01*
X87080Y1356500D02*
X72920Y1356500D01*
X72920Y1331100D02*
X87080Y1331100D01*
X87080Y1305700D02*
X72920Y1305700D01*
X72920Y1280300D02*
X87080Y1280300D01*
D30*
X81849Y1234392D02*
X73902Y1230167D01*
X68034Y1241203D02*
X75980Y1245429D01*
D44*
X239000Y1569250D03*
X239000Y1575750D03*
X239000Y1582250D03*
X239000Y1588750D03*
X265000Y1588750D03*
X265000Y1582250D03*
X265000Y1575750D03*
X265000Y1569250D03*
D45*
X448500Y1230000D03*
X448500Y1240000D03*
X448500Y1250000D03*
X471500Y1250000D03*
X471500Y1240000D03*
X471500Y1230000D03*
X511500Y1250000D03*
X511500Y1240000D03*
X511500Y1230000D03*
X488500Y1230000D03*
X488500Y1240000D03*
X488500Y1250000D03*
X511500Y1475000D03*
X511500Y1465000D03*
X511500Y1455000D03*
X488500Y1455000D03*
X488500Y1465000D03*
X488500Y1475000D03*
X443500Y1455000D03*
X443500Y1465000D03*
X443500Y1475000D03*
X466500Y1475000D03*
X466500Y1465000D03*
X466500Y1455000D03*
D20*
X131500Y809000D03*
X148500Y809000D03*
D19*
X327000Y838500D03*
X327000Y821500D03*
X148500Y872000D03*
X131500Y872000D03*
X148500Y851000D03*
X131500Y851000D03*
X131500Y893000D03*
X148500Y893000D03*
X148500Y914000D03*
X131500Y914000D03*
X131500Y830000D03*
X148500Y830000D03*
X148500Y935000D03*
X131500Y935000D03*
D46*
X179000Y870000D03*
X179000Y882700D03*
X179000Y895400D03*
X179000Y908100D03*
X231000Y908100D03*
X231000Y895400D03*
X231000Y882700D03*
X231000Y870000D03*
D11*
X105000Y845000D03*
X105000Y935000D03*
D47*
X195000Y935000D03*
D48*
X310000Y804000D03*
X297300Y804000D03*
X284600Y804000D03*
X271900Y804000D03*
X271900Y856000D03*
X284600Y856000D03*
X297300Y856000D03*
X310000Y856000D03*
D49*
X290000Y943000D03*
X280500Y963000D03*
X299500Y963000D03*
D31*
X37080Y859600D02*
X22920Y859600D01*
X22920Y885000D02*
X37080Y885000D01*
X37080Y910400D02*
X22920Y910400D01*
D50*
X516295Y460797D03*
X536295Y460797D03*
X526295Y460797D03*
X506295Y460797D03*
X496295Y460797D03*
X536295Y450797D03*
X526295Y450797D03*
X516295Y450797D03*
X506295Y450797D03*
X496295Y450797D03*
X620295Y467797D03*
X610295Y467797D03*
X610295Y457797D03*
X620295Y457797D03*
X610295Y447797D03*
X620295Y447797D03*
X315203Y474295D03*
X315203Y494295D03*
X315203Y484295D03*
X315203Y464295D03*
X315203Y454295D03*
X325203Y494295D03*
X325203Y484295D03*
X325203Y474295D03*
X325203Y464295D03*
X325203Y454295D03*
X308203Y578295D03*
X308203Y568295D03*
X318203Y568295D03*
X318203Y578295D03*
X328203Y568295D03*
X328203Y578295D03*
X501000Y314000D03*
X390000Y314000D03*
D51*
X590000Y579000D03*
D50*
X16000Y340000D03*
X627000Y279000D03*
X627000Y169000D03*
X417000Y293000D03*
X460000Y536000D03*
X460000Y560000D03*
X170000Y540000D03*
X223000Y522000D03*
X575295Y395797D03*
X562295Y501797D03*
X380203Y533295D03*
X274203Y520295D03*
X446000Y197000D03*
X439000Y298000D03*
X457000Y197000D03*
X452000Y298000D03*
D52*
X398000Y220000D03*
X553000Y230000D03*
X540000Y231000D03*
D50*
X386000Y200000D03*
X526000Y629000D03*
X170718Y495000D03*
X671000Y592000D03*
X516000Y858000D03*
X653919Y779018D03*
X717500Y980000D03*
X647808Y898218D03*
X612500Y900000D03*
X655218Y972318D03*
X640500Y1006348D03*
X721178Y848000D03*
X721178Y839000D03*
X702500Y882000D03*
X702500Y798000D03*
X617500Y805000D03*
X637674Y895174D03*
X646500Y829000D03*
X252000Y1605000D03*
X252000Y1545000D03*
X182000Y1575000D03*
X481000Y1183000D03*
X246000Y1335000D03*
X158282Y1350000D03*
X187123Y1434000D03*
X478000Y1474000D03*
X516000Y1439000D03*
X488000Y1339000D03*
X488000Y1309000D03*
X531000Y1501000D03*
X509000Y1084000D03*
X277000Y1182000D03*
X430000Y1200000D03*
X531000Y1200000D03*
X521000Y1487000D03*
X429000Y1487000D03*
X347000Y1477000D03*
X310000Y1607000D03*
X480000Y1130000D03*
X458000Y1103000D03*
X220000Y1321000D03*
X300089Y1575089D03*
X332000Y1269000D03*
X332000Y1257000D03*
X529000Y1705000D03*
X583000Y1670000D03*
X235000Y1352000D03*
X185000Y1336000D03*
X193000Y870000D03*
D52*
X161000Y872000D03*
D50*
X193000Y883000D03*
D52*
X118000Y872000D03*
D50*
X280000Y842000D03*
X297718Y819000D03*
X280000Y824936D03*
X280000Y980000D03*
X300000Y980000D03*
X280000Y937000D03*
X338442Y829558D03*
X169750Y830250D03*
M02*
