G04 EAGLE Gerber RS-274X export*
G75*
%MOMM*%
%FSLAX34Y34*%
%LPD*%
%IN*%
%IPPOS*%
%AMOC8*
5,1,8,0,0,1.08239X$1,22.5*%
G01*
%ADD10C,0.100000*%
%ADD11C,0.152400*%
%ADD12C,0.001000*%
%ADD13C,0.000000*%
%ADD14C,0.127000*%


D10*
X810000Y10000D02*
X1246000Y10000D01*
X1256000Y50000D02*
X1256000Y250000D01*
X1256000Y290000D02*
X1256000Y430000D01*
X1246000Y470000D02*
X810000Y470000D01*
D11*
X841000Y30000D02*
X841003Y30221D01*
X841011Y30442D01*
X841024Y30662D01*
X841043Y30882D01*
X841068Y31102D01*
X841097Y31321D01*
X841133Y31539D01*
X841173Y31756D01*
X841219Y31972D01*
X841270Y32187D01*
X841326Y32400D01*
X841388Y32613D01*
X841454Y32823D01*
X841526Y33032D01*
X841603Y33239D01*
X841685Y33444D01*
X841772Y33647D01*
X841864Y33848D01*
X841961Y34047D01*
X842063Y34243D01*
X842169Y34436D01*
X842280Y34627D01*
X842396Y34815D01*
X842517Y35000D01*
X842642Y35182D01*
X842771Y35361D01*
X842905Y35537D01*
X843043Y35710D01*
X843185Y35879D01*
X843331Y36044D01*
X843482Y36206D01*
X843636Y36364D01*
X843794Y36518D01*
X843956Y36669D01*
X844121Y36815D01*
X844290Y36957D01*
X844463Y37095D01*
X844639Y37229D01*
X844818Y37358D01*
X845000Y37483D01*
X845185Y37604D01*
X845373Y37720D01*
X845564Y37831D01*
X845757Y37937D01*
X845953Y38039D01*
X846152Y38136D01*
X846353Y38228D01*
X846556Y38315D01*
X846761Y38397D01*
X846968Y38474D01*
X847177Y38546D01*
X847387Y38612D01*
X847600Y38674D01*
X847813Y38730D01*
X848028Y38781D01*
X848244Y38827D01*
X848461Y38867D01*
X848679Y38903D01*
X848898Y38932D01*
X849118Y38957D01*
X849338Y38976D01*
X849558Y38989D01*
X849779Y38997D01*
X850000Y39000D01*
X850221Y38997D01*
X850442Y38989D01*
X850662Y38976D01*
X850882Y38957D01*
X851102Y38932D01*
X851321Y38903D01*
X851539Y38867D01*
X851756Y38827D01*
X851972Y38781D01*
X852187Y38730D01*
X852400Y38674D01*
X852613Y38612D01*
X852823Y38546D01*
X853032Y38474D01*
X853239Y38397D01*
X853444Y38315D01*
X853647Y38228D01*
X853848Y38136D01*
X854047Y38039D01*
X854243Y37937D01*
X854436Y37831D01*
X854627Y37720D01*
X854815Y37604D01*
X855000Y37483D01*
X855182Y37358D01*
X855361Y37229D01*
X855537Y37095D01*
X855710Y36957D01*
X855879Y36815D01*
X856044Y36669D01*
X856206Y36518D01*
X856364Y36364D01*
X856518Y36206D01*
X856669Y36044D01*
X856815Y35879D01*
X856957Y35710D01*
X857095Y35537D01*
X857229Y35361D01*
X857358Y35182D01*
X857483Y35000D01*
X857604Y34815D01*
X857720Y34627D01*
X857831Y34436D01*
X857937Y34243D01*
X858039Y34047D01*
X858136Y33848D01*
X858228Y33647D01*
X858315Y33444D01*
X858397Y33239D01*
X858474Y33032D01*
X858546Y32823D01*
X858612Y32613D01*
X858674Y32400D01*
X858730Y32187D01*
X858781Y31972D01*
X858827Y31756D01*
X858867Y31539D01*
X858903Y31321D01*
X858932Y31102D01*
X858957Y30882D01*
X858976Y30662D01*
X858989Y30442D01*
X858997Y30221D01*
X859000Y30000D01*
X858997Y29779D01*
X858989Y29558D01*
X858976Y29338D01*
X858957Y29118D01*
X858932Y28898D01*
X858903Y28679D01*
X858867Y28461D01*
X858827Y28244D01*
X858781Y28028D01*
X858730Y27813D01*
X858674Y27600D01*
X858612Y27387D01*
X858546Y27177D01*
X858474Y26968D01*
X858397Y26761D01*
X858315Y26556D01*
X858228Y26353D01*
X858136Y26152D01*
X858039Y25953D01*
X857937Y25757D01*
X857831Y25564D01*
X857720Y25373D01*
X857604Y25185D01*
X857483Y25000D01*
X857358Y24818D01*
X857229Y24639D01*
X857095Y24463D01*
X856957Y24290D01*
X856815Y24121D01*
X856669Y23956D01*
X856518Y23794D01*
X856364Y23636D01*
X856206Y23482D01*
X856044Y23331D01*
X855879Y23185D01*
X855710Y23043D01*
X855537Y22905D01*
X855361Y22771D01*
X855182Y22642D01*
X855000Y22517D01*
X854815Y22396D01*
X854627Y22280D01*
X854436Y22169D01*
X854243Y22063D01*
X854047Y21961D01*
X853848Y21864D01*
X853647Y21772D01*
X853444Y21685D01*
X853239Y21603D01*
X853032Y21526D01*
X852823Y21454D01*
X852613Y21388D01*
X852400Y21326D01*
X852187Y21270D01*
X851972Y21219D01*
X851756Y21173D01*
X851539Y21133D01*
X851321Y21097D01*
X851102Y21068D01*
X850882Y21043D01*
X850662Y21024D01*
X850442Y21011D01*
X850221Y21003D01*
X850000Y21000D01*
X849779Y21003D01*
X849558Y21011D01*
X849338Y21024D01*
X849118Y21043D01*
X848898Y21068D01*
X848679Y21097D01*
X848461Y21133D01*
X848244Y21173D01*
X848028Y21219D01*
X847813Y21270D01*
X847600Y21326D01*
X847387Y21388D01*
X847177Y21454D01*
X846968Y21526D01*
X846761Y21603D01*
X846556Y21685D01*
X846353Y21772D01*
X846152Y21864D01*
X845953Y21961D01*
X845757Y22063D01*
X845564Y22169D01*
X845373Y22280D01*
X845185Y22396D01*
X845000Y22517D01*
X844818Y22642D01*
X844639Y22771D01*
X844463Y22905D01*
X844290Y23043D01*
X844121Y23185D01*
X843956Y23331D01*
X843794Y23482D01*
X843636Y23636D01*
X843482Y23794D01*
X843331Y23956D01*
X843185Y24121D01*
X843043Y24290D01*
X842905Y24463D01*
X842771Y24639D01*
X842642Y24818D01*
X842517Y25000D01*
X842396Y25185D01*
X842280Y25373D01*
X842169Y25564D01*
X842063Y25757D01*
X841961Y25953D01*
X841864Y26152D01*
X841772Y26353D01*
X841685Y26556D01*
X841603Y26761D01*
X841526Y26968D01*
X841454Y27177D01*
X841388Y27387D01*
X841326Y27600D01*
X841270Y27813D01*
X841219Y28028D01*
X841173Y28244D01*
X841133Y28461D01*
X841097Y28679D01*
X841068Y28898D01*
X841043Y29118D01*
X841024Y29338D01*
X841011Y29558D01*
X841003Y29779D01*
X841000Y30000D01*
X1197000Y30000D02*
X1197003Y30221D01*
X1197011Y30442D01*
X1197024Y30662D01*
X1197043Y30882D01*
X1197068Y31102D01*
X1197097Y31321D01*
X1197133Y31539D01*
X1197173Y31756D01*
X1197219Y31972D01*
X1197270Y32187D01*
X1197326Y32400D01*
X1197388Y32613D01*
X1197454Y32823D01*
X1197526Y33032D01*
X1197603Y33239D01*
X1197685Y33444D01*
X1197772Y33647D01*
X1197864Y33848D01*
X1197961Y34047D01*
X1198063Y34243D01*
X1198169Y34436D01*
X1198280Y34627D01*
X1198396Y34815D01*
X1198517Y35000D01*
X1198642Y35182D01*
X1198771Y35361D01*
X1198905Y35537D01*
X1199043Y35710D01*
X1199185Y35879D01*
X1199331Y36044D01*
X1199482Y36206D01*
X1199636Y36364D01*
X1199794Y36518D01*
X1199956Y36669D01*
X1200121Y36815D01*
X1200290Y36957D01*
X1200463Y37095D01*
X1200639Y37229D01*
X1200818Y37358D01*
X1201000Y37483D01*
X1201185Y37604D01*
X1201373Y37720D01*
X1201564Y37831D01*
X1201757Y37937D01*
X1201953Y38039D01*
X1202152Y38136D01*
X1202353Y38228D01*
X1202556Y38315D01*
X1202761Y38397D01*
X1202968Y38474D01*
X1203177Y38546D01*
X1203387Y38612D01*
X1203600Y38674D01*
X1203813Y38730D01*
X1204028Y38781D01*
X1204244Y38827D01*
X1204461Y38867D01*
X1204679Y38903D01*
X1204898Y38932D01*
X1205118Y38957D01*
X1205338Y38976D01*
X1205558Y38989D01*
X1205779Y38997D01*
X1206000Y39000D01*
X1206221Y38997D01*
X1206442Y38989D01*
X1206662Y38976D01*
X1206882Y38957D01*
X1207102Y38932D01*
X1207321Y38903D01*
X1207539Y38867D01*
X1207756Y38827D01*
X1207972Y38781D01*
X1208187Y38730D01*
X1208400Y38674D01*
X1208613Y38612D01*
X1208823Y38546D01*
X1209032Y38474D01*
X1209239Y38397D01*
X1209444Y38315D01*
X1209647Y38228D01*
X1209848Y38136D01*
X1210047Y38039D01*
X1210243Y37937D01*
X1210436Y37831D01*
X1210627Y37720D01*
X1210815Y37604D01*
X1211000Y37483D01*
X1211182Y37358D01*
X1211361Y37229D01*
X1211537Y37095D01*
X1211710Y36957D01*
X1211879Y36815D01*
X1212044Y36669D01*
X1212206Y36518D01*
X1212364Y36364D01*
X1212518Y36206D01*
X1212669Y36044D01*
X1212815Y35879D01*
X1212957Y35710D01*
X1213095Y35537D01*
X1213229Y35361D01*
X1213358Y35182D01*
X1213483Y35000D01*
X1213604Y34815D01*
X1213720Y34627D01*
X1213831Y34436D01*
X1213937Y34243D01*
X1214039Y34047D01*
X1214136Y33848D01*
X1214228Y33647D01*
X1214315Y33444D01*
X1214397Y33239D01*
X1214474Y33032D01*
X1214546Y32823D01*
X1214612Y32613D01*
X1214674Y32400D01*
X1214730Y32187D01*
X1214781Y31972D01*
X1214827Y31756D01*
X1214867Y31539D01*
X1214903Y31321D01*
X1214932Y31102D01*
X1214957Y30882D01*
X1214976Y30662D01*
X1214989Y30442D01*
X1214997Y30221D01*
X1215000Y30000D01*
X1214997Y29779D01*
X1214989Y29558D01*
X1214976Y29338D01*
X1214957Y29118D01*
X1214932Y28898D01*
X1214903Y28679D01*
X1214867Y28461D01*
X1214827Y28244D01*
X1214781Y28028D01*
X1214730Y27813D01*
X1214674Y27600D01*
X1214612Y27387D01*
X1214546Y27177D01*
X1214474Y26968D01*
X1214397Y26761D01*
X1214315Y26556D01*
X1214228Y26353D01*
X1214136Y26152D01*
X1214039Y25953D01*
X1213937Y25757D01*
X1213831Y25564D01*
X1213720Y25373D01*
X1213604Y25185D01*
X1213483Y25000D01*
X1213358Y24818D01*
X1213229Y24639D01*
X1213095Y24463D01*
X1212957Y24290D01*
X1212815Y24121D01*
X1212669Y23956D01*
X1212518Y23794D01*
X1212364Y23636D01*
X1212206Y23482D01*
X1212044Y23331D01*
X1211879Y23185D01*
X1211710Y23043D01*
X1211537Y22905D01*
X1211361Y22771D01*
X1211182Y22642D01*
X1211000Y22517D01*
X1210815Y22396D01*
X1210627Y22280D01*
X1210436Y22169D01*
X1210243Y22063D01*
X1210047Y21961D01*
X1209848Y21864D01*
X1209647Y21772D01*
X1209444Y21685D01*
X1209239Y21603D01*
X1209032Y21526D01*
X1208823Y21454D01*
X1208613Y21388D01*
X1208400Y21326D01*
X1208187Y21270D01*
X1207972Y21219D01*
X1207756Y21173D01*
X1207539Y21133D01*
X1207321Y21097D01*
X1207102Y21068D01*
X1206882Y21043D01*
X1206662Y21024D01*
X1206442Y21011D01*
X1206221Y21003D01*
X1206000Y21000D01*
X1205779Y21003D01*
X1205558Y21011D01*
X1205338Y21024D01*
X1205118Y21043D01*
X1204898Y21068D01*
X1204679Y21097D01*
X1204461Y21133D01*
X1204244Y21173D01*
X1204028Y21219D01*
X1203813Y21270D01*
X1203600Y21326D01*
X1203387Y21388D01*
X1203177Y21454D01*
X1202968Y21526D01*
X1202761Y21603D01*
X1202556Y21685D01*
X1202353Y21772D01*
X1202152Y21864D01*
X1201953Y21961D01*
X1201757Y22063D01*
X1201564Y22169D01*
X1201373Y22280D01*
X1201185Y22396D01*
X1201000Y22517D01*
X1200818Y22642D01*
X1200639Y22771D01*
X1200463Y22905D01*
X1200290Y23043D01*
X1200121Y23185D01*
X1199956Y23331D01*
X1199794Y23482D01*
X1199636Y23636D01*
X1199482Y23794D01*
X1199331Y23956D01*
X1199185Y24121D01*
X1199043Y24290D01*
X1198905Y24463D01*
X1198771Y24639D01*
X1198642Y24818D01*
X1198517Y25000D01*
X1198396Y25185D01*
X1198280Y25373D01*
X1198169Y25564D01*
X1198063Y25757D01*
X1197961Y25953D01*
X1197864Y26152D01*
X1197772Y26353D01*
X1197685Y26556D01*
X1197603Y26761D01*
X1197526Y26968D01*
X1197454Y27177D01*
X1197388Y27387D01*
X1197326Y27600D01*
X1197270Y27813D01*
X1197219Y28028D01*
X1197173Y28244D01*
X1197133Y28461D01*
X1197097Y28679D01*
X1197068Y28898D01*
X1197043Y29118D01*
X1197024Y29338D01*
X1197011Y29558D01*
X1197003Y29779D01*
X1197000Y30000D01*
X1197000Y450000D02*
X1197003Y450221D01*
X1197011Y450442D01*
X1197024Y450662D01*
X1197043Y450882D01*
X1197068Y451102D01*
X1197097Y451321D01*
X1197133Y451539D01*
X1197173Y451756D01*
X1197219Y451972D01*
X1197270Y452187D01*
X1197326Y452400D01*
X1197388Y452613D01*
X1197454Y452823D01*
X1197526Y453032D01*
X1197603Y453239D01*
X1197685Y453444D01*
X1197772Y453647D01*
X1197864Y453848D01*
X1197961Y454047D01*
X1198063Y454243D01*
X1198169Y454436D01*
X1198280Y454627D01*
X1198396Y454815D01*
X1198517Y455000D01*
X1198642Y455182D01*
X1198771Y455361D01*
X1198905Y455537D01*
X1199043Y455710D01*
X1199185Y455879D01*
X1199331Y456044D01*
X1199482Y456206D01*
X1199636Y456364D01*
X1199794Y456518D01*
X1199956Y456669D01*
X1200121Y456815D01*
X1200290Y456957D01*
X1200463Y457095D01*
X1200639Y457229D01*
X1200818Y457358D01*
X1201000Y457483D01*
X1201185Y457604D01*
X1201373Y457720D01*
X1201564Y457831D01*
X1201757Y457937D01*
X1201953Y458039D01*
X1202152Y458136D01*
X1202353Y458228D01*
X1202556Y458315D01*
X1202761Y458397D01*
X1202968Y458474D01*
X1203177Y458546D01*
X1203387Y458612D01*
X1203600Y458674D01*
X1203813Y458730D01*
X1204028Y458781D01*
X1204244Y458827D01*
X1204461Y458867D01*
X1204679Y458903D01*
X1204898Y458932D01*
X1205118Y458957D01*
X1205338Y458976D01*
X1205558Y458989D01*
X1205779Y458997D01*
X1206000Y459000D01*
X1206221Y458997D01*
X1206442Y458989D01*
X1206662Y458976D01*
X1206882Y458957D01*
X1207102Y458932D01*
X1207321Y458903D01*
X1207539Y458867D01*
X1207756Y458827D01*
X1207972Y458781D01*
X1208187Y458730D01*
X1208400Y458674D01*
X1208613Y458612D01*
X1208823Y458546D01*
X1209032Y458474D01*
X1209239Y458397D01*
X1209444Y458315D01*
X1209647Y458228D01*
X1209848Y458136D01*
X1210047Y458039D01*
X1210243Y457937D01*
X1210436Y457831D01*
X1210627Y457720D01*
X1210815Y457604D01*
X1211000Y457483D01*
X1211182Y457358D01*
X1211361Y457229D01*
X1211537Y457095D01*
X1211710Y456957D01*
X1211879Y456815D01*
X1212044Y456669D01*
X1212206Y456518D01*
X1212364Y456364D01*
X1212518Y456206D01*
X1212669Y456044D01*
X1212815Y455879D01*
X1212957Y455710D01*
X1213095Y455537D01*
X1213229Y455361D01*
X1213358Y455182D01*
X1213483Y455000D01*
X1213604Y454815D01*
X1213720Y454627D01*
X1213831Y454436D01*
X1213937Y454243D01*
X1214039Y454047D01*
X1214136Y453848D01*
X1214228Y453647D01*
X1214315Y453444D01*
X1214397Y453239D01*
X1214474Y453032D01*
X1214546Y452823D01*
X1214612Y452613D01*
X1214674Y452400D01*
X1214730Y452187D01*
X1214781Y451972D01*
X1214827Y451756D01*
X1214867Y451539D01*
X1214903Y451321D01*
X1214932Y451102D01*
X1214957Y450882D01*
X1214976Y450662D01*
X1214989Y450442D01*
X1214997Y450221D01*
X1215000Y450000D01*
X1214997Y449779D01*
X1214989Y449558D01*
X1214976Y449338D01*
X1214957Y449118D01*
X1214932Y448898D01*
X1214903Y448679D01*
X1214867Y448461D01*
X1214827Y448244D01*
X1214781Y448028D01*
X1214730Y447813D01*
X1214674Y447600D01*
X1214612Y447387D01*
X1214546Y447177D01*
X1214474Y446968D01*
X1214397Y446761D01*
X1214315Y446556D01*
X1214228Y446353D01*
X1214136Y446152D01*
X1214039Y445953D01*
X1213937Y445757D01*
X1213831Y445564D01*
X1213720Y445373D01*
X1213604Y445185D01*
X1213483Y445000D01*
X1213358Y444818D01*
X1213229Y444639D01*
X1213095Y444463D01*
X1212957Y444290D01*
X1212815Y444121D01*
X1212669Y443956D01*
X1212518Y443794D01*
X1212364Y443636D01*
X1212206Y443482D01*
X1212044Y443331D01*
X1211879Y443185D01*
X1211710Y443043D01*
X1211537Y442905D01*
X1211361Y442771D01*
X1211182Y442642D01*
X1211000Y442517D01*
X1210815Y442396D01*
X1210627Y442280D01*
X1210436Y442169D01*
X1210243Y442063D01*
X1210047Y441961D01*
X1209848Y441864D01*
X1209647Y441772D01*
X1209444Y441685D01*
X1209239Y441603D01*
X1209032Y441526D01*
X1208823Y441454D01*
X1208613Y441388D01*
X1208400Y441326D01*
X1208187Y441270D01*
X1207972Y441219D01*
X1207756Y441173D01*
X1207539Y441133D01*
X1207321Y441097D01*
X1207102Y441068D01*
X1206882Y441043D01*
X1206662Y441024D01*
X1206442Y441011D01*
X1206221Y441003D01*
X1206000Y441000D01*
X1205779Y441003D01*
X1205558Y441011D01*
X1205338Y441024D01*
X1205118Y441043D01*
X1204898Y441068D01*
X1204679Y441097D01*
X1204461Y441133D01*
X1204244Y441173D01*
X1204028Y441219D01*
X1203813Y441270D01*
X1203600Y441326D01*
X1203387Y441388D01*
X1203177Y441454D01*
X1202968Y441526D01*
X1202761Y441603D01*
X1202556Y441685D01*
X1202353Y441772D01*
X1202152Y441864D01*
X1201953Y441961D01*
X1201757Y442063D01*
X1201564Y442169D01*
X1201373Y442280D01*
X1201185Y442396D01*
X1201000Y442517D01*
X1200818Y442642D01*
X1200639Y442771D01*
X1200463Y442905D01*
X1200290Y443043D01*
X1200121Y443185D01*
X1199956Y443331D01*
X1199794Y443482D01*
X1199636Y443636D01*
X1199482Y443794D01*
X1199331Y443956D01*
X1199185Y444121D01*
X1199043Y444290D01*
X1198905Y444463D01*
X1198771Y444639D01*
X1198642Y444818D01*
X1198517Y445000D01*
X1198396Y445185D01*
X1198280Y445373D01*
X1198169Y445564D01*
X1198063Y445757D01*
X1197961Y445953D01*
X1197864Y446152D01*
X1197772Y446353D01*
X1197685Y446556D01*
X1197603Y446761D01*
X1197526Y446968D01*
X1197454Y447177D01*
X1197388Y447387D01*
X1197326Y447600D01*
X1197270Y447813D01*
X1197219Y448028D01*
X1197173Y448244D01*
X1197133Y448461D01*
X1197097Y448679D01*
X1197068Y448898D01*
X1197043Y449118D01*
X1197024Y449338D01*
X1197011Y449558D01*
X1197003Y449779D01*
X1197000Y450000D01*
X841000Y450000D02*
X841003Y450221D01*
X841011Y450442D01*
X841024Y450662D01*
X841043Y450882D01*
X841068Y451102D01*
X841097Y451321D01*
X841133Y451539D01*
X841173Y451756D01*
X841219Y451972D01*
X841270Y452187D01*
X841326Y452400D01*
X841388Y452613D01*
X841454Y452823D01*
X841526Y453032D01*
X841603Y453239D01*
X841685Y453444D01*
X841772Y453647D01*
X841864Y453848D01*
X841961Y454047D01*
X842063Y454243D01*
X842169Y454436D01*
X842280Y454627D01*
X842396Y454815D01*
X842517Y455000D01*
X842642Y455182D01*
X842771Y455361D01*
X842905Y455537D01*
X843043Y455710D01*
X843185Y455879D01*
X843331Y456044D01*
X843482Y456206D01*
X843636Y456364D01*
X843794Y456518D01*
X843956Y456669D01*
X844121Y456815D01*
X844290Y456957D01*
X844463Y457095D01*
X844639Y457229D01*
X844818Y457358D01*
X845000Y457483D01*
X845185Y457604D01*
X845373Y457720D01*
X845564Y457831D01*
X845757Y457937D01*
X845953Y458039D01*
X846152Y458136D01*
X846353Y458228D01*
X846556Y458315D01*
X846761Y458397D01*
X846968Y458474D01*
X847177Y458546D01*
X847387Y458612D01*
X847600Y458674D01*
X847813Y458730D01*
X848028Y458781D01*
X848244Y458827D01*
X848461Y458867D01*
X848679Y458903D01*
X848898Y458932D01*
X849118Y458957D01*
X849338Y458976D01*
X849558Y458989D01*
X849779Y458997D01*
X850000Y459000D01*
X850221Y458997D01*
X850442Y458989D01*
X850662Y458976D01*
X850882Y458957D01*
X851102Y458932D01*
X851321Y458903D01*
X851539Y458867D01*
X851756Y458827D01*
X851972Y458781D01*
X852187Y458730D01*
X852400Y458674D01*
X852613Y458612D01*
X852823Y458546D01*
X853032Y458474D01*
X853239Y458397D01*
X853444Y458315D01*
X853647Y458228D01*
X853848Y458136D01*
X854047Y458039D01*
X854243Y457937D01*
X854436Y457831D01*
X854627Y457720D01*
X854815Y457604D01*
X855000Y457483D01*
X855182Y457358D01*
X855361Y457229D01*
X855537Y457095D01*
X855710Y456957D01*
X855879Y456815D01*
X856044Y456669D01*
X856206Y456518D01*
X856364Y456364D01*
X856518Y456206D01*
X856669Y456044D01*
X856815Y455879D01*
X856957Y455710D01*
X857095Y455537D01*
X857229Y455361D01*
X857358Y455182D01*
X857483Y455000D01*
X857604Y454815D01*
X857720Y454627D01*
X857831Y454436D01*
X857937Y454243D01*
X858039Y454047D01*
X858136Y453848D01*
X858228Y453647D01*
X858315Y453444D01*
X858397Y453239D01*
X858474Y453032D01*
X858546Y452823D01*
X858612Y452613D01*
X858674Y452400D01*
X858730Y452187D01*
X858781Y451972D01*
X858827Y451756D01*
X858867Y451539D01*
X858903Y451321D01*
X858932Y451102D01*
X858957Y450882D01*
X858976Y450662D01*
X858989Y450442D01*
X858997Y450221D01*
X859000Y450000D01*
X858997Y449779D01*
X858989Y449558D01*
X858976Y449338D01*
X858957Y449118D01*
X858932Y448898D01*
X858903Y448679D01*
X858867Y448461D01*
X858827Y448244D01*
X858781Y448028D01*
X858730Y447813D01*
X858674Y447600D01*
X858612Y447387D01*
X858546Y447177D01*
X858474Y446968D01*
X858397Y446761D01*
X858315Y446556D01*
X858228Y446353D01*
X858136Y446152D01*
X858039Y445953D01*
X857937Y445757D01*
X857831Y445564D01*
X857720Y445373D01*
X857604Y445185D01*
X857483Y445000D01*
X857358Y444818D01*
X857229Y444639D01*
X857095Y444463D01*
X856957Y444290D01*
X856815Y444121D01*
X856669Y443956D01*
X856518Y443794D01*
X856364Y443636D01*
X856206Y443482D01*
X856044Y443331D01*
X855879Y443185D01*
X855710Y443043D01*
X855537Y442905D01*
X855361Y442771D01*
X855182Y442642D01*
X855000Y442517D01*
X854815Y442396D01*
X854627Y442280D01*
X854436Y442169D01*
X854243Y442063D01*
X854047Y441961D01*
X853848Y441864D01*
X853647Y441772D01*
X853444Y441685D01*
X853239Y441603D01*
X853032Y441526D01*
X852823Y441454D01*
X852613Y441388D01*
X852400Y441326D01*
X852187Y441270D01*
X851972Y441219D01*
X851756Y441173D01*
X851539Y441133D01*
X851321Y441097D01*
X851102Y441068D01*
X850882Y441043D01*
X850662Y441024D01*
X850442Y441011D01*
X850221Y441003D01*
X850000Y441000D01*
X849779Y441003D01*
X849558Y441011D01*
X849338Y441024D01*
X849118Y441043D01*
X848898Y441068D01*
X848679Y441097D01*
X848461Y441133D01*
X848244Y441173D01*
X848028Y441219D01*
X847813Y441270D01*
X847600Y441326D01*
X847387Y441388D01*
X847177Y441454D01*
X846968Y441526D01*
X846761Y441603D01*
X846556Y441685D01*
X846353Y441772D01*
X846152Y441864D01*
X845953Y441961D01*
X845757Y442063D01*
X845564Y442169D01*
X845373Y442280D01*
X845185Y442396D01*
X845000Y442517D01*
X844818Y442642D01*
X844639Y442771D01*
X844463Y442905D01*
X844290Y443043D01*
X844121Y443185D01*
X843956Y443331D01*
X843794Y443482D01*
X843636Y443636D01*
X843482Y443794D01*
X843331Y443956D01*
X843185Y444121D01*
X843043Y444290D01*
X842905Y444463D01*
X842771Y444639D01*
X842642Y444818D01*
X842517Y445000D01*
X842396Y445185D01*
X842280Y445373D01*
X842169Y445564D01*
X842063Y445757D01*
X841961Y445953D01*
X841864Y446152D01*
X841772Y446353D01*
X841685Y446556D01*
X841603Y446761D01*
X841526Y446968D01*
X841454Y447177D01*
X841388Y447387D01*
X841326Y447600D01*
X841270Y447813D01*
X841219Y448028D01*
X841173Y448244D01*
X841133Y448461D01*
X841097Y448679D01*
X841068Y448898D01*
X841043Y449118D01*
X841024Y449338D01*
X841011Y449558D01*
X841003Y449779D01*
X841000Y450000D01*
D10*
X800000Y430000D02*
X800000Y230000D01*
X800000Y190000D02*
X800000Y50000D01*
X805000Y225000D02*
X804998Y225140D01*
X804992Y225280D01*
X804982Y225420D01*
X804969Y225560D01*
X804951Y225699D01*
X804929Y225838D01*
X804904Y225975D01*
X804875Y226113D01*
X804842Y226249D01*
X804805Y226384D01*
X804764Y226518D01*
X804719Y226651D01*
X804671Y226783D01*
X804619Y226913D01*
X804564Y227042D01*
X804505Y227169D01*
X804442Y227295D01*
X804376Y227419D01*
X804307Y227540D01*
X804234Y227660D01*
X804157Y227778D01*
X804078Y227893D01*
X803995Y228007D01*
X803909Y228117D01*
X803820Y228226D01*
X803728Y228332D01*
X803633Y228435D01*
X803536Y228536D01*
X803435Y228633D01*
X803332Y228728D01*
X803226Y228820D01*
X803117Y228909D01*
X803007Y228995D01*
X802893Y229078D01*
X802778Y229157D01*
X802660Y229234D01*
X802540Y229307D01*
X802419Y229376D01*
X802295Y229442D01*
X802169Y229505D01*
X802042Y229564D01*
X801913Y229619D01*
X801783Y229671D01*
X801651Y229719D01*
X801518Y229764D01*
X801384Y229805D01*
X801249Y229842D01*
X801113Y229875D01*
X800975Y229904D01*
X800838Y229929D01*
X800699Y229951D01*
X800560Y229969D01*
X800420Y229982D01*
X800280Y229992D01*
X800140Y229998D01*
X800000Y230000D01*
X805000Y225000D02*
X805000Y195000D01*
X804998Y194860D01*
X804992Y194720D01*
X804982Y194580D01*
X804969Y194440D01*
X804951Y194301D01*
X804929Y194162D01*
X804904Y194025D01*
X804875Y193887D01*
X804842Y193751D01*
X804805Y193616D01*
X804764Y193482D01*
X804719Y193349D01*
X804671Y193217D01*
X804619Y193087D01*
X804564Y192958D01*
X804505Y192831D01*
X804442Y192705D01*
X804376Y192581D01*
X804307Y192460D01*
X804234Y192340D01*
X804157Y192222D01*
X804078Y192107D01*
X803995Y191993D01*
X803909Y191883D01*
X803820Y191774D01*
X803728Y191668D01*
X803633Y191565D01*
X803536Y191464D01*
X803435Y191367D01*
X803332Y191272D01*
X803226Y191180D01*
X803117Y191091D01*
X803007Y191005D01*
X802893Y190922D01*
X802778Y190843D01*
X802660Y190766D01*
X802540Y190693D01*
X802419Y190624D01*
X802295Y190558D01*
X802169Y190495D01*
X802042Y190436D01*
X801913Y190381D01*
X801783Y190329D01*
X801651Y190281D01*
X801518Y190236D01*
X801384Y190195D01*
X801249Y190158D01*
X801113Y190125D01*
X800975Y190096D01*
X800838Y190071D01*
X800699Y190049D01*
X800560Y190031D01*
X800420Y190018D01*
X800280Y190008D01*
X800140Y190002D01*
X800000Y190000D01*
X1251000Y285000D02*
X1251002Y285140D01*
X1251008Y285280D01*
X1251018Y285420D01*
X1251031Y285560D01*
X1251049Y285699D01*
X1251071Y285838D01*
X1251096Y285975D01*
X1251125Y286113D01*
X1251158Y286249D01*
X1251195Y286384D01*
X1251236Y286518D01*
X1251281Y286651D01*
X1251329Y286783D01*
X1251381Y286913D01*
X1251436Y287042D01*
X1251495Y287169D01*
X1251558Y287295D01*
X1251624Y287419D01*
X1251693Y287540D01*
X1251766Y287660D01*
X1251843Y287778D01*
X1251922Y287893D01*
X1252005Y288007D01*
X1252091Y288117D01*
X1252180Y288226D01*
X1252272Y288332D01*
X1252367Y288435D01*
X1252464Y288536D01*
X1252565Y288633D01*
X1252668Y288728D01*
X1252774Y288820D01*
X1252883Y288909D01*
X1252993Y288995D01*
X1253107Y289078D01*
X1253222Y289157D01*
X1253340Y289234D01*
X1253460Y289307D01*
X1253581Y289376D01*
X1253705Y289442D01*
X1253831Y289505D01*
X1253958Y289564D01*
X1254087Y289619D01*
X1254217Y289671D01*
X1254349Y289719D01*
X1254482Y289764D01*
X1254616Y289805D01*
X1254751Y289842D01*
X1254887Y289875D01*
X1255025Y289904D01*
X1255162Y289929D01*
X1255301Y289951D01*
X1255440Y289969D01*
X1255580Y289982D01*
X1255720Y289992D01*
X1255860Y289998D01*
X1256000Y290000D01*
X1251000Y285000D02*
X1251000Y255000D01*
X1251002Y254860D01*
X1251008Y254720D01*
X1251018Y254580D01*
X1251031Y254440D01*
X1251049Y254301D01*
X1251071Y254162D01*
X1251096Y254025D01*
X1251125Y253887D01*
X1251158Y253751D01*
X1251195Y253616D01*
X1251236Y253482D01*
X1251281Y253349D01*
X1251329Y253217D01*
X1251381Y253087D01*
X1251436Y252958D01*
X1251495Y252831D01*
X1251558Y252705D01*
X1251624Y252581D01*
X1251693Y252460D01*
X1251766Y252340D01*
X1251843Y252222D01*
X1251922Y252107D01*
X1252005Y251993D01*
X1252091Y251883D01*
X1252180Y251774D01*
X1252272Y251668D01*
X1252367Y251565D01*
X1252464Y251464D01*
X1252565Y251367D01*
X1252668Y251272D01*
X1252774Y251180D01*
X1252883Y251091D01*
X1252993Y251005D01*
X1253107Y250922D01*
X1253222Y250843D01*
X1253340Y250766D01*
X1253460Y250693D01*
X1253581Y250624D01*
X1253705Y250558D01*
X1253831Y250495D01*
X1253958Y250436D01*
X1254087Y250381D01*
X1254217Y250329D01*
X1254349Y250281D01*
X1254482Y250236D01*
X1254616Y250195D01*
X1254751Y250158D01*
X1254887Y250125D01*
X1255025Y250096D01*
X1255162Y250071D01*
X1255301Y250049D01*
X1255440Y250031D01*
X1255580Y250018D01*
X1255720Y250008D01*
X1255860Y250002D01*
X1256000Y250000D01*
X810000Y430000D02*
X810000Y470000D01*
X810000Y430000D02*
X800000Y430000D01*
X810000Y50000D02*
X810000Y10000D01*
X810000Y50000D02*
X800000Y50000D01*
X1246000Y50000D02*
X1246000Y10000D01*
X1246000Y50000D02*
X1256000Y50000D01*
X1246000Y430000D02*
X1246000Y470000D01*
X1246000Y430000D02*
X1256000Y430000D01*
X1246000Y500000D02*
X810000Y500000D01*
X1256000Y540000D02*
X1256000Y740000D01*
X1256000Y780000D02*
X1256000Y920000D01*
X1246000Y960000D02*
X810000Y960000D01*
D11*
X841000Y520000D02*
X841003Y520221D01*
X841011Y520442D01*
X841024Y520662D01*
X841043Y520882D01*
X841068Y521102D01*
X841097Y521321D01*
X841133Y521539D01*
X841173Y521756D01*
X841219Y521972D01*
X841270Y522187D01*
X841326Y522400D01*
X841388Y522613D01*
X841454Y522823D01*
X841526Y523032D01*
X841603Y523239D01*
X841685Y523444D01*
X841772Y523647D01*
X841864Y523848D01*
X841961Y524047D01*
X842063Y524243D01*
X842169Y524436D01*
X842280Y524627D01*
X842396Y524815D01*
X842517Y525000D01*
X842642Y525182D01*
X842771Y525361D01*
X842905Y525537D01*
X843043Y525710D01*
X843185Y525879D01*
X843331Y526044D01*
X843482Y526206D01*
X843636Y526364D01*
X843794Y526518D01*
X843956Y526669D01*
X844121Y526815D01*
X844290Y526957D01*
X844463Y527095D01*
X844639Y527229D01*
X844818Y527358D01*
X845000Y527483D01*
X845185Y527604D01*
X845373Y527720D01*
X845564Y527831D01*
X845757Y527937D01*
X845953Y528039D01*
X846152Y528136D01*
X846353Y528228D01*
X846556Y528315D01*
X846761Y528397D01*
X846968Y528474D01*
X847177Y528546D01*
X847387Y528612D01*
X847600Y528674D01*
X847813Y528730D01*
X848028Y528781D01*
X848244Y528827D01*
X848461Y528867D01*
X848679Y528903D01*
X848898Y528932D01*
X849118Y528957D01*
X849338Y528976D01*
X849558Y528989D01*
X849779Y528997D01*
X850000Y529000D01*
X850221Y528997D01*
X850442Y528989D01*
X850662Y528976D01*
X850882Y528957D01*
X851102Y528932D01*
X851321Y528903D01*
X851539Y528867D01*
X851756Y528827D01*
X851972Y528781D01*
X852187Y528730D01*
X852400Y528674D01*
X852613Y528612D01*
X852823Y528546D01*
X853032Y528474D01*
X853239Y528397D01*
X853444Y528315D01*
X853647Y528228D01*
X853848Y528136D01*
X854047Y528039D01*
X854243Y527937D01*
X854436Y527831D01*
X854627Y527720D01*
X854815Y527604D01*
X855000Y527483D01*
X855182Y527358D01*
X855361Y527229D01*
X855537Y527095D01*
X855710Y526957D01*
X855879Y526815D01*
X856044Y526669D01*
X856206Y526518D01*
X856364Y526364D01*
X856518Y526206D01*
X856669Y526044D01*
X856815Y525879D01*
X856957Y525710D01*
X857095Y525537D01*
X857229Y525361D01*
X857358Y525182D01*
X857483Y525000D01*
X857604Y524815D01*
X857720Y524627D01*
X857831Y524436D01*
X857937Y524243D01*
X858039Y524047D01*
X858136Y523848D01*
X858228Y523647D01*
X858315Y523444D01*
X858397Y523239D01*
X858474Y523032D01*
X858546Y522823D01*
X858612Y522613D01*
X858674Y522400D01*
X858730Y522187D01*
X858781Y521972D01*
X858827Y521756D01*
X858867Y521539D01*
X858903Y521321D01*
X858932Y521102D01*
X858957Y520882D01*
X858976Y520662D01*
X858989Y520442D01*
X858997Y520221D01*
X859000Y520000D01*
X858997Y519779D01*
X858989Y519558D01*
X858976Y519338D01*
X858957Y519118D01*
X858932Y518898D01*
X858903Y518679D01*
X858867Y518461D01*
X858827Y518244D01*
X858781Y518028D01*
X858730Y517813D01*
X858674Y517600D01*
X858612Y517387D01*
X858546Y517177D01*
X858474Y516968D01*
X858397Y516761D01*
X858315Y516556D01*
X858228Y516353D01*
X858136Y516152D01*
X858039Y515953D01*
X857937Y515757D01*
X857831Y515564D01*
X857720Y515373D01*
X857604Y515185D01*
X857483Y515000D01*
X857358Y514818D01*
X857229Y514639D01*
X857095Y514463D01*
X856957Y514290D01*
X856815Y514121D01*
X856669Y513956D01*
X856518Y513794D01*
X856364Y513636D01*
X856206Y513482D01*
X856044Y513331D01*
X855879Y513185D01*
X855710Y513043D01*
X855537Y512905D01*
X855361Y512771D01*
X855182Y512642D01*
X855000Y512517D01*
X854815Y512396D01*
X854627Y512280D01*
X854436Y512169D01*
X854243Y512063D01*
X854047Y511961D01*
X853848Y511864D01*
X853647Y511772D01*
X853444Y511685D01*
X853239Y511603D01*
X853032Y511526D01*
X852823Y511454D01*
X852613Y511388D01*
X852400Y511326D01*
X852187Y511270D01*
X851972Y511219D01*
X851756Y511173D01*
X851539Y511133D01*
X851321Y511097D01*
X851102Y511068D01*
X850882Y511043D01*
X850662Y511024D01*
X850442Y511011D01*
X850221Y511003D01*
X850000Y511000D01*
X849779Y511003D01*
X849558Y511011D01*
X849338Y511024D01*
X849118Y511043D01*
X848898Y511068D01*
X848679Y511097D01*
X848461Y511133D01*
X848244Y511173D01*
X848028Y511219D01*
X847813Y511270D01*
X847600Y511326D01*
X847387Y511388D01*
X847177Y511454D01*
X846968Y511526D01*
X846761Y511603D01*
X846556Y511685D01*
X846353Y511772D01*
X846152Y511864D01*
X845953Y511961D01*
X845757Y512063D01*
X845564Y512169D01*
X845373Y512280D01*
X845185Y512396D01*
X845000Y512517D01*
X844818Y512642D01*
X844639Y512771D01*
X844463Y512905D01*
X844290Y513043D01*
X844121Y513185D01*
X843956Y513331D01*
X843794Y513482D01*
X843636Y513636D01*
X843482Y513794D01*
X843331Y513956D01*
X843185Y514121D01*
X843043Y514290D01*
X842905Y514463D01*
X842771Y514639D01*
X842642Y514818D01*
X842517Y515000D01*
X842396Y515185D01*
X842280Y515373D01*
X842169Y515564D01*
X842063Y515757D01*
X841961Y515953D01*
X841864Y516152D01*
X841772Y516353D01*
X841685Y516556D01*
X841603Y516761D01*
X841526Y516968D01*
X841454Y517177D01*
X841388Y517387D01*
X841326Y517600D01*
X841270Y517813D01*
X841219Y518028D01*
X841173Y518244D01*
X841133Y518461D01*
X841097Y518679D01*
X841068Y518898D01*
X841043Y519118D01*
X841024Y519338D01*
X841011Y519558D01*
X841003Y519779D01*
X841000Y520000D01*
X1197000Y520000D02*
X1197003Y520221D01*
X1197011Y520442D01*
X1197024Y520662D01*
X1197043Y520882D01*
X1197068Y521102D01*
X1197097Y521321D01*
X1197133Y521539D01*
X1197173Y521756D01*
X1197219Y521972D01*
X1197270Y522187D01*
X1197326Y522400D01*
X1197388Y522613D01*
X1197454Y522823D01*
X1197526Y523032D01*
X1197603Y523239D01*
X1197685Y523444D01*
X1197772Y523647D01*
X1197864Y523848D01*
X1197961Y524047D01*
X1198063Y524243D01*
X1198169Y524436D01*
X1198280Y524627D01*
X1198396Y524815D01*
X1198517Y525000D01*
X1198642Y525182D01*
X1198771Y525361D01*
X1198905Y525537D01*
X1199043Y525710D01*
X1199185Y525879D01*
X1199331Y526044D01*
X1199482Y526206D01*
X1199636Y526364D01*
X1199794Y526518D01*
X1199956Y526669D01*
X1200121Y526815D01*
X1200290Y526957D01*
X1200463Y527095D01*
X1200639Y527229D01*
X1200818Y527358D01*
X1201000Y527483D01*
X1201185Y527604D01*
X1201373Y527720D01*
X1201564Y527831D01*
X1201757Y527937D01*
X1201953Y528039D01*
X1202152Y528136D01*
X1202353Y528228D01*
X1202556Y528315D01*
X1202761Y528397D01*
X1202968Y528474D01*
X1203177Y528546D01*
X1203387Y528612D01*
X1203600Y528674D01*
X1203813Y528730D01*
X1204028Y528781D01*
X1204244Y528827D01*
X1204461Y528867D01*
X1204679Y528903D01*
X1204898Y528932D01*
X1205118Y528957D01*
X1205338Y528976D01*
X1205558Y528989D01*
X1205779Y528997D01*
X1206000Y529000D01*
X1206221Y528997D01*
X1206442Y528989D01*
X1206662Y528976D01*
X1206882Y528957D01*
X1207102Y528932D01*
X1207321Y528903D01*
X1207539Y528867D01*
X1207756Y528827D01*
X1207972Y528781D01*
X1208187Y528730D01*
X1208400Y528674D01*
X1208613Y528612D01*
X1208823Y528546D01*
X1209032Y528474D01*
X1209239Y528397D01*
X1209444Y528315D01*
X1209647Y528228D01*
X1209848Y528136D01*
X1210047Y528039D01*
X1210243Y527937D01*
X1210436Y527831D01*
X1210627Y527720D01*
X1210815Y527604D01*
X1211000Y527483D01*
X1211182Y527358D01*
X1211361Y527229D01*
X1211537Y527095D01*
X1211710Y526957D01*
X1211879Y526815D01*
X1212044Y526669D01*
X1212206Y526518D01*
X1212364Y526364D01*
X1212518Y526206D01*
X1212669Y526044D01*
X1212815Y525879D01*
X1212957Y525710D01*
X1213095Y525537D01*
X1213229Y525361D01*
X1213358Y525182D01*
X1213483Y525000D01*
X1213604Y524815D01*
X1213720Y524627D01*
X1213831Y524436D01*
X1213937Y524243D01*
X1214039Y524047D01*
X1214136Y523848D01*
X1214228Y523647D01*
X1214315Y523444D01*
X1214397Y523239D01*
X1214474Y523032D01*
X1214546Y522823D01*
X1214612Y522613D01*
X1214674Y522400D01*
X1214730Y522187D01*
X1214781Y521972D01*
X1214827Y521756D01*
X1214867Y521539D01*
X1214903Y521321D01*
X1214932Y521102D01*
X1214957Y520882D01*
X1214976Y520662D01*
X1214989Y520442D01*
X1214997Y520221D01*
X1215000Y520000D01*
X1214997Y519779D01*
X1214989Y519558D01*
X1214976Y519338D01*
X1214957Y519118D01*
X1214932Y518898D01*
X1214903Y518679D01*
X1214867Y518461D01*
X1214827Y518244D01*
X1214781Y518028D01*
X1214730Y517813D01*
X1214674Y517600D01*
X1214612Y517387D01*
X1214546Y517177D01*
X1214474Y516968D01*
X1214397Y516761D01*
X1214315Y516556D01*
X1214228Y516353D01*
X1214136Y516152D01*
X1214039Y515953D01*
X1213937Y515757D01*
X1213831Y515564D01*
X1213720Y515373D01*
X1213604Y515185D01*
X1213483Y515000D01*
X1213358Y514818D01*
X1213229Y514639D01*
X1213095Y514463D01*
X1212957Y514290D01*
X1212815Y514121D01*
X1212669Y513956D01*
X1212518Y513794D01*
X1212364Y513636D01*
X1212206Y513482D01*
X1212044Y513331D01*
X1211879Y513185D01*
X1211710Y513043D01*
X1211537Y512905D01*
X1211361Y512771D01*
X1211182Y512642D01*
X1211000Y512517D01*
X1210815Y512396D01*
X1210627Y512280D01*
X1210436Y512169D01*
X1210243Y512063D01*
X1210047Y511961D01*
X1209848Y511864D01*
X1209647Y511772D01*
X1209444Y511685D01*
X1209239Y511603D01*
X1209032Y511526D01*
X1208823Y511454D01*
X1208613Y511388D01*
X1208400Y511326D01*
X1208187Y511270D01*
X1207972Y511219D01*
X1207756Y511173D01*
X1207539Y511133D01*
X1207321Y511097D01*
X1207102Y511068D01*
X1206882Y511043D01*
X1206662Y511024D01*
X1206442Y511011D01*
X1206221Y511003D01*
X1206000Y511000D01*
X1205779Y511003D01*
X1205558Y511011D01*
X1205338Y511024D01*
X1205118Y511043D01*
X1204898Y511068D01*
X1204679Y511097D01*
X1204461Y511133D01*
X1204244Y511173D01*
X1204028Y511219D01*
X1203813Y511270D01*
X1203600Y511326D01*
X1203387Y511388D01*
X1203177Y511454D01*
X1202968Y511526D01*
X1202761Y511603D01*
X1202556Y511685D01*
X1202353Y511772D01*
X1202152Y511864D01*
X1201953Y511961D01*
X1201757Y512063D01*
X1201564Y512169D01*
X1201373Y512280D01*
X1201185Y512396D01*
X1201000Y512517D01*
X1200818Y512642D01*
X1200639Y512771D01*
X1200463Y512905D01*
X1200290Y513043D01*
X1200121Y513185D01*
X1199956Y513331D01*
X1199794Y513482D01*
X1199636Y513636D01*
X1199482Y513794D01*
X1199331Y513956D01*
X1199185Y514121D01*
X1199043Y514290D01*
X1198905Y514463D01*
X1198771Y514639D01*
X1198642Y514818D01*
X1198517Y515000D01*
X1198396Y515185D01*
X1198280Y515373D01*
X1198169Y515564D01*
X1198063Y515757D01*
X1197961Y515953D01*
X1197864Y516152D01*
X1197772Y516353D01*
X1197685Y516556D01*
X1197603Y516761D01*
X1197526Y516968D01*
X1197454Y517177D01*
X1197388Y517387D01*
X1197326Y517600D01*
X1197270Y517813D01*
X1197219Y518028D01*
X1197173Y518244D01*
X1197133Y518461D01*
X1197097Y518679D01*
X1197068Y518898D01*
X1197043Y519118D01*
X1197024Y519338D01*
X1197011Y519558D01*
X1197003Y519779D01*
X1197000Y520000D01*
X1197000Y940000D02*
X1197003Y940221D01*
X1197011Y940442D01*
X1197024Y940662D01*
X1197043Y940882D01*
X1197068Y941102D01*
X1197097Y941321D01*
X1197133Y941539D01*
X1197173Y941756D01*
X1197219Y941972D01*
X1197270Y942187D01*
X1197326Y942400D01*
X1197388Y942613D01*
X1197454Y942823D01*
X1197526Y943032D01*
X1197603Y943239D01*
X1197685Y943444D01*
X1197772Y943647D01*
X1197864Y943848D01*
X1197961Y944047D01*
X1198063Y944243D01*
X1198169Y944436D01*
X1198280Y944627D01*
X1198396Y944815D01*
X1198517Y945000D01*
X1198642Y945182D01*
X1198771Y945361D01*
X1198905Y945537D01*
X1199043Y945710D01*
X1199185Y945879D01*
X1199331Y946044D01*
X1199482Y946206D01*
X1199636Y946364D01*
X1199794Y946518D01*
X1199956Y946669D01*
X1200121Y946815D01*
X1200290Y946957D01*
X1200463Y947095D01*
X1200639Y947229D01*
X1200818Y947358D01*
X1201000Y947483D01*
X1201185Y947604D01*
X1201373Y947720D01*
X1201564Y947831D01*
X1201757Y947937D01*
X1201953Y948039D01*
X1202152Y948136D01*
X1202353Y948228D01*
X1202556Y948315D01*
X1202761Y948397D01*
X1202968Y948474D01*
X1203177Y948546D01*
X1203387Y948612D01*
X1203600Y948674D01*
X1203813Y948730D01*
X1204028Y948781D01*
X1204244Y948827D01*
X1204461Y948867D01*
X1204679Y948903D01*
X1204898Y948932D01*
X1205118Y948957D01*
X1205338Y948976D01*
X1205558Y948989D01*
X1205779Y948997D01*
X1206000Y949000D01*
X1206221Y948997D01*
X1206442Y948989D01*
X1206662Y948976D01*
X1206882Y948957D01*
X1207102Y948932D01*
X1207321Y948903D01*
X1207539Y948867D01*
X1207756Y948827D01*
X1207972Y948781D01*
X1208187Y948730D01*
X1208400Y948674D01*
X1208613Y948612D01*
X1208823Y948546D01*
X1209032Y948474D01*
X1209239Y948397D01*
X1209444Y948315D01*
X1209647Y948228D01*
X1209848Y948136D01*
X1210047Y948039D01*
X1210243Y947937D01*
X1210436Y947831D01*
X1210627Y947720D01*
X1210815Y947604D01*
X1211000Y947483D01*
X1211182Y947358D01*
X1211361Y947229D01*
X1211537Y947095D01*
X1211710Y946957D01*
X1211879Y946815D01*
X1212044Y946669D01*
X1212206Y946518D01*
X1212364Y946364D01*
X1212518Y946206D01*
X1212669Y946044D01*
X1212815Y945879D01*
X1212957Y945710D01*
X1213095Y945537D01*
X1213229Y945361D01*
X1213358Y945182D01*
X1213483Y945000D01*
X1213604Y944815D01*
X1213720Y944627D01*
X1213831Y944436D01*
X1213937Y944243D01*
X1214039Y944047D01*
X1214136Y943848D01*
X1214228Y943647D01*
X1214315Y943444D01*
X1214397Y943239D01*
X1214474Y943032D01*
X1214546Y942823D01*
X1214612Y942613D01*
X1214674Y942400D01*
X1214730Y942187D01*
X1214781Y941972D01*
X1214827Y941756D01*
X1214867Y941539D01*
X1214903Y941321D01*
X1214932Y941102D01*
X1214957Y940882D01*
X1214976Y940662D01*
X1214989Y940442D01*
X1214997Y940221D01*
X1215000Y940000D01*
X1214997Y939779D01*
X1214989Y939558D01*
X1214976Y939338D01*
X1214957Y939118D01*
X1214932Y938898D01*
X1214903Y938679D01*
X1214867Y938461D01*
X1214827Y938244D01*
X1214781Y938028D01*
X1214730Y937813D01*
X1214674Y937600D01*
X1214612Y937387D01*
X1214546Y937177D01*
X1214474Y936968D01*
X1214397Y936761D01*
X1214315Y936556D01*
X1214228Y936353D01*
X1214136Y936152D01*
X1214039Y935953D01*
X1213937Y935757D01*
X1213831Y935564D01*
X1213720Y935373D01*
X1213604Y935185D01*
X1213483Y935000D01*
X1213358Y934818D01*
X1213229Y934639D01*
X1213095Y934463D01*
X1212957Y934290D01*
X1212815Y934121D01*
X1212669Y933956D01*
X1212518Y933794D01*
X1212364Y933636D01*
X1212206Y933482D01*
X1212044Y933331D01*
X1211879Y933185D01*
X1211710Y933043D01*
X1211537Y932905D01*
X1211361Y932771D01*
X1211182Y932642D01*
X1211000Y932517D01*
X1210815Y932396D01*
X1210627Y932280D01*
X1210436Y932169D01*
X1210243Y932063D01*
X1210047Y931961D01*
X1209848Y931864D01*
X1209647Y931772D01*
X1209444Y931685D01*
X1209239Y931603D01*
X1209032Y931526D01*
X1208823Y931454D01*
X1208613Y931388D01*
X1208400Y931326D01*
X1208187Y931270D01*
X1207972Y931219D01*
X1207756Y931173D01*
X1207539Y931133D01*
X1207321Y931097D01*
X1207102Y931068D01*
X1206882Y931043D01*
X1206662Y931024D01*
X1206442Y931011D01*
X1206221Y931003D01*
X1206000Y931000D01*
X1205779Y931003D01*
X1205558Y931011D01*
X1205338Y931024D01*
X1205118Y931043D01*
X1204898Y931068D01*
X1204679Y931097D01*
X1204461Y931133D01*
X1204244Y931173D01*
X1204028Y931219D01*
X1203813Y931270D01*
X1203600Y931326D01*
X1203387Y931388D01*
X1203177Y931454D01*
X1202968Y931526D01*
X1202761Y931603D01*
X1202556Y931685D01*
X1202353Y931772D01*
X1202152Y931864D01*
X1201953Y931961D01*
X1201757Y932063D01*
X1201564Y932169D01*
X1201373Y932280D01*
X1201185Y932396D01*
X1201000Y932517D01*
X1200818Y932642D01*
X1200639Y932771D01*
X1200463Y932905D01*
X1200290Y933043D01*
X1200121Y933185D01*
X1199956Y933331D01*
X1199794Y933482D01*
X1199636Y933636D01*
X1199482Y933794D01*
X1199331Y933956D01*
X1199185Y934121D01*
X1199043Y934290D01*
X1198905Y934463D01*
X1198771Y934639D01*
X1198642Y934818D01*
X1198517Y935000D01*
X1198396Y935185D01*
X1198280Y935373D01*
X1198169Y935564D01*
X1198063Y935757D01*
X1197961Y935953D01*
X1197864Y936152D01*
X1197772Y936353D01*
X1197685Y936556D01*
X1197603Y936761D01*
X1197526Y936968D01*
X1197454Y937177D01*
X1197388Y937387D01*
X1197326Y937600D01*
X1197270Y937813D01*
X1197219Y938028D01*
X1197173Y938244D01*
X1197133Y938461D01*
X1197097Y938679D01*
X1197068Y938898D01*
X1197043Y939118D01*
X1197024Y939338D01*
X1197011Y939558D01*
X1197003Y939779D01*
X1197000Y940000D01*
X841000Y940000D02*
X841003Y940221D01*
X841011Y940442D01*
X841024Y940662D01*
X841043Y940882D01*
X841068Y941102D01*
X841097Y941321D01*
X841133Y941539D01*
X841173Y941756D01*
X841219Y941972D01*
X841270Y942187D01*
X841326Y942400D01*
X841388Y942613D01*
X841454Y942823D01*
X841526Y943032D01*
X841603Y943239D01*
X841685Y943444D01*
X841772Y943647D01*
X841864Y943848D01*
X841961Y944047D01*
X842063Y944243D01*
X842169Y944436D01*
X842280Y944627D01*
X842396Y944815D01*
X842517Y945000D01*
X842642Y945182D01*
X842771Y945361D01*
X842905Y945537D01*
X843043Y945710D01*
X843185Y945879D01*
X843331Y946044D01*
X843482Y946206D01*
X843636Y946364D01*
X843794Y946518D01*
X843956Y946669D01*
X844121Y946815D01*
X844290Y946957D01*
X844463Y947095D01*
X844639Y947229D01*
X844818Y947358D01*
X845000Y947483D01*
X845185Y947604D01*
X845373Y947720D01*
X845564Y947831D01*
X845757Y947937D01*
X845953Y948039D01*
X846152Y948136D01*
X846353Y948228D01*
X846556Y948315D01*
X846761Y948397D01*
X846968Y948474D01*
X847177Y948546D01*
X847387Y948612D01*
X847600Y948674D01*
X847813Y948730D01*
X848028Y948781D01*
X848244Y948827D01*
X848461Y948867D01*
X848679Y948903D01*
X848898Y948932D01*
X849118Y948957D01*
X849338Y948976D01*
X849558Y948989D01*
X849779Y948997D01*
X850000Y949000D01*
X850221Y948997D01*
X850442Y948989D01*
X850662Y948976D01*
X850882Y948957D01*
X851102Y948932D01*
X851321Y948903D01*
X851539Y948867D01*
X851756Y948827D01*
X851972Y948781D01*
X852187Y948730D01*
X852400Y948674D01*
X852613Y948612D01*
X852823Y948546D01*
X853032Y948474D01*
X853239Y948397D01*
X853444Y948315D01*
X853647Y948228D01*
X853848Y948136D01*
X854047Y948039D01*
X854243Y947937D01*
X854436Y947831D01*
X854627Y947720D01*
X854815Y947604D01*
X855000Y947483D01*
X855182Y947358D01*
X855361Y947229D01*
X855537Y947095D01*
X855710Y946957D01*
X855879Y946815D01*
X856044Y946669D01*
X856206Y946518D01*
X856364Y946364D01*
X856518Y946206D01*
X856669Y946044D01*
X856815Y945879D01*
X856957Y945710D01*
X857095Y945537D01*
X857229Y945361D01*
X857358Y945182D01*
X857483Y945000D01*
X857604Y944815D01*
X857720Y944627D01*
X857831Y944436D01*
X857937Y944243D01*
X858039Y944047D01*
X858136Y943848D01*
X858228Y943647D01*
X858315Y943444D01*
X858397Y943239D01*
X858474Y943032D01*
X858546Y942823D01*
X858612Y942613D01*
X858674Y942400D01*
X858730Y942187D01*
X858781Y941972D01*
X858827Y941756D01*
X858867Y941539D01*
X858903Y941321D01*
X858932Y941102D01*
X858957Y940882D01*
X858976Y940662D01*
X858989Y940442D01*
X858997Y940221D01*
X859000Y940000D01*
X858997Y939779D01*
X858989Y939558D01*
X858976Y939338D01*
X858957Y939118D01*
X858932Y938898D01*
X858903Y938679D01*
X858867Y938461D01*
X858827Y938244D01*
X858781Y938028D01*
X858730Y937813D01*
X858674Y937600D01*
X858612Y937387D01*
X858546Y937177D01*
X858474Y936968D01*
X858397Y936761D01*
X858315Y936556D01*
X858228Y936353D01*
X858136Y936152D01*
X858039Y935953D01*
X857937Y935757D01*
X857831Y935564D01*
X857720Y935373D01*
X857604Y935185D01*
X857483Y935000D01*
X857358Y934818D01*
X857229Y934639D01*
X857095Y934463D01*
X856957Y934290D01*
X856815Y934121D01*
X856669Y933956D01*
X856518Y933794D01*
X856364Y933636D01*
X856206Y933482D01*
X856044Y933331D01*
X855879Y933185D01*
X855710Y933043D01*
X855537Y932905D01*
X855361Y932771D01*
X855182Y932642D01*
X855000Y932517D01*
X854815Y932396D01*
X854627Y932280D01*
X854436Y932169D01*
X854243Y932063D01*
X854047Y931961D01*
X853848Y931864D01*
X853647Y931772D01*
X853444Y931685D01*
X853239Y931603D01*
X853032Y931526D01*
X852823Y931454D01*
X852613Y931388D01*
X852400Y931326D01*
X852187Y931270D01*
X851972Y931219D01*
X851756Y931173D01*
X851539Y931133D01*
X851321Y931097D01*
X851102Y931068D01*
X850882Y931043D01*
X850662Y931024D01*
X850442Y931011D01*
X850221Y931003D01*
X850000Y931000D01*
X849779Y931003D01*
X849558Y931011D01*
X849338Y931024D01*
X849118Y931043D01*
X848898Y931068D01*
X848679Y931097D01*
X848461Y931133D01*
X848244Y931173D01*
X848028Y931219D01*
X847813Y931270D01*
X847600Y931326D01*
X847387Y931388D01*
X847177Y931454D01*
X846968Y931526D01*
X846761Y931603D01*
X846556Y931685D01*
X846353Y931772D01*
X846152Y931864D01*
X845953Y931961D01*
X845757Y932063D01*
X845564Y932169D01*
X845373Y932280D01*
X845185Y932396D01*
X845000Y932517D01*
X844818Y932642D01*
X844639Y932771D01*
X844463Y932905D01*
X844290Y933043D01*
X844121Y933185D01*
X843956Y933331D01*
X843794Y933482D01*
X843636Y933636D01*
X843482Y933794D01*
X843331Y933956D01*
X843185Y934121D01*
X843043Y934290D01*
X842905Y934463D01*
X842771Y934639D01*
X842642Y934818D01*
X842517Y935000D01*
X842396Y935185D01*
X842280Y935373D01*
X842169Y935564D01*
X842063Y935757D01*
X841961Y935953D01*
X841864Y936152D01*
X841772Y936353D01*
X841685Y936556D01*
X841603Y936761D01*
X841526Y936968D01*
X841454Y937177D01*
X841388Y937387D01*
X841326Y937600D01*
X841270Y937813D01*
X841219Y938028D01*
X841173Y938244D01*
X841133Y938461D01*
X841097Y938679D01*
X841068Y938898D01*
X841043Y939118D01*
X841024Y939338D01*
X841011Y939558D01*
X841003Y939779D01*
X841000Y940000D01*
D10*
X800000Y920000D02*
X800000Y720000D01*
X800000Y680000D02*
X800000Y540000D01*
X805000Y715000D02*
X804998Y715140D01*
X804992Y715280D01*
X804982Y715420D01*
X804969Y715560D01*
X804951Y715699D01*
X804929Y715838D01*
X804904Y715975D01*
X804875Y716113D01*
X804842Y716249D01*
X804805Y716384D01*
X804764Y716518D01*
X804719Y716651D01*
X804671Y716783D01*
X804619Y716913D01*
X804564Y717042D01*
X804505Y717169D01*
X804442Y717295D01*
X804376Y717419D01*
X804307Y717540D01*
X804234Y717660D01*
X804157Y717778D01*
X804078Y717893D01*
X803995Y718007D01*
X803909Y718117D01*
X803820Y718226D01*
X803728Y718332D01*
X803633Y718435D01*
X803536Y718536D01*
X803435Y718633D01*
X803332Y718728D01*
X803226Y718820D01*
X803117Y718909D01*
X803007Y718995D01*
X802893Y719078D01*
X802778Y719157D01*
X802660Y719234D01*
X802540Y719307D01*
X802419Y719376D01*
X802295Y719442D01*
X802169Y719505D01*
X802042Y719564D01*
X801913Y719619D01*
X801783Y719671D01*
X801651Y719719D01*
X801518Y719764D01*
X801384Y719805D01*
X801249Y719842D01*
X801113Y719875D01*
X800975Y719904D01*
X800838Y719929D01*
X800699Y719951D01*
X800560Y719969D01*
X800420Y719982D01*
X800280Y719992D01*
X800140Y719998D01*
X800000Y720000D01*
X805000Y715000D02*
X805000Y685000D01*
X804998Y684860D01*
X804992Y684720D01*
X804982Y684580D01*
X804969Y684440D01*
X804951Y684301D01*
X804929Y684162D01*
X804904Y684025D01*
X804875Y683887D01*
X804842Y683751D01*
X804805Y683616D01*
X804764Y683482D01*
X804719Y683349D01*
X804671Y683217D01*
X804619Y683087D01*
X804564Y682958D01*
X804505Y682831D01*
X804442Y682705D01*
X804376Y682581D01*
X804307Y682460D01*
X804234Y682340D01*
X804157Y682222D01*
X804078Y682107D01*
X803995Y681993D01*
X803909Y681883D01*
X803820Y681774D01*
X803728Y681668D01*
X803633Y681565D01*
X803536Y681464D01*
X803435Y681367D01*
X803332Y681272D01*
X803226Y681180D01*
X803117Y681091D01*
X803007Y681005D01*
X802893Y680922D01*
X802778Y680843D01*
X802660Y680766D01*
X802540Y680693D01*
X802419Y680624D01*
X802295Y680558D01*
X802169Y680495D01*
X802042Y680436D01*
X801913Y680381D01*
X801783Y680329D01*
X801651Y680281D01*
X801518Y680236D01*
X801384Y680195D01*
X801249Y680158D01*
X801113Y680125D01*
X800975Y680096D01*
X800838Y680071D01*
X800699Y680049D01*
X800560Y680031D01*
X800420Y680018D01*
X800280Y680008D01*
X800140Y680002D01*
X800000Y680000D01*
X1251000Y775000D02*
X1251002Y775140D01*
X1251008Y775280D01*
X1251018Y775420D01*
X1251031Y775560D01*
X1251049Y775699D01*
X1251071Y775838D01*
X1251096Y775975D01*
X1251125Y776113D01*
X1251158Y776249D01*
X1251195Y776384D01*
X1251236Y776518D01*
X1251281Y776651D01*
X1251329Y776783D01*
X1251381Y776913D01*
X1251436Y777042D01*
X1251495Y777169D01*
X1251558Y777295D01*
X1251624Y777419D01*
X1251693Y777540D01*
X1251766Y777660D01*
X1251843Y777778D01*
X1251922Y777893D01*
X1252005Y778007D01*
X1252091Y778117D01*
X1252180Y778226D01*
X1252272Y778332D01*
X1252367Y778435D01*
X1252464Y778536D01*
X1252565Y778633D01*
X1252668Y778728D01*
X1252774Y778820D01*
X1252883Y778909D01*
X1252993Y778995D01*
X1253107Y779078D01*
X1253222Y779157D01*
X1253340Y779234D01*
X1253460Y779307D01*
X1253581Y779376D01*
X1253705Y779442D01*
X1253831Y779505D01*
X1253958Y779564D01*
X1254087Y779619D01*
X1254217Y779671D01*
X1254349Y779719D01*
X1254482Y779764D01*
X1254616Y779805D01*
X1254751Y779842D01*
X1254887Y779875D01*
X1255025Y779904D01*
X1255162Y779929D01*
X1255301Y779951D01*
X1255440Y779969D01*
X1255580Y779982D01*
X1255720Y779992D01*
X1255860Y779998D01*
X1256000Y780000D01*
X1251000Y775000D02*
X1251000Y745000D01*
X1251002Y744860D01*
X1251008Y744720D01*
X1251018Y744580D01*
X1251031Y744440D01*
X1251049Y744301D01*
X1251071Y744162D01*
X1251096Y744025D01*
X1251125Y743887D01*
X1251158Y743751D01*
X1251195Y743616D01*
X1251236Y743482D01*
X1251281Y743349D01*
X1251329Y743217D01*
X1251381Y743087D01*
X1251436Y742958D01*
X1251495Y742831D01*
X1251558Y742705D01*
X1251624Y742581D01*
X1251693Y742460D01*
X1251766Y742340D01*
X1251843Y742222D01*
X1251922Y742107D01*
X1252005Y741993D01*
X1252091Y741883D01*
X1252180Y741774D01*
X1252272Y741668D01*
X1252367Y741565D01*
X1252464Y741464D01*
X1252565Y741367D01*
X1252668Y741272D01*
X1252774Y741180D01*
X1252883Y741091D01*
X1252993Y741005D01*
X1253107Y740922D01*
X1253222Y740843D01*
X1253340Y740766D01*
X1253460Y740693D01*
X1253581Y740624D01*
X1253705Y740558D01*
X1253831Y740495D01*
X1253958Y740436D01*
X1254087Y740381D01*
X1254217Y740329D01*
X1254349Y740281D01*
X1254482Y740236D01*
X1254616Y740195D01*
X1254751Y740158D01*
X1254887Y740125D01*
X1255025Y740096D01*
X1255162Y740071D01*
X1255301Y740049D01*
X1255440Y740031D01*
X1255580Y740018D01*
X1255720Y740008D01*
X1255860Y740002D01*
X1256000Y740000D01*
X810000Y920000D02*
X810000Y960000D01*
X810000Y920000D02*
X800000Y920000D01*
X810000Y540000D02*
X810000Y500000D01*
X810000Y540000D02*
X800000Y540000D01*
X1246000Y540000D02*
X1246000Y500000D01*
X1246000Y540000D02*
X1256000Y540000D01*
X1246000Y920000D02*
X1246000Y960000D01*
X1246000Y920000D02*
X1256000Y920000D01*
X85664Y209828D02*
X85669Y210221D01*
X85683Y210613D01*
X85707Y211005D01*
X85741Y211396D01*
X85784Y211787D01*
X85837Y212176D01*
X85900Y212563D01*
X85971Y212949D01*
X86053Y213334D01*
X86143Y213716D01*
X86244Y214095D01*
X86353Y214473D01*
X86472Y214847D01*
X86599Y215218D01*
X86736Y215586D01*
X86882Y215951D01*
X87037Y216312D01*
X87200Y216669D01*
X87372Y217022D01*
X87553Y217370D01*
X87743Y217714D01*
X87940Y218054D01*
X88146Y218388D01*
X88360Y218717D01*
X88583Y219041D01*
X88813Y219359D01*
X89050Y219672D01*
X89296Y219978D01*
X89549Y220279D01*
X89809Y220573D01*
X90076Y220861D01*
X90350Y221142D01*
X90631Y221416D01*
X90919Y221683D01*
X91213Y221943D01*
X91514Y222196D01*
X91820Y222442D01*
X92133Y222679D01*
X92451Y222909D01*
X92775Y223132D01*
X93104Y223346D01*
X93438Y223552D01*
X93778Y223749D01*
X94122Y223939D01*
X94470Y224120D01*
X94823Y224292D01*
X95180Y224455D01*
X95541Y224610D01*
X95906Y224756D01*
X96274Y224893D01*
X96645Y225020D01*
X97019Y225139D01*
X97397Y225248D01*
X97776Y225349D01*
X98158Y225439D01*
X98543Y225521D01*
X98929Y225592D01*
X99316Y225655D01*
X99705Y225708D01*
X100096Y225751D01*
X100487Y225785D01*
X100879Y225809D01*
X101271Y225823D01*
X101664Y225828D01*
X102057Y225823D01*
X102449Y225809D01*
X102841Y225785D01*
X103232Y225751D01*
X103623Y225708D01*
X104012Y225655D01*
X104399Y225592D01*
X104785Y225521D01*
X105170Y225439D01*
X105552Y225349D01*
X105931Y225248D01*
X106309Y225139D01*
X106683Y225020D01*
X107054Y224893D01*
X107422Y224756D01*
X107787Y224610D01*
X108148Y224455D01*
X108505Y224292D01*
X108858Y224120D01*
X109206Y223939D01*
X109550Y223749D01*
X109890Y223552D01*
X110224Y223346D01*
X110553Y223132D01*
X110877Y222909D01*
X111195Y222679D01*
X111508Y222442D01*
X111814Y222196D01*
X112115Y221943D01*
X112409Y221683D01*
X112697Y221416D01*
X112978Y221142D01*
X113252Y220861D01*
X113519Y220573D01*
X113779Y220279D01*
X114032Y219978D01*
X114278Y219672D01*
X114515Y219359D01*
X114745Y219041D01*
X114968Y218717D01*
X115182Y218388D01*
X115388Y218054D01*
X115585Y217714D01*
X115775Y217370D01*
X115956Y217022D01*
X116128Y216669D01*
X116291Y216312D01*
X116446Y215951D01*
X116592Y215586D01*
X116729Y215218D01*
X116856Y214847D01*
X116975Y214473D01*
X117084Y214095D01*
X117185Y213716D01*
X117275Y213334D01*
X117357Y212949D01*
X117428Y212563D01*
X117491Y212176D01*
X117544Y211787D01*
X117587Y211396D01*
X117621Y211005D01*
X117645Y210613D01*
X117659Y210221D01*
X117664Y209828D01*
X117659Y209435D01*
X117645Y209043D01*
X117621Y208651D01*
X117587Y208260D01*
X117544Y207869D01*
X117491Y207480D01*
X117428Y207093D01*
X117357Y206707D01*
X117275Y206322D01*
X117185Y205940D01*
X117084Y205561D01*
X116975Y205183D01*
X116856Y204809D01*
X116729Y204438D01*
X116592Y204070D01*
X116446Y203705D01*
X116291Y203344D01*
X116128Y202987D01*
X115956Y202634D01*
X115775Y202286D01*
X115585Y201942D01*
X115388Y201602D01*
X115182Y201268D01*
X114968Y200939D01*
X114745Y200615D01*
X114515Y200297D01*
X114278Y199984D01*
X114032Y199678D01*
X113779Y199377D01*
X113519Y199083D01*
X113252Y198795D01*
X112978Y198514D01*
X112697Y198240D01*
X112409Y197973D01*
X112115Y197713D01*
X111814Y197460D01*
X111508Y197214D01*
X111195Y196977D01*
X110877Y196747D01*
X110553Y196524D01*
X110224Y196310D01*
X109890Y196104D01*
X109550Y195907D01*
X109206Y195717D01*
X108858Y195536D01*
X108505Y195364D01*
X108148Y195201D01*
X107787Y195046D01*
X107422Y194900D01*
X107054Y194763D01*
X106683Y194636D01*
X106309Y194517D01*
X105931Y194408D01*
X105552Y194307D01*
X105170Y194217D01*
X104785Y194135D01*
X104399Y194064D01*
X104012Y194001D01*
X103623Y193948D01*
X103232Y193905D01*
X102841Y193871D01*
X102449Y193847D01*
X102057Y193833D01*
X101664Y193828D01*
X101271Y193833D01*
X100879Y193847D01*
X100487Y193871D01*
X100096Y193905D01*
X99705Y193948D01*
X99316Y194001D01*
X98929Y194064D01*
X98543Y194135D01*
X98158Y194217D01*
X97776Y194307D01*
X97397Y194408D01*
X97019Y194517D01*
X96645Y194636D01*
X96274Y194763D01*
X95906Y194900D01*
X95541Y195046D01*
X95180Y195201D01*
X94823Y195364D01*
X94470Y195536D01*
X94122Y195717D01*
X93778Y195907D01*
X93438Y196104D01*
X93104Y196310D01*
X92775Y196524D01*
X92451Y196747D01*
X92133Y196977D01*
X91820Y197214D01*
X91514Y197460D01*
X91213Y197713D01*
X90919Y197973D01*
X90631Y198240D01*
X90350Y198514D01*
X90076Y198795D01*
X89809Y199083D01*
X89549Y199377D01*
X89296Y199678D01*
X89050Y199984D01*
X88813Y200297D01*
X88583Y200615D01*
X88360Y200939D01*
X88146Y201268D01*
X87940Y201602D01*
X87743Y201942D01*
X87553Y202286D01*
X87372Y202634D01*
X87200Y202987D01*
X87037Y203344D01*
X86882Y203705D01*
X86736Y204070D01*
X86599Y204438D01*
X86472Y204809D01*
X86353Y205183D01*
X86244Y205561D01*
X86143Y205940D01*
X86053Y206322D01*
X85971Y206707D01*
X85900Y207093D01*
X85837Y207480D01*
X85784Y207869D01*
X85741Y208260D01*
X85707Y208651D01*
X85683Y209043D01*
X85669Y209435D01*
X85664Y209828D01*
X338840Y13450D02*
X338875Y13586D01*
X338913Y13721D01*
X338955Y13855D01*
X339001Y13987D01*
X339050Y14118D01*
X339103Y14248D01*
X339160Y14376D01*
X339220Y14503D01*
X339284Y14628D01*
X339351Y14751D01*
X339422Y14872D01*
X339496Y14991D01*
X339573Y15108D01*
X339654Y15223D01*
X339738Y15335D01*
X339825Y15445D01*
X339915Y15553D01*
X340008Y15658D01*
X340104Y15760D01*
X340202Y15859D01*
X340304Y15956D01*
X340408Y16050D01*
X340515Y16141D01*
X340624Y16229D01*
X340736Y16314D01*
X340850Y16395D01*
X340966Y16474D01*
X341084Y16549D01*
X341205Y16620D01*
X341327Y16689D01*
X341452Y16754D01*
X341578Y16815D01*
X341705Y16873D01*
X341835Y16927D01*
X341966Y16978D01*
X342098Y17025D01*
X342231Y17068D01*
X342366Y17107D01*
X342501Y17143D01*
X342638Y17174D01*
X342775Y17202D01*
X342913Y17226D01*
X343052Y17247D01*
X343191Y17263D01*
X343331Y17275D01*
X343471Y17284D01*
X343611Y17288D01*
X343751Y17289D01*
X343892Y17285D01*
X344032Y17278D01*
X344171Y17267D01*
X344311Y17252D01*
X344450Y17233D01*
X344588Y17210D01*
X344726Y17183D01*
X344862Y17152D01*
X344998Y17118D01*
X345133Y17080D01*
X345267Y17038D01*
X345400Y16992D01*
X345531Y16942D01*
X345661Y16889D01*
X345789Y16833D01*
X345915Y16772D01*
X346040Y16708D01*
X346163Y16641D01*
X346284Y16570D01*
X346403Y16496D01*
X346520Y16419D01*
X346635Y16338D01*
X346747Y16254D01*
X346857Y16167D01*
X346965Y16077D01*
X347070Y15984D01*
X347172Y15888D01*
X347271Y15789D01*
X347368Y15688D01*
X347462Y15584D01*
X347553Y15477D01*
X347641Y15368D01*
X347725Y15256D01*
X347807Y15142D01*
X347885Y15026D01*
X347961Y14907D01*
X348032Y14787D01*
X348101Y14664D01*
X348165Y14540D01*
X348227Y14414D01*
X348284Y14286D01*
X348339Y14157D01*
X348389Y14026D01*
X348436Y13894D01*
X348479Y13761D01*
X348518Y13626D01*
X348554Y13490D01*
X348586Y13354D01*
X348614Y13216D01*
X348638Y13078D01*
X348658Y12939D01*
X348674Y12800D01*
X348686Y12660D01*
X348695Y12520D01*
X348699Y12380D01*
X348700Y12240D01*
X309280Y18670D02*
X309294Y18810D01*
X309304Y18949D01*
X309311Y19089D01*
X309313Y19230D01*
X309311Y19370D01*
X309306Y19510D01*
X309296Y19650D01*
X309283Y19789D01*
X309265Y19929D01*
X309244Y20067D01*
X309219Y20205D01*
X309190Y20342D01*
X309157Y20479D01*
X309121Y20614D01*
X309080Y20748D01*
X309036Y20881D01*
X308988Y21013D01*
X308937Y21143D01*
X308882Y21272D01*
X308823Y21400D01*
X308760Y21525D01*
X308695Y21649D01*
X308625Y21771D01*
X308553Y21891D01*
X308477Y22009D01*
X308397Y22124D01*
X308315Y22238D01*
X308229Y22349D01*
X308141Y22457D01*
X308049Y22563D01*
X307954Y22667D01*
X307857Y22768D01*
X307756Y22866D01*
X307653Y22961D01*
X307548Y23053D01*
X307439Y23142D01*
X307329Y23228D01*
X307216Y23311D01*
X307100Y23391D01*
X306983Y23467D01*
X306863Y23541D01*
X306742Y23610D01*
X306618Y23677D01*
X306493Y23740D01*
X306366Y23799D01*
X306237Y23855D01*
X306107Y23907D01*
X305975Y23955D01*
X305842Y24000D01*
X305708Y24041D01*
X305573Y24078D01*
X305437Y24111D01*
X305300Y24141D01*
X305162Y24167D01*
X305024Y24189D01*
X304885Y24206D01*
X304745Y24220D01*
X304605Y24231D01*
X304465Y24237D01*
X304325Y24239D01*
X304185Y24237D01*
X304045Y24232D01*
X303905Y24222D01*
X303765Y24209D01*
X303626Y24191D01*
X303487Y24170D01*
X303349Y24145D01*
X303212Y24116D01*
X303076Y24083D01*
X302941Y24046D01*
X302806Y24006D01*
X302673Y23962D01*
X302542Y23914D01*
X302411Y23862D01*
X302282Y23807D01*
X302155Y23748D01*
X302029Y23686D01*
X301906Y23620D01*
X301784Y23551D01*
X301664Y23478D01*
X301546Y23402D01*
X301430Y23323D01*
X301317Y23240D01*
X301206Y23154D01*
X301098Y23066D01*
X300991Y22974D01*
X300888Y22879D01*
X300787Y22782D01*
X300689Y22681D01*
X300594Y22578D01*
X300502Y22473D01*
X300413Y22364D01*
X300327Y22254D01*
X300244Y22141D01*
X300164Y22025D01*
X300088Y21908D01*
X300015Y21788D01*
X299945Y21666D01*
X299879Y21543D01*
X299816Y21418D01*
X299757Y21290D01*
X299701Y21162D01*
X299649Y21032D01*
X299600Y20900D01*
X93690Y152080D02*
X93789Y152180D01*
X93885Y152282D01*
X93978Y152387D01*
X94068Y152495D01*
X94155Y152605D01*
X94239Y152717D01*
X94319Y152832D01*
X94397Y152949D01*
X94471Y153068D01*
X94542Y153189D01*
X94609Y153312D01*
X94673Y153437D01*
X94733Y153563D01*
X94790Y153692D01*
X94843Y153821D01*
X94893Y153953D01*
X94939Y154085D01*
X94981Y154219D01*
X95019Y154354D01*
X95053Y154490D01*
X95084Y154627D01*
X95111Y154765D01*
X95134Y154903D01*
X95153Y155042D01*
X95168Y155181D01*
X95179Y155321D01*
X95186Y155461D01*
X95190Y155602D01*
X95189Y155742D01*
X95185Y155882D01*
X95176Y156022D01*
X95164Y156162D01*
X95148Y156301D01*
X95127Y156440D01*
X95103Y156578D01*
X95075Y156716D01*
X95044Y156852D01*
X95008Y156988D01*
X94969Y157122D01*
X94925Y157256D01*
X94879Y157388D01*
X94828Y157519D01*
X94774Y157648D01*
X94716Y157776D01*
X94655Y157902D01*
X94590Y158027D01*
X94521Y158149D01*
X94449Y158270D01*
X94374Y158388D01*
X94296Y158504D01*
X94214Y158618D01*
X94129Y158730D01*
X94042Y158839D01*
X93951Y158946D01*
X93857Y159050D01*
X93760Y159152D01*
X93660Y159251D01*
X93558Y159347D01*
X93453Y159440D01*
X93345Y159530D01*
X93235Y159617D01*
X93123Y159700D01*
X93008Y159781D01*
X92891Y159859D01*
X92772Y159933D01*
X92651Y160003D01*
X92528Y160071D01*
X92403Y160135D01*
X92276Y160195D01*
X92148Y160252D01*
X92018Y160305D01*
X91887Y160354D01*
X91754Y160400D01*
X91621Y160442D01*
X91486Y160480D01*
X91350Y160515D01*
X91213Y160545D01*
X91075Y160572D01*
X90937Y160595D01*
X90798Y160614D01*
X90658Y160629D01*
X90518Y160640D01*
X90378Y160647D01*
X90238Y160651D01*
X90098Y160650D01*
X89958Y160646D01*
X89818Y160637D01*
X89678Y160625D01*
X89539Y160608D01*
X89400Y160588D01*
X89262Y160564D01*
X89124Y160536D01*
X88987Y160504D01*
X88852Y160469D01*
X88717Y160429D01*
X88584Y160386D01*
X88452Y160339D01*
X88321Y160288D01*
X88191Y160234D01*
X88064Y160176D01*
X87937Y160115D01*
X87813Y160050D01*
X87691Y159982D01*
X87570Y159910D01*
X70350Y184499D02*
X70459Y184588D01*
X70565Y184679D01*
X70669Y184774D01*
X70769Y184871D01*
X70868Y184972D01*
X70963Y185075D01*
X71055Y185180D01*
X71145Y185288D01*
X71231Y185399D01*
X71314Y185512D01*
X71394Y185627D01*
X71471Y185745D01*
X71544Y185864D01*
X71614Y185986D01*
X71681Y186109D01*
X71744Y186235D01*
X71803Y186362D01*
X71859Y186490D01*
X71911Y186620D01*
X71960Y186752D01*
X72005Y186885D01*
X72046Y187019D01*
X72083Y187154D01*
X72117Y187290D01*
X72147Y187427D01*
X72173Y187565D01*
X72195Y187704D01*
X72213Y187843D01*
X72227Y187982D01*
X72237Y188122D01*
X72244Y188262D01*
X72246Y188403D01*
X72244Y188543D01*
X72239Y188683D01*
X72230Y188823D01*
X72216Y188963D01*
X72199Y189102D01*
X72178Y189241D01*
X72153Y189379D01*
X72124Y189516D01*
X72091Y189652D01*
X72055Y189788D01*
X72015Y189922D01*
X71971Y190055D01*
X71923Y190187D01*
X71871Y190318D01*
X71816Y190447D01*
X71758Y190574D01*
X71695Y190700D01*
X71630Y190824D01*
X71561Y190946D01*
X71488Y191066D01*
X71412Y191184D01*
X71333Y191300D01*
X71250Y191413D01*
X71165Y191524D01*
X71076Y191633D01*
X70985Y191739D01*
X70890Y191843D01*
X70792Y191944D01*
X70692Y192042D01*
X70589Y192137D01*
X70484Y192229D01*
X70375Y192319D01*
X70265Y192405D01*
X70152Y192488D01*
X70037Y192568D01*
X69919Y192644D01*
X69800Y192718D01*
X69678Y192788D01*
X69554Y192854D01*
X69429Y192917D01*
X69302Y192977D01*
X69173Y193033D01*
X69043Y193085D01*
X68912Y193133D01*
X68779Y193178D01*
X68645Y193219D01*
X68509Y193257D01*
X68373Y193290D01*
X68236Y193320D01*
X68098Y193346D01*
X67960Y193368D01*
X67821Y193386D01*
X67681Y193400D01*
X67541Y193410D01*
X67401Y193417D01*
X67261Y193419D01*
X67121Y193417D01*
X66980Y193412D01*
X66840Y193403D01*
X66701Y193389D01*
X66562Y193372D01*
X66423Y193351D01*
X66285Y193326D01*
X66148Y193297D01*
X66011Y193264D01*
X65876Y193228D01*
X65741Y193187D01*
X65608Y193143D01*
X65476Y193095D01*
X65346Y193044D01*
X65217Y192989D01*
X65090Y192930D01*
X193828Y678336D02*
X193833Y678729D01*
X193847Y679121D01*
X193871Y679513D01*
X193905Y679904D01*
X193948Y680295D01*
X194001Y680684D01*
X194064Y681071D01*
X194135Y681457D01*
X194217Y681842D01*
X194307Y682224D01*
X194408Y682603D01*
X194517Y682981D01*
X194636Y683355D01*
X194763Y683726D01*
X194900Y684094D01*
X195046Y684459D01*
X195201Y684820D01*
X195364Y685177D01*
X195536Y685530D01*
X195717Y685878D01*
X195907Y686222D01*
X196104Y686562D01*
X196310Y686896D01*
X196524Y687225D01*
X196747Y687549D01*
X196977Y687867D01*
X197214Y688180D01*
X197460Y688486D01*
X197713Y688787D01*
X197973Y689081D01*
X198240Y689369D01*
X198514Y689650D01*
X198795Y689924D01*
X199083Y690191D01*
X199377Y690451D01*
X199678Y690704D01*
X199984Y690950D01*
X200297Y691187D01*
X200615Y691417D01*
X200939Y691640D01*
X201268Y691854D01*
X201602Y692060D01*
X201942Y692257D01*
X202286Y692447D01*
X202634Y692628D01*
X202987Y692800D01*
X203344Y692963D01*
X203705Y693118D01*
X204070Y693264D01*
X204438Y693401D01*
X204809Y693528D01*
X205183Y693647D01*
X205561Y693756D01*
X205940Y693857D01*
X206322Y693947D01*
X206707Y694029D01*
X207093Y694100D01*
X207480Y694163D01*
X207869Y694216D01*
X208260Y694259D01*
X208651Y694293D01*
X209043Y694317D01*
X209435Y694331D01*
X209828Y694336D01*
X210221Y694331D01*
X210613Y694317D01*
X211005Y694293D01*
X211396Y694259D01*
X211787Y694216D01*
X212176Y694163D01*
X212563Y694100D01*
X212949Y694029D01*
X213334Y693947D01*
X213716Y693857D01*
X214095Y693756D01*
X214473Y693647D01*
X214847Y693528D01*
X215218Y693401D01*
X215586Y693264D01*
X215951Y693118D01*
X216312Y692963D01*
X216669Y692800D01*
X217022Y692628D01*
X217370Y692447D01*
X217714Y692257D01*
X218054Y692060D01*
X218388Y691854D01*
X218717Y691640D01*
X219041Y691417D01*
X219359Y691187D01*
X219672Y690950D01*
X219978Y690704D01*
X220279Y690451D01*
X220573Y690191D01*
X220861Y689924D01*
X221142Y689650D01*
X221416Y689369D01*
X221683Y689081D01*
X221943Y688787D01*
X222196Y688486D01*
X222442Y688180D01*
X222679Y687867D01*
X222909Y687549D01*
X223132Y687225D01*
X223346Y686896D01*
X223552Y686562D01*
X223749Y686222D01*
X223939Y685878D01*
X224120Y685530D01*
X224292Y685177D01*
X224455Y684820D01*
X224610Y684459D01*
X224756Y684094D01*
X224893Y683726D01*
X225020Y683355D01*
X225139Y682981D01*
X225248Y682603D01*
X225349Y682224D01*
X225439Y681842D01*
X225521Y681457D01*
X225592Y681071D01*
X225655Y680684D01*
X225708Y680295D01*
X225751Y679904D01*
X225785Y679513D01*
X225809Y679121D01*
X225823Y678729D01*
X225828Y678336D01*
X225823Y677943D01*
X225809Y677551D01*
X225785Y677159D01*
X225751Y676768D01*
X225708Y676377D01*
X225655Y675988D01*
X225592Y675601D01*
X225521Y675215D01*
X225439Y674830D01*
X225349Y674448D01*
X225248Y674069D01*
X225139Y673691D01*
X225020Y673317D01*
X224893Y672946D01*
X224756Y672578D01*
X224610Y672213D01*
X224455Y671852D01*
X224292Y671495D01*
X224120Y671142D01*
X223939Y670794D01*
X223749Y670450D01*
X223552Y670110D01*
X223346Y669776D01*
X223132Y669447D01*
X222909Y669123D01*
X222679Y668805D01*
X222442Y668492D01*
X222196Y668186D01*
X221943Y667885D01*
X221683Y667591D01*
X221416Y667303D01*
X221142Y667022D01*
X220861Y666748D01*
X220573Y666481D01*
X220279Y666221D01*
X219978Y665968D01*
X219672Y665722D01*
X219359Y665485D01*
X219041Y665255D01*
X218717Y665032D01*
X218388Y664818D01*
X218054Y664612D01*
X217714Y664415D01*
X217370Y664225D01*
X217022Y664044D01*
X216669Y663872D01*
X216312Y663709D01*
X215951Y663554D01*
X215586Y663408D01*
X215218Y663271D01*
X214847Y663144D01*
X214473Y663025D01*
X214095Y662916D01*
X213716Y662815D01*
X213334Y662725D01*
X212949Y662643D01*
X212563Y662572D01*
X212176Y662509D01*
X211787Y662456D01*
X211396Y662413D01*
X211005Y662379D01*
X210613Y662355D01*
X210221Y662341D01*
X209828Y662336D01*
X209435Y662341D01*
X209043Y662355D01*
X208651Y662379D01*
X208260Y662413D01*
X207869Y662456D01*
X207480Y662509D01*
X207093Y662572D01*
X206707Y662643D01*
X206322Y662725D01*
X205940Y662815D01*
X205561Y662916D01*
X205183Y663025D01*
X204809Y663144D01*
X204438Y663271D01*
X204070Y663408D01*
X203705Y663554D01*
X203344Y663709D01*
X202987Y663872D01*
X202634Y664044D01*
X202286Y664225D01*
X201942Y664415D01*
X201602Y664612D01*
X201268Y664818D01*
X200939Y665032D01*
X200615Y665255D01*
X200297Y665485D01*
X199984Y665722D01*
X199678Y665968D01*
X199377Y666221D01*
X199083Y666481D01*
X198795Y666748D01*
X198514Y667022D01*
X198240Y667303D01*
X197973Y667591D01*
X197713Y667885D01*
X197460Y668186D01*
X197214Y668492D01*
X196977Y668805D01*
X196747Y669123D01*
X196524Y669447D01*
X196310Y669776D01*
X196104Y670110D01*
X195907Y670450D01*
X195717Y670794D01*
X195536Y671142D01*
X195364Y671495D01*
X195201Y671852D01*
X195046Y672213D01*
X194900Y672578D01*
X194763Y672946D01*
X194636Y673317D01*
X194517Y673691D01*
X194408Y674069D01*
X194307Y674448D01*
X194217Y674830D01*
X194135Y675215D01*
X194064Y675601D01*
X194001Y675988D01*
X193948Y676377D01*
X193905Y676768D01*
X193871Y677159D01*
X193847Y677551D01*
X193833Y677943D01*
X193828Y678336D01*
X13450Y441150D02*
X13586Y441115D01*
X13721Y441077D01*
X13855Y441035D01*
X13987Y440989D01*
X14118Y440940D01*
X14248Y440887D01*
X14376Y440830D01*
X14503Y440770D01*
X14628Y440706D01*
X14751Y440639D01*
X14872Y440568D01*
X14991Y440494D01*
X15108Y440417D01*
X15223Y440336D01*
X15335Y440252D01*
X15445Y440165D01*
X15553Y440075D01*
X15658Y439982D01*
X15760Y439886D01*
X15859Y439788D01*
X15956Y439686D01*
X16050Y439582D01*
X16141Y439475D01*
X16229Y439366D01*
X16314Y439254D01*
X16395Y439140D01*
X16474Y439024D01*
X16549Y438906D01*
X16620Y438785D01*
X16689Y438663D01*
X16754Y438538D01*
X16815Y438412D01*
X16873Y438285D01*
X16927Y438155D01*
X16978Y438024D01*
X17025Y437892D01*
X17068Y437759D01*
X17107Y437624D01*
X17143Y437489D01*
X17174Y437352D01*
X17202Y437215D01*
X17226Y437077D01*
X17247Y436938D01*
X17263Y436799D01*
X17275Y436659D01*
X17284Y436519D01*
X17288Y436379D01*
X17289Y436239D01*
X17285Y436098D01*
X17278Y435958D01*
X17267Y435819D01*
X17252Y435679D01*
X17233Y435540D01*
X17210Y435402D01*
X17183Y435264D01*
X17152Y435128D01*
X17118Y434992D01*
X17080Y434857D01*
X17038Y434723D01*
X16992Y434590D01*
X16942Y434459D01*
X16889Y434329D01*
X16833Y434201D01*
X16772Y434075D01*
X16708Y433950D01*
X16641Y433827D01*
X16570Y433706D01*
X16496Y433587D01*
X16419Y433470D01*
X16338Y433355D01*
X16254Y433243D01*
X16167Y433133D01*
X16077Y433025D01*
X15984Y432920D01*
X15888Y432818D01*
X15789Y432719D01*
X15688Y432622D01*
X15584Y432528D01*
X15477Y432437D01*
X15368Y432349D01*
X15256Y432265D01*
X15142Y432183D01*
X15026Y432105D01*
X14907Y432029D01*
X14787Y431958D01*
X14664Y431889D01*
X14540Y431825D01*
X14414Y431763D01*
X14286Y431706D01*
X14157Y431651D01*
X14026Y431601D01*
X13894Y431554D01*
X13761Y431511D01*
X13626Y431472D01*
X13490Y431436D01*
X13354Y431404D01*
X13216Y431376D01*
X13078Y431352D01*
X12939Y431332D01*
X12800Y431316D01*
X12660Y431304D01*
X12520Y431295D01*
X12380Y431291D01*
X12240Y431290D01*
X18670Y470710D02*
X18810Y470696D01*
X18949Y470686D01*
X19089Y470679D01*
X19230Y470677D01*
X19370Y470679D01*
X19510Y470684D01*
X19650Y470694D01*
X19789Y470707D01*
X19929Y470725D01*
X20067Y470746D01*
X20205Y470771D01*
X20342Y470800D01*
X20479Y470833D01*
X20614Y470869D01*
X20748Y470910D01*
X20881Y470954D01*
X21013Y471002D01*
X21143Y471053D01*
X21272Y471108D01*
X21400Y471167D01*
X21525Y471230D01*
X21649Y471295D01*
X21771Y471365D01*
X21891Y471437D01*
X22009Y471513D01*
X22124Y471593D01*
X22238Y471675D01*
X22349Y471761D01*
X22457Y471849D01*
X22563Y471941D01*
X22667Y472036D01*
X22768Y472133D01*
X22866Y472234D01*
X22961Y472337D01*
X23053Y472442D01*
X23142Y472551D01*
X23228Y472661D01*
X23311Y472774D01*
X23391Y472890D01*
X23467Y473007D01*
X23541Y473127D01*
X23610Y473248D01*
X23677Y473372D01*
X23740Y473497D01*
X23799Y473624D01*
X23855Y473753D01*
X23907Y473883D01*
X23955Y474015D01*
X24000Y474148D01*
X24041Y474282D01*
X24078Y474417D01*
X24111Y474553D01*
X24141Y474690D01*
X24167Y474828D01*
X24189Y474966D01*
X24206Y475105D01*
X24220Y475245D01*
X24231Y475385D01*
X24237Y475525D01*
X24239Y475665D01*
X24237Y475805D01*
X24232Y475945D01*
X24222Y476085D01*
X24209Y476225D01*
X24191Y476364D01*
X24170Y476503D01*
X24145Y476641D01*
X24116Y476778D01*
X24083Y476914D01*
X24046Y477049D01*
X24006Y477184D01*
X23962Y477317D01*
X23914Y477448D01*
X23862Y477579D01*
X23807Y477708D01*
X23748Y477835D01*
X23686Y477961D01*
X23620Y478084D01*
X23551Y478206D01*
X23478Y478326D01*
X23402Y478444D01*
X23323Y478560D01*
X23240Y478673D01*
X23154Y478784D01*
X23066Y478893D01*
X22974Y478999D01*
X22879Y479102D01*
X22782Y479203D01*
X22681Y479301D01*
X22578Y479396D01*
X22472Y479488D01*
X22364Y479577D01*
X22254Y479663D01*
X22141Y479746D01*
X22025Y479826D01*
X21908Y479902D01*
X21788Y479975D01*
X21666Y480045D01*
X21543Y480111D01*
X21418Y480174D01*
X21290Y480233D01*
X21162Y480289D01*
X21032Y480341D01*
X20900Y480390D01*
X152080Y686300D02*
X152180Y686201D01*
X152282Y686105D01*
X152387Y686012D01*
X152494Y685922D01*
X152605Y685835D01*
X152717Y685751D01*
X152832Y685671D01*
X152949Y685593D01*
X153068Y685519D01*
X153189Y685448D01*
X153312Y685381D01*
X153437Y685317D01*
X153563Y685257D01*
X153692Y685200D01*
X153821Y685147D01*
X153953Y685097D01*
X154085Y685051D01*
X154219Y685009D01*
X154354Y684971D01*
X154490Y684937D01*
X154627Y684906D01*
X154765Y684879D01*
X154903Y684856D01*
X155042Y684837D01*
X155181Y684822D01*
X155321Y684811D01*
X155461Y684804D01*
X155601Y684800D01*
X155742Y684801D01*
X155882Y684805D01*
X156022Y684814D01*
X156162Y684826D01*
X156301Y684842D01*
X156440Y684863D01*
X156578Y684887D01*
X156715Y684915D01*
X156852Y684946D01*
X156988Y684982D01*
X157122Y685021D01*
X157256Y685065D01*
X157388Y685111D01*
X157519Y685162D01*
X157648Y685216D01*
X157776Y685274D01*
X157902Y685335D01*
X158027Y685400D01*
X158149Y685469D01*
X158270Y685541D01*
X158388Y685616D01*
X158504Y685694D01*
X158618Y685776D01*
X158730Y685861D01*
X158839Y685948D01*
X158946Y686039D01*
X159050Y686133D01*
X159152Y686230D01*
X159251Y686330D01*
X159347Y686432D01*
X159440Y686537D01*
X159530Y686645D01*
X159617Y686755D01*
X159700Y686867D01*
X159781Y686982D01*
X159859Y687099D01*
X159933Y687218D01*
X160003Y687339D01*
X160071Y687462D01*
X160135Y687587D01*
X160195Y687714D01*
X160252Y687842D01*
X160305Y687972D01*
X160354Y688103D01*
X160400Y688236D01*
X160442Y688370D01*
X160480Y688504D01*
X160515Y688640D01*
X160545Y688777D01*
X160572Y688915D01*
X160595Y689053D01*
X160614Y689192D01*
X160629Y689332D01*
X160640Y689472D01*
X160647Y689612D01*
X160651Y689752D01*
X160650Y689892D01*
X160646Y690032D01*
X160637Y690172D01*
X160625Y690312D01*
X160608Y690452D01*
X160588Y690590D01*
X160564Y690729D01*
X160536Y690866D01*
X160504Y691003D01*
X160469Y691138D01*
X160429Y691273D01*
X160386Y691406D01*
X160339Y691539D01*
X160288Y691669D01*
X160234Y691799D01*
X160176Y691926D01*
X160115Y692053D01*
X160050Y692177D01*
X159981Y692299D01*
X159910Y692420D01*
X184499Y709640D02*
X184588Y709531D01*
X184679Y709425D01*
X184774Y709321D01*
X184871Y709221D01*
X184972Y709122D01*
X185075Y709027D01*
X185180Y708935D01*
X185288Y708845D01*
X185399Y708759D01*
X185512Y708676D01*
X185627Y708596D01*
X185745Y708519D01*
X185864Y708446D01*
X185986Y708376D01*
X186109Y708309D01*
X186235Y708246D01*
X186362Y708187D01*
X186490Y708131D01*
X186620Y708079D01*
X186752Y708030D01*
X186885Y707985D01*
X187019Y707944D01*
X187154Y707907D01*
X187290Y707873D01*
X187427Y707843D01*
X187565Y707817D01*
X187704Y707795D01*
X187843Y707777D01*
X187982Y707763D01*
X188122Y707753D01*
X188262Y707746D01*
X188403Y707744D01*
X188543Y707746D01*
X188683Y707751D01*
X188823Y707760D01*
X188963Y707774D01*
X189102Y707791D01*
X189241Y707812D01*
X189379Y707837D01*
X189516Y707866D01*
X189652Y707899D01*
X189788Y707935D01*
X189922Y707975D01*
X190055Y708019D01*
X190187Y708067D01*
X190318Y708119D01*
X190447Y708174D01*
X190574Y708232D01*
X190700Y708295D01*
X190824Y708360D01*
X190946Y708429D01*
X191066Y708502D01*
X191184Y708578D01*
X191300Y708657D01*
X191413Y708740D01*
X191524Y708825D01*
X191633Y708914D01*
X191739Y709005D01*
X191843Y709100D01*
X191944Y709198D01*
X192042Y709298D01*
X192137Y709401D01*
X192229Y709506D01*
X192319Y709615D01*
X192405Y709725D01*
X192488Y709838D01*
X192568Y709953D01*
X192644Y710071D01*
X192718Y710190D01*
X192788Y710312D01*
X192854Y710436D01*
X192917Y710561D01*
X192977Y710688D01*
X193033Y710817D01*
X193085Y710947D01*
X193133Y711078D01*
X193178Y711211D01*
X193219Y711345D01*
X193257Y711481D01*
X193290Y711617D01*
X193320Y711754D01*
X193346Y711892D01*
X193368Y712030D01*
X193386Y712169D01*
X193400Y712309D01*
X193410Y712449D01*
X193417Y712589D01*
X193419Y712729D01*
X193417Y712870D01*
X193412Y713010D01*
X193403Y713150D01*
X193389Y713289D01*
X193372Y713428D01*
X193351Y713567D01*
X193326Y713705D01*
X193297Y713842D01*
X193264Y713979D01*
X193228Y714114D01*
X193187Y714249D01*
X193143Y714382D01*
X193095Y714514D01*
X193044Y714644D01*
X192989Y714773D01*
X192930Y714901D01*
X554173Y101664D02*
X554178Y102057D01*
X554192Y102449D01*
X554216Y102841D01*
X554250Y103232D01*
X554293Y103623D01*
X554346Y104012D01*
X554409Y104399D01*
X554480Y104785D01*
X554562Y105170D01*
X554652Y105552D01*
X554753Y105931D01*
X554862Y106309D01*
X554981Y106683D01*
X555108Y107054D01*
X555245Y107422D01*
X555391Y107787D01*
X555546Y108148D01*
X555709Y108505D01*
X555881Y108858D01*
X556062Y109206D01*
X556252Y109550D01*
X556449Y109890D01*
X556655Y110224D01*
X556869Y110553D01*
X557092Y110877D01*
X557322Y111195D01*
X557559Y111508D01*
X557805Y111814D01*
X558058Y112115D01*
X558318Y112409D01*
X558585Y112697D01*
X558859Y112978D01*
X559140Y113252D01*
X559428Y113519D01*
X559722Y113779D01*
X560023Y114032D01*
X560329Y114278D01*
X560642Y114515D01*
X560960Y114745D01*
X561284Y114968D01*
X561613Y115182D01*
X561947Y115388D01*
X562287Y115585D01*
X562631Y115775D01*
X562979Y115956D01*
X563332Y116128D01*
X563689Y116291D01*
X564050Y116446D01*
X564415Y116592D01*
X564783Y116729D01*
X565154Y116856D01*
X565528Y116975D01*
X565906Y117084D01*
X566285Y117185D01*
X566667Y117275D01*
X567052Y117357D01*
X567438Y117428D01*
X567825Y117491D01*
X568214Y117544D01*
X568605Y117587D01*
X568996Y117621D01*
X569388Y117645D01*
X569780Y117659D01*
X570173Y117664D01*
X570566Y117659D01*
X570958Y117645D01*
X571350Y117621D01*
X571741Y117587D01*
X572132Y117544D01*
X572521Y117491D01*
X572908Y117428D01*
X573294Y117357D01*
X573679Y117275D01*
X574061Y117185D01*
X574440Y117084D01*
X574818Y116975D01*
X575192Y116856D01*
X575563Y116729D01*
X575931Y116592D01*
X576296Y116446D01*
X576657Y116291D01*
X577014Y116128D01*
X577367Y115956D01*
X577715Y115775D01*
X578059Y115585D01*
X578399Y115388D01*
X578733Y115182D01*
X579062Y114968D01*
X579386Y114745D01*
X579704Y114515D01*
X580017Y114278D01*
X580323Y114032D01*
X580624Y113779D01*
X580918Y113519D01*
X581206Y113252D01*
X581487Y112978D01*
X581761Y112697D01*
X582028Y112409D01*
X582288Y112115D01*
X582541Y111814D01*
X582787Y111508D01*
X583024Y111195D01*
X583254Y110877D01*
X583477Y110553D01*
X583691Y110224D01*
X583897Y109890D01*
X584094Y109550D01*
X584284Y109206D01*
X584465Y108858D01*
X584637Y108505D01*
X584800Y108148D01*
X584955Y107787D01*
X585101Y107422D01*
X585238Y107054D01*
X585365Y106683D01*
X585484Y106309D01*
X585593Y105931D01*
X585694Y105552D01*
X585784Y105170D01*
X585866Y104785D01*
X585937Y104399D01*
X586000Y104012D01*
X586053Y103623D01*
X586096Y103232D01*
X586130Y102841D01*
X586154Y102449D01*
X586168Y102057D01*
X586173Y101664D01*
X586168Y101271D01*
X586154Y100879D01*
X586130Y100487D01*
X586096Y100096D01*
X586053Y99705D01*
X586000Y99316D01*
X585937Y98929D01*
X585866Y98543D01*
X585784Y98158D01*
X585694Y97776D01*
X585593Y97397D01*
X585484Y97019D01*
X585365Y96645D01*
X585238Y96274D01*
X585101Y95906D01*
X584955Y95541D01*
X584800Y95180D01*
X584637Y94823D01*
X584465Y94470D01*
X584284Y94122D01*
X584094Y93778D01*
X583897Y93438D01*
X583691Y93104D01*
X583477Y92775D01*
X583254Y92451D01*
X583024Y92133D01*
X582787Y91820D01*
X582541Y91514D01*
X582288Y91213D01*
X582028Y90919D01*
X581761Y90631D01*
X581487Y90350D01*
X581206Y90076D01*
X580918Y89809D01*
X580624Y89549D01*
X580323Y89296D01*
X580017Y89050D01*
X579704Y88813D01*
X579386Y88583D01*
X579062Y88360D01*
X578733Y88146D01*
X578399Y87940D01*
X578059Y87743D01*
X577715Y87553D01*
X577367Y87372D01*
X577014Y87200D01*
X576657Y87037D01*
X576296Y86882D01*
X575931Y86736D01*
X575563Y86599D01*
X575192Y86472D01*
X574818Y86353D01*
X574440Y86244D01*
X574061Y86143D01*
X573679Y86053D01*
X573294Y85971D01*
X572908Y85900D01*
X572521Y85837D01*
X572132Y85784D01*
X571741Y85741D01*
X571350Y85707D01*
X570958Y85683D01*
X570566Y85669D01*
X570173Y85664D01*
X569780Y85669D01*
X569388Y85683D01*
X568996Y85707D01*
X568605Y85741D01*
X568214Y85784D01*
X567825Y85837D01*
X567438Y85900D01*
X567052Y85971D01*
X566667Y86053D01*
X566285Y86143D01*
X565906Y86244D01*
X565528Y86353D01*
X565154Y86472D01*
X564783Y86599D01*
X564415Y86736D01*
X564050Y86882D01*
X563689Y87037D01*
X563332Y87200D01*
X562979Y87372D01*
X562631Y87553D01*
X562287Y87743D01*
X561947Y87940D01*
X561613Y88146D01*
X561284Y88360D01*
X560960Y88583D01*
X560642Y88813D01*
X560329Y89050D01*
X560023Y89296D01*
X559722Y89549D01*
X559428Y89809D01*
X559140Y90076D01*
X558859Y90350D01*
X558585Y90631D01*
X558318Y90919D01*
X558058Y91213D01*
X557805Y91514D01*
X557559Y91820D01*
X557322Y92133D01*
X557092Y92451D01*
X556869Y92775D01*
X556655Y93104D01*
X556449Y93438D01*
X556252Y93778D01*
X556062Y94122D01*
X555881Y94470D01*
X555709Y94823D01*
X555546Y95180D01*
X555391Y95541D01*
X555245Y95906D01*
X555108Y96274D01*
X554981Y96645D01*
X554862Y97019D01*
X554753Y97397D01*
X554652Y97776D01*
X554562Y98158D01*
X554480Y98543D01*
X554409Y98929D01*
X554346Y99316D01*
X554293Y99705D01*
X554250Y100096D01*
X554216Y100487D01*
X554192Y100879D01*
X554178Y101271D01*
X554173Y101664D01*
X766540Y338840D02*
X766404Y338875D01*
X766269Y338913D01*
X766135Y338955D01*
X766003Y339001D01*
X765872Y339050D01*
X765742Y339103D01*
X765614Y339160D01*
X765487Y339220D01*
X765362Y339284D01*
X765239Y339351D01*
X765118Y339422D01*
X764999Y339496D01*
X764882Y339573D01*
X764767Y339654D01*
X764655Y339738D01*
X764545Y339825D01*
X764437Y339915D01*
X764333Y340008D01*
X764230Y340104D01*
X764131Y340202D01*
X764034Y340304D01*
X763940Y340408D01*
X763849Y340515D01*
X763761Y340624D01*
X763676Y340736D01*
X763595Y340850D01*
X763516Y340966D01*
X763441Y341084D01*
X763370Y341205D01*
X763301Y341327D01*
X763236Y341452D01*
X763175Y341578D01*
X763117Y341705D01*
X763063Y341835D01*
X763012Y341966D01*
X762965Y342098D01*
X762922Y342231D01*
X762883Y342366D01*
X762847Y342501D01*
X762816Y342638D01*
X762788Y342775D01*
X762764Y342913D01*
X762743Y343052D01*
X762727Y343191D01*
X762715Y343331D01*
X762706Y343471D01*
X762702Y343611D01*
X762701Y343751D01*
X762705Y343892D01*
X762712Y344032D01*
X762723Y344171D01*
X762738Y344311D01*
X762757Y344450D01*
X762780Y344588D01*
X762807Y344726D01*
X762838Y344862D01*
X762872Y344998D01*
X762910Y345133D01*
X762952Y345267D01*
X762998Y345400D01*
X763048Y345531D01*
X763101Y345661D01*
X763157Y345789D01*
X763218Y345915D01*
X763282Y346040D01*
X763349Y346163D01*
X763420Y346284D01*
X763494Y346403D01*
X763571Y346520D01*
X763652Y346635D01*
X763736Y346747D01*
X763823Y346857D01*
X763913Y346965D01*
X764006Y347070D01*
X764102Y347172D01*
X764201Y347271D01*
X764302Y347368D01*
X764406Y347462D01*
X764513Y347553D01*
X764622Y347641D01*
X764734Y347725D01*
X764848Y347807D01*
X764964Y347885D01*
X765083Y347961D01*
X765203Y348032D01*
X765326Y348101D01*
X765450Y348165D01*
X765576Y348227D01*
X765704Y348284D01*
X765833Y348339D01*
X765964Y348389D01*
X766096Y348436D01*
X766230Y348479D01*
X766364Y348518D01*
X766500Y348554D01*
X766636Y348586D01*
X766774Y348614D01*
X766912Y348638D01*
X767051Y348658D01*
X767190Y348674D01*
X767330Y348686D01*
X767470Y348695D01*
X767610Y348699D01*
X767750Y348700D01*
X761320Y309280D02*
X761181Y309294D01*
X761041Y309304D01*
X760901Y309311D01*
X760760Y309313D01*
X760620Y309311D01*
X760480Y309306D01*
X760340Y309296D01*
X760201Y309283D01*
X760061Y309265D01*
X759923Y309244D01*
X759785Y309219D01*
X759648Y309190D01*
X759511Y309157D01*
X759376Y309121D01*
X759242Y309080D01*
X759109Y309036D01*
X758977Y308988D01*
X758847Y308937D01*
X758718Y308882D01*
X758590Y308823D01*
X758465Y308760D01*
X758341Y308695D01*
X758219Y308625D01*
X758099Y308553D01*
X757981Y308477D01*
X757866Y308397D01*
X757752Y308315D01*
X757641Y308229D01*
X757533Y308141D01*
X757427Y308049D01*
X757323Y307954D01*
X757222Y307857D01*
X757124Y307756D01*
X757029Y307653D01*
X756937Y307548D01*
X756848Y307439D01*
X756762Y307329D01*
X756679Y307216D01*
X756599Y307100D01*
X756523Y306983D01*
X756449Y306863D01*
X756380Y306742D01*
X756313Y306618D01*
X756250Y306493D01*
X756191Y306366D01*
X756135Y306237D01*
X756083Y306107D01*
X756035Y305975D01*
X755990Y305842D01*
X755949Y305708D01*
X755912Y305573D01*
X755879Y305437D01*
X755849Y305300D01*
X755823Y305162D01*
X755801Y305024D01*
X755784Y304885D01*
X755770Y304745D01*
X755759Y304605D01*
X755753Y304465D01*
X755751Y304325D01*
X755753Y304185D01*
X755758Y304045D01*
X755768Y303905D01*
X755781Y303765D01*
X755799Y303626D01*
X755820Y303487D01*
X755845Y303349D01*
X755874Y303212D01*
X755907Y303076D01*
X755944Y302941D01*
X755984Y302806D01*
X756028Y302673D01*
X756076Y302542D01*
X756128Y302411D01*
X756183Y302282D01*
X756242Y302155D01*
X756304Y302029D01*
X756370Y301906D01*
X756439Y301784D01*
X756512Y301664D01*
X756588Y301546D01*
X756667Y301430D01*
X756750Y301317D01*
X756836Y301206D01*
X756924Y301097D01*
X757016Y300991D01*
X757111Y300888D01*
X757208Y300787D01*
X757309Y300689D01*
X757412Y300594D01*
X757518Y300502D01*
X757626Y300413D01*
X757736Y300327D01*
X757849Y300244D01*
X757965Y300164D01*
X758082Y300088D01*
X758202Y300015D01*
X758324Y299945D01*
X758447Y299879D01*
X758572Y299816D01*
X758700Y299757D01*
X758828Y299701D01*
X758958Y299649D01*
X759090Y299600D01*
X627910Y93690D02*
X627810Y93789D01*
X627708Y93885D01*
X627603Y93978D01*
X627496Y94068D01*
X627385Y94155D01*
X627273Y94239D01*
X627158Y94319D01*
X627041Y94397D01*
X626922Y94471D01*
X626801Y94542D01*
X626678Y94609D01*
X626553Y94673D01*
X626427Y94733D01*
X626298Y94790D01*
X626169Y94843D01*
X626037Y94893D01*
X625905Y94939D01*
X625771Y94981D01*
X625636Y95019D01*
X625500Y95053D01*
X625363Y95084D01*
X625225Y95111D01*
X625087Y95134D01*
X624948Y95153D01*
X624809Y95168D01*
X624669Y95179D01*
X624529Y95186D01*
X624389Y95190D01*
X624248Y95189D01*
X624108Y95185D01*
X623968Y95176D01*
X623828Y95164D01*
X623689Y95148D01*
X623550Y95127D01*
X623412Y95103D01*
X623275Y95075D01*
X623138Y95044D01*
X623002Y95008D01*
X622868Y94969D01*
X622734Y94925D01*
X622602Y94879D01*
X622471Y94828D01*
X622342Y94774D01*
X622214Y94716D01*
X622088Y94655D01*
X621963Y94590D01*
X621841Y94521D01*
X621720Y94449D01*
X621602Y94374D01*
X621486Y94296D01*
X621372Y94214D01*
X621260Y94129D01*
X621151Y94042D01*
X621044Y93951D01*
X620940Y93857D01*
X620838Y93760D01*
X620739Y93660D01*
X620643Y93558D01*
X620550Y93453D01*
X620460Y93345D01*
X620373Y93235D01*
X620290Y93123D01*
X620209Y93008D01*
X620131Y92891D01*
X620057Y92772D01*
X619987Y92651D01*
X619919Y92528D01*
X619855Y92403D01*
X619795Y92276D01*
X619738Y92148D01*
X619685Y92018D01*
X619636Y91887D01*
X619590Y91754D01*
X619548Y91620D01*
X619510Y91486D01*
X619475Y91350D01*
X619445Y91213D01*
X619418Y91075D01*
X619395Y90937D01*
X619376Y90798D01*
X619361Y90658D01*
X619350Y90518D01*
X619343Y90378D01*
X619339Y90238D01*
X619340Y90098D01*
X619344Y89958D01*
X619353Y89818D01*
X619365Y89678D01*
X619382Y89538D01*
X619402Y89400D01*
X619426Y89261D01*
X619454Y89124D01*
X619486Y88987D01*
X619521Y88852D01*
X619561Y88717D01*
X619604Y88584D01*
X619651Y88451D01*
X619702Y88321D01*
X619756Y88191D01*
X619814Y88064D01*
X619875Y87937D01*
X619940Y87813D01*
X620009Y87691D01*
X620080Y87570D01*
X595491Y70350D02*
X595402Y70459D01*
X595311Y70565D01*
X595216Y70669D01*
X595119Y70769D01*
X595018Y70868D01*
X594915Y70963D01*
X594810Y71055D01*
X594702Y71145D01*
X594591Y71231D01*
X594478Y71314D01*
X594363Y71394D01*
X594245Y71471D01*
X594126Y71544D01*
X594004Y71614D01*
X593881Y71681D01*
X593755Y71744D01*
X593628Y71803D01*
X593500Y71859D01*
X593370Y71911D01*
X593238Y71960D01*
X593105Y72005D01*
X592971Y72046D01*
X592836Y72083D01*
X592700Y72117D01*
X592563Y72147D01*
X592425Y72173D01*
X592286Y72195D01*
X592147Y72213D01*
X592008Y72227D01*
X591868Y72237D01*
X591728Y72244D01*
X591587Y72246D01*
X591447Y72244D01*
X591307Y72239D01*
X591167Y72230D01*
X591027Y72216D01*
X590888Y72199D01*
X590749Y72178D01*
X590611Y72153D01*
X590474Y72124D01*
X590338Y72091D01*
X590202Y72055D01*
X590068Y72015D01*
X589935Y71971D01*
X589803Y71923D01*
X589672Y71871D01*
X589543Y71816D01*
X589416Y71758D01*
X589290Y71695D01*
X589166Y71630D01*
X589044Y71561D01*
X588924Y71488D01*
X588806Y71412D01*
X588690Y71333D01*
X588577Y71250D01*
X588466Y71165D01*
X588357Y71076D01*
X588251Y70985D01*
X588147Y70890D01*
X588046Y70792D01*
X587948Y70692D01*
X587853Y70589D01*
X587761Y70484D01*
X587671Y70375D01*
X587585Y70265D01*
X587502Y70152D01*
X587422Y70037D01*
X587346Y69919D01*
X587272Y69800D01*
X587202Y69678D01*
X587136Y69554D01*
X587073Y69429D01*
X587013Y69302D01*
X586957Y69173D01*
X586905Y69043D01*
X586857Y68912D01*
X586812Y68779D01*
X586771Y68645D01*
X586733Y68509D01*
X586700Y68373D01*
X586670Y68236D01*
X586644Y68098D01*
X586622Y67960D01*
X586604Y67821D01*
X586590Y67681D01*
X586580Y67541D01*
X586573Y67401D01*
X586571Y67261D01*
X586573Y67121D01*
X586578Y66980D01*
X586587Y66840D01*
X586601Y66701D01*
X586618Y66562D01*
X586639Y66423D01*
X586664Y66285D01*
X586693Y66148D01*
X586726Y66011D01*
X586762Y65876D01*
X586803Y65741D01*
X586847Y65608D01*
X586895Y65476D01*
X586946Y65346D01*
X587001Y65217D01*
X587060Y65090D01*
X87571Y159910D02*
X83084Y165929D01*
X78718Y172035D01*
X74473Y178226D01*
X70351Y184500D01*
X309280Y18670D02*
X316630Y17146D01*
X324009Y15768D01*
X331413Y14536D01*
X338840Y13450D01*
X65090Y192930D02*
X60411Y200858D01*
X55926Y208897D01*
X51637Y217042D01*
X47547Y225289D01*
X43657Y233633D01*
X39971Y242068D01*
X36490Y250590D01*
X33217Y259194D01*
X30153Y267875D01*
X27300Y276627D01*
X24660Y285446D01*
X22234Y294326D01*
X20025Y303262D01*
X18032Y312250D01*
X16257Y321283D01*
X14702Y330356D01*
X13367Y339464D01*
X12254Y348602D01*
X11362Y357764D01*
X10692Y366945D01*
X10244Y376140D01*
X10020Y385343D01*
X10018Y394548D01*
X10240Y403751D01*
X10684Y412946D01*
X11351Y422127D01*
X12240Y431290D01*
X20899Y480390D02*
X23197Y489304D01*
X25711Y498160D01*
X28438Y506952D01*
X31377Y515675D01*
X34527Y524325D01*
X37885Y532896D01*
X41450Y541383D01*
X45219Y549782D01*
X49191Y558086D01*
X53363Y566292D01*
X57732Y574395D01*
X62296Y582389D01*
X67053Y590270D01*
X71999Y598034D01*
X77132Y605676D01*
X82448Y613191D01*
X87945Y620575D01*
X93619Y627824D01*
X99467Y634933D01*
X105485Y641898D01*
X111671Y648716D01*
X118019Y655382D01*
X124528Y661892D01*
X131192Y668243D01*
X138008Y674430D01*
X144972Y680450D01*
X152079Y686300D01*
X18670Y470710D02*
X17146Y463360D01*
X15768Y455981D01*
X14536Y448577D01*
X13450Y441150D01*
X192930Y714900D02*
X200858Y719579D01*
X208897Y724064D01*
X217042Y728353D01*
X225289Y732443D01*
X233633Y736333D01*
X242068Y740019D01*
X250590Y743500D01*
X259194Y746773D01*
X267875Y749837D01*
X276627Y752690D01*
X285446Y755330D01*
X294326Y757756D01*
X303262Y759965D01*
X312250Y761958D01*
X321283Y763733D01*
X330356Y765288D01*
X339464Y766623D01*
X348602Y767736D01*
X357764Y768628D01*
X366945Y769298D01*
X376140Y769746D01*
X385343Y769970D01*
X394548Y769972D01*
X403751Y769750D01*
X412946Y769306D01*
X422127Y768639D01*
X431290Y767750D01*
X184500Y709639D02*
X178226Y705517D01*
X172035Y701272D01*
X165929Y696906D01*
X159910Y692419D01*
X93690Y152079D02*
X99540Y144972D01*
X105560Y138008D01*
X111747Y131192D01*
X118098Y124528D01*
X124608Y118019D01*
X131274Y111671D01*
X138092Y105485D01*
X145057Y99467D01*
X152166Y93619D01*
X159415Y87945D01*
X166799Y82448D01*
X174314Y77132D01*
X181956Y71999D01*
X189720Y67053D01*
X197601Y62296D01*
X205595Y57732D01*
X213698Y53363D01*
X221904Y49191D01*
X230208Y45219D01*
X238607Y41450D01*
X247094Y37885D01*
X255665Y34527D01*
X264315Y31377D01*
X273038Y28438D01*
X281830Y25711D01*
X290686Y23197D01*
X299600Y20899D01*
X686300Y627911D02*
X680450Y635018D01*
X674430Y641982D01*
X668243Y648798D01*
X661892Y655462D01*
X655382Y661971D01*
X648716Y668319D01*
X641898Y674505D01*
X634933Y680523D01*
X627824Y686371D01*
X620575Y692045D01*
X613191Y697542D01*
X605676Y702858D01*
X598034Y707991D01*
X590270Y712937D01*
X582389Y717694D01*
X574395Y722258D01*
X566292Y726627D01*
X558086Y730799D01*
X549782Y734771D01*
X541383Y738540D01*
X532896Y742105D01*
X524325Y745463D01*
X515675Y748613D01*
X506952Y751552D01*
X498160Y754279D01*
X489304Y756793D01*
X480390Y759091D01*
X620080Y87571D02*
X614061Y83084D01*
X607955Y78718D01*
X601764Y74473D01*
X595490Y70351D01*
X470710Y761320D02*
X463360Y762844D01*
X455981Y764222D01*
X448577Y765454D01*
X441150Y766540D01*
X714900Y587060D02*
X719579Y579132D01*
X724064Y571093D01*
X728353Y562948D01*
X732443Y554701D01*
X736333Y546357D01*
X740019Y537922D01*
X743500Y529400D01*
X746773Y520796D01*
X749837Y512115D01*
X752690Y503363D01*
X755330Y494544D01*
X757756Y485664D01*
X759965Y476728D01*
X761958Y467740D01*
X763733Y458707D01*
X765288Y449634D01*
X766623Y440526D01*
X767736Y431388D01*
X768628Y422226D01*
X769298Y413045D01*
X769746Y403850D01*
X769970Y394647D01*
X769972Y385442D01*
X769750Y376239D01*
X769306Y367044D01*
X768639Y357863D01*
X767750Y348700D01*
X709639Y595490D02*
X705517Y601764D01*
X701272Y607955D01*
X696906Y614061D01*
X692419Y620080D01*
X759091Y299600D02*
X756793Y290686D01*
X754279Y281830D01*
X751552Y273038D01*
X748613Y264315D01*
X745463Y255665D01*
X742105Y247094D01*
X738540Y238607D01*
X734771Y230208D01*
X730799Y221904D01*
X726627Y213698D01*
X722258Y205595D01*
X717694Y197601D01*
X712937Y189720D01*
X707991Y181956D01*
X702858Y174314D01*
X697542Y166799D01*
X692045Y159415D01*
X686371Y152166D01*
X680523Y145057D01*
X674505Y138092D01*
X668319Y131274D01*
X661971Y124608D01*
X655462Y118098D01*
X648798Y111747D01*
X641982Y105560D01*
X635018Y99540D01*
X627911Y93690D01*
X761320Y309280D02*
X762844Y316630D01*
X764222Y324009D01*
X765454Y331413D01*
X766540Y338840D01*
X587060Y65090D02*
X579132Y60411D01*
X571093Y55926D01*
X562948Y51637D01*
X554701Y47547D01*
X546357Y43657D01*
X537922Y39971D01*
X529400Y36490D01*
X520796Y33217D01*
X512115Y30153D01*
X503363Y27300D01*
X494544Y24660D01*
X485664Y22234D01*
X476728Y20025D01*
X467740Y18032D01*
X458707Y16257D01*
X449634Y14702D01*
X440526Y13367D01*
X431388Y12254D01*
X422226Y11362D01*
X413045Y10692D01*
X403850Y10244D01*
X394647Y10020D01*
X385442Y10018D01*
X376239Y10240D01*
X367044Y10684D01*
X357863Y11351D01*
X348700Y12240D01*
X662336Y570173D02*
X662341Y570566D01*
X662355Y570958D01*
X662379Y571350D01*
X662413Y571741D01*
X662456Y572132D01*
X662509Y572521D01*
X662572Y572908D01*
X662643Y573294D01*
X662725Y573679D01*
X662815Y574061D01*
X662916Y574440D01*
X663025Y574818D01*
X663144Y575192D01*
X663271Y575563D01*
X663408Y575931D01*
X663554Y576296D01*
X663709Y576657D01*
X663872Y577014D01*
X664044Y577367D01*
X664225Y577715D01*
X664415Y578059D01*
X664612Y578399D01*
X664818Y578733D01*
X665032Y579062D01*
X665255Y579386D01*
X665485Y579704D01*
X665722Y580017D01*
X665968Y580323D01*
X666221Y580624D01*
X666481Y580918D01*
X666748Y581206D01*
X667022Y581487D01*
X667303Y581761D01*
X667591Y582028D01*
X667885Y582288D01*
X668186Y582541D01*
X668492Y582787D01*
X668805Y583024D01*
X669123Y583254D01*
X669447Y583477D01*
X669776Y583691D01*
X670110Y583897D01*
X670450Y584094D01*
X670794Y584284D01*
X671142Y584465D01*
X671495Y584637D01*
X671852Y584800D01*
X672213Y584955D01*
X672578Y585101D01*
X672946Y585238D01*
X673317Y585365D01*
X673691Y585484D01*
X674069Y585593D01*
X674448Y585694D01*
X674830Y585784D01*
X675215Y585866D01*
X675601Y585937D01*
X675988Y586000D01*
X676377Y586053D01*
X676768Y586096D01*
X677159Y586130D01*
X677551Y586154D01*
X677943Y586168D01*
X678336Y586173D01*
X678729Y586168D01*
X679121Y586154D01*
X679513Y586130D01*
X679904Y586096D01*
X680295Y586053D01*
X680684Y586000D01*
X681071Y585937D01*
X681457Y585866D01*
X681842Y585784D01*
X682224Y585694D01*
X682603Y585593D01*
X682981Y585484D01*
X683355Y585365D01*
X683726Y585238D01*
X684094Y585101D01*
X684459Y584955D01*
X684820Y584800D01*
X685177Y584637D01*
X685530Y584465D01*
X685878Y584284D01*
X686222Y584094D01*
X686562Y583897D01*
X686896Y583691D01*
X687225Y583477D01*
X687549Y583254D01*
X687867Y583024D01*
X688180Y582787D01*
X688486Y582541D01*
X688787Y582288D01*
X689081Y582028D01*
X689369Y581761D01*
X689650Y581487D01*
X689924Y581206D01*
X690191Y580918D01*
X690451Y580624D01*
X690704Y580323D01*
X690950Y580017D01*
X691187Y579704D01*
X691417Y579386D01*
X691640Y579062D01*
X691854Y578733D01*
X692060Y578399D01*
X692257Y578059D01*
X692447Y577715D01*
X692628Y577367D01*
X692800Y577014D01*
X692963Y576657D01*
X693118Y576296D01*
X693264Y575931D01*
X693401Y575563D01*
X693528Y575192D01*
X693647Y574818D01*
X693756Y574440D01*
X693857Y574061D01*
X693947Y573679D01*
X694029Y573294D01*
X694100Y572908D01*
X694163Y572521D01*
X694216Y572132D01*
X694259Y571741D01*
X694293Y571350D01*
X694317Y570958D01*
X694331Y570566D01*
X694336Y570173D01*
X694331Y569780D01*
X694317Y569388D01*
X694293Y568996D01*
X694259Y568605D01*
X694216Y568214D01*
X694163Y567825D01*
X694100Y567438D01*
X694029Y567052D01*
X693947Y566667D01*
X693857Y566285D01*
X693756Y565906D01*
X693647Y565528D01*
X693528Y565154D01*
X693401Y564783D01*
X693264Y564415D01*
X693118Y564050D01*
X692963Y563689D01*
X692800Y563332D01*
X692628Y562979D01*
X692447Y562631D01*
X692257Y562287D01*
X692060Y561947D01*
X691854Y561613D01*
X691640Y561284D01*
X691417Y560960D01*
X691187Y560642D01*
X690950Y560329D01*
X690704Y560023D01*
X690451Y559722D01*
X690191Y559428D01*
X689924Y559140D01*
X689650Y558859D01*
X689369Y558585D01*
X689081Y558318D01*
X688787Y558058D01*
X688486Y557805D01*
X688180Y557559D01*
X687867Y557322D01*
X687549Y557092D01*
X687225Y556869D01*
X686896Y556655D01*
X686562Y556449D01*
X686222Y556252D01*
X685878Y556062D01*
X685530Y555881D01*
X685177Y555709D01*
X684820Y555546D01*
X684459Y555391D01*
X684094Y555245D01*
X683726Y555108D01*
X683355Y554981D01*
X682981Y554862D01*
X682603Y554753D01*
X682224Y554652D01*
X681842Y554562D01*
X681457Y554480D01*
X681071Y554409D01*
X680684Y554346D01*
X680295Y554293D01*
X679904Y554250D01*
X679513Y554216D01*
X679121Y554192D01*
X678729Y554178D01*
X678336Y554173D01*
X677943Y554178D01*
X677551Y554192D01*
X677159Y554216D01*
X676768Y554250D01*
X676377Y554293D01*
X675988Y554346D01*
X675601Y554409D01*
X675215Y554480D01*
X674830Y554562D01*
X674448Y554652D01*
X674069Y554753D01*
X673691Y554862D01*
X673317Y554981D01*
X672946Y555108D01*
X672578Y555245D01*
X672213Y555391D01*
X671852Y555546D01*
X671495Y555709D01*
X671142Y555881D01*
X670794Y556062D01*
X670450Y556252D01*
X670110Y556449D01*
X669776Y556655D01*
X669447Y556869D01*
X669123Y557092D01*
X668805Y557322D01*
X668492Y557559D01*
X668186Y557805D01*
X667885Y558058D01*
X667591Y558318D01*
X667303Y558585D01*
X667022Y558859D01*
X666748Y559140D01*
X666481Y559428D01*
X666221Y559722D01*
X665968Y560023D01*
X665722Y560329D01*
X665485Y560642D01*
X665255Y560960D01*
X665032Y561284D01*
X664818Y561613D01*
X664612Y561947D01*
X664415Y562287D01*
X664225Y562631D01*
X664044Y562979D01*
X663872Y563332D01*
X663709Y563689D01*
X663554Y564050D01*
X663408Y564415D01*
X663271Y564783D01*
X663144Y565154D01*
X663025Y565528D01*
X662916Y565906D01*
X662815Y566285D01*
X662725Y566667D01*
X662643Y567052D01*
X662572Y567438D01*
X662509Y567825D01*
X662456Y568214D01*
X662413Y568605D01*
X662379Y568996D01*
X662355Y569388D01*
X662341Y569780D01*
X662336Y570173D01*
X441150Y766540D02*
X441115Y766404D01*
X441077Y766269D01*
X441035Y766135D01*
X440989Y766003D01*
X440940Y765872D01*
X440887Y765742D01*
X440830Y765614D01*
X440770Y765487D01*
X440706Y765362D01*
X440639Y765239D01*
X440568Y765118D01*
X440494Y764999D01*
X440417Y764882D01*
X440336Y764767D01*
X440252Y764655D01*
X440165Y764545D01*
X440075Y764437D01*
X439982Y764333D01*
X439886Y764230D01*
X439788Y764131D01*
X439686Y764034D01*
X439582Y763940D01*
X439475Y763849D01*
X439366Y763761D01*
X439254Y763676D01*
X439140Y763595D01*
X439024Y763516D01*
X438906Y763441D01*
X438785Y763370D01*
X438663Y763301D01*
X438538Y763236D01*
X438412Y763175D01*
X438285Y763117D01*
X438155Y763063D01*
X438024Y763012D01*
X437892Y762965D01*
X437759Y762922D01*
X437624Y762883D01*
X437489Y762847D01*
X437352Y762816D01*
X437215Y762788D01*
X437077Y762764D01*
X436938Y762743D01*
X436799Y762727D01*
X436659Y762715D01*
X436519Y762706D01*
X436379Y762702D01*
X436239Y762701D01*
X436098Y762705D01*
X435958Y762712D01*
X435819Y762723D01*
X435679Y762738D01*
X435540Y762757D01*
X435402Y762780D01*
X435264Y762807D01*
X435128Y762838D01*
X434992Y762872D01*
X434857Y762910D01*
X434723Y762952D01*
X434590Y762998D01*
X434459Y763048D01*
X434329Y763101D01*
X434201Y763157D01*
X434075Y763218D01*
X433950Y763282D01*
X433827Y763349D01*
X433706Y763420D01*
X433587Y763494D01*
X433470Y763571D01*
X433355Y763652D01*
X433243Y763736D01*
X433133Y763823D01*
X433025Y763913D01*
X432920Y764006D01*
X432818Y764102D01*
X432719Y764201D01*
X432622Y764302D01*
X432528Y764406D01*
X432437Y764513D01*
X432349Y764622D01*
X432265Y764734D01*
X432183Y764848D01*
X432105Y764964D01*
X432029Y765083D01*
X431958Y765203D01*
X431889Y765326D01*
X431825Y765450D01*
X431763Y765576D01*
X431706Y765704D01*
X431651Y765833D01*
X431601Y765964D01*
X431554Y766096D01*
X431511Y766230D01*
X431472Y766364D01*
X431436Y766500D01*
X431404Y766636D01*
X431376Y766774D01*
X431352Y766912D01*
X431332Y767051D01*
X431316Y767190D01*
X431304Y767330D01*
X431295Y767470D01*
X431291Y767610D01*
X431290Y767750D01*
X470710Y761320D02*
X470696Y761181D01*
X470686Y761041D01*
X470679Y760901D01*
X470677Y760760D01*
X470679Y760620D01*
X470684Y760480D01*
X470694Y760340D01*
X470707Y760201D01*
X470725Y760061D01*
X470746Y759923D01*
X470771Y759785D01*
X470800Y759648D01*
X470833Y759511D01*
X470869Y759376D01*
X470910Y759242D01*
X470954Y759109D01*
X471002Y758977D01*
X471053Y758847D01*
X471108Y758718D01*
X471167Y758590D01*
X471230Y758465D01*
X471295Y758341D01*
X471365Y758219D01*
X471437Y758099D01*
X471513Y757981D01*
X471593Y757866D01*
X471675Y757752D01*
X471761Y757641D01*
X471849Y757533D01*
X471941Y757427D01*
X472036Y757323D01*
X472133Y757222D01*
X472234Y757124D01*
X472337Y757029D01*
X472442Y756937D01*
X472551Y756848D01*
X472661Y756762D01*
X472774Y756679D01*
X472890Y756599D01*
X473007Y756523D01*
X473127Y756449D01*
X473248Y756380D01*
X473372Y756313D01*
X473497Y756250D01*
X473624Y756191D01*
X473753Y756135D01*
X473883Y756083D01*
X474015Y756035D01*
X474148Y755990D01*
X474282Y755949D01*
X474417Y755912D01*
X474553Y755879D01*
X474690Y755849D01*
X474828Y755823D01*
X474966Y755801D01*
X475105Y755784D01*
X475245Y755770D01*
X475385Y755759D01*
X475525Y755753D01*
X475665Y755751D01*
X475805Y755753D01*
X475945Y755758D01*
X476085Y755768D01*
X476225Y755781D01*
X476364Y755799D01*
X476503Y755820D01*
X476641Y755845D01*
X476778Y755874D01*
X476914Y755907D01*
X477049Y755944D01*
X477184Y755984D01*
X477317Y756028D01*
X477448Y756076D01*
X477579Y756128D01*
X477708Y756183D01*
X477835Y756242D01*
X477961Y756304D01*
X478084Y756370D01*
X478206Y756439D01*
X478326Y756512D01*
X478444Y756588D01*
X478560Y756667D01*
X478673Y756750D01*
X478784Y756836D01*
X478893Y756924D01*
X478999Y757016D01*
X479102Y757111D01*
X479203Y757208D01*
X479301Y757309D01*
X479396Y757412D01*
X479488Y757518D01*
X479577Y757626D01*
X479663Y757736D01*
X479746Y757849D01*
X479826Y757965D01*
X479902Y758082D01*
X479975Y758202D01*
X480045Y758324D01*
X480111Y758447D01*
X480174Y758573D01*
X480233Y758700D01*
X480289Y758828D01*
X480341Y758958D01*
X480390Y759090D01*
X686300Y627910D02*
X686201Y627810D01*
X686105Y627708D01*
X686012Y627603D01*
X685922Y627496D01*
X685835Y627386D01*
X685751Y627273D01*
X685671Y627158D01*
X685593Y627041D01*
X685519Y626922D01*
X685448Y626801D01*
X685381Y626678D01*
X685317Y626553D01*
X685257Y626427D01*
X685200Y626298D01*
X685147Y626169D01*
X685097Y626037D01*
X685051Y625905D01*
X685009Y625771D01*
X684971Y625636D01*
X684937Y625500D01*
X684906Y625363D01*
X684879Y625225D01*
X684856Y625087D01*
X684837Y624948D01*
X684822Y624809D01*
X684811Y624669D01*
X684804Y624529D01*
X684800Y624389D01*
X684801Y624248D01*
X684805Y624108D01*
X684814Y623968D01*
X684826Y623828D01*
X684842Y623689D01*
X684863Y623550D01*
X684887Y623412D01*
X684915Y623275D01*
X684946Y623138D01*
X684982Y623002D01*
X685021Y622868D01*
X685065Y622734D01*
X685111Y622602D01*
X685162Y622471D01*
X685216Y622342D01*
X685274Y622214D01*
X685335Y622088D01*
X685400Y621963D01*
X685469Y621841D01*
X685541Y621720D01*
X685616Y621602D01*
X685694Y621486D01*
X685776Y621372D01*
X685861Y621260D01*
X685948Y621151D01*
X686039Y621044D01*
X686133Y620940D01*
X686230Y620838D01*
X686330Y620739D01*
X686432Y620643D01*
X686537Y620550D01*
X686645Y620460D01*
X686755Y620373D01*
X686867Y620289D01*
X686982Y620209D01*
X687099Y620131D01*
X687218Y620057D01*
X687339Y619987D01*
X687462Y619919D01*
X687587Y619855D01*
X687714Y619795D01*
X687842Y619738D01*
X687972Y619685D01*
X688103Y619636D01*
X688236Y619590D01*
X688370Y619548D01*
X688504Y619510D01*
X688640Y619475D01*
X688777Y619445D01*
X688915Y619418D01*
X689053Y619395D01*
X689192Y619376D01*
X689332Y619361D01*
X689472Y619350D01*
X689612Y619343D01*
X689752Y619339D01*
X689892Y619340D01*
X690033Y619344D01*
X690173Y619353D01*
X690312Y619365D01*
X690452Y619382D01*
X690590Y619402D01*
X690729Y619426D01*
X690866Y619454D01*
X691003Y619486D01*
X691138Y619521D01*
X691273Y619561D01*
X691406Y619604D01*
X691539Y619651D01*
X691669Y619702D01*
X691799Y619756D01*
X691927Y619814D01*
X692053Y619875D01*
X692177Y619940D01*
X692299Y620009D01*
X692420Y620080D01*
X709640Y595491D02*
X709531Y595402D01*
X709425Y595311D01*
X709321Y595216D01*
X709221Y595119D01*
X709122Y595018D01*
X709027Y594915D01*
X708935Y594810D01*
X708845Y594702D01*
X708759Y594591D01*
X708676Y594478D01*
X708596Y594363D01*
X708519Y594245D01*
X708446Y594126D01*
X708376Y594004D01*
X708309Y593881D01*
X708246Y593755D01*
X708187Y593628D01*
X708131Y593500D01*
X708079Y593370D01*
X708030Y593238D01*
X707985Y593105D01*
X707944Y592971D01*
X707907Y592836D01*
X707873Y592700D01*
X707843Y592563D01*
X707817Y592425D01*
X707795Y592286D01*
X707777Y592147D01*
X707763Y592008D01*
X707753Y591868D01*
X707746Y591728D01*
X707744Y591587D01*
X707746Y591447D01*
X707751Y591307D01*
X707760Y591167D01*
X707774Y591027D01*
X707791Y590888D01*
X707812Y590749D01*
X707837Y590611D01*
X707866Y590474D01*
X707899Y590338D01*
X707935Y590202D01*
X707975Y590068D01*
X708019Y589935D01*
X708067Y589803D01*
X708119Y589672D01*
X708174Y589543D01*
X708232Y589416D01*
X708295Y589290D01*
X708360Y589166D01*
X708429Y589044D01*
X708502Y588924D01*
X708578Y588806D01*
X708657Y588690D01*
X708740Y588577D01*
X708825Y588466D01*
X708914Y588357D01*
X709005Y588251D01*
X709100Y588147D01*
X709198Y588046D01*
X709298Y587948D01*
X709401Y587853D01*
X709506Y587761D01*
X709615Y587671D01*
X709725Y587585D01*
X709838Y587502D01*
X709953Y587422D01*
X710071Y587346D01*
X710190Y587272D01*
X710312Y587202D01*
X710436Y587136D01*
X710561Y587073D01*
X710688Y587013D01*
X710817Y586957D01*
X710947Y586905D01*
X711078Y586857D01*
X711211Y586812D01*
X711345Y586771D01*
X711481Y586733D01*
X711617Y586700D01*
X711754Y586670D01*
X711892Y586644D01*
X712030Y586622D01*
X712169Y586604D01*
X712309Y586590D01*
X712449Y586580D01*
X712589Y586573D01*
X712729Y586571D01*
X712870Y586573D01*
X713010Y586578D01*
X713150Y586587D01*
X713289Y586601D01*
X713428Y586618D01*
X713567Y586639D01*
X713705Y586664D01*
X713842Y586693D01*
X713979Y586726D01*
X714114Y586762D01*
X714249Y586803D01*
X714382Y586847D01*
X714514Y586895D01*
X714644Y586946D01*
X714773Y587001D01*
X714901Y587060D01*
X353544Y231918D02*
X303998Y252440D01*
X426456Y548082D02*
X476003Y527559D01*
X303997Y252440D02*
X301858Y251618D01*
X299700Y250849D01*
X297523Y250132D01*
X295330Y249468D01*
X293121Y248857D01*
X290898Y248301D01*
X288662Y247799D01*
X286415Y247351D01*
X284157Y246958D01*
X281891Y246621D01*
X279617Y246338D01*
X277336Y246111D01*
X275051Y245940D01*
X272763Y245824D01*
X270472Y245763D01*
X268180Y245759D01*
X265889Y245810D01*
X263600Y245917D01*
X261315Y246080D01*
X259034Y246298D01*
X256758Y246572D01*
X254491Y246901D01*
X252231Y247285D01*
X249982Y247724D01*
X247744Y248217D01*
X245519Y248765D01*
X243308Y249366D01*
X241112Y250022D01*
X238933Y250730D01*
X236772Y251492D01*
X234630Y252305D01*
X232508Y253171D01*
X230408Y254088D01*
X228331Y255056D01*
X226278Y256074D01*
X224250Y257141D01*
X222249Y258258D01*
X220276Y259423D01*
X218331Y260636D01*
X216417Y261896D01*
X214534Y263201D01*
X212683Y264553D01*
X210866Y265949D01*
X209083Y267388D01*
X207336Y268871D01*
X205625Y270396D01*
X203952Y271962D01*
X202317Y273568D01*
X200723Y275213D01*
X199168Y276897D01*
X197655Y278618D01*
X196184Y280375D01*
X194757Y282168D01*
X193373Y283995D01*
X192035Y285854D01*
X190742Y287746D01*
X189495Y289669D01*
X188296Y291622D01*
X187144Y293603D01*
X186041Y295612D01*
X184987Y297646D01*
X183983Y299706D01*
X183030Y301790D01*
X182127Y303896D01*
X303896Y597871D02*
X306024Y598722D01*
X308172Y599522D01*
X310338Y600268D01*
X312522Y600962D01*
X314722Y601602D01*
X316938Y602189D01*
X319166Y602722D01*
X321408Y603200D01*
X323660Y603623D01*
X325921Y603992D01*
X328191Y604305D01*
X330468Y604564D01*
X332751Y604766D01*
X335038Y604913D01*
X337327Y605005D01*
X339619Y605040D01*
X341910Y605020D01*
X344200Y604945D01*
X346488Y604813D01*
X348772Y604626D01*
X351051Y604383D01*
X353323Y604085D01*
X355587Y603732D01*
X357842Y603324D01*
X360086Y602861D01*
X362319Y602344D01*
X364538Y601772D01*
X366742Y601147D01*
X368931Y600468D01*
X371102Y599736D01*
X373256Y598952D01*
X375389Y598115D01*
X377501Y597227D01*
X379592Y596288D01*
X381658Y595298D01*
X383700Y594258D01*
X385716Y593168D01*
X387705Y592030D01*
X389666Y590844D01*
X391597Y589611D01*
X393498Y588331D01*
X395367Y587005D01*
X397203Y585634D01*
X399005Y584219D01*
X400773Y582760D01*
X402504Y581259D01*
X404198Y579716D01*
X405855Y578132D01*
X407472Y576509D01*
X409049Y574846D01*
X410585Y573146D01*
X412080Y571409D01*
X413532Y569636D01*
X414940Y567828D01*
X416304Y565987D01*
X417622Y564113D01*
X418895Y562207D01*
X420121Y560271D01*
X421299Y558306D01*
X422430Y556312D01*
X423511Y554292D01*
X424543Y552246D01*
X425525Y550175D01*
X426456Y548082D01*
X353543Y231917D02*
X354474Y229823D01*
X355456Y227753D01*
X356488Y225707D01*
X357569Y223686D01*
X358699Y221693D01*
X359878Y219728D01*
X361103Y217791D01*
X362376Y215886D01*
X363695Y214011D01*
X365058Y212170D01*
X366466Y210362D01*
X367918Y208589D01*
X369412Y206852D01*
X370949Y205151D01*
X372526Y203489D01*
X374143Y201865D01*
X375799Y200281D01*
X377493Y198738D01*
X379224Y197237D01*
X380992Y195778D01*
X382794Y194363D01*
X384630Y192992D01*
X386499Y191666D01*
X388399Y190386D01*
X390331Y189152D01*
X392291Y187966D01*
X394280Y186828D01*
X396296Y185738D01*
X398338Y184698D01*
X400405Y183708D01*
X402495Y182768D01*
X404607Y181880D01*
X406740Y181043D01*
X408894Y180259D01*
X411065Y179527D01*
X413254Y178848D01*
X415458Y178222D01*
X417677Y177651D01*
X419910Y177133D01*
X422154Y176670D01*
X424409Y176262D01*
X426673Y175909D01*
X428945Y175610D01*
X431224Y175368D01*
X433508Y175180D01*
X435795Y175049D01*
X438086Y174973D01*
X440377Y174953D01*
X442668Y174988D01*
X444958Y175079D01*
X447245Y175226D01*
X449527Y175429D01*
X451804Y175687D01*
X454074Y176000D01*
X456336Y176369D01*
X458588Y176792D01*
X460829Y177270D01*
X463058Y177803D01*
X465273Y178389D01*
X467474Y179029D01*
X469658Y179723D01*
X471824Y180469D01*
X473972Y181268D01*
X476100Y182119D01*
X476101Y182119D02*
X481176Y184295D01*
X486197Y186595D01*
X491160Y189017D01*
X496062Y191560D01*
X500900Y194223D01*
X505671Y197004D01*
X510372Y199901D01*
X515001Y202912D01*
X519555Y206036D01*
X524030Y209271D01*
X528425Y212615D01*
X532737Y216066D01*
X536962Y219621D01*
X541099Y223279D01*
X545145Y227038D01*
X549098Y230894D01*
X552955Y234847D01*
X556713Y238893D01*
X560371Y243030D01*
X563927Y247255D01*
X567377Y251567D01*
X570721Y255962D01*
X573956Y260437D01*
X577080Y264991D01*
X580092Y269620D01*
X582989Y274321D01*
X585770Y279092D01*
X588432Y283930D01*
X590976Y288832D01*
X593398Y293795D01*
X595697Y298816D01*
X597873Y303891D01*
X599924Y309019D01*
X601848Y314195D01*
X603644Y319417D01*
X605312Y324682D01*
X606850Y329986D01*
X608258Y335325D01*
X609534Y340698D01*
X610677Y346101D01*
X611688Y351530D01*
X612566Y356982D01*
X613309Y362454D01*
X613917Y367943D01*
X614391Y373445D01*
X614730Y378957D01*
X614933Y384476D01*
X615001Y389997D01*
X614933Y395519D01*
X614730Y401038D01*
X614391Y406550D01*
X613918Y412052D01*
X613309Y417541D01*
X612566Y423013D01*
X611688Y428465D01*
X610678Y433894D01*
X609534Y439297D01*
X608258Y444669D01*
X606851Y450009D01*
X605312Y455313D01*
X603645Y460578D01*
X601848Y465800D01*
X599924Y470976D01*
X597874Y476104D01*
X303896Y597872D02*
X298898Y595731D01*
X293953Y593469D01*
X289065Y591089D01*
X284235Y588591D01*
X279467Y585978D01*
X274764Y583250D01*
X270128Y580409D01*
X265562Y577457D01*
X261069Y574395D01*
X256651Y571226D01*
X252311Y567951D01*
X248051Y564572D01*
X243874Y561091D01*
X239782Y557510D01*
X235779Y553831D01*
X231865Y550057D01*
X228043Y546189D01*
X224317Y542230D01*
X220687Y538182D01*
X217155Y534047D01*
X213725Y529829D01*
X210398Y525528D01*
X207175Y521149D01*
X204060Y516693D01*
X201053Y512163D01*
X198156Y507562D01*
X195371Y502892D01*
X192700Y498156D01*
X190144Y493357D01*
X187705Y488497D01*
X185384Y483580D01*
X183183Y478609D01*
X181102Y473586D01*
X179143Y468513D01*
X177308Y463395D01*
X175596Y458235D01*
X174010Y453034D01*
X172550Y447796D01*
X171217Y442525D01*
X170011Y437223D01*
X168935Y431894D01*
X167987Y426540D01*
X167169Y421164D01*
X166481Y415771D01*
X165923Y410362D01*
X165497Y404942D01*
X165201Y399513D01*
X165037Y394078D01*
X165004Y388641D01*
X165103Y383204D01*
X165333Y377772D01*
X165694Y372347D01*
X166186Y366932D01*
X166808Y361531D01*
X167562Y356146D01*
X168445Y350781D01*
X169457Y345439D01*
X170598Y340122D01*
X171867Y334835D01*
X173264Y329581D01*
X174787Y324361D01*
X176436Y319180D01*
X178210Y314040D01*
X180107Y308945D01*
X182127Y303897D01*
X476002Y527558D02*
X478141Y528380D01*
X480300Y529150D01*
X482476Y529867D01*
X484669Y530531D01*
X486878Y531141D01*
X489101Y531698D01*
X491337Y532200D01*
X493584Y532648D01*
X495842Y533040D01*
X498109Y533378D01*
X500383Y533661D01*
X502663Y533888D01*
X504948Y534059D01*
X507237Y534175D01*
X509527Y534236D01*
X511819Y534240D01*
X514110Y534189D01*
X516399Y534082D01*
X518685Y533919D01*
X520966Y533701D01*
X523241Y533427D01*
X525509Y533098D01*
X527768Y532714D01*
X530017Y532276D01*
X532255Y531782D01*
X534480Y531234D01*
X536691Y530633D01*
X538887Y529977D01*
X541066Y529269D01*
X543228Y528507D01*
X545370Y527694D01*
X547492Y526828D01*
X549592Y525911D01*
X551669Y524943D01*
X553722Y523925D01*
X555749Y522858D01*
X557751Y521741D01*
X559724Y520576D01*
X561668Y519363D01*
X563583Y518104D01*
X565466Y516798D01*
X567316Y515447D01*
X569134Y514051D01*
X570917Y512611D01*
X572664Y511129D01*
X574374Y509604D01*
X576048Y508038D01*
X577682Y506432D01*
X579277Y504786D01*
X580831Y503103D01*
X582344Y501382D01*
X583815Y499624D01*
X585243Y497832D01*
X586626Y496005D01*
X587965Y494145D01*
X589258Y492253D01*
X590504Y490330D01*
X591704Y488378D01*
X592855Y486397D01*
X593958Y484388D01*
X595012Y482353D01*
X596016Y480293D01*
X596970Y478210D01*
X597873Y476103D01*
D12*
X350000Y799714D02*
X350000Y820000D01*
X430000Y820000D02*
X430000Y799714D01*
X750286Y1120000D02*
X29714Y1120000D01*
X30804Y1111172D01*
X32110Y1102373D01*
X33632Y1093609D01*
X35368Y1084885D01*
X37318Y1076206D01*
X39480Y1067577D01*
X41853Y1059005D01*
X44436Y1050493D01*
X47227Y1042047D01*
X50225Y1033672D01*
X53427Y1025373D01*
X56831Y1017155D01*
X60436Y1009023D01*
X64240Y1000982D01*
X68240Y993037D01*
X72434Y985192D01*
X76818Y977453D01*
X81392Y969823D01*
X86151Y962308D01*
X91093Y954912D01*
X96215Y947640D01*
X101515Y940495D01*
X106987Y933483D01*
X112631Y926607D01*
X118441Y919871D01*
X124414Y913280D01*
X130548Y906838D01*
X136838Y900548D01*
X143280Y894414D01*
X149871Y888441D01*
X156607Y882631D01*
X163483Y876987D01*
X170495Y871515D01*
X177640Y866215D01*
X184912Y861093D01*
X192308Y856151D01*
X199823Y851392D01*
X207453Y846818D01*
X215192Y842434D01*
X223037Y838240D01*
X230982Y834240D01*
X239023Y830436D01*
X247155Y826831D01*
X255373Y823427D01*
X263672Y820225D01*
X272047Y817227D01*
X280493Y814436D01*
X289005Y811853D01*
X297577Y809480D01*
X306206Y807318D01*
X314885Y805368D01*
X323609Y803632D01*
X332373Y802110D01*
X341172Y800804D01*
X350000Y799714D01*
X430000Y799714D02*
X438828Y800804D01*
X447627Y802110D01*
X456391Y803632D01*
X465115Y805368D01*
X473794Y807318D01*
X482423Y809480D01*
X490995Y811853D01*
X499507Y814436D01*
X507953Y817227D01*
X516328Y820225D01*
X524627Y823427D01*
X532845Y826831D01*
X540977Y830436D01*
X549018Y834240D01*
X556963Y838240D01*
X564808Y842434D01*
X572547Y846818D01*
X580177Y851392D01*
X587692Y856151D01*
X595088Y861093D01*
X602360Y866215D01*
X609505Y871515D01*
X616517Y876987D01*
X623393Y882631D01*
X630129Y888441D01*
X636720Y894414D01*
X643162Y900548D01*
X649452Y906838D01*
X655586Y913280D01*
X661559Y919871D01*
X667369Y926607D01*
X673013Y933483D01*
X678485Y940495D01*
X683785Y947640D01*
X688907Y954912D01*
X693849Y962308D01*
X698608Y969823D01*
X703182Y977453D01*
X707566Y985192D01*
X711760Y993037D01*
X715760Y1000982D01*
X719564Y1009023D01*
X723169Y1017155D01*
X726573Y1025373D01*
X729775Y1033672D01*
X732773Y1042047D01*
X735564Y1050493D01*
X738147Y1059005D01*
X740520Y1067577D01*
X742682Y1076206D01*
X744632Y1084885D01*
X746368Y1093609D01*
X747890Y1102373D01*
X749196Y1111172D01*
X750286Y1120000D01*
X430000Y820000D02*
X429988Y820974D01*
X429953Y821948D01*
X429893Y822920D01*
X429810Y823890D01*
X429704Y824859D01*
X429574Y825824D01*
X429420Y826786D01*
X429243Y827744D01*
X429043Y828697D01*
X428820Y829645D01*
X428573Y830588D01*
X428304Y831524D01*
X428012Y832453D01*
X427698Y833375D01*
X427361Y834289D01*
X427002Y835195D01*
X426621Y836091D01*
X426218Y836978D01*
X425794Y837855D01*
X425348Y838721D01*
X424882Y839577D01*
X424395Y840420D01*
X423887Y841252D01*
X423360Y842071D01*
X422813Y842877D01*
X422246Y843669D01*
X421660Y844447D01*
X421055Y845211D01*
X420432Y845959D01*
X419791Y846693D01*
X419132Y847410D01*
X418456Y848112D01*
X417763Y848796D01*
X417054Y849464D01*
X416328Y850114D01*
X415587Y850746D01*
X414831Y851360D01*
X414060Y851955D01*
X413274Y852532D01*
X412475Y853089D01*
X411663Y853626D01*
X410838Y854144D01*
X410000Y854641D01*
X409151Y855118D01*
X408290Y855574D01*
X407418Y856009D01*
X406536Y856422D01*
X405644Y856814D01*
X404743Y857184D01*
X403833Y857532D01*
X402915Y857858D01*
X401990Y858161D01*
X401057Y858442D01*
X400117Y858699D01*
X399172Y858934D01*
X398221Y859146D01*
X397265Y859335D01*
X396305Y859500D01*
X395342Y859642D01*
X394375Y859760D01*
X393405Y859855D01*
X392434Y859926D01*
X391461Y859973D01*
X390487Y859997D01*
X389513Y859997D01*
X388539Y859973D01*
X387566Y859926D01*
X386595Y859855D01*
X385625Y859760D01*
X384658Y859642D01*
X383695Y859500D01*
X382735Y859335D01*
X381779Y859146D01*
X380828Y858934D01*
X379883Y858699D01*
X378943Y858442D01*
X378010Y858161D01*
X377085Y857858D01*
X376167Y857532D01*
X375257Y857184D01*
X374356Y856814D01*
X373464Y856422D01*
X372582Y856009D01*
X371710Y855574D01*
X370849Y855118D01*
X370000Y854641D01*
X369162Y854144D01*
X368337Y853626D01*
X367525Y853089D01*
X366726Y852532D01*
X365940Y851955D01*
X365169Y851360D01*
X364413Y850746D01*
X363672Y850114D01*
X362946Y849464D01*
X362237Y848796D01*
X361544Y848112D01*
X360868Y847410D01*
X360209Y846693D01*
X359568Y845959D01*
X358945Y845211D01*
X358340Y844447D01*
X357754Y843669D01*
X357187Y842877D01*
X356640Y842071D01*
X356113Y841252D01*
X355605Y840420D01*
X355118Y839577D01*
X354652Y838721D01*
X354206Y837855D01*
X353782Y836978D01*
X353379Y836091D01*
X352998Y835195D01*
X352639Y834289D01*
X352302Y833375D01*
X351988Y832453D01*
X351696Y831524D01*
X351427Y830588D01*
X351180Y829645D01*
X350957Y828697D01*
X350757Y827744D01*
X350580Y826786D01*
X350426Y825824D01*
X350296Y824859D01*
X350190Y823890D01*
X350107Y822920D01*
X350047Y821948D01*
X350012Y820974D01*
X350000Y820000D01*
X165273Y905290D02*
X165276Y905560D01*
X165286Y905830D01*
X165303Y906099D01*
X165326Y906368D01*
X165356Y906637D01*
X165392Y906904D01*
X165435Y907171D01*
X165484Y907436D01*
X165540Y907700D01*
X165603Y907963D01*
X165671Y908224D01*
X165747Y908483D01*
X165828Y908740D01*
X165916Y908996D01*
X166010Y909249D01*
X166110Y909500D01*
X166217Y909748D01*
X166329Y909993D01*
X166448Y910236D01*
X166572Y910475D01*
X166702Y910712D01*
X166838Y910945D01*
X166980Y911175D01*
X167127Y911401D01*
X167280Y911624D01*
X167438Y911843D01*
X167601Y912058D01*
X167770Y912268D01*
X167944Y912475D01*
X168123Y912677D01*
X168306Y912875D01*
X168495Y913068D01*
X168688Y913257D01*
X168886Y913440D01*
X169088Y913619D01*
X169295Y913793D01*
X169505Y913962D01*
X169720Y914125D01*
X169939Y914283D01*
X170162Y914436D01*
X170388Y914583D01*
X170618Y914725D01*
X170851Y914861D01*
X171088Y914991D01*
X171327Y915115D01*
X171570Y915234D01*
X171815Y915346D01*
X172063Y915453D01*
X172314Y915553D01*
X172567Y915647D01*
X172823Y915735D01*
X173080Y915816D01*
X173339Y915892D01*
X173600Y915960D01*
X173863Y916023D01*
X174127Y916079D01*
X174392Y916128D01*
X174659Y916171D01*
X174926Y916207D01*
X175195Y916237D01*
X175464Y916260D01*
X175733Y916277D01*
X176003Y916287D01*
X176273Y916290D01*
X176543Y916287D01*
X176813Y916277D01*
X177082Y916260D01*
X177351Y916237D01*
X177620Y916207D01*
X177887Y916171D01*
X178154Y916128D01*
X178419Y916079D01*
X178683Y916023D01*
X178946Y915960D01*
X179207Y915892D01*
X179466Y915816D01*
X179723Y915735D01*
X179979Y915647D01*
X180232Y915553D01*
X180483Y915453D01*
X180731Y915346D01*
X180976Y915234D01*
X181219Y915115D01*
X181458Y914991D01*
X181695Y914861D01*
X181928Y914725D01*
X182158Y914583D01*
X182384Y914436D01*
X182607Y914283D01*
X182826Y914125D01*
X183041Y913962D01*
X183251Y913793D01*
X183458Y913619D01*
X183660Y913440D01*
X183858Y913257D01*
X184051Y913068D01*
X184240Y912875D01*
X184423Y912677D01*
X184602Y912475D01*
X184776Y912268D01*
X184945Y912058D01*
X185108Y911843D01*
X185266Y911624D01*
X185419Y911401D01*
X185566Y911175D01*
X185708Y910945D01*
X185844Y910712D01*
X185974Y910475D01*
X186098Y910236D01*
X186217Y909993D01*
X186329Y909748D01*
X186436Y909500D01*
X186536Y909249D01*
X186630Y908996D01*
X186718Y908740D01*
X186799Y908483D01*
X186875Y908224D01*
X186943Y907963D01*
X187006Y907700D01*
X187062Y907436D01*
X187111Y907171D01*
X187154Y906904D01*
X187190Y906637D01*
X187220Y906368D01*
X187243Y906099D01*
X187260Y905830D01*
X187270Y905560D01*
X187273Y905290D01*
X187270Y905020D01*
X187260Y904750D01*
X187243Y904481D01*
X187220Y904212D01*
X187190Y903943D01*
X187154Y903676D01*
X187111Y903409D01*
X187062Y903144D01*
X187006Y902880D01*
X186943Y902617D01*
X186875Y902356D01*
X186799Y902097D01*
X186718Y901840D01*
X186630Y901584D01*
X186536Y901331D01*
X186436Y901080D01*
X186329Y900832D01*
X186217Y900587D01*
X186098Y900344D01*
X185974Y900105D01*
X185844Y899868D01*
X185708Y899635D01*
X185566Y899405D01*
X185419Y899179D01*
X185266Y898956D01*
X185108Y898737D01*
X184945Y898522D01*
X184776Y898312D01*
X184602Y898105D01*
X184423Y897903D01*
X184240Y897705D01*
X184051Y897512D01*
X183858Y897323D01*
X183660Y897140D01*
X183458Y896961D01*
X183251Y896787D01*
X183041Y896618D01*
X182826Y896455D01*
X182607Y896297D01*
X182384Y896144D01*
X182158Y895997D01*
X181928Y895855D01*
X181695Y895719D01*
X181458Y895589D01*
X181219Y895465D01*
X180976Y895346D01*
X180731Y895234D01*
X180483Y895127D01*
X180232Y895027D01*
X179979Y894933D01*
X179723Y894845D01*
X179466Y894764D01*
X179207Y894688D01*
X178946Y894620D01*
X178683Y894557D01*
X178419Y894501D01*
X178154Y894452D01*
X177887Y894409D01*
X177620Y894373D01*
X177351Y894343D01*
X177082Y894320D01*
X176813Y894303D01*
X176543Y894293D01*
X176273Y894290D01*
X176003Y894293D01*
X175733Y894303D01*
X175464Y894320D01*
X175195Y894343D01*
X174926Y894373D01*
X174659Y894409D01*
X174392Y894452D01*
X174127Y894501D01*
X173863Y894557D01*
X173600Y894620D01*
X173339Y894688D01*
X173080Y894764D01*
X172823Y894845D01*
X172567Y894933D01*
X172314Y895027D01*
X172063Y895127D01*
X171815Y895234D01*
X171570Y895346D01*
X171327Y895465D01*
X171088Y895589D01*
X170851Y895719D01*
X170618Y895855D01*
X170388Y895997D01*
X170162Y896144D01*
X169939Y896297D01*
X169720Y896455D01*
X169505Y896618D01*
X169295Y896787D01*
X169088Y896961D01*
X168886Y897140D01*
X168688Y897323D01*
X168495Y897512D01*
X168306Y897705D01*
X168123Y897903D01*
X167944Y898105D01*
X167770Y898312D01*
X167601Y898522D01*
X167438Y898737D01*
X167280Y898956D01*
X167127Y899179D01*
X166980Y899405D01*
X166838Y899635D01*
X166702Y899868D01*
X166572Y900105D01*
X166448Y900344D01*
X166329Y900587D01*
X166217Y900832D01*
X166110Y901080D01*
X166010Y901331D01*
X165916Y901584D01*
X165828Y901840D01*
X165747Y902097D01*
X165671Y902356D01*
X165603Y902617D01*
X165540Y902880D01*
X165484Y903144D01*
X165435Y903409D01*
X165392Y903676D01*
X165356Y903943D01*
X165326Y904212D01*
X165303Y904481D01*
X165286Y904750D01*
X165276Y905020D01*
X165273Y905290D01*
X592727Y905290D02*
X592730Y905560D01*
X592740Y905830D01*
X592757Y906099D01*
X592780Y906368D01*
X592810Y906637D01*
X592846Y906904D01*
X592889Y907171D01*
X592938Y907436D01*
X592994Y907700D01*
X593057Y907963D01*
X593125Y908224D01*
X593201Y908483D01*
X593282Y908740D01*
X593370Y908996D01*
X593464Y909249D01*
X593564Y909500D01*
X593671Y909748D01*
X593783Y909993D01*
X593902Y910236D01*
X594026Y910475D01*
X594156Y910712D01*
X594292Y910945D01*
X594434Y911175D01*
X594581Y911401D01*
X594734Y911624D01*
X594892Y911843D01*
X595055Y912058D01*
X595224Y912268D01*
X595398Y912475D01*
X595577Y912677D01*
X595760Y912875D01*
X595949Y913068D01*
X596142Y913257D01*
X596340Y913440D01*
X596542Y913619D01*
X596749Y913793D01*
X596959Y913962D01*
X597174Y914125D01*
X597393Y914283D01*
X597616Y914436D01*
X597842Y914583D01*
X598072Y914725D01*
X598305Y914861D01*
X598542Y914991D01*
X598781Y915115D01*
X599024Y915234D01*
X599269Y915346D01*
X599517Y915453D01*
X599768Y915553D01*
X600021Y915647D01*
X600277Y915735D01*
X600534Y915816D01*
X600793Y915892D01*
X601054Y915960D01*
X601317Y916023D01*
X601581Y916079D01*
X601846Y916128D01*
X602113Y916171D01*
X602380Y916207D01*
X602649Y916237D01*
X602918Y916260D01*
X603187Y916277D01*
X603457Y916287D01*
X603727Y916290D01*
X603997Y916287D01*
X604267Y916277D01*
X604536Y916260D01*
X604805Y916237D01*
X605074Y916207D01*
X605341Y916171D01*
X605608Y916128D01*
X605873Y916079D01*
X606137Y916023D01*
X606400Y915960D01*
X606661Y915892D01*
X606920Y915816D01*
X607177Y915735D01*
X607433Y915647D01*
X607686Y915553D01*
X607937Y915453D01*
X608185Y915346D01*
X608430Y915234D01*
X608673Y915115D01*
X608912Y914991D01*
X609149Y914861D01*
X609382Y914725D01*
X609612Y914583D01*
X609838Y914436D01*
X610061Y914283D01*
X610280Y914125D01*
X610495Y913962D01*
X610705Y913793D01*
X610912Y913619D01*
X611114Y913440D01*
X611312Y913257D01*
X611505Y913068D01*
X611694Y912875D01*
X611877Y912677D01*
X612056Y912475D01*
X612230Y912268D01*
X612399Y912058D01*
X612562Y911843D01*
X612720Y911624D01*
X612873Y911401D01*
X613020Y911175D01*
X613162Y910945D01*
X613298Y910712D01*
X613428Y910475D01*
X613552Y910236D01*
X613671Y909993D01*
X613783Y909748D01*
X613890Y909500D01*
X613990Y909249D01*
X614084Y908996D01*
X614172Y908740D01*
X614253Y908483D01*
X614329Y908224D01*
X614397Y907963D01*
X614460Y907700D01*
X614516Y907436D01*
X614565Y907171D01*
X614608Y906904D01*
X614644Y906637D01*
X614674Y906368D01*
X614697Y906099D01*
X614714Y905830D01*
X614724Y905560D01*
X614727Y905290D01*
X614724Y905020D01*
X614714Y904750D01*
X614697Y904481D01*
X614674Y904212D01*
X614644Y903943D01*
X614608Y903676D01*
X614565Y903409D01*
X614516Y903144D01*
X614460Y902880D01*
X614397Y902617D01*
X614329Y902356D01*
X614253Y902097D01*
X614172Y901840D01*
X614084Y901584D01*
X613990Y901331D01*
X613890Y901080D01*
X613783Y900832D01*
X613671Y900587D01*
X613552Y900344D01*
X613428Y900105D01*
X613298Y899868D01*
X613162Y899635D01*
X613020Y899405D01*
X612873Y899179D01*
X612720Y898956D01*
X612562Y898737D01*
X612399Y898522D01*
X612230Y898312D01*
X612056Y898105D01*
X611877Y897903D01*
X611694Y897705D01*
X611505Y897512D01*
X611312Y897323D01*
X611114Y897140D01*
X610912Y896961D01*
X610705Y896787D01*
X610495Y896618D01*
X610280Y896455D01*
X610061Y896297D01*
X609838Y896144D01*
X609612Y895997D01*
X609382Y895855D01*
X609149Y895719D01*
X608912Y895589D01*
X608673Y895465D01*
X608430Y895346D01*
X608185Y895234D01*
X607937Y895127D01*
X607686Y895027D01*
X607433Y894933D01*
X607177Y894845D01*
X606920Y894764D01*
X606661Y894688D01*
X606400Y894620D01*
X606137Y894557D01*
X605873Y894501D01*
X605608Y894452D01*
X605341Y894409D01*
X605074Y894373D01*
X604805Y894343D01*
X604536Y894320D01*
X604267Y894303D01*
X603997Y894293D01*
X603727Y894290D01*
X603457Y894293D01*
X603187Y894303D01*
X602918Y894320D01*
X602649Y894343D01*
X602380Y894373D01*
X602113Y894409D01*
X601846Y894452D01*
X601581Y894501D01*
X601317Y894557D01*
X601054Y894620D01*
X600793Y894688D01*
X600534Y894764D01*
X600277Y894845D01*
X600021Y894933D01*
X599768Y895027D01*
X599517Y895127D01*
X599269Y895234D01*
X599024Y895346D01*
X598781Y895465D01*
X598542Y895589D01*
X598305Y895719D01*
X598072Y895855D01*
X597842Y895997D01*
X597616Y896144D01*
X597393Y896297D01*
X597174Y896455D01*
X596959Y896618D01*
X596749Y896787D01*
X596542Y896961D01*
X596340Y897140D01*
X596142Y897323D01*
X595949Y897512D01*
X595760Y897705D01*
X595577Y897903D01*
X595398Y898105D01*
X595224Y898312D01*
X595055Y898522D01*
X594892Y898737D01*
X594734Y898956D01*
X594581Y899179D01*
X594434Y899405D01*
X594292Y899635D01*
X594156Y899868D01*
X594026Y900105D01*
X593902Y900344D01*
X593783Y900587D01*
X593671Y900832D01*
X593564Y901080D01*
X593464Y901331D01*
X593370Y901584D01*
X593282Y901840D01*
X593201Y902097D01*
X593125Y902356D01*
X593057Y902617D01*
X592994Y902880D01*
X592938Y903144D01*
X592889Y903409D01*
X592846Y903676D01*
X592810Y903943D01*
X592780Y904212D01*
X592757Y904481D01*
X592740Y904750D01*
X592730Y905020D01*
X592727Y905290D01*
D13*
X1215000Y1015000D02*
X1255000Y1015000D01*
X1255000Y1120000D01*
X1215000Y1120000D01*
X1215000Y1015000D01*
X1225000Y1080000D02*
X1225003Y1080245D01*
X1225012Y1080491D01*
X1225027Y1080736D01*
X1225048Y1080980D01*
X1225075Y1081224D01*
X1225108Y1081467D01*
X1225147Y1081710D01*
X1225192Y1081951D01*
X1225243Y1082191D01*
X1225300Y1082430D01*
X1225362Y1082667D01*
X1225431Y1082903D01*
X1225505Y1083137D01*
X1225585Y1083369D01*
X1225670Y1083599D01*
X1225761Y1083827D01*
X1225858Y1084052D01*
X1225960Y1084276D01*
X1226068Y1084496D01*
X1226181Y1084714D01*
X1226299Y1084929D01*
X1226423Y1085141D01*
X1226551Y1085350D01*
X1226685Y1085556D01*
X1226824Y1085758D01*
X1226968Y1085957D01*
X1227117Y1086152D01*
X1227270Y1086344D01*
X1227428Y1086532D01*
X1227590Y1086716D01*
X1227758Y1086895D01*
X1227929Y1087071D01*
X1228105Y1087242D01*
X1228284Y1087410D01*
X1228468Y1087572D01*
X1228656Y1087730D01*
X1228848Y1087883D01*
X1229043Y1088032D01*
X1229242Y1088176D01*
X1229444Y1088315D01*
X1229650Y1088449D01*
X1229859Y1088577D01*
X1230071Y1088701D01*
X1230286Y1088819D01*
X1230504Y1088932D01*
X1230724Y1089040D01*
X1230948Y1089142D01*
X1231173Y1089239D01*
X1231401Y1089330D01*
X1231631Y1089415D01*
X1231863Y1089495D01*
X1232097Y1089569D01*
X1232333Y1089638D01*
X1232570Y1089700D01*
X1232809Y1089757D01*
X1233049Y1089808D01*
X1233290Y1089853D01*
X1233533Y1089892D01*
X1233776Y1089925D01*
X1234020Y1089952D01*
X1234264Y1089973D01*
X1234509Y1089988D01*
X1234755Y1089997D01*
X1235000Y1090000D01*
X1235245Y1089997D01*
X1235491Y1089988D01*
X1235736Y1089973D01*
X1235980Y1089952D01*
X1236224Y1089925D01*
X1236467Y1089892D01*
X1236710Y1089853D01*
X1236951Y1089808D01*
X1237191Y1089757D01*
X1237430Y1089700D01*
X1237667Y1089638D01*
X1237903Y1089569D01*
X1238137Y1089495D01*
X1238369Y1089415D01*
X1238599Y1089330D01*
X1238827Y1089239D01*
X1239052Y1089142D01*
X1239276Y1089040D01*
X1239496Y1088932D01*
X1239714Y1088819D01*
X1239929Y1088701D01*
X1240141Y1088577D01*
X1240350Y1088449D01*
X1240556Y1088315D01*
X1240758Y1088176D01*
X1240957Y1088032D01*
X1241152Y1087883D01*
X1241344Y1087730D01*
X1241532Y1087572D01*
X1241716Y1087410D01*
X1241895Y1087242D01*
X1242071Y1087071D01*
X1242242Y1086895D01*
X1242410Y1086716D01*
X1242572Y1086532D01*
X1242730Y1086344D01*
X1242883Y1086152D01*
X1243032Y1085957D01*
X1243176Y1085758D01*
X1243315Y1085556D01*
X1243449Y1085350D01*
X1243577Y1085141D01*
X1243701Y1084929D01*
X1243819Y1084714D01*
X1243932Y1084496D01*
X1244040Y1084276D01*
X1244142Y1084052D01*
X1244239Y1083827D01*
X1244330Y1083599D01*
X1244415Y1083369D01*
X1244495Y1083137D01*
X1244569Y1082903D01*
X1244638Y1082667D01*
X1244700Y1082430D01*
X1244757Y1082191D01*
X1244808Y1081951D01*
X1244853Y1081710D01*
X1244892Y1081467D01*
X1244925Y1081224D01*
X1244952Y1080980D01*
X1244973Y1080736D01*
X1244988Y1080491D01*
X1244997Y1080245D01*
X1245000Y1080000D01*
X1244997Y1079755D01*
X1244988Y1079509D01*
X1244973Y1079264D01*
X1244952Y1079020D01*
X1244925Y1078776D01*
X1244892Y1078533D01*
X1244853Y1078290D01*
X1244808Y1078049D01*
X1244757Y1077809D01*
X1244700Y1077570D01*
X1244638Y1077333D01*
X1244569Y1077097D01*
X1244495Y1076863D01*
X1244415Y1076631D01*
X1244330Y1076401D01*
X1244239Y1076173D01*
X1244142Y1075948D01*
X1244040Y1075724D01*
X1243932Y1075504D01*
X1243819Y1075286D01*
X1243701Y1075071D01*
X1243577Y1074859D01*
X1243449Y1074650D01*
X1243315Y1074444D01*
X1243176Y1074242D01*
X1243032Y1074043D01*
X1242883Y1073848D01*
X1242730Y1073656D01*
X1242572Y1073468D01*
X1242410Y1073284D01*
X1242242Y1073105D01*
X1242071Y1072929D01*
X1241895Y1072758D01*
X1241716Y1072590D01*
X1241532Y1072428D01*
X1241344Y1072270D01*
X1241152Y1072117D01*
X1240957Y1071968D01*
X1240758Y1071824D01*
X1240556Y1071685D01*
X1240350Y1071551D01*
X1240141Y1071423D01*
X1239929Y1071299D01*
X1239714Y1071181D01*
X1239496Y1071068D01*
X1239276Y1070960D01*
X1239052Y1070858D01*
X1238827Y1070761D01*
X1238599Y1070670D01*
X1238369Y1070585D01*
X1238137Y1070505D01*
X1237903Y1070431D01*
X1237667Y1070362D01*
X1237430Y1070300D01*
X1237191Y1070243D01*
X1236951Y1070192D01*
X1236710Y1070147D01*
X1236467Y1070108D01*
X1236224Y1070075D01*
X1235980Y1070048D01*
X1235736Y1070027D01*
X1235491Y1070012D01*
X1235245Y1070003D01*
X1235000Y1070000D01*
X1234755Y1070003D01*
X1234509Y1070012D01*
X1234264Y1070027D01*
X1234020Y1070048D01*
X1233776Y1070075D01*
X1233533Y1070108D01*
X1233290Y1070147D01*
X1233049Y1070192D01*
X1232809Y1070243D01*
X1232570Y1070300D01*
X1232333Y1070362D01*
X1232097Y1070431D01*
X1231863Y1070505D01*
X1231631Y1070585D01*
X1231401Y1070670D01*
X1231173Y1070761D01*
X1230948Y1070858D01*
X1230724Y1070960D01*
X1230504Y1071068D01*
X1230286Y1071181D01*
X1230071Y1071299D01*
X1229859Y1071423D01*
X1229650Y1071551D01*
X1229444Y1071685D01*
X1229242Y1071824D01*
X1229043Y1071968D01*
X1228848Y1072117D01*
X1228656Y1072270D01*
X1228468Y1072428D01*
X1228284Y1072590D01*
X1228105Y1072758D01*
X1227929Y1072929D01*
X1227758Y1073105D01*
X1227590Y1073284D01*
X1227428Y1073468D01*
X1227270Y1073656D01*
X1227117Y1073848D01*
X1226968Y1074043D01*
X1226824Y1074242D01*
X1226685Y1074444D01*
X1226551Y1074650D01*
X1226423Y1074859D01*
X1226299Y1075071D01*
X1226181Y1075286D01*
X1226068Y1075504D01*
X1225960Y1075724D01*
X1225858Y1075948D01*
X1225761Y1076173D01*
X1225670Y1076401D01*
X1225585Y1076631D01*
X1225505Y1076863D01*
X1225431Y1077097D01*
X1225362Y1077333D01*
X1225300Y1077570D01*
X1225243Y1077809D01*
X1225192Y1078049D01*
X1225147Y1078290D01*
X1225108Y1078533D01*
X1225075Y1078776D01*
X1225048Y1079020D01*
X1225027Y1079264D01*
X1225012Y1079509D01*
X1225003Y1079755D01*
X1225000Y1080000D01*
D14*
X944500Y278000D02*
X944500Y262000D01*
X944500Y278000D02*
X944498Y278140D01*
X944492Y278280D01*
X944482Y278420D01*
X944469Y278560D01*
X944451Y278699D01*
X944429Y278838D01*
X944404Y278975D01*
X944375Y279113D01*
X944342Y279249D01*
X944305Y279384D01*
X944264Y279518D01*
X944219Y279651D01*
X944171Y279783D01*
X944119Y279913D01*
X944064Y280042D01*
X944005Y280169D01*
X943942Y280295D01*
X943876Y280419D01*
X943807Y280540D01*
X943734Y280660D01*
X943657Y280778D01*
X943578Y280893D01*
X943495Y281007D01*
X943409Y281117D01*
X943320Y281226D01*
X943228Y281332D01*
X943133Y281435D01*
X943036Y281536D01*
X942935Y281633D01*
X942832Y281728D01*
X942726Y281820D01*
X942617Y281909D01*
X942507Y281995D01*
X942393Y282078D01*
X942278Y282157D01*
X942160Y282234D01*
X942040Y282307D01*
X941919Y282376D01*
X941795Y282442D01*
X941669Y282505D01*
X941542Y282564D01*
X941413Y282619D01*
X941283Y282671D01*
X941151Y282719D01*
X941018Y282764D01*
X940884Y282805D01*
X940749Y282842D01*
X940613Y282875D01*
X940475Y282904D01*
X940338Y282929D01*
X940199Y282951D01*
X940060Y282969D01*
X939920Y282982D01*
X939780Y282992D01*
X939640Y282998D01*
X939500Y283000D01*
X939360Y282998D01*
X939220Y282992D01*
X939080Y282982D01*
X938940Y282969D01*
X938801Y282951D01*
X938662Y282929D01*
X938525Y282904D01*
X938387Y282875D01*
X938251Y282842D01*
X938116Y282805D01*
X937982Y282764D01*
X937849Y282719D01*
X937717Y282671D01*
X937587Y282619D01*
X937458Y282564D01*
X937331Y282505D01*
X937205Y282442D01*
X937081Y282376D01*
X936960Y282307D01*
X936840Y282234D01*
X936722Y282157D01*
X936607Y282078D01*
X936493Y281995D01*
X936383Y281909D01*
X936274Y281820D01*
X936168Y281728D01*
X936065Y281633D01*
X935964Y281536D01*
X935867Y281435D01*
X935772Y281332D01*
X935680Y281226D01*
X935591Y281117D01*
X935505Y281007D01*
X935422Y280893D01*
X935343Y280778D01*
X935266Y280660D01*
X935193Y280540D01*
X935124Y280419D01*
X935058Y280295D01*
X934995Y280169D01*
X934936Y280042D01*
X934881Y279913D01*
X934829Y279783D01*
X934781Y279651D01*
X934736Y279518D01*
X934695Y279384D01*
X934658Y279249D01*
X934625Y279113D01*
X934596Y278975D01*
X934571Y278838D01*
X934549Y278699D01*
X934531Y278560D01*
X934518Y278420D01*
X934508Y278280D01*
X934502Y278140D01*
X934500Y278000D01*
X934500Y262000D01*
X934502Y261860D01*
X934508Y261720D01*
X934518Y261580D01*
X934531Y261440D01*
X934549Y261301D01*
X934571Y261162D01*
X934596Y261025D01*
X934625Y260887D01*
X934658Y260751D01*
X934695Y260616D01*
X934736Y260482D01*
X934781Y260349D01*
X934829Y260217D01*
X934881Y260087D01*
X934936Y259958D01*
X934995Y259831D01*
X935058Y259705D01*
X935124Y259581D01*
X935193Y259460D01*
X935266Y259340D01*
X935343Y259222D01*
X935422Y259107D01*
X935505Y258993D01*
X935591Y258883D01*
X935680Y258774D01*
X935772Y258668D01*
X935867Y258565D01*
X935964Y258464D01*
X936065Y258367D01*
X936168Y258272D01*
X936274Y258180D01*
X936383Y258091D01*
X936493Y258005D01*
X936607Y257922D01*
X936722Y257843D01*
X936840Y257766D01*
X936960Y257693D01*
X937081Y257624D01*
X937205Y257558D01*
X937331Y257495D01*
X937458Y257436D01*
X937587Y257381D01*
X937717Y257329D01*
X937849Y257281D01*
X937982Y257236D01*
X938116Y257195D01*
X938251Y257158D01*
X938387Y257125D01*
X938525Y257096D01*
X938662Y257071D01*
X938801Y257049D01*
X938940Y257031D01*
X939080Y257018D01*
X939220Y257008D01*
X939360Y257002D01*
X939500Y257000D01*
X939640Y257002D01*
X939780Y257008D01*
X939920Y257018D01*
X940060Y257031D01*
X940199Y257049D01*
X940338Y257071D01*
X940475Y257096D01*
X940613Y257125D01*
X940749Y257158D01*
X940884Y257195D01*
X941018Y257236D01*
X941151Y257281D01*
X941283Y257329D01*
X941413Y257381D01*
X941542Y257436D01*
X941669Y257495D01*
X941795Y257558D01*
X941919Y257624D01*
X942040Y257693D01*
X942160Y257766D01*
X942278Y257843D01*
X942393Y257922D01*
X942507Y258005D01*
X942617Y258091D01*
X942726Y258180D01*
X942832Y258272D01*
X942935Y258367D01*
X943036Y258464D01*
X943133Y258565D01*
X943228Y258668D01*
X943320Y258774D01*
X943409Y258883D01*
X943495Y258993D01*
X943578Y259107D01*
X943657Y259222D01*
X943734Y259340D01*
X943807Y259460D01*
X943876Y259581D01*
X943942Y259705D01*
X944005Y259831D01*
X944064Y259958D01*
X944119Y260087D01*
X944171Y260217D01*
X944219Y260349D01*
X944264Y260482D01*
X944305Y260616D01*
X944342Y260751D01*
X944375Y260887D01*
X944404Y261025D01*
X944429Y261162D01*
X944451Y261301D01*
X944469Y261440D01*
X944482Y261580D01*
X944492Y261720D01*
X944498Y261860D01*
X944500Y262000D01*
X955500Y218000D02*
X955500Y202000D01*
X955502Y201860D01*
X955508Y201720D01*
X955518Y201580D01*
X955531Y201440D01*
X955549Y201301D01*
X955571Y201162D01*
X955596Y201025D01*
X955625Y200887D01*
X955658Y200751D01*
X955695Y200616D01*
X955736Y200482D01*
X955781Y200349D01*
X955829Y200217D01*
X955881Y200087D01*
X955936Y199958D01*
X955995Y199831D01*
X956058Y199705D01*
X956124Y199581D01*
X956193Y199460D01*
X956266Y199340D01*
X956343Y199222D01*
X956422Y199107D01*
X956505Y198993D01*
X956591Y198883D01*
X956680Y198774D01*
X956772Y198668D01*
X956867Y198565D01*
X956964Y198464D01*
X957065Y198367D01*
X957168Y198272D01*
X957274Y198180D01*
X957383Y198091D01*
X957493Y198005D01*
X957607Y197922D01*
X957722Y197843D01*
X957840Y197766D01*
X957960Y197693D01*
X958081Y197624D01*
X958205Y197558D01*
X958331Y197495D01*
X958458Y197436D01*
X958587Y197381D01*
X958717Y197329D01*
X958849Y197281D01*
X958982Y197236D01*
X959116Y197195D01*
X959251Y197158D01*
X959387Y197125D01*
X959525Y197096D01*
X959662Y197071D01*
X959801Y197049D01*
X959940Y197031D01*
X960080Y197018D01*
X960220Y197008D01*
X960360Y197002D01*
X960500Y197000D01*
X960640Y197002D01*
X960780Y197008D01*
X960920Y197018D01*
X961060Y197031D01*
X961199Y197049D01*
X961338Y197071D01*
X961475Y197096D01*
X961613Y197125D01*
X961749Y197158D01*
X961884Y197195D01*
X962018Y197236D01*
X962151Y197281D01*
X962283Y197329D01*
X962413Y197381D01*
X962542Y197436D01*
X962669Y197495D01*
X962795Y197558D01*
X962919Y197624D01*
X963040Y197693D01*
X963160Y197766D01*
X963278Y197843D01*
X963393Y197922D01*
X963507Y198005D01*
X963617Y198091D01*
X963726Y198180D01*
X963832Y198272D01*
X963935Y198367D01*
X964036Y198464D01*
X964133Y198565D01*
X964228Y198668D01*
X964320Y198774D01*
X964409Y198883D01*
X964495Y198993D01*
X964578Y199107D01*
X964657Y199222D01*
X964734Y199340D01*
X964807Y199460D01*
X964876Y199581D01*
X964942Y199705D01*
X965005Y199831D01*
X965064Y199958D01*
X965119Y200087D01*
X965171Y200217D01*
X965219Y200349D01*
X965264Y200482D01*
X965305Y200616D01*
X965342Y200751D01*
X965375Y200887D01*
X965404Y201025D01*
X965429Y201162D01*
X965451Y201301D01*
X965469Y201440D01*
X965482Y201580D01*
X965492Y201720D01*
X965498Y201860D01*
X965500Y202000D01*
X965500Y218000D01*
X965498Y218140D01*
X965492Y218280D01*
X965482Y218420D01*
X965469Y218560D01*
X965451Y218699D01*
X965429Y218838D01*
X965404Y218975D01*
X965375Y219113D01*
X965342Y219249D01*
X965305Y219384D01*
X965264Y219518D01*
X965219Y219651D01*
X965171Y219783D01*
X965119Y219913D01*
X965064Y220042D01*
X965005Y220169D01*
X964942Y220295D01*
X964876Y220419D01*
X964807Y220540D01*
X964734Y220660D01*
X964657Y220778D01*
X964578Y220893D01*
X964495Y221007D01*
X964409Y221117D01*
X964320Y221226D01*
X964228Y221332D01*
X964133Y221435D01*
X964036Y221536D01*
X963935Y221633D01*
X963832Y221728D01*
X963726Y221820D01*
X963617Y221909D01*
X963507Y221995D01*
X963393Y222078D01*
X963278Y222157D01*
X963160Y222234D01*
X963040Y222307D01*
X962919Y222376D01*
X962795Y222442D01*
X962669Y222505D01*
X962542Y222564D01*
X962413Y222619D01*
X962283Y222671D01*
X962151Y222719D01*
X962018Y222764D01*
X961884Y222805D01*
X961749Y222842D01*
X961613Y222875D01*
X961475Y222904D01*
X961338Y222929D01*
X961199Y222951D01*
X961060Y222969D01*
X960920Y222982D01*
X960780Y222992D01*
X960640Y222998D01*
X960500Y223000D01*
X960360Y222998D01*
X960220Y222992D01*
X960080Y222982D01*
X959940Y222969D01*
X959801Y222951D01*
X959662Y222929D01*
X959525Y222904D01*
X959387Y222875D01*
X959251Y222842D01*
X959116Y222805D01*
X958982Y222764D01*
X958849Y222719D01*
X958717Y222671D01*
X958587Y222619D01*
X958458Y222564D01*
X958331Y222505D01*
X958205Y222442D01*
X958081Y222376D01*
X957960Y222307D01*
X957840Y222234D01*
X957722Y222157D01*
X957607Y222078D01*
X957493Y221995D01*
X957383Y221909D01*
X957274Y221820D01*
X957168Y221728D01*
X957065Y221633D01*
X956964Y221536D01*
X956867Y221435D01*
X956772Y221332D01*
X956680Y221226D01*
X956591Y221117D01*
X956505Y221007D01*
X956422Y220893D01*
X956343Y220778D01*
X956266Y220660D01*
X956193Y220540D01*
X956124Y220419D01*
X956058Y220295D01*
X955995Y220169D01*
X955936Y220042D01*
X955881Y219913D01*
X955829Y219783D01*
X955781Y219651D01*
X955736Y219518D01*
X955695Y219384D01*
X955658Y219249D01*
X955625Y219113D01*
X955596Y218975D01*
X955571Y218838D01*
X955549Y218699D01*
X955531Y218560D01*
X955518Y218420D01*
X955508Y218280D01*
X955502Y218140D01*
X955500Y218000D01*
X1100500Y262000D02*
X1100500Y278000D01*
X1100498Y278140D01*
X1100492Y278280D01*
X1100482Y278420D01*
X1100469Y278560D01*
X1100451Y278699D01*
X1100429Y278838D01*
X1100404Y278975D01*
X1100375Y279113D01*
X1100342Y279249D01*
X1100305Y279384D01*
X1100264Y279518D01*
X1100219Y279651D01*
X1100171Y279783D01*
X1100119Y279913D01*
X1100064Y280042D01*
X1100005Y280169D01*
X1099942Y280295D01*
X1099876Y280419D01*
X1099807Y280540D01*
X1099734Y280660D01*
X1099657Y280778D01*
X1099578Y280893D01*
X1099495Y281007D01*
X1099409Y281117D01*
X1099320Y281226D01*
X1099228Y281332D01*
X1099133Y281435D01*
X1099036Y281536D01*
X1098935Y281633D01*
X1098832Y281728D01*
X1098726Y281820D01*
X1098617Y281909D01*
X1098507Y281995D01*
X1098393Y282078D01*
X1098278Y282157D01*
X1098160Y282234D01*
X1098040Y282307D01*
X1097919Y282376D01*
X1097795Y282442D01*
X1097669Y282505D01*
X1097542Y282564D01*
X1097413Y282619D01*
X1097283Y282671D01*
X1097151Y282719D01*
X1097018Y282764D01*
X1096884Y282805D01*
X1096749Y282842D01*
X1096613Y282875D01*
X1096475Y282904D01*
X1096338Y282929D01*
X1096199Y282951D01*
X1096060Y282969D01*
X1095920Y282982D01*
X1095780Y282992D01*
X1095640Y282998D01*
X1095500Y283000D01*
X1095360Y282998D01*
X1095220Y282992D01*
X1095080Y282982D01*
X1094940Y282969D01*
X1094801Y282951D01*
X1094662Y282929D01*
X1094525Y282904D01*
X1094387Y282875D01*
X1094251Y282842D01*
X1094116Y282805D01*
X1093982Y282764D01*
X1093849Y282719D01*
X1093717Y282671D01*
X1093587Y282619D01*
X1093458Y282564D01*
X1093331Y282505D01*
X1093205Y282442D01*
X1093081Y282376D01*
X1092960Y282307D01*
X1092840Y282234D01*
X1092722Y282157D01*
X1092607Y282078D01*
X1092493Y281995D01*
X1092383Y281909D01*
X1092274Y281820D01*
X1092168Y281728D01*
X1092065Y281633D01*
X1091964Y281536D01*
X1091867Y281435D01*
X1091772Y281332D01*
X1091680Y281226D01*
X1091591Y281117D01*
X1091505Y281007D01*
X1091422Y280893D01*
X1091343Y280778D01*
X1091266Y280660D01*
X1091193Y280540D01*
X1091124Y280419D01*
X1091058Y280295D01*
X1090995Y280169D01*
X1090936Y280042D01*
X1090881Y279913D01*
X1090829Y279783D01*
X1090781Y279651D01*
X1090736Y279518D01*
X1090695Y279384D01*
X1090658Y279249D01*
X1090625Y279113D01*
X1090596Y278975D01*
X1090571Y278838D01*
X1090549Y278699D01*
X1090531Y278560D01*
X1090518Y278420D01*
X1090508Y278280D01*
X1090502Y278140D01*
X1090500Y278000D01*
X1090500Y262000D01*
X1090502Y261860D01*
X1090508Y261720D01*
X1090518Y261580D01*
X1090531Y261440D01*
X1090549Y261301D01*
X1090571Y261162D01*
X1090596Y261025D01*
X1090625Y260887D01*
X1090658Y260751D01*
X1090695Y260616D01*
X1090736Y260482D01*
X1090781Y260349D01*
X1090829Y260217D01*
X1090881Y260087D01*
X1090936Y259958D01*
X1090995Y259831D01*
X1091058Y259705D01*
X1091124Y259581D01*
X1091193Y259460D01*
X1091266Y259340D01*
X1091343Y259222D01*
X1091422Y259107D01*
X1091505Y258993D01*
X1091591Y258883D01*
X1091680Y258774D01*
X1091772Y258668D01*
X1091867Y258565D01*
X1091964Y258464D01*
X1092065Y258367D01*
X1092168Y258272D01*
X1092274Y258180D01*
X1092383Y258091D01*
X1092493Y258005D01*
X1092607Y257922D01*
X1092722Y257843D01*
X1092840Y257766D01*
X1092960Y257693D01*
X1093081Y257624D01*
X1093205Y257558D01*
X1093331Y257495D01*
X1093458Y257436D01*
X1093587Y257381D01*
X1093717Y257329D01*
X1093849Y257281D01*
X1093982Y257236D01*
X1094116Y257195D01*
X1094251Y257158D01*
X1094387Y257125D01*
X1094525Y257096D01*
X1094662Y257071D01*
X1094801Y257049D01*
X1094940Y257031D01*
X1095080Y257018D01*
X1095220Y257008D01*
X1095360Y257002D01*
X1095500Y257000D01*
X1095640Y257002D01*
X1095780Y257008D01*
X1095920Y257018D01*
X1096060Y257031D01*
X1096199Y257049D01*
X1096338Y257071D01*
X1096475Y257096D01*
X1096613Y257125D01*
X1096749Y257158D01*
X1096884Y257195D01*
X1097018Y257236D01*
X1097151Y257281D01*
X1097283Y257329D01*
X1097413Y257381D01*
X1097542Y257436D01*
X1097669Y257495D01*
X1097795Y257558D01*
X1097919Y257624D01*
X1098040Y257693D01*
X1098160Y257766D01*
X1098278Y257843D01*
X1098393Y257922D01*
X1098507Y258005D01*
X1098617Y258091D01*
X1098726Y258180D01*
X1098832Y258272D01*
X1098935Y258367D01*
X1099036Y258464D01*
X1099133Y258565D01*
X1099228Y258668D01*
X1099320Y258774D01*
X1099409Y258883D01*
X1099495Y258993D01*
X1099578Y259107D01*
X1099657Y259222D01*
X1099734Y259340D01*
X1099807Y259460D01*
X1099876Y259581D01*
X1099942Y259705D01*
X1100005Y259831D01*
X1100064Y259958D01*
X1100119Y260087D01*
X1100171Y260217D01*
X1100219Y260349D01*
X1100264Y260482D01*
X1100305Y260616D01*
X1100342Y260751D01*
X1100375Y260887D01*
X1100404Y261025D01*
X1100429Y261162D01*
X1100451Y261301D01*
X1100469Y261440D01*
X1100482Y261580D01*
X1100492Y261720D01*
X1100498Y261860D01*
X1100500Y262000D01*
X1111500Y218000D02*
X1111500Y202000D01*
X1111502Y201860D01*
X1111508Y201720D01*
X1111518Y201580D01*
X1111531Y201440D01*
X1111549Y201301D01*
X1111571Y201162D01*
X1111596Y201025D01*
X1111625Y200887D01*
X1111658Y200751D01*
X1111695Y200616D01*
X1111736Y200482D01*
X1111781Y200349D01*
X1111829Y200217D01*
X1111881Y200087D01*
X1111936Y199958D01*
X1111995Y199831D01*
X1112058Y199705D01*
X1112124Y199581D01*
X1112193Y199460D01*
X1112266Y199340D01*
X1112343Y199222D01*
X1112422Y199107D01*
X1112505Y198993D01*
X1112591Y198883D01*
X1112680Y198774D01*
X1112772Y198668D01*
X1112867Y198565D01*
X1112964Y198464D01*
X1113065Y198367D01*
X1113168Y198272D01*
X1113274Y198180D01*
X1113383Y198091D01*
X1113493Y198005D01*
X1113607Y197922D01*
X1113722Y197843D01*
X1113840Y197766D01*
X1113960Y197693D01*
X1114081Y197624D01*
X1114205Y197558D01*
X1114331Y197495D01*
X1114458Y197436D01*
X1114587Y197381D01*
X1114717Y197329D01*
X1114849Y197281D01*
X1114982Y197236D01*
X1115116Y197195D01*
X1115251Y197158D01*
X1115387Y197125D01*
X1115525Y197096D01*
X1115662Y197071D01*
X1115801Y197049D01*
X1115940Y197031D01*
X1116080Y197018D01*
X1116220Y197008D01*
X1116360Y197002D01*
X1116500Y197000D01*
X1116640Y197002D01*
X1116780Y197008D01*
X1116920Y197018D01*
X1117060Y197031D01*
X1117199Y197049D01*
X1117338Y197071D01*
X1117475Y197096D01*
X1117613Y197125D01*
X1117749Y197158D01*
X1117884Y197195D01*
X1118018Y197236D01*
X1118151Y197281D01*
X1118283Y197329D01*
X1118413Y197381D01*
X1118542Y197436D01*
X1118669Y197495D01*
X1118795Y197558D01*
X1118919Y197624D01*
X1119040Y197693D01*
X1119160Y197766D01*
X1119278Y197843D01*
X1119393Y197922D01*
X1119507Y198005D01*
X1119617Y198091D01*
X1119726Y198180D01*
X1119832Y198272D01*
X1119935Y198367D01*
X1120036Y198464D01*
X1120133Y198565D01*
X1120228Y198668D01*
X1120320Y198774D01*
X1120409Y198883D01*
X1120495Y198993D01*
X1120578Y199107D01*
X1120657Y199222D01*
X1120734Y199340D01*
X1120807Y199460D01*
X1120876Y199581D01*
X1120942Y199705D01*
X1121005Y199831D01*
X1121064Y199958D01*
X1121119Y200087D01*
X1121171Y200217D01*
X1121219Y200349D01*
X1121264Y200482D01*
X1121305Y200616D01*
X1121342Y200751D01*
X1121375Y200887D01*
X1121404Y201025D01*
X1121429Y201162D01*
X1121451Y201301D01*
X1121469Y201440D01*
X1121482Y201580D01*
X1121492Y201720D01*
X1121498Y201860D01*
X1121500Y202000D01*
X1121500Y218000D01*
X1121498Y218140D01*
X1121492Y218280D01*
X1121482Y218420D01*
X1121469Y218560D01*
X1121451Y218699D01*
X1121429Y218838D01*
X1121404Y218975D01*
X1121375Y219113D01*
X1121342Y219249D01*
X1121305Y219384D01*
X1121264Y219518D01*
X1121219Y219651D01*
X1121171Y219783D01*
X1121119Y219913D01*
X1121064Y220042D01*
X1121005Y220169D01*
X1120942Y220295D01*
X1120876Y220419D01*
X1120807Y220540D01*
X1120734Y220660D01*
X1120657Y220778D01*
X1120578Y220893D01*
X1120495Y221007D01*
X1120409Y221117D01*
X1120320Y221226D01*
X1120228Y221332D01*
X1120133Y221435D01*
X1120036Y221536D01*
X1119935Y221633D01*
X1119832Y221728D01*
X1119726Y221820D01*
X1119617Y221909D01*
X1119507Y221995D01*
X1119393Y222078D01*
X1119278Y222157D01*
X1119160Y222234D01*
X1119040Y222307D01*
X1118919Y222376D01*
X1118795Y222442D01*
X1118669Y222505D01*
X1118542Y222564D01*
X1118413Y222619D01*
X1118283Y222671D01*
X1118151Y222719D01*
X1118018Y222764D01*
X1117884Y222805D01*
X1117749Y222842D01*
X1117613Y222875D01*
X1117475Y222904D01*
X1117338Y222929D01*
X1117199Y222951D01*
X1117060Y222969D01*
X1116920Y222982D01*
X1116780Y222992D01*
X1116640Y222998D01*
X1116500Y223000D01*
X1116360Y222998D01*
X1116220Y222992D01*
X1116080Y222982D01*
X1115940Y222969D01*
X1115801Y222951D01*
X1115662Y222929D01*
X1115525Y222904D01*
X1115387Y222875D01*
X1115251Y222842D01*
X1115116Y222805D01*
X1114982Y222764D01*
X1114849Y222719D01*
X1114717Y222671D01*
X1114587Y222619D01*
X1114458Y222564D01*
X1114331Y222505D01*
X1114205Y222442D01*
X1114081Y222376D01*
X1113960Y222307D01*
X1113840Y222234D01*
X1113722Y222157D01*
X1113607Y222078D01*
X1113493Y221995D01*
X1113383Y221909D01*
X1113274Y221820D01*
X1113168Y221728D01*
X1113065Y221633D01*
X1112964Y221536D01*
X1112867Y221435D01*
X1112772Y221332D01*
X1112680Y221226D01*
X1112591Y221117D01*
X1112505Y221007D01*
X1112422Y220893D01*
X1112343Y220778D01*
X1112266Y220660D01*
X1112193Y220540D01*
X1112124Y220419D01*
X1112058Y220295D01*
X1111995Y220169D01*
X1111936Y220042D01*
X1111881Y219913D01*
X1111829Y219783D01*
X1111781Y219651D01*
X1111736Y219518D01*
X1111695Y219384D01*
X1111658Y219249D01*
X1111625Y219113D01*
X1111596Y218975D01*
X1111571Y218838D01*
X1111549Y218699D01*
X1111531Y218560D01*
X1111518Y218420D01*
X1111508Y218280D01*
X1111502Y218140D01*
X1111500Y218000D01*
X944500Y752000D02*
X944500Y768000D01*
X944498Y768140D01*
X944492Y768280D01*
X944482Y768420D01*
X944469Y768560D01*
X944451Y768699D01*
X944429Y768838D01*
X944404Y768975D01*
X944375Y769113D01*
X944342Y769249D01*
X944305Y769384D01*
X944264Y769518D01*
X944219Y769651D01*
X944171Y769783D01*
X944119Y769913D01*
X944064Y770042D01*
X944005Y770169D01*
X943942Y770295D01*
X943876Y770419D01*
X943807Y770540D01*
X943734Y770660D01*
X943657Y770778D01*
X943578Y770893D01*
X943495Y771007D01*
X943409Y771117D01*
X943320Y771226D01*
X943228Y771332D01*
X943133Y771435D01*
X943036Y771536D01*
X942935Y771633D01*
X942832Y771728D01*
X942726Y771820D01*
X942617Y771909D01*
X942507Y771995D01*
X942393Y772078D01*
X942278Y772157D01*
X942160Y772234D01*
X942040Y772307D01*
X941919Y772376D01*
X941795Y772442D01*
X941669Y772505D01*
X941542Y772564D01*
X941413Y772619D01*
X941283Y772671D01*
X941151Y772719D01*
X941018Y772764D01*
X940884Y772805D01*
X940749Y772842D01*
X940613Y772875D01*
X940475Y772904D01*
X940338Y772929D01*
X940199Y772951D01*
X940060Y772969D01*
X939920Y772982D01*
X939780Y772992D01*
X939640Y772998D01*
X939500Y773000D01*
X939360Y772998D01*
X939220Y772992D01*
X939080Y772982D01*
X938940Y772969D01*
X938801Y772951D01*
X938662Y772929D01*
X938525Y772904D01*
X938387Y772875D01*
X938251Y772842D01*
X938116Y772805D01*
X937982Y772764D01*
X937849Y772719D01*
X937717Y772671D01*
X937587Y772619D01*
X937458Y772564D01*
X937331Y772505D01*
X937205Y772442D01*
X937081Y772376D01*
X936960Y772307D01*
X936840Y772234D01*
X936722Y772157D01*
X936607Y772078D01*
X936493Y771995D01*
X936383Y771909D01*
X936274Y771820D01*
X936168Y771728D01*
X936065Y771633D01*
X935964Y771536D01*
X935867Y771435D01*
X935772Y771332D01*
X935680Y771226D01*
X935591Y771117D01*
X935505Y771007D01*
X935422Y770893D01*
X935343Y770778D01*
X935266Y770660D01*
X935193Y770540D01*
X935124Y770419D01*
X935058Y770295D01*
X934995Y770169D01*
X934936Y770042D01*
X934881Y769913D01*
X934829Y769783D01*
X934781Y769651D01*
X934736Y769518D01*
X934695Y769384D01*
X934658Y769249D01*
X934625Y769113D01*
X934596Y768975D01*
X934571Y768838D01*
X934549Y768699D01*
X934531Y768560D01*
X934518Y768420D01*
X934508Y768280D01*
X934502Y768140D01*
X934500Y768000D01*
X934500Y752000D01*
X934502Y751860D01*
X934508Y751720D01*
X934518Y751580D01*
X934531Y751440D01*
X934549Y751301D01*
X934571Y751162D01*
X934596Y751025D01*
X934625Y750887D01*
X934658Y750751D01*
X934695Y750616D01*
X934736Y750482D01*
X934781Y750349D01*
X934829Y750217D01*
X934881Y750087D01*
X934936Y749958D01*
X934995Y749831D01*
X935058Y749705D01*
X935124Y749581D01*
X935193Y749460D01*
X935266Y749340D01*
X935343Y749222D01*
X935422Y749107D01*
X935505Y748993D01*
X935591Y748883D01*
X935680Y748774D01*
X935772Y748668D01*
X935867Y748565D01*
X935964Y748464D01*
X936065Y748367D01*
X936168Y748272D01*
X936274Y748180D01*
X936383Y748091D01*
X936493Y748005D01*
X936607Y747922D01*
X936722Y747843D01*
X936840Y747766D01*
X936960Y747693D01*
X937081Y747624D01*
X937205Y747558D01*
X937331Y747495D01*
X937458Y747436D01*
X937587Y747381D01*
X937717Y747329D01*
X937849Y747281D01*
X937982Y747236D01*
X938116Y747195D01*
X938251Y747158D01*
X938387Y747125D01*
X938525Y747096D01*
X938662Y747071D01*
X938801Y747049D01*
X938940Y747031D01*
X939080Y747018D01*
X939220Y747008D01*
X939360Y747002D01*
X939500Y747000D01*
X939640Y747002D01*
X939780Y747008D01*
X939920Y747018D01*
X940060Y747031D01*
X940199Y747049D01*
X940338Y747071D01*
X940475Y747096D01*
X940613Y747125D01*
X940749Y747158D01*
X940884Y747195D01*
X941018Y747236D01*
X941151Y747281D01*
X941283Y747329D01*
X941413Y747381D01*
X941542Y747436D01*
X941669Y747495D01*
X941795Y747558D01*
X941919Y747624D01*
X942040Y747693D01*
X942160Y747766D01*
X942278Y747843D01*
X942393Y747922D01*
X942507Y748005D01*
X942617Y748091D01*
X942726Y748180D01*
X942832Y748272D01*
X942935Y748367D01*
X943036Y748464D01*
X943133Y748565D01*
X943228Y748668D01*
X943320Y748774D01*
X943409Y748883D01*
X943495Y748993D01*
X943578Y749107D01*
X943657Y749222D01*
X943734Y749340D01*
X943807Y749460D01*
X943876Y749581D01*
X943942Y749705D01*
X944005Y749831D01*
X944064Y749958D01*
X944119Y750087D01*
X944171Y750217D01*
X944219Y750349D01*
X944264Y750482D01*
X944305Y750616D01*
X944342Y750751D01*
X944375Y750887D01*
X944404Y751025D01*
X944429Y751162D01*
X944451Y751301D01*
X944469Y751440D01*
X944482Y751580D01*
X944492Y751720D01*
X944498Y751860D01*
X944500Y752000D01*
X955500Y708000D02*
X955500Y692000D01*
X955502Y691860D01*
X955508Y691720D01*
X955518Y691580D01*
X955531Y691440D01*
X955549Y691301D01*
X955571Y691162D01*
X955596Y691025D01*
X955625Y690887D01*
X955658Y690751D01*
X955695Y690616D01*
X955736Y690482D01*
X955781Y690349D01*
X955829Y690217D01*
X955881Y690087D01*
X955936Y689958D01*
X955995Y689831D01*
X956058Y689705D01*
X956124Y689581D01*
X956193Y689460D01*
X956266Y689340D01*
X956343Y689222D01*
X956422Y689107D01*
X956505Y688993D01*
X956591Y688883D01*
X956680Y688774D01*
X956772Y688668D01*
X956867Y688565D01*
X956964Y688464D01*
X957065Y688367D01*
X957168Y688272D01*
X957274Y688180D01*
X957383Y688091D01*
X957493Y688005D01*
X957607Y687922D01*
X957722Y687843D01*
X957840Y687766D01*
X957960Y687693D01*
X958081Y687624D01*
X958205Y687558D01*
X958331Y687495D01*
X958458Y687436D01*
X958587Y687381D01*
X958717Y687329D01*
X958849Y687281D01*
X958982Y687236D01*
X959116Y687195D01*
X959251Y687158D01*
X959387Y687125D01*
X959525Y687096D01*
X959662Y687071D01*
X959801Y687049D01*
X959940Y687031D01*
X960080Y687018D01*
X960220Y687008D01*
X960360Y687002D01*
X960500Y687000D01*
X960640Y687002D01*
X960780Y687008D01*
X960920Y687018D01*
X961060Y687031D01*
X961199Y687049D01*
X961338Y687071D01*
X961475Y687096D01*
X961613Y687125D01*
X961749Y687158D01*
X961884Y687195D01*
X962018Y687236D01*
X962151Y687281D01*
X962283Y687329D01*
X962413Y687381D01*
X962542Y687436D01*
X962669Y687495D01*
X962795Y687558D01*
X962919Y687624D01*
X963040Y687693D01*
X963160Y687766D01*
X963278Y687843D01*
X963393Y687922D01*
X963507Y688005D01*
X963617Y688091D01*
X963726Y688180D01*
X963832Y688272D01*
X963935Y688367D01*
X964036Y688464D01*
X964133Y688565D01*
X964228Y688668D01*
X964320Y688774D01*
X964409Y688883D01*
X964495Y688993D01*
X964578Y689107D01*
X964657Y689222D01*
X964734Y689340D01*
X964807Y689460D01*
X964876Y689581D01*
X964942Y689705D01*
X965005Y689831D01*
X965064Y689958D01*
X965119Y690087D01*
X965171Y690217D01*
X965219Y690349D01*
X965264Y690482D01*
X965305Y690616D01*
X965342Y690751D01*
X965375Y690887D01*
X965404Y691025D01*
X965429Y691162D01*
X965451Y691301D01*
X965469Y691440D01*
X965482Y691580D01*
X965492Y691720D01*
X965498Y691860D01*
X965500Y692000D01*
X965500Y708000D01*
X965498Y708140D01*
X965492Y708280D01*
X965482Y708420D01*
X965469Y708560D01*
X965451Y708699D01*
X965429Y708838D01*
X965404Y708975D01*
X965375Y709113D01*
X965342Y709249D01*
X965305Y709384D01*
X965264Y709518D01*
X965219Y709651D01*
X965171Y709783D01*
X965119Y709913D01*
X965064Y710042D01*
X965005Y710169D01*
X964942Y710295D01*
X964876Y710419D01*
X964807Y710540D01*
X964734Y710660D01*
X964657Y710778D01*
X964578Y710893D01*
X964495Y711007D01*
X964409Y711117D01*
X964320Y711226D01*
X964228Y711332D01*
X964133Y711435D01*
X964036Y711536D01*
X963935Y711633D01*
X963832Y711728D01*
X963726Y711820D01*
X963617Y711909D01*
X963507Y711995D01*
X963393Y712078D01*
X963278Y712157D01*
X963160Y712234D01*
X963040Y712307D01*
X962919Y712376D01*
X962795Y712442D01*
X962669Y712505D01*
X962542Y712564D01*
X962413Y712619D01*
X962283Y712671D01*
X962151Y712719D01*
X962018Y712764D01*
X961884Y712805D01*
X961749Y712842D01*
X961613Y712875D01*
X961475Y712904D01*
X961338Y712929D01*
X961199Y712951D01*
X961060Y712969D01*
X960920Y712982D01*
X960780Y712992D01*
X960640Y712998D01*
X960500Y713000D01*
X960360Y712998D01*
X960220Y712992D01*
X960080Y712982D01*
X959940Y712969D01*
X959801Y712951D01*
X959662Y712929D01*
X959525Y712904D01*
X959387Y712875D01*
X959251Y712842D01*
X959116Y712805D01*
X958982Y712764D01*
X958849Y712719D01*
X958717Y712671D01*
X958587Y712619D01*
X958458Y712564D01*
X958331Y712505D01*
X958205Y712442D01*
X958081Y712376D01*
X957960Y712307D01*
X957840Y712234D01*
X957722Y712157D01*
X957607Y712078D01*
X957493Y711995D01*
X957383Y711909D01*
X957274Y711820D01*
X957168Y711728D01*
X957065Y711633D01*
X956964Y711536D01*
X956867Y711435D01*
X956772Y711332D01*
X956680Y711226D01*
X956591Y711117D01*
X956505Y711007D01*
X956422Y710893D01*
X956343Y710778D01*
X956266Y710660D01*
X956193Y710540D01*
X956124Y710419D01*
X956058Y710295D01*
X955995Y710169D01*
X955936Y710042D01*
X955881Y709913D01*
X955829Y709783D01*
X955781Y709651D01*
X955736Y709518D01*
X955695Y709384D01*
X955658Y709249D01*
X955625Y709113D01*
X955596Y708975D01*
X955571Y708838D01*
X955549Y708699D01*
X955531Y708560D01*
X955518Y708420D01*
X955508Y708280D01*
X955502Y708140D01*
X955500Y708000D01*
X1100500Y752000D02*
X1100500Y768000D01*
X1100498Y768140D01*
X1100492Y768280D01*
X1100482Y768420D01*
X1100469Y768560D01*
X1100451Y768699D01*
X1100429Y768838D01*
X1100404Y768975D01*
X1100375Y769113D01*
X1100342Y769249D01*
X1100305Y769384D01*
X1100264Y769518D01*
X1100219Y769651D01*
X1100171Y769783D01*
X1100119Y769913D01*
X1100064Y770042D01*
X1100005Y770169D01*
X1099942Y770295D01*
X1099876Y770419D01*
X1099807Y770540D01*
X1099734Y770660D01*
X1099657Y770778D01*
X1099578Y770893D01*
X1099495Y771007D01*
X1099409Y771117D01*
X1099320Y771226D01*
X1099228Y771332D01*
X1099133Y771435D01*
X1099036Y771536D01*
X1098935Y771633D01*
X1098832Y771728D01*
X1098726Y771820D01*
X1098617Y771909D01*
X1098507Y771995D01*
X1098393Y772078D01*
X1098278Y772157D01*
X1098160Y772234D01*
X1098040Y772307D01*
X1097919Y772376D01*
X1097795Y772442D01*
X1097669Y772505D01*
X1097542Y772564D01*
X1097413Y772619D01*
X1097283Y772671D01*
X1097151Y772719D01*
X1097018Y772764D01*
X1096884Y772805D01*
X1096749Y772842D01*
X1096613Y772875D01*
X1096475Y772904D01*
X1096338Y772929D01*
X1096199Y772951D01*
X1096060Y772969D01*
X1095920Y772982D01*
X1095780Y772992D01*
X1095640Y772998D01*
X1095500Y773000D01*
X1095360Y772998D01*
X1095220Y772992D01*
X1095080Y772982D01*
X1094940Y772969D01*
X1094801Y772951D01*
X1094662Y772929D01*
X1094525Y772904D01*
X1094387Y772875D01*
X1094251Y772842D01*
X1094116Y772805D01*
X1093982Y772764D01*
X1093849Y772719D01*
X1093717Y772671D01*
X1093587Y772619D01*
X1093458Y772564D01*
X1093331Y772505D01*
X1093205Y772442D01*
X1093081Y772376D01*
X1092960Y772307D01*
X1092840Y772234D01*
X1092722Y772157D01*
X1092607Y772078D01*
X1092493Y771995D01*
X1092383Y771909D01*
X1092274Y771820D01*
X1092168Y771728D01*
X1092065Y771633D01*
X1091964Y771536D01*
X1091867Y771435D01*
X1091772Y771332D01*
X1091680Y771226D01*
X1091591Y771117D01*
X1091505Y771007D01*
X1091422Y770893D01*
X1091343Y770778D01*
X1091266Y770660D01*
X1091193Y770540D01*
X1091124Y770419D01*
X1091058Y770295D01*
X1090995Y770169D01*
X1090936Y770042D01*
X1090881Y769913D01*
X1090829Y769783D01*
X1090781Y769651D01*
X1090736Y769518D01*
X1090695Y769384D01*
X1090658Y769249D01*
X1090625Y769113D01*
X1090596Y768975D01*
X1090571Y768838D01*
X1090549Y768699D01*
X1090531Y768560D01*
X1090518Y768420D01*
X1090508Y768280D01*
X1090502Y768140D01*
X1090500Y768000D01*
X1090500Y752000D01*
X1090502Y751860D01*
X1090508Y751720D01*
X1090518Y751580D01*
X1090531Y751440D01*
X1090549Y751301D01*
X1090571Y751162D01*
X1090596Y751025D01*
X1090625Y750887D01*
X1090658Y750751D01*
X1090695Y750616D01*
X1090736Y750482D01*
X1090781Y750349D01*
X1090829Y750217D01*
X1090881Y750087D01*
X1090936Y749958D01*
X1090995Y749831D01*
X1091058Y749705D01*
X1091124Y749581D01*
X1091193Y749460D01*
X1091266Y749340D01*
X1091343Y749222D01*
X1091422Y749107D01*
X1091505Y748993D01*
X1091591Y748883D01*
X1091680Y748774D01*
X1091772Y748668D01*
X1091867Y748565D01*
X1091964Y748464D01*
X1092065Y748367D01*
X1092168Y748272D01*
X1092274Y748180D01*
X1092383Y748091D01*
X1092493Y748005D01*
X1092607Y747922D01*
X1092722Y747843D01*
X1092840Y747766D01*
X1092960Y747693D01*
X1093081Y747624D01*
X1093205Y747558D01*
X1093331Y747495D01*
X1093458Y747436D01*
X1093587Y747381D01*
X1093717Y747329D01*
X1093849Y747281D01*
X1093982Y747236D01*
X1094116Y747195D01*
X1094251Y747158D01*
X1094387Y747125D01*
X1094525Y747096D01*
X1094662Y747071D01*
X1094801Y747049D01*
X1094940Y747031D01*
X1095080Y747018D01*
X1095220Y747008D01*
X1095360Y747002D01*
X1095500Y747000D01*
X1095640Y747002D01*
X1095780Y747008D01*
X1095920Y747018D01*
X1096060Y747031D01*
X1096199Y747049D01*
X1096338Y747071D01*
X1096475Y747096D01*
X1096613Y747125D01*
X1096749Y747158D01*
X1096884Y747195D01*
X1097018Y747236D01*
X1097151Y747281D01*
X1097283Y747329D01*
X1097413Y747381D01*
X1097542Y747436D01*
X1097669Y747495D01*
X1097795Y747558D01*
X1097919Y747624D01*
X1098040Y747693D01*
X1098160Y747766D01*
X1098278Y747843D01*
X1098393Y747922D01*
X1098507Y748005D01*
X1098617Y748091D01*
X1098726Y748180D01*
X1098832Y748272D01*
X1098935Y748367D01*
X1099036Y748464D01*
X1099133Y748565D01*
X1099228Y748668D01*
X1099320Y748774D01*
X1099409Y748883D01*
X1099495Y748993D01*
X1099578Y749107D01*
X1099657Y749222D01*
X1099734Y749340D01*
X1099807Y749460D01*
X1099876Y749581D01*
X1099942Y749705D01*
X1100005Y749831D01*
X1100064Y749958D01*
X1100119Y750087D01*
X1100171Y750217D01*
X1100219Y750349D01*
X1100264Y750482D01*
X1100305Y750616D01*
X1100342Y750751D01*
X1100375Y750887D01*
X1100404Y751025D01*
X1100429Y751162D01*
X1100451Y751301D01*
X1100469Y751440D01*
X1100482Y751580D01*
X1100492Y751720D01*
X1100498Y751860D01*
X1100500Y752000D01*
X1111500Y708000D02*
X1111500Y692000D01*
X1111502Y691860D01*
X1111508Y691720D01*
X1111518Y691580D01*
X1111531Y691440D01*
X1111549Y691301D01*
X1111571Y691162D01*
X1111596Y691025D01*
X1111625Y690887D01*
X1111658Y690751D01*
X1111695Y690616D01*
X1111736Y690482D01*
X1111781Y690349D01*
X1111829Y690217D01*
X1111881Y690087D01*
X1111936Y689958D01*
X1111995Y689831D01*
X1112058Y689705D01*
X1112124Y689581D01*
X1112193Y689460D01*
X1112266Y689340D01*
X1112343Y689222D01*
X1112422Y689107D01*
X1112505Y688993D01*
X1112591Y688883D01*
X1112680Y688774D01*
X1112772Y688668D01*
X1112867Y688565D01*
X1112964Y688464D01*
X1113065Y688367D01*
X1113168Y688272D01*
X1113274Y688180D01*
X1113383Y688091D01*
X1113493Y688005D01*
X1113607Y687922D01*
X1113722Y687843D01*
X1113840Y687766D01*
X1113960Y687693D01*
X1114081Y687624D01*
X1114205Y687558D01*
X1114331Y687495D01*
X1114458Y687436D01*
X1114587Y687381D01*
X1114717Y687329D01*
X1114849Y687281D01*
X1114982Y687236D01*
X1115116Y687195D01*
X1115251Y687158D01*
X1115387Y687125D01*
X1115525Y687096D01*
X1115662Y687071D01*
X1115801Y687049D01*
X1115940Y687031D01*
X1116080Y687018D01*
X1116220Y687008D01*
X1116360Y687002D01*
X1116500Y687000D01*
X1116640Y687002D01*
X1116780Y687008D01*
X1116920Y687018D01*
X1117060Y687031D01*
X1117199Y687049D01*
X1117338Y687071D01*
X1117475Y687096D01*
X1117613Y687125D01*
X1117749Y687158D01*
X1117884Y687195D01*
X1118018Y687236D01*
X1118151Y687281D01*
X1118283Y687329D01*
X1118413Y687381D01*
X1118542Y687436D01*
X1118669Y687495D01*
X1118795Y687558D01*
X1118919Y687624D01*
X1119040Y687693D01*
X1119160Y687766D01*
X1119278Y687843D01*
X1119393Y687922D01*
X1119507Y688005D01*
X1119617Y688091D01*
X1119726Y688180D01*
X1119832Y688272D01*
X1119935Y688367D01*
X1120036Y688464D01*
X1120133Y688565D01*
X1120228Y688668D01*
X1120320Y688774D01*
X1120409Y688883D01*
X1120495Y688993D01*
X1120578Y689107D01*
X1120657Y689222D01*
X1120734Y689340D01*
X1120807Y689460D01*
X1120876Y689581D01*
X1120942Y689705D01*
X1121005Y689831D01*
X1121064Y689958D01*
X1121119Y690087D01*
X1121171Y690217D01*
X1121219Y690349D01*
X1121264Y690482D01*
X1121305Y690616D01*
X1121342Y690751D01*
X1121375Y690887D01*
X1121404Y691025D01*
X1121429Y691162D01*
X1121451Y691301D01*
X1121469Y691440D01*
X1121482Y691580D01*
X1121492Y691720D01*
X1121498Y691860D01*
X1121500Y692000D01*
X1121500Y708000D01*
X1121498Y708140D01*
X1121492Y708280D01*
X1121482Y708420D01*
X1121469Y708560D01*
X1121451Y708699D01*
X1121429Y708838D01*
X1121404Y708975D01*
X1121375Y709113D01*
X1121342Y709249D01*
X1121305Y709384D01*
X1121264Y709518D01*
X1121219Y709651D01*
X1121171Y709783D01*
X1121119Y709913D01*
X1121064Y710042D01*
X1121005Y710169D01*
X1120942Y710295D01*
X1120876Y710419D01*
X1120807Y710540D01*
X1120734Y710660D01*
X1120657Y710778D01*
X1120578Y710893D01*
X1120495Y711007D01*
X1120409Y711117D01*
X1120320Y711226D01*
X1120228Y711332D01*
X1120133Y711435D01*
X1120036Y711536D01*
X1119935Y711633D01*
X1119832Y711728D01*
X1119726Y711820D01*
X1119617Y711909D01*
X1119507Y711995D01*
X1119393Y712078D01*
X1119278Y712157D01*
X1119160Y712234D01*
X1119040Y712307D01*
X1118919Y712376D01*
X1118795Y712442D01*
X1118669Y712505D01*
X1118542Y712564D01*
X1118413Y712619D01*
X1118283Y712671D01*
X1118151Y712719D01*
X1118018Y712764D01*
X1117884Y712805D01*
X1117749Y712842D01*
X1117613Y712875D01*
X1117475Y712904D01*
X1117338Y712929D01*
X1117199Y712951D01*
X1117060Y712969D01*
X1116920Y712982D01*
X1116780Y712992D01*
X1116640Y712998D01*
X1116500Y713000D01*
X1116360Y712998D01*
X1116220Y712992D01*
X1116080Y712982D01*
X1115940Y712969D01*
X1115801Y712951D01*
X1115662Y712929D01*
X1115525Y712904D01*
X1115387Y712875D01*
X1115251Y712842D01*
X1115116Y712805D01*
X1114982Y712764D01*
X1114849Y712719D01*
X1114717Y712671D01*
X1114587Y712619D01*
X1114458Y712564D01*
X1114331Y712505D01*
X1114205Y712442D01*
X1114081Y712376D01*
X1113960Y712307D01*
X1113840Y712234D01*
X1113722Y712157D01*
X1113607Y712078D01*
X1113493Y711995D01*
X1113383Y711909D01*
X1113274Y711820D01*
X1113168Y711728D01*
X1113065Y711633D01*
X1112964Y711536D01*
X1112867Y711435D01*
X1112772Y711332D01*
X1112680Y711226D01*
X1112591Y711117D01*
X1112505Y711007D01*
X1112422Y710893D01*
X1112343Y710778D01*
X1112266Y710660D01*
X1112193Y710540D01*
X1112124Y710419D01*
X1112058Y710295D01*
X1111995Y710169D01*
X1111936Y710042D01*
X1111881Y709913D01*
X1111829Y709783D01*
X1111781Y709651D01*
X1111736Y709518D01*
X1111695Y709384D01*
X1111658Y709249D01*
X1111625Y709113D01*
X1111596Y708975D01*
X1111571Y708838D01*
X1111549Y708699D01*
X1111531Y708560D01*
X1111518Y708420D01*
X1111508Y708280D01*
X1111502Y708140D01*
X1111500Y708000D01*
D13*
X319400Y1088900D02*
X319405Y1089293D01*
X319419Y1089685D01*
X319443Y1090077D01*
X319477Y1090468D01*
X319520Y1090859D01*
X319573Y1091248D01*
X319636Y1091635D01*
X319707Y1092021D01*
X319789Y1092406D01*
X319879Y1092788D01*
X319980Y1093167D01*
X320089Y1093545D01*
X320208Y1093919D01*
X320335Y1094290D01*
X320472Y1094658D01*
X320618Y1095023D01*
X320773Y1095384D01*
X320936Y1095741D01*
X321108Y1096094D01*
X321289Y1096442D01*
X321479Y1096786D01*
X321676Y1097126D01*
X321882Y1097460D01*
X322096Y1097789D01*
X322319Y1098113D01*
X322549Y1098431D01*
X322786Y1098744D01*
X323032Y1099050D01*
X323285Y1099351D01*
X323545Y1099645D01*
X323812Y1099933D01*
X324086Y1100214D01*
X324367Y1100488D01*
X324655Y1100755D01*
X324949Y1101015D01*
X325250Y1101268D01*
X325556Y1101514D01*
X325869Y1101751D01*
X326187Y1101981D01*
X326511Y1102204D01*
X326840Y1102418D01*
X327174Y1102624D01*
X327514Y1102821D01*
X327858Y1103011D01*
X328206Y1103192D01*
X328559Y1103364D01*
X328916Y1103527D01*
X329277Y1103682D01*
X329642Y1103828D01*
X330010Y1103965D01*
X330381Y1104092D01*
X330755Y1104211D01*
X331133Y1104320D01*
X331512Y1104421D01*
X331894Y1104511D01*
X332279Y1104593D01*
X332665Y1104664D01*
X333052Y1104727D01*
X333441Y1104780D01*
X333832Y1104823D01*
X334223Y1104857D01*
X334615Y1104881D01*
X335007Y1104895D01*
X335400Y1104900D01*
X335793Y1104895D01*
X336185Y1104881D01*
X336577Y1104857D01*
X336968Y1104823D01*
X337359Y1104780D01*
X337748Y1104727D01*
X338135Y1104664D01*
X338521Y1104593D01*
X338906Y1104511D01*
X339288Y1104421D01*
X339667Y1104320D01*
X340045Y1104211D01*
X340419Y1104092D01*
X340790Y1103965D01*
X341158Y1103828D01*
X341523Y1103682D01*
X341884Y1103527D01*
X342241Y1103364D01*
X342594Y1103192D01*
X342942Y1103011D01*
X343286Y1102821D01*
X343626Y1102624D01*
X343960Y1102418D01*
X344289Y1102204D01*
X344613Y1101981D01*
X344931Y1101751D01*
X345244Y1101514D01*
X345550Y1101268D01*
X345851Y1101015D01*
X346145Y1100755D01*
X346433Y1100488D01*
X346714Y1100214D01*
X346988Y1099933D01*
X347255Y1099645D01*
X347515Y1099351D01*
X347768Y1099050D01*
X348014Y1098744D01*
X348251Y1098431D01*
X348481Y1098113D01*
X348704Y1097789D01*
X348918Y1097460D01*
X349124Y1097126D01*
X349321Y1096786D01*
X349511Y1096442D01*
X349692Y1096094D01*
X349864Y1095741D01*
X350027Y1095384D01*
X350182Y1095023D01*
X350328Y1094658D01*
X350465Y1094290D01*
X350592Y1093919D01*
X350711Y1093545D01*
X350820Y1093167D01*
X350921Y1092788D01*
X351011Y1092406D01*
X351093Y1092021D01*
X351164Y1091635D01*
X351227Y1091248D01*
X351280Y1090859D01*
X351323Y1090468D01*
X351357Y1090077D01*
X351381Y1089685D01*
X351395Y1089293D01*
X351400Y1088900D01*
X351395Y1088507D01*
X351381Y1088115D01*
X351357Y1087723D01*
X351323Y1087332D01*
X351280Y1086941D01*
X351227Y1086552D01*
X351164Y1086165D01*
X351093Y1085779D01*
X351011Y1085394D01*
X350921Y1085012D01*
X350820Y1084633D01*
X350711Y1084255D01*
X350592Y1083881D01*
X350465Y1083510D01*
X350328Y1083142D01*
X350182Y1082777D01*
X350027Y1082416D01*
X349864Y1082059D01*
X349692Y1081706D01*
X349511Y1081358D01*
X349321Y1081014D01*
X349124Y1080674D01*
X348918Y1080340D01*
X348704Y1080011D01*
X348481Y1079687D01*
X348251Y1079369D01*
X348014Y1079056D01*
X347768Y1078750D01*
X347515Y1078449D01*
X347255Y1078155D01*
X346988Y1077867D01*
X346714Y1077586D01*
X346433Y1077312D01*
X346145Y1077045D01*
X345851Y1076785D01*
X345550Y1076532D01*
X345244Y1076286D01*
X344931Y1076049D01*
X344613Y1075819D01*
X344289Y1075596D01*
X343960Y1075382D01*
X343626Y1075176D01*
X343286Y1074979D01*
X342942Y1074789D01*
X342594Y1074608D01*
X342241Y1074436D01*
X341884Y1074273D01*
X341523Y1074118D01*
X341158Y1073972D01*
X340790Y1073835D01*
X340419Y1073708D01*
X340045Y1073589D01*
X339667Y1073480D01*
X339288Y1073379D01*
X338906Y1073289D01*
X338521Y1073207D01*
X338135Y1073136D01*
X337748Y1073073D01*
X337359Y1073020D01*
X336968Y1072977D01*
X336577Y1072943D01*
X336185Y1072919D01*
X335793Y1072905D01*
X335400Y1072900D01*
X335007Y1072905D01*
X334615Y1072919D01*
X334223Y1072943D01*
X333832Y1072977D01*
X333441Y1073020D01*
X333052Y1073073D01*
X332665Y1073136D01*
X332279Y1073207D01*
X331894Y1073289D01*
X331512Y1073379D01*
X331133Y1073480D01*
X330755Y1073589D01*
X330381Y1073708D01*
X330010Y1073835D01*
X329642Y1073972D01*
X329277Y1074118D01*
X328916Y1074273D01*
X328559Y1074436D01*
X328206Y1074608D01*
X327858Y1074789D01*
X327514Y1074979D01*
X327174Y1075176D01*
X326840Y1075382D01*
X326511Y1075596D01*
X326187Y1075819D01*
X325869Y1076049D01*
X325556Y1076286D01*
X325250Y1076532D01*
X324949Y1076785D01*
X324655Y1077045D01*
X324367Y1077312D01*
X324086Y1077586D01*
X323812Y1077867D01*
X323545Y1078155D01*
X323285Y1078449D01*
X323032Y1078750D01*
X322786Y1079056D01*
X322549Y1079369D01*
X322319Y1079687D01*
X322096Y1080011D01*
X321882Y1080340D01*
X321676Y1080674D01*
X321479Y1081014D01*
X321289Y1081358D01*
X321108Y1081706D01*
X320936Y1082059D01*
X320773Y1082416D01*
X320618Y1082777D01*
X320472Y1083142D01*
X320335Y1083510D01*
X320208Y1083881D01*
X320089Y1084255D01*
X319980Y1084633D01*
X319879Y1085012D01*
X319789Y1085394D01*
X319707Y1085779D01*
X319636Y1086165D01*
X319573Y1086552D01*
X319520Y1086941D01*
X319477Y1087332D01*
X319443Y1087723D01*
X319419Y1088115D01*
X319405Y1088507D01*
X319400Y1088900D01*
X397400Y1088900D02*
X397405Y1089293D01*
X397419Y1089685D01*
X397443Y1090077D01*
X397477Y1090468D01*
X397520Y1090859D01*
X397573Y1091248D01*
X397636Y1091635D01*
X397707Y1092021D01*
X397789Y1092406D01*
X397879Y1092788D01*
X397980Y1093167D01*
X398089Y1093545D01*
X398208Y1093919D01*
X398335Y1094290D01*
X398472Y1094658D01*
X398618Y1095023D01*
X398773Y1095384D01*
X398936Y1095741D01*
X399108Y1096094D01*
X399289Y1096442D01*
X399479Y1096786D01*
X399676Y1097126D01*
X399882Y1097460D01*
X400096Y1097789D01*
X400319Y1098113D01*
X400549Y1098431D01*
X400786Y1098744D01*
X401032Y1099050D01*
X401285Y1099351D01*
X401545Y1099645D01*
X401812Y1099933D01*
X402086Y1100214D01*
X402367Y1100488D01*
X402655Y1100755D01*
X402949Y1101015D01*
X403250Y1101268D01*
X403556Y1101514D01*
X403869Y1101751D01*
X404187Y1101981D01*
X404511Y1102204D01*
X404840Y1102418D01*
X405174Y1102624D01*
X405514Y1102821D01*
X405858Y1103011D01*
X406206Y1103192D01*
X406559Y1103364D01*
X406916Y1103527D01*
X407277Y1103682D01*
X407642Y1103828D01*
X408010Y1103965D01*
X408381Y1104092D01*
X408755Y1104211D01*
X409133Y1104320D01*
X409512Y1104421D01*
X409894Y1104511D01*
X410279Y1104593D01*
X410665Y1104664D01*
X411052Y1104727D01*
X411441Y1104780D01*
X411832Y1104823D01*
X412223Y1104857D01*
X412615Y1104881D01*
X413007Y1104895D01*
X413400Y1104900D01*
X413793Y1104895D01*
X414185Y1104881D01*
X414577Y1104857D01*
X414968Y1104823D01*
X415359Y1104780D01*
X415748Y1104727D01*
X416135Y1104664D01*
X416521Y1104593D01*
X416906Y1104511D01*
X417288Y1104421D01*
X417667Y1104320D01*
X418045Y1104211D01*
X418419Y1104092D01*
X418790Y1103965D01*
X419158Y1103828D01*
X419523Y1103682D01*
X419884Y1103527D01*
X420241Y1103364D01*
X420594Y1103192D01*
X420942Y1103011D01*
X421286Y1102821D01*
X421626Y1102624D01*
X421960Y1102418D01*
X422289Y1102204D01*
X422613Y1101981D01*
X422931Y1101751D01*
X423244Y1101514D01*
X423550Y1101268D01*
X423851Y1101015D01*
X424145Y1100755D01*
X424433Y1100488D01*
X424714Y1100214D01*
X424988Y1099933D01*
X425255Y1099645D01*
X425515Y1099351D01*
X425768Y1099050D01*
X426014Y1098744D01*
X426251Y1098431D01*
X426481Y1098113D01*
X426704Y1097789D01*
X426918Y1097460D01*
X427124Y1097126D01*
X427321Y1096786D01*
X427511Y1096442D01*
X427692Y1096094D01*
X427864Y1095741D01*
X428027Y1095384D01*
X428182Y1095023D01*
X428328Y1094658D01*
X428465Y1094290D01*
X428592Y1093919D01*
X428711Y1093545D01*
X428820Y1093167D01*
X428921Y1092788D01*
X429011Y1092406D01*
X429093Y1092021D01*
X429164Y1091635D01*
X429227Y1091248D01*
X429280Y1090859D01*
X429323Y1090468D01*
X429357Y1090077D01*
X429381Y1089685D01*
X429395Y1089293D01*
X429400Y1088900D01*
X429395Y1088507D01*
X429381Y1088115D01*
X429357Y1087723D01*
X429323Y1087332D01*
X429280Y1086941D01*
X429227Y1086552D01*
X429164Y1086165D01*
X429093Y1085779D01*
X429011Y1085394D01*
X428921Y1085012D01*
X428820Y1084633D01*
X428711Y1084255D01*
X428592Y1083881D01*
X428465Y1083510D01*
X428328Y1083142D01*
X428182Y1082777D01*
X428027Y1082416D01*
X427864Y1082059D01*
X427692Y1081706D01*
X427511Y1081358D01*
X427321Y1081014D01*
X427124Y1080674D01*
X426918Y1080340D01*
X426704Y1080011D01*
X426481Y1079687D01*
X426251Y1079369D01*
X426014Y1079056D01*
X425768Y1078750D01*
X425515Y1078449D01*
X425255Y1078155D01*
X424988Y1077867D01*
X424714Y1077586D01*
X424433Y1077312D01*
X424145Y1077045D01*
X423851Y1076785D01*
X423550Y1076532D01*
X423244Y1076286D01*
X422931Y1076049D01*
X422613Y1075819D01*
X422289Y1075596D01*
X421960Y1075382D01*
X421626Y1075176D01*
X421286Y1074979D01*
X420942Y1074789D01*
X420594Y1074608D01*
X420241Y1074436D01*
X419884Y1074273D01*
X419523Y1074118D01*
X419158Y1073972D01*
X418790Y1073835D01*
X418419Y1073708D01*
X418045Y1073589D01*
X417667Y1073480D01*
X417288Y1073379D01*
X416906Y1073289D01*
X416521Y1073207D01*
X416135Y1073136D01*
X415748Y1073073D01*
X415359Y1073020D01*
X414968Y1072977D01*
X414577Y1072943D01*
X414185Y1072919D01*
X413793Y1072905D01*
X413400Y1072900D01*
X413007Y1072905D01*
X412615Y1072919D01*
X412223Y1072943D01*
X411832Y1072977D01*
X411441Y1073020D01*
X411052Y1073073D01*
X410665Y1073136D01*
X410279Y1073207D01*
X409894Y1073289D01*
X409512Y1073379D01*
X409133Y1073480D01*
X408755Y1073589D01*
X408381Y1073708D01*
X408010Y1073835D01*
X407642Y1073972D01*
X407277Y1074118D01*
X406916Y1074273D01*
X406559Y1074436D01*
X406206Y1074608D01*
X405858Y1074789D01*
X405514Y1074979D01*
X405174Y1075176D01*
X404840Y1075382D01*
X404511Y1075596D01*
X404187Y1075819D01*
X403869Y1076049D01*
X403556Y1076286D01*
X403250Y1076532D01*
X402949Y1076785D01*
X402655Y1077045D01*
X402367Y1077312D01*
X402086Y1077586D01*
X401812Y1077867D01*
X401545Y1078155D01*
X401285Y1078449D01*
X401032Y1078750D01*
X400786Y1079056D01*
X400549Y1079369D01*
X400319Y1079687D01*
X400096Y1080011D01*
X399882Y1080340D01*
X399676Y1080674D01*
X399479Y1081014D01*
X399289Y1081358D01*
X399108Y1081706D01*
X398936Y1082059D01*
X398773Y1082416D01*
X398618Y1082777D01*
X398472Y1083142D01*
X398335Y1083510D01*
X398208Y1083881D01*
X398089Y1084255D01*
X397980Y1084633D01*
X397879Y1085012D01*
X397789Y1085394D01*
X397707Y1085779D01*
X397636Y1086165D01*
X397573Y1086552D01*
X397520Y1086941D01*
X397477Y1087332D01*
X397443Y1087723D01*
X397419Y1088115D01*
X397405Y1088507D01*
X397400Y1088900D01*
X448700Y1095600D02*
X448705Y1095993D01*
X448719Y1096385D01*
X448743Y1096777D01*
X448777Y1097168D01*
X448820Y1097559D01*
X448873Y1097948D01*
X448936Y1098335D01*
X449007Y1098721D01*
X449089Y1099106D01*
X449179Y1099488D01*
X449280Y1099867D01*
X449389Y1100245D01*
X449508Y1100619D01*
X449635Y1100990D01*
X449772Y1101358D01*
X449918Y1101723D01*
X450073Y1102084D01*
X450236Y1102441D01*
X450408Y1102794D01*
X450589Y1103142D01*
X450779Y1103486D01*
X450976Y1103826D01*
X451182Y1104160D01*
X451396Y1104489D01*
X451619Y1104813D01*
X451849Y1105131D01*
X452086Y1105444D01*
X452332Y1105750D01*
X452585Y1106051D01*
X452845Y1106345D01*
X453112Y1106633D01*
X453386Y1106914D01*
X453667Y1107188D01*
X453955Y1107455D01*
X454249Y1107715D01*
X454550Y1107968D01*
X454856Y1108214D01*
X455169Y1108451D01*
X455487Y1108681D01*
X455811Y1108904D01*
X456140Y1109118D01*
X456474Y1109324D01*
X456814Y1109521D01*
X457158Y1109711D01*
X457506Y1109892D01*
X457859Y1110064D01*
X458216Y1110227D01*
X458577Y1110382D01*
X458942Y1110528D01*
X459310Y1110665D01*
X459681Y1110792D01*
X460055Y1110911D01*
X460433Y1111020D01*
X460812Y1111121D01*
X461194Y1111211D01*
X461579Y1111293D01*
X461965Y1111364D01*
X462352Y1111427D01*
X462741Y1111480D01*
X463132Y1111523D01*
X463523Y1111557D01*
X463915Y1111581D01*
X464307Y1111595D01*
X464700Y1111600D01*
X465093Y1111595D01*
X465485Y1111581D01*
X465877Y1111557D01*
X466268Y1111523D01*
X466659Y1111480D01*
X467048Y1111427D01*
X467435Y1111364D01*
X467821Y1111293D01*
X468206Y1111211D01*
X468588Y1111121D01*
X468967Y1111020D01*
X469345Y1110911D01*
X469719Y1110792D01*
X470090Y1110665D01*
X470458Y1110528D01*
X470823Y1110382D01*
X471184Y1110227D01*
X471541Y1110064D01*
X471894Y1109892D01*
X472242Y1109711D01*
X472586Y1109521D01*
X472926Y1109324D01*
X473260Y1109118D01*
X473589Y1108904D01*
X473913Y1108681D01*
X474231Y1108451D01*
X474544Y1108214D01*
X474850Y1107968D01*
X475151Y1107715D01*
X475445Y1107455D01*
X475733Y1107188D01*
X476014Y1106914D01*
X476288Y1106633D01*
X476555Y1106345D01*
X476815Y1106051D01*
X477068Y1105750D01*
X477314Y1105444D01*
X477551Y1105131D01*
X477781Y1104813D01*
X478004Y1104489D01*
X478218Y1104160D01*
X478424Y1103826D01*
X478621Y1103486D01*
X478811Y1103142D01*
X478992Y1102794D01*
X479164Y1102441D01*
X479327Y1102084D01*
X479482Y1101723D01*
X479628Y1101358D01*
X479765Y1100990D01*
X479892Y1100619D01*
X480011Y1100245D01*
X480120Y1099867D01*
X480221Y1099488D01*
X480311Y1099106D01*
X480393Y1098721D01*
X480464Y1098335D01*
X480527Y1097948D01*
X480580Y1097559D01*
X480623Y1097168D01*
X480657Y1096777D01*
X480681Y1096385D01*
X480695Y1095993D01*
X480700Y1095600D01*
X480695Y1095207D01*
X480681Y1094815D01*
X480657Y1094423D01*
X480623Y1094032D01*
X480580Y1093641D01*
X480527Y1093252D01*
X480464Y1092865D01*
X480393Y1092479D01*
X480311Y1092094D01*
X480221Y1091712D01*
X480120Y1091333D01*
X480011Y1090955D01*
X479892Y1090581D01*
X479765Y1090210D01*
X479628Y1089842D01*
X479482Y1089477D01*
X479327Y1089116D01*
X479164Y1088759D01*
X478992Y1088406D01*
X478811Y1088058D01*
X478621Y1087714D01*
X478424Y1087374D01*
X478218Y1087040D01*
X478004Y1086711D01*
X477781Y1086387D01*
X477551Y1086069D01*
X477314Y1085756D01*
X477068Y1085450D01*
X476815Y1085149D01*
X476555Y1084855D01*
X476288Y1084567D01*
X476014Y1084286D01*
X475733Y1084012D01*
X475445Y1083745D01*
X475151Y1083485D01*
X474850Y1083232D01*
X474544Y1082986D01*
X474231Y1082749D01*
X473913Y1082519D01*
X473589Y1082296D01*
X473260Y1082082D01*
X472926Y1081876D01*
X472586Y1081679D01*
X472242Y1081489D01*
X471894Y1081308D01*
X471541Y1081136D01*
X471184Y1080973D01*
X470823Y1080818D01*
X470458Y1080672D01*
X470090Y1080535D01*
X469719Y1080408D01*
X469345Y1080289D01*
X468967Y1080180D01*
X468588Y1080079D01*
X468206Y1079989D01*
X467821Y1079907D01*
X467435Y1079836D01*
X467048Y1079773D01*
X466659Y1079720D01*
X466268Y1079677D01*
X465877Y1079643D01*
X465485Y1079619D01*
X465093Y1079605D01*
X464700Y1079600D01*
X464307Y1079605D01*
X463915Y1079619D01*
X463523Y1079643D01*
X463132Y1079677D01*
X462741Y1079720D01*
X462352Y1079773D01*
X461965Y1079836D01*
X461579Y1079907D01*
X461194Y1079989D01*
X460812Y1080079D01*
X460433Y1080180D01*
X460055Y1080289D01*
X459681Y1080408D01*
X459310Y1080535D01*
X458942Y1080672D01*
X458577Y1080818D01*
X458216Y1080973D01*
X457859Y1081136D01*
X457506Y1081308D01*
X457158Y1081489D01*
X456814Y1081679D01*
X456474Y1081876D01*
X456140Y1082082D01*
X455811Y1082296D01*
X455487Y1082519D01*
X455169Y1082749D01*
X454856Y1082986D01*
X454550Y1083232D01*
X454249Y1083485D01*
X453955Y1083745D01*
X453667Y1084012D01*
X453386Y1084286D01*
X453112Y1084567D01*
X452845Y1084855D01*
X452585Y1085149D01*
X452332Y1085450D01*
X452086Y1085756D01*
X451849Y1086069D01*
X451619Y1086387D01*
X451396Y1086711D01*
X451182Y1087040D01*
X450976Y1087374D01*
X450779Y1087714D01*
X450589Y1088058D01*
X450408Y1088406D01*
X450236Y1088759D01*
X450073Y1089116D01*
X449918Y1089477D01*
X449772Y1089842D01*
X449635Y1090210D01*
X449508Y1090581D01*
X449389Y1090955D01*
X449280Y1091333D01*
X449179Y1091712D01*
X449089Y1092094D01*
X449007Y1092479D01*
X448936Y1092865D01*
X448873Y1093252D01*
X448820Y1093641D01*
X448777Y1094032D01*
X448743Y1094423D01*
X448719Y1094815D01*
X448705Y1095207D01*
X448700Y1095600D01*
X548700Y1095600D02*
X548705Y1095993D01*
X548719Y1096385D01*
X548743Y1096777D01*
X548777Y1097168D01*
X548820Y1097559D01*
X548873Y1097948D01*
X548936Y1098335D01*
X549007Y1098721D01*
X549089Y1099106D01*
X549179Y1099488D01*
X549280Y1099867D01*
X549389Y1100245D01*
X549508Y1100619D01*
X549635Y1100990D01*
X549772Y1101358D01*
X549918Y1101723D01*
X550073Y1102084D01*
X550236Y1102441D01*
X550408Y1102794D01*
X550589Y1103142D01*
X550779Y1103486D01*
X550976Y1103826D01*
X551182Y1104160D01*
X551396Y1104489D01*
X551619Y1104813D01*
X551849Y1105131D01*
X552086Y1105444D01*
X552332Y1105750D01*
X552585Y1106051D01*
X552845Y1106345D01*
X553112Y1106633D01*
X553386Y1106914D01*
X553667Y1107188D01*
X553955Y1107455D01*
X554249Y1107715D01*
X554550Y1107968D01*
X554856Y1108214D01*
X555169Y1108451D01*
X555487Y1108681D01*
X555811Y1108904D01*
X556140Y1109118D01*
X556474Y1109324D01*
X556814Y1109521D01*
X557158Y1109711D01*
X557506Y1109892D01*
X557859Y1110064D01*
X558216Y1110227D01*
X558577Y1110382D01*
X558942Y1110528D01*
X559310Y1110665D01*
X559681Y1110792D01*
X560055Y1110911D01*
X560433Y1111020D01*
X560812Y1111121D01*
X561194Y1111211D01*
X561579Y1111293D01*
X561965Y1111364D01*
X562352Y1111427D01*
X562741Y1111480D01*
X563132Y1111523D01*
X563523Y1111557D01*
X563915Y1111581D01*
X564307Y1111595D01*
X564700Y1111600D01*
X565093Y1111595D01*
X565485Y1111581D01*
X565877Y1111557D01*
X566268Y1111523D01*
X566659Y1111480D01*
X567048Y1111427D01*
X567435Y1111364D01*
X567821Y1111293D01*
X568206Y1111211D01*
X568588Y1111121D01*
X568967Y1111020D01*
X569345Y1110911D01*
X569719Y1110792D01*
X570090Y1110665D01*
X570458Y1110528D01*
X570823Y1110382D01*
X571184Y1110227D01*
X571541Y1110064D01*
X571894Y1109892D01*
X572242Y1109711D01*
X572586Y1109521D01*
X572926Y1109324D01*
X573260Y1109118D01*
X573589Y1108904D01*
X573913Y1108681D01*
X574231Y1108451D01*
X574544Y1108214D01*
X574850Y1107968D01*
X575151Y1107715D01*
X575445Y1107455D01*
X575733Y1107188D01*
X576014Y1106914D01*
X576288Y1106633D01*
X576555Y1106345D01*
X576815Y1106051D01*
X577068Y1105750D01*
X577314Y1105444D01*
X577551Y1105131D01*
X577781Y1104813D01*
X578004Y1104489D01*
X578218Y1104160D01*
X578424Y1103826D01*
X578621Y1103486D01*
X578811Y1103142D01*
X578992Y1102794D01*
X579164Y1102441D01*
X579327Y1102084D01*
X579482Y1101723D01*
X579628Y1101358D01*
X579765Y1100990D01*
X579892Y1100619D01*
X580011Y1100245D01*
X580120Y1099867D01*
X580221Y1099488D01*
X580311Y1099106D01*
X580393Y1098721D01*
X580464Y1098335D01*
X580527Y1097948D01*
X580580Y1097559D01*
X580623Y1097168D01*
X580657Y1096777D01*
X580681Y1096385D01*
X580695Y1095993D01*
X580700Y1095600D01*
X580695Y1095207D01*
X580681Y1094815D01*
X580657Y1094423D01*
X580623Y1094032D01*
X580580Y1093641D01*
X580527Y1093252D01*
X580464Y1092865D01*
X580393Y1092479D01*
X580311Y1092094D01*
X580221Y1091712D01*
X580120Y1091333D01*
X580011Y1090955D01*
X579892Y1090581D01*
X579765Y1090210D01*
X579628Y1089842D01*
X579482Y1089477D01*
X579327Y1089116D01*
X579164Y1088759D01*
X578992Y1088406D01*
X578811Y1088058D01*
X578621Y1087714D01*
X578424Y1087374D01*
X578218Y1087040D01*
X578004Y1086711D01*
X577781Y1086387D01*
X577551Y1086069D01*
X577314Y1085756D01*
X577068Y1085450D01*
X576815Y1085149D01*
X576555Y1084855D01*
X576288Y1084567D01*
X576014Y1084286D01*
X575733Y1084012D01*
X575445Y1083745D01*
X575151Y1083485D01*
X574850Y1083232D01*
X574544Y1082986D01*
X574231Y1082749D01*
X573913Y1082519D01*
X573589Y1082296D01*
X573260Y1082082D01*
X572926Y1081876D01*
X572586Y1081679D01*
X572242Y1081489D01*
X571894Y1081308D01*
X571541Y1081136D01*
X571184Y1080973D01*
X570823Y1080818D01*
X570458Y1080672D01*
X570090Y1080535D01*
X569719Y1080408D01*
X569345Y1080289D01*
X568967Y1080180D01*
X568588Y1080079D01*
X568206Y1079989D01*
X567821Y1079907D01*
X567435Y1079836D01*
X567048Y1079773D01*
X566659Y1079720D01*
X566268Y1079677D01*
X565877Y1079643D01*
X565485Y1079619D01*
X565093Y1079605D01*
X564700Y1079600D01*
X564307Y1079605D01*
X563915Y1079619D01*
X563523Y1079643D01*
X563132Y1079677D01*
X562741Y1079720D01*
X562352Y1079773D01*
X561965Y1079836D01*
X561579Y1079907D01*
X561194Y1079989D01*
X560812Y1080079D01*
X560433Y1080180D01*
X560055Y1080289D01*
X559681Y1080408D01*
X559310Y1080535D01*
X558942Y1080672D01*
X558577Y1080818D01*
X558216Y1080973D01*
X557859Y1081136D01*
X557506Y1081308D01*
X557158Y1081489D01*
X556814Y1081679D01*
X556474Y1081876D01*
X556140Y1082082D01*
X555811Y1082296D01*
X555487Y1082519D01*
X555169Y1082749D01*
X554856Y1082986D01*
X554550Y1083232D01*
X554249Y1083485D01*
X553955Y1083745D01*
X553667Y1084012D01*
X553386Y1084286D01*
X553112Y1084567D01*
X552845Y1084855D01*
X552585Y1085149D01*
X552332Y1085450D01*
X552086Y1085756D01*
X551849Y1086069D01*
X551619Y1086387D01*
X551396Y1086711D01*
X551182Y1087040D01*
X550976Y1087374D01*
X550779Y1087714D01*
X550589Y1088058D01*
X550408Y1088406D01*
X550236Y1088759D01*
X550073Y1089116D01*
X549918Y1089477D01*
X549772Y1089842D01*
X549635Y1090210D01*
X549508Y1090581D01*
X549389Y1090955D01*
X549280Y1091333D01*
X549179Y1091712D01*
X549089Y1092094D01*
X549007Y1092479D01*
X548936Y1092865D01*
X548873Y1093252D01*
X548820Y1093641D01*
X548777Y1094032D01*
X548743Y1094423D01*
X548719Y1094815D01*
X548705Y1095207D01*
X548700Y1095600D01*
X266500Y1087700D02*
X266505Y1088093D01*
X266519Y1088485D01*
X266543Y1088877D01*
X266577Y1089268D01*
X266620Y1089659D01*
X266673Y1090048D01*
X266736Y1090435D01*
X266807Y1090821D01*
X266889Y1091206D01*
X266979Y1091588D01*
X267080Y1091967D01*
X267189Y1092345D01*
X267308Y1092719D01*
X267435Y1093090D01*
X267572Y1093458D01*
X267718Y1093823D01*
X267873Y1094184D01*
X268036Y1094541D01*
X268208Y1094894D01*
X268389Y1095242D01*
X268579Y1095586D01*
X268776Y1095926D01*
X268982Y1096260D01*
X269196Y1096589D01*
X269419Y1096913D01*
X269649Y1097231D01*
X269886Y1097544D01*
X270132Y1097850D01*
X270385Y1098151D01*
X270645Y1098445D01*
X270912Y1098733D01*
X271186Y1099014D01*
X271467Y1099288D01*
X271755Y1099555D01*
X272049Y1099815D01*
X272350Y1100068D01*
X272656Y1100314D01*
X272969Y1100551D01*
X273287Y1100781D01*
X273611Y1101004D01*
X273940Y1101218D01*
X274274Y1101424D01*
X274614Y1101621D01*
X274958Y1101811D01*
X275306Y1101992D01*
X275659Y1102164D01*
X276016Y1102327D01*
X276377Y1102482D01*
X276742Y1102628D01*
X277110Y1102765D01*
X277481Y1102892D01*
X277855Y1103011D01*
X278233Y1103120D01*
X278612Y1103221D01*
X278994Y1103311D01*
X279379Y1103393D01*
X279765Y1103464D01*
X280152Y1103527D01*
X280541Y1103580D01*
X280932Y1103623D01*
X281323Y1103657D01*
X281715Y1103681D01*
X282107Y1103695D01*
X282500Y1103700D01*
X282893Y1103695D01*
X283285Y1103681D01*
X283677Y1103657D01*
X284068Y1103623D01*
X284459Y1103580D01*
X284848Y1103527D01*
X285235Y1103464D01*
X285621Y1103393D01*
X286006Y1103311D01*
X286388Y1103221D01*
X286767Y1103120D01*
X287145Y1103011D01*
X287519Y1102892D01*
X287890Y1102765D01*
X288258Y1102628D01*
X288623Y1102482D01*
X288984Y1102327D01*
X289341Y1102164D01*
X289694Y1101992D01*
X290042Y1101811D01*
X290386Y1101621D01*
X290726Y1101424D01*
X291060Y1101218D01*
X291389Y1101004D01*
X291713Y1100781D01*
X292031Y1100551D01*
X292344Y1100314D01*
X292650Y1100068D01*
X292951Y1099815D01*
X293245Y1099555D01*
X293533Y1099288D01*
X293814Y1099014D01*
X294088Y1098733D01*
X294355Y1098445D01*
X294615Y1098151D01*
X294868Y1097850D01*
X295114Y1097544D01*
X295351Y1097231D01*
X295581Y1096913D01*
X295804Y1096589D01*
X296018Y1096260D01*
X296224Y1095926D01*
X296421Y1095586D01*
X296611Y1095242D01*
X296792Y1094894D01*
X296964Y1094541D01*
X297127Y1094184D01*
X297282Y1093823D01*
X297428Y1093458D01*
X297565Y1093090D01*
X297692Y1092719D01*
X297811Y1092345D01*
X297920Y1091967D01*
X298021Y1091588D01*
X298111Y1091206D01*
X298193Y1090821D01*
X298264Y1090435D01*
X298327Y1090048D01*
X298380Y1089659D01*
X298423Y1089268D01*
X298457Y1088877D01*
X298481Y1088485D01*
X298495Y1088093D01*
X298500Y1087700D01*
X298495Y1087307D01*
X298481Y1086915D01*
X298457Y1086523D01*
X298423Y1086132D01*
X298380Y1085741D01*
X298327Y1085352D01*
X298264Y1084965D01*
X298193Y1084579D01*
X298111Y1084194D01*
X298021Y1083812D01*
X297920Y1083433D01*
X297811Y1083055D01*
X297692Y1082681D01*
X297565Y1082310D01*
X297428Y1081942D01*
X297282Y1081577D01*
X297127Y1081216D01*
X296964Y1080859D01*
X296792Y1080506D01*
X296611Y1080158D01*
X296421Y1079814D01*
X296224Y1079474D01*
X296018Y1079140D01*
X295804Y1078811D01*
X295581Y1078487D01*
X295351Y1078169D01*
X295114Y1077856D01*
X294868Y1077550D01*
X294615Y1077249D01*
X294355Y1076955D01*
X294088Y1076667D01*
X293814Y1076386D01*
X293533Y1076112D01*
X293245Y1075845D01*
X292951Y1075585D01*
X292650Y1075332D01*
X292344Y1075086D01*
X292031Y1074849D01*
X291713Y1074619D01*
X291389Y1074396D01*
X291060Y1074182D01*
X290726Y1073976D01*
X290386Y1073779D01*
X290042Y1073589D01*
X289694Y1073408D01*
X289341Y1073236D01*
X288984Y1073073D01*
X288623Y1072918D01*
X288258Y1072772D01*
X287890Y1072635D01*
X287519Y1072508D01*
X287145Y1072389D01*
X286767Y1072280D01*
X286388Y1072179D01*
X286006Y1072089D01*
X285621Y1072007D01*
X285235Y1071936D01*
X284848Y1071873D01*
X284459Y1071820D01*
X284068Y1071777D01*
X283677Y1071743D01*
X283285Y1071719D01*
X282893Y1071705D01*
X282500Y1071700D01*
X282107Y1071705D01*
X281715Y1071719D01*
X281323Y1071743D01*
X280932Y1071777D01*
X280541Y1071820D01*
X280152Y1071873D01*
X279765Y1071936D01*
X279379Y1072007D01*
X278994Y1072089D01*
X278612Y1072179D01*
X278233Y1072280D01*
X277855Y1072389D01*
X277481Y1072508D01*
X277110Y1072635D01*
X276742Y1072772D01*
X276377Y1072918D01*
X276016Y1073073D01*
X275659Y1073236D01*
X275306Y1073408D01*
X274958Y1073589D01*
X274614Y1073779D01*
X274274Y1073976D01*
X273940Y1074182D01*
X273611Y1074396D01*
X273287Y1074619D01*
X272969Y1074849D01*
X272656Y1075086D01*
X272350Y1075332D01*
X272049Y1075585D01*
X271755Y1075845D01*
X271467Y1076112D01*
X271186Y1076386D01*
X270912Y1076667D01*
X270645Y1076955D01*
X270385Y1077249D01*
X270132Y1077550D01*
X269886Y1077856D01*
X269649Y1078169D01*
X269419Y1078487D01*
X269196Y1078811D01*
X268982Y1079140D01*
X268776Y1079474D01*
X268579Y1079814D01*
X268389Y1080158D01*
X268208Y1080506D01*
X268036Y1080859D01*
X267873Y1081216D01*
X267718Y1081577D01*
X267572Y1081942D01*
X267435Y1082310D01*
X267308Y1082681D01*
X267189Y1083055D01*
X267080Y1083433D01*
X266979Y1083812D01*
X266889Y1084194D01*
X266807Y1084579D01*
X266736Y1084965D01*
X266673Y1085352D01*
X266620Y1085741D01*
X266577Y1086132D01*
X266543Y1086523D01*
X266519Y1086915D01*
X266505Y1087307D01*
X266500Y1087700D01*
X101500Y1087700D02*
X101505Y1088093D01*
X101519Y1088485D01*
X101543Y1088877D01*
X101577Y1089268D01*
X101620Y1089659D01*
X101673Y1090048D01*
X101736Y1090435D01*
X101807Y1090821D01*
X101889Y1091206D01*
X101979Y1091588D01*
X102080Y1091967D01*
X102189Y1092345D01*
X102308Y1092719D01*
X102435Y1093090D01*
X102572Y1093458D01*
X102718Y1093823D01*
X102873Y1094184D01*
X103036Y1094541D01*
X103208Y1094894D01*
X103389Y1095242D01*
X103579Y1095586D01*
X103776Y1095926D01*
X103982Y1096260D01*
X104196Y1096589D01*
X104419Y1096913D01*
X104649Y1097231D01*
X104886Y1097544D01*
X105132Y1097850D01*
X105385Y1098151D01*
X105645Y1098445D01*
X105912Y1098733D01*
X106186Y1099014D01*
X106467Y1099288D01*
X106755Y1099555D01*
X107049Y1099815D01*
X107350Y1100068D01*
X107656Y1100314D01*
X107969Y1100551D01*
X108287Y1100781D01*
X108611Y1101004D01*
X108940Y1101218D01*
X109274Y1101424D01*
X109614Y1101621D01*
X109958Y1101811D01*
X110306Y1101992D01*
X110659Y1102164D01*
X111016Y1102327D01*
X111377Y1102482D01*
X111742Y1102628D01*
X112110Y1102765D01*
X112481Y1102892D01*
X112855Y1103011D01*
X113233Y1103120D01*
X113612Y1103221D01*
X113994Y1103311D01*
X114379Y1103393D01*
X114765Y1103464D01*
X115152Y1103527D01*
X115541Y1103580D01*
X115932Y1103623D01*
X116323Y1103657D01*
X116715Y1103681D01*
X117107Y1103695D01*
X117500Y1103700D01*
X117893Y1103695D01*
X118285Y1103681D01*
X118677Y1103657D01*
X119068Y1103623D01*
X119459Y1103580D01*
X119848Y1103527D01*
X120235Y1103464D01*
X120621Y1103393D01*
X121006Y1103311D01*
X121388Y1103221D01*
X121767Y1103120D01*
X122145Y1103011D01*
X122519Y1102892D01*
X122890Y1102765D01*
X123258Y1102628D01*
X123623Y1102482D01*
X123984Y1102327D01*
X124341Y1102164D01*
X124694Y1101992D01*
X125042Y1101811D01*
X125386Y1101621D01*
X125726Y1101424D01*
X126060Y1101218D01*
X126389Y1101004D01*
X126713Y1100781D01*
X127031Y1100551D01*
X127344Y1100314D01*
X127650Y1100068D01*
X127951Y1099815D01*
X128245Y1099555D01*
X128533Y1099288D01*
X128814Y1099014D01*
X129088Y1098733D01*
X129355Y1098445D01*
X129615Y1098151D01*
X129868Y1097850D01*
X130114Y1097544D01*
X130351Y1097231D01*
X130581Y1096913D01*
X130804Y1096589D01*
X131018Y1096260D01*
X131224Y1095926D01*
X131421Y1095586D01*
X131611Y1095242D01*
X131792Y1094894D01*
X131964Y1094541D01*
X132127Y1094184D01*
X132282Y1093823D01*
X132428Y1093458D01*
X132565Y1093090D01*
X132692Y1092719D01*
X132811Y1092345D01*
X132920Y1091967D01*
X133021Y1091588D01*
X133111Y1091206D01*
X133193Y1090821D01*
X133264Y1090435D01*
X133327Y1090048D01*
X133380Y1089659D01*
X133423Y1089268D01*
X133457Y1088877D01*
X133481Y1088485D01*
X133495Y1088093D01*
X133500Y1087700D01*
X133495Y1087307D01*
X133481Y1086915D01*
X133457Y1086523D01*
X133423Y1086132D01*
X133380Y1085741D01*
X133327Y1085352D01*
X133264Y1084965D01*
X133193Y1084579D01*
X133111Y1084194D01*
X133021Y1083812D01*
X132920Y1083433D01*
X132811Y1083055D01*
X132692Y1082681D01*
X132565Y1082310D01*
X132428Y1081942D01*
X132282Y1081577D01*
X132127Y1081216D01*
X131964Y1080859D01*
X131792Y1080506D01*
X131611Y1080158D01*
X131421Y1079814D01*
X131224Y1079474D01*
X131018Y1079140D01*
X130804Y1078811D01*
X130581Y1078487D01*
X130351Y1078169D01*
X130114Y1077856D01*
X129868Y1077550D01*
X129615Y1077249D01*
X129355Y1076955D01*
X129088Y1076667D01*
X128814Y1076386D01*
X128533Y1076112D01*
X128245Y1075845D01*
X127951Y1075585D01*
X127650Y1075332D01*
X127344Y1075086D01*
X127031Y1074849D01*
X126713Y1074619D01*
X126389Y1074396D01*
X126060Y1074182D01*
X125726Y1073976D01*
X125386Y1073779D01*
X125042Y1073589D01*
X124694Y1073408D01*
X124341Y1073236D01*
X123984Y1073073D01*
X123623Y1072918D01*
X123258Y1072772D01*
X122890Y1072635D01*
X122519Y1072508D01*
X122145Y1072389D01*
X121767Y1072280D01*
X121388Y1072179D01*
X121006Y1072089D01*
X120621Y1072007D01*
X120235Y1071936D01*
X119848Y1071873D01*
X119459Y1071820D01*
X119068Y1071777D01*
X118677Y1071743D01*
X118285Y1071719D01*
X117893Y1071705D01*
X117500Y1071700D01*
X117107Y1071705D01*
X116715Y1071719D01*
X116323Y1071743D01*
X115932Y1071777D01*
X115541Y1071820D01*
X115152Y1071873D01*
X114765Y1071936D01*
X114379Y1072007D01*
X113994Y1072089D01*
X113612Y1072179D01*
X113233Y1072280D01*
X112855Y1072389D01*
X112481Y1072508D01*
X112110Y1072635D01*
X111742Y1072772D01*
X111377Y1072918D01*
X111016Y1073073D01*
X110659Y1073236D01*
X110306Y1073408D01*
X109958Y1073589D01*
X109614Y1073779D01*
X109274Y1073976D01*
X108940Y1074182D01*
X108611Y1074396D01*
X108287Y1074619D01*
X107969Y1074849D01*
X107656Y1075086D01*
X107350Y1075332D01*
X107049Y1075585D01*
X106755Y1075845D01*
X106467Y1076112D01*
X106186Y1076386D01*
X105912Y1076667D01*
X105645Y1076955D01*
X105385Y1077249D01*
X105132Y1077550D01*
X104886Y1077856D01*
X104649Y1078169D01*
X104419Y1078487D01*
X104196Y1078811D01*
X103982Y1079140D01*
X103776Y1079474D01*
X103579Y1079814D01*
X103389Y1080158D01*
X103208Y1080506D01*
X103036Y1080859D01*
X102873Y1081216D01*
X102718Y1081577D01*
X102572Y1081942D01*
X102435Y1082310D01*
X102308Y1082681D01*
X102189Y1083055D01*
X102080Y1083433D01*
X101979Y1083812D01*
X101889Y1084194D01*
X101807Y1084579D01*
X101736Y1084965D01*
X101673Y1085352D01*
X101620Y1085741D01*
X101577Y1086132D01*
X101543Y1086523D01*
X101519Y1086915D01*
X101505Y1087307D01*
X101500Y1087700D01*
M02*
