G04 EAGLE Gerber RS-274X export*
G75*
%MOMM*%
%FSLAX34Y34*%
%LPD*%
%INSolderpaste Bottom*%
%IPPOS*%
%AMOC8*
5,1,8,0,0,1.08239X$1,22.5*%
G01*
%ADD10R,2.700000X1.600000*%
%ADD11R,1.400000X1.400000*%
%ADD12R,0.800000X0.800000*%
%ADD13R,1.000000X1.100000*%
%ADD14C,2.500000*%
%ADD15C,2.000000*%


D10*
X975400Y381400D03*
X975400Y353400D03*
D11*
X899000Y300000D03*
X861000Y300000D03*
X861000Y180000D03*
X899000Y180000D03*
X1001000Y180000D03*
X1039000Y180000D03*
X1039000Y300000D03*
X1001000Y300000D03*
D12*
X1003100Y353700D03*
X1018100Y353700D03*
D13*
X1002500Y385900D03*
X1019500Y385900D03*
D14*
X939500Y278000D02*
X939500Y262000D01*
D15*
X875000Y210000D02*
X815000Y210000D01*
D14*
X960500Y218000D02*
X960500Y202000D01*
X1095500Y262000D02*
X1095500Y278000D01*
D15*
X1181000Y270000D02*
X1241000Y270000D01*
D14*
X1116500Y218000D02*
X1116500Y202000D01*
D11*
X1195000Y300000D03*
X1157000Y300000D03*
X1157000Y180000D03*
X1195000Y180000D03*
X976000Y410000D03*
X1014000Y410000D03*
D12*
X840000Y320000D03*
X840000Y330000D03*
X985000Y320000D03*
X985000Y330000D03*
X1140000Y320000D03*
X1140000Y330000D03*
D10*
X975400Y871400D03*
X975400Y843400D03*
D11*
X899000Y790000D03*
X861000Y790000D03*
X861000Y670000D03*
X899000Y670000D03*
X1001000Y670000D03*
X1039000Y670000D03*
X1039000Y790000D03*
X1001000Y790000D03*
D12*
X1003100Y843700D03*
X1018100Y843700D03*
D13*
X1002500Y875900D03*
X1019500Y875900D03*
D14*
X939500Y768000D02*
X939500Y752000D01*
D15*
X875000Y700000D02*
X815000Y700000D01*
D14*
X960500Y708000D02*
X960500Y692000D01*
X1095500Y752000D02*
X1095500Y768000D01*
D15*
X1181000Y760000D02*
X1241000Y760000D01*
D14*
X1116500Y708000D02*
X1116500Y692000D01*
D11*
X1195000Y790000D03*
X1157000Y790000D03*
X1157000Y670000D03*
X1195000Y670000D03*
X976000Y900000D03*
X1014000Y900000D03*
D12*
X840000Y810000D03*
X840000Y820000D03*
X985000Y810000D03*
X985000Y820000D03*
X1140000Y810000D03*
X1140000Y820000D03*
M02*
