G04 EAGLE Gerber RS-274X export*
G75*
%MOMM*%
%FSLAX34Y34*%
%LPD*%
%INSoldermask Top*%
%IPPOS*%
%AMOC8*
5,1,8,0,0,1.08239X$1,22.5*%
G01*
%ADD10C,2.203200*%
%ADD11C,1.727200*%
%ADD12C,2.203200*%
%ADD13C,1.603200*%
%ADD14P,1.635708X8X22.500000*%
%ADD15R,1.003200X1.003200*%
%ADD16P,1.852186X8X180.000000*%
%ADD17P,1.852186X8X337.500000*%
%ADD18P,1.852186X8X292.500000*%
%ADD19R,1.203200X1.303200*%
%ADD20R,1.303200X1.203200*%
%ADD21P,1.852186X8X22.500000*%
%ADD22R,1.463200X0.563200*%
%ADD23C,1.211200*%
%ADD24R,1.727200X1.727200*%
%ADD25P,1.869504X8X292.500000*%
%ADD26R,0.703200X0.903200*%
%ADD27R,0.903200X0.703200*%
%ADD28R,1.727200X1.727200*%
%ADD29P,1.869504X8X247.500000*%
%ADD30P,1.869504X8X202.500000*%
%ADD31P,1.852186X8X247.500000*%
%ADD32P,1.869504X8X157.500000*%
%ADD33P,1.852186X8X202.500000*%
%ADD34P,1.869504X8X112.500000*%
%ADD35P,1.852186X8X157.500000*%
%ADD36P,1.869504X8X67.500000*%
%ADD37P,1.852186X8X112.500000*%
%ADD38P,1.869504X8X22.500000*%
%ADD39P,1.852186X8X67.500000*%
%ADD40P,1.869504X8X337.500000*%
%ADD41R,2.203200X2.203200*%
%ADD42P,2.384722X8X192.500000*%
%ADD43P,2.384722X8X147.500000*%
%ADD44P,2.384722X8X102.500000*%
%ADD45P,2.384722X8X237.500000*%
%ADD46P,2.384722X8X57.500000*%
%ADD47P,2.384722X8X372.500000*%
%ADD48P,2.384722X8X327.500000*%
%ADD49P,2.384722X8X282.500000*%
%ADD50C,3.403200*%
%ADD51R,1.203200X0.653200*%
%ADD52R,1.403200X1.003200*%
%ADD53C,1.109600*%
%ADD54C,0.959600*%
%ADD55C,1.703200*%


D10*
X1235000Y1080000D03*
D11*
X1040700Y452620D02*
X1040700Y437380D01*
X1015300Y437380D02*
X1015300Y452620D01*
D12*
X895000Y270000D02*
X815000Y270000D01*
D13*
X939500Y262000D02*
X939500Y278000D01*
D12*
X929000Y210000D02*
X849000Y210000D01*
X1005000Y210000D02*
X1085000Y210000D01*
D13*
X960500Y218000D02*
X960500Y202000D01*
D12*
X971000Y270000D02*
X1051000Y270000D01*
D13*
X1095500Y262000D02*
X1095500Y278000D01*
D11*
X1015300Y36620D02*
X1015300Y21380D01*
X1040700Y21380D02*
X1040700Y36620D01*
D14*
X1070500Y35000D03*
X1095500Y35000D03*
D15*
X1023000Y52000D03*
X1033000Y52000D03*
D12*
X1127000Y270000D02*
X1207000Y270000D01*
X1241000Y210000D02*
X1161000Y210000D01*
D13*
X1116500Y218000D02*
X1116500Y202000D01*
D11*
X1040700Y927380D02*
X1040700Y942620D01*
X1015300Y942620D02*
X1015300Y927380D01*
D12*
X895000Y760000D02*
X815000Y760000D01*
D13*
X939500Y752000D02*
X939500Y768000D01*
D12*
X929000Y700000D02*
X849000Y700000D01*
X1005000Y700000D02*
X1085000Y700000D01*
D13*
X960500Y708000D02*
X960500Y692000D01*
D12*
X971000Y760000D02*
X1051000Y760000D01*
D13*
X1095500Y752000D02*
X1095500Y768000D01*
D11*
X1015300Y526620D02*
X1015300Y511380D01*
X1040700Y511380D02*
X1040700Y526620D01*
D14*
X1070500Y525000D03*
X1095500Y525000D03*
D15*
X1023000Y542000D03*
X1033000Y542000D03*
D12*
X1127000Y760000D02*
X1207000Y760000D01*
X1241000Y700000D02*
X1161000Y700000D01*
D13*
X1116500Y708000D02*
X1116500Y692000D01*
D16*
X450312Y567444D03*
X473408Y557876D03*
D17*
X217339Y93061D03*
X199661Y110739D03*
D18*
X57900Y302000D03*
X57900Y327000D03*
D19*
X447800Y110200D03*
X430800Y110200D03*
G36*
X324769Y128811D02*
X320164Y117696D01*
X308125Y122683D01*
X312730Y133798D01*
X324769Y128811D01*
G37*
G36*
X331275Y144517D02*
X326670Y133402D01*
X314631Y138389D01*
X319236Y149504D01*
X331275Y144517D01*
G37*
X430800Y89100D03*
X447800Y89100D03*
D20*
X502900Y93000D03*
X502900Y110000D03*
D19*
G36*
X292363Y102851D02*
X300871Y94343D01*
X291657Y85129D01*
X283149Y93637D01*
X292363Y102851D01*
G37*
G36*
X280343Y114871D02*
X288851Y106363D01*
X279637Y97149D01*
X271129Y105657D01*
X280343Y114871D01*
G37*
G36*
X264637Y82149D02*
X256129Y90657D01*
X265343Y99871D01*
X273851Y91363D01*
X264637Y82149D01*
G37*
G36*
X276657Y70129D02*
X268149Y78637D01*
X277363Y87851D01*
X285871Y79343D01*
X276657Y70129D01*
G37*
G36*
X322249Y53263D02*
X330757Y61771D01*
X339971Y52557D01*
X331463Y44049D01*
X322249Y53263D01*
G37*
G36*
X310229Y41243D02*
X318737Y49751D01*
X327951Y40537D01*
X319443Y32029D01*
X310229Y41243D01*
G37*
D20*
X109000Y330500D03*
X109000Y347500D03*
X88100Y347400D03*
X88100Y330400D03*
D21*
X390000Y151800D03*
X390000Y101000D03*
X390000Y50200D03*
D22*
G36*
X267485Y153395D02*
X261886Y139878D01*
X256683Y142033D01*
X262282Y155550D01*
X267485Y153395D01*
G37*
G36*
X273490Y150907D02*
X267891Y137390D01*
X262688Y139545D01*
X268287Y153062D01*
X273490Y150907D01*
G37*
G36*
X279495Y148420D02*
X273896Y134903D01*
X268693Y137058D01*
X274292Y150575D01*
X279495Y148420D01*
G37*
G36*
X285501Y145932D02*
X279902Y132415D01*
X274699Y134570D01*
X280298Y148087D01*
X285501Y145932D01*
G37*
G36*
X291506Y143445D02*
X285907Y129928D01*
X280704Y132083D01*
X286303Y145600D01*
X291506Y143445D01*
G37*
G36*
X297511Y140957D02*
X291912Y127440D01*
X286709Y129595D01*
X292308Y143112D01*
X297511Y140957D01*
G37*
G36*
X303516Y138470D02*
X297917Y124953D01*
X292714Y127108D01*
X298313Y140625D01*
X303516Y138470D01*
G37*
G36*
X309521Y135982D02*
X303922Y122465D01*
X298719Y124620D01*
X304318Y138137D01*
X309521Y135982D01*
G37*
G36*
X320915Y178205D02*
X326514Y191722D01*
X331717Y189567D01*
X326118Y176050D01*
X320915Y178205D01*
G37*
G36*
X314910Y180693D02*
X320509Y194210D01*
X325712Y192055D01*
X320113Y178538D01*
X314910Y180693D01*
G37*
G36*
X308905Y183180D02*
X314504Y196697D01*
X319707Y194542D01*
X314108Y181025D01*
X308905Y183180D01*
G37*
G36*
X302899Y185668D02*
X308498Y199185D01*
X313701Y197030D01*
X308102Y183513D01*
X302899Y185668D01*
G37*
G36*
X296894Y188155D02*
X302493Y201672D01*
X307696Y199517D01*
X302097Y186000D01*
X296894Y188155D01*
G37*
G36*
X290889Y190643D02*
X296488Y204160D01*
X301691Y202005D01*
X296092Y188488D01*
X290889Y190643D01*
G37*
G36*
X284884Y193130D02*
X290483Y206647D01*
X295686Y204492D01*
X290087Y190975D01*
X284884Y193130D01*
G37*
G36*
X278879Y195618D02*
X284478Y209135D01*
X289681Y206980D01*
X284082Y193463D01*
X278879Y195618D01*
G37*
D17*
X221571Y221571D03*
X185650Y185650D03*
X149729Y149729D03*
D18*
X151800Y390000D03*
X101000Y390000D03*
X50200Y390000D03*
D23*
X345088Y216127D02*
X341230Y206814D01*
X329682Y211598D02*
X333539Y220910D01*
X321991Y225694D02*
X318133Y216381D01*
X306585Y221165D02*
X310442Y230477D01*
X298894Y235261D02*
X295036Y225948D01*
D24*
X377300Y21000D03*
D25*
X402700Y21000D03*
D26*
X484000Y112500D03*
X474000Y112500D03*
X464000Y112500D03*
X464000Y89500D03*
X474000Y89500D03*
X484000Y89500D03*
D27*
G36*
X311524Y69354D02*
X317910Y75740D01*
X322882Y70768D01*
X316496Y64382D01*
X311524Y69354D01*
G37*
G36*
X304453Y76425D02*
X310839Y82811D01*
X315811Y77839D01*
X309425Y71453D01*
X304453Y76425D01*
G37*
G36*
X297382Y83496D02*
X303768Y89882D01*
X308740Y84910D01*
X302354Y78524D01*
X297382Y83496D01*
G37*
G36*
X281118Y67232D02*
X287504Y73618D01*
X292476Y68646D01*
X286090Y62260D01*
X281118Y67232D01*
G37*
G36*
X288189Y60161D02*
X294575Y66547D01*
X299547Y61575D01*
X293161Y55189D01*
X288189Y60161D01*
G37*
G36*
X295260Y53090D02*
X301646Y59476D01*
X306618Y54504D01*
X300232Y48118D01*
X295260Y53090D01*
G37*
X111500Y295000D03*
X111500Y305000D03*
X111500Y315000D03*
X88500Y315000D03*
X88500Y305000D03*
X88500Y295000D03*
D21*
X477000Y58900D03*
X452000Y58900D03*
D28*
G36*
X107887Y138060D02*
X120100Y150273D01*
X132313Y138060D01*
X120100Y125847D01*
X107887Y138060D01*
G37*
D29*
X138060Y120100D03*
D24*
X21000Y402700D03*
D30*
X21000Y377300D03*
D19*
X109500Y275000D03*
X92500Y275000D03*
G36*
X158851Y545637D02*
X150343Y537129D01*
X141129Y546343D01*
X149637Y554851D01*
X158851Y545637D01*
G37*
G36*
X170871Y557657D02*
X162363Y549149D01*
X153149Y558363D01*
X161657Y566871D01*
X170871Y557657D01*
G37*
G36*
X138149Y573363D02*
X146657Y581871D01*
X155871Y572657D01*
X147363Y564149D01*
X138149Y573363D01*
G37*
G36*
X126129Y561343D02*
X134637Y569851D01*
X143851Y560637D01*
X135343Y552129D01*
X126129Y561343D01*
G37*
D31*
X93661Y562061D03*
X111339Y579739D03*
X221571Y558429D03*
X185650Y594350D03*
X149729Y630271D03*
D27*
G36*
X126354Y525476D02*
X132740Y519090D01*
X127768Y514118D01*
X121382Y520504D01*
X126354Y525476D01*
G37*
G36*
X133425Y532547D02*
X139811Y526161D01*
X134839Y521189D01*
X128453Y527575D01*
X133425Y532547D01*
G37*
G36*
X140496Y539618D02*
X146882Y533232D01*
X141910Y528260D01*
X135524Y534646D01*
X140496Y539618D01*
G37*
G36*
X124232Y555882D02*
X130618Y549496D01*
X125646Y544524D01*
X119260Y550910D01*
X124232Y555882D01*
G37*
G36*
X117161Y548811D02*
X123547Y542425D01*
X118575Y537453D01*
X112189Y543839D01*
X117161Y548811D01*
G37*
G36*
X110090Y541740D02*
X116476Y535354D01*
X111504Y530382D01*
X105118Y536768D01*
X110090Y541740D01*
G37*
D28*
G36*
X138060Y672113D02*
X150273Y659900D01*
X138060Y647687D01*
X125847Y659900D01*
X138060Y672113D01*
G37*
D32*
X120100Y641940D03*
D19*
G36*
X112363Y515851D02*
X120871Y507343D01*
X111657Y498129D01*
X103149Y506637D01*
X112363Y515851D01*
G37*
G36*
X100343Y527871D02*
X108851Y519363D01*
X99637Y510149D01*
X91129Y518657D01*
X100343Y527871D01*
G37*
X331500Y671000D03*
X348500Y671000D03*
X348500Y692000D03*
X331500Y692000D03*
D33*
X302000Y722100D03*
X327000Y722100D03*
X390000Y628200D03*
X390000Y679000D03*
X390000Y729800D03*
D26*
X295000Y669500D03*
X305000Y669500D03*
X315000Y669500D03*
X315000Y692500D03*
X305000Y692500D03*
X295000Y692500D03*
D24*
X402700Y759000D03*
D34*
X377300Y759000D03*
D20*
X275000Y671500D03*
X275000Y688500D03*
D19*
G36*
X545637Y621149D02*
X537129Y629657D01*
X546343Y638871D01*
X554851Y630363D01*
X545637Y621149D01*
G37*
G36*
X557657Y609129D02*
X549149Y617637D01*
X558363Y626851D01*
X566871Y618343D01*
X557657Y609129D01*
G37*
G36*
X573363Y641851D02*
X581871Y633343D01*
X572657Y624129D01*
X564149Y632637D01*
X573363Y641851D01*
G37*
G36*
X561343Y653871D02*
X569851Y645363D01*
X560637Y636149D01*
X552129Y644657D01*
X561343Y653871D01*
G37*
D35*
X562661Y686739D03*
X580339Y669061D03*
X558429Y558429D03*
X594350Y594350D03*
X630271Y630271D03*
D27*
G36*
X526476Y653646D02*
X520090Y647260D01*
X515118Y652232D01*
X521504Y658618D01*
X526476Y653646D01*
G37*
G36*
X533547Y646575D02*
X527161Y640189D01*
X522189Y645161D01*
X528575Y651547D01*
X533547Y646575D01*
G37*
G36*
X540618Y639504D02*
X534232Y633118D01*
X529260Y638090D01*
X535646Y644476D01*
X540618Y639504D01*
G37*
G36*
X556882Y655768D02*
X550496Y649382D01*
X545524Y654354D01*
X551910Y660740D01*
X556882Y655768D01*
G37*
G36*
X549811Y662839D02*
X543425Y656453D01*
X538453Y661425D01*
X544839Y667811D01*
X549811Y662839D01*
G37*
G36*
X542740Y669910D02*
X536354Y663524D01*
X531382Y668496D01*
X537768Y674882D01*
X542740Y669910D01*
G37*
D28*
G36*
X672113Y641940D02*
X659900Y629727D01*
X647687Y641940D01*
X659900Y654153D01*
X672113Y641940D01*
G37*
D36*
X641940Y659900D03*
D19*
G36*
X516851Y667637D02*
X508343Y659129D01*
X499129Y668343D01*
X507637Y676851D01*
X516851Y667637D01*
G37*
G36*
X528871Y679657D02*
X520363Y671149D01*
X511149Y680363D01*
X519657Y688871D01*
X528871Y679657D01*
G37*
D20*
X670000Y446500D03*
X670000Y429500D03*
X691000Y429500D03*
X691000Y446500D03*
D37*
X722100Y478000D03*
X722100Y453000D03*
X628200Y390000D03*
X679000Y390000D03*
X729800Y390000D03*
D27*
X668500Y484000D03*
X668500Y474000D03*
X668500Y464000D03*
X691500Y464000D03*
X691500Y474000D03*
X691500Y484000D03*
D24*
X759000Y377300D03*
D38*
X759000Y402700D03*
D19*
X670500Y504000D03*
X687500Y504000D03*
G36*
X619149Y233363D02*
X627657Y241871D01*
X636871Y232657D01*
X628363Y224149D01*
X619149Y233363D01*
G37*
G36*
X607129Y221343D02*
X615637Y229851D01*
X624851Y220637D01*
X616343Y212129D01*
X607129Y221343D01*
G37*
G36*
X639851Y205637D02*
X631343Y197129D01*
X622129Y206343D01*
X630637Y214851D01*
X639851Y205637D01*
G37*
G36*
X651871Y217657D02*
X643363Y209149D01*
X634149Y218363D01*
X642657Y226871D01*
X651871Y217657D01*
G37*
D39*
X686939Y217339D03*
X669261Y199661D03*
X558429Y221571D03*
X594350Y185650D03*
X630271Y149729D03*
D27*
G36*
X654646Y254524D02*
X648260Y260910D01*
X653232Y265882D01*
X659618Y259496D01*
X654646Y254524D01*
G37*
G36*
X647575Y247453D02*
X641189Y253839D01*
X646161Y258811D01*
X652547Y252425D01*
X647575Y247453D01*
G37*
G36*
X640504Y240382D02*
X634118Y246768D01*
X639090Y251740D01*
X645476Y245354D01*
X640504Y240382D01*
G37*
G36*
X656768Y224118D02*
X650382Y230504D01*
X655354Y235476D01*
X661740Y229090D01*
X656768Y224118D01*
G37*
G36*
X663839Y231189D02*
X657453Y237575D01*
X662425Y242547D01*
X668811Y236161D01*
X663839Y231189D01*
G37*
G36*
X670910Y238260D02*
X664524Y244646D01*
X669496Y249618D01*
X675882Y243232D01*
X670910Y238260D01*
G37*
D28*
G36*
X641940Y107887D02*
X629727Y120100D01*
X641940Y132313D01*
X654153Y120100D01*
X641940Y107887D01*
G37*
D40*
X659900Y138060D03*
D19*
G36*
X668637Y264149D02*
X660129Y272657D01*
X669343Y281871D01*
X677851Y273363D01*
X668637Y264149D01*
G37*
G36*
X680657Y252129D02*
X672149Y260637D01*
X681363Y269851D01*
X689871Y261343D01*
X680657Y252129D01*
G37*
D11*
X698188Y348800D02*
X683180Y351446D01*
X678769Y326432D02*
X693778Y323786D01*
X428554Y679180D02*
X431200Y694188D01*
X456214Y689778D02*
X453568Y674769D01*
D41*
G36*
X334775Y25061D02*
X356471Y21235D01*
X352645Y-461D01*
X330949Y3365D01*
X334775Y25061D01*
G37*
D42*
X304318Y19246D03*
D41*
G36*
X92899Y171000D02*
X105536Y152953D01*
X87489Y140316D01*
X74852Y158363D01*
X92899Y171000D01*
G37*
D43*
X67251Y188424D03*
D41*
G36*
X25061Y445225D02*
X21235Y423529D01*
X-461Y427355D01*
X3365Y449051D01*
X25061Y445225D01*
G37*
D44*
X19246Y475682D03*
D41*
G36*
X609000Y92899D02*
X627047Y105536D01*
X639684Y87489D01*
X621637Y74852D01*
X609000Y92899D01*
G37*
D45*
X591576Y67251D03*
D41*
G36*
X171000Y687101D02*
X152953Y674464D01*
X140316Y692511D01*
X158363Y705148D01*
X171000Y687101D01*
G37*
D46*
X188424Y712749D03*
D41*
G36*
X445225Y754939D02*
X423529Y758765D01*
X427355Y780461D01*
X449051Y776635D01*
X445225Y754939D01*
G37*
D47*
X475682Y760754D03*
D41*
G36*
X687101Y609000D02*
X674464Y627047D01*
X692511Y639684D01*
X705148Y621637D01*
X687101Y609000D01*
G37*
D48*
X712749Y591576D03*
D41*
G36*
X754939Y334775D02*
X758765Y356471D01*
X780461Y352645D01*
X776635Y330949D01*
X754939Y334775D01*
G37*
D49*
X760754Y304318D03*
D38*
X604700Y989200D03*
X630100Y989200D03*
X655500Y989200D03*
X680900Y989200D03*
D11*
X251900Y862620D02*
X251900Y847380D01*
X277300Y847380D02*
X277300Y862620D01*
X302700Y862620D02*
X302700Y847380D01*
X328100Y847380D02*
X328100Y862620D01*
D50*
X335400Y1088900D03*
X413400Y1088900D03*
D38*
X336300Y935600D03*
X361700Y935600D03*
X387100Y935600D03*
X412500Y935600D03*
D50*
X464700Y1095600D03*
X564700Y1095600D03*
D38*
X463900Y959300D03*
X489300Y959300D03*
X514700Y959300D03*
X540100Y959300D03*
X565500Y959300D03*
D19*
X187000Y1000300D03*
X204000Y1000300D03*
X475600Y992300D03*
X492600Y992300D03*
D20*
X540500Y996400D03*
X540500Y979400D03*
X361500Y972200D03*
X361500Y955200D03*
D19*
X336000Y960500D03*
X319000Y960500D03*
D20*
X601700Y1068500D03*
X601700Y1051500D03*
X639500Y1061200D03*
X639500Y1078200D03*
X465500Y1046100D03*
X465500Y1029100D03*
X503500Y1039400D03*
X503500Y1056400D03*
X531500Y1045100D03*
X531500Y1028100D03*
X569700Y1038400D03*
X569700Y1055400D03*
X351500Y1021600D03*
X351500Y1004600D03*
X390700Y1014600D03*
X390700Y1031600D03*
D19*
X610800Y1015700D03*
X593800Y1015700D03*
D15*
X550900Y1035100D03*
X550900Y1045100D03*
X550900Y1055100D03*
X371700Y986900D03*
X361700Y986900D03*
X351700Y986900D03*
X371900Y1011500D03*
X371900Y1021500D03*
X371900Y1031500D03*
D50*
X282500Y1087700D03*
X117500Y1087700D03*
D30*
X288900Y975900D03*
X263500Y975900D03*
X238100Y975900D03*
X212700Y975900D03*
X187300Y975900D03*
X161900Y975900D03*
X136500Y975900D03*
X111100Y975900D03*
D15*
X620900Y1034100D03*
X610900Y1034100D03*
X600900Y1034100D03*
X621100Y1058300D03*
X621100Y1068300D03*
X621100Y1078300D03*
X485500Y1011100D03*
X475500Y1011100D03*
X465500Y1011100D03*
X485100Y1035700D03*
X485100Y1045700D03*
X485100Y1055700D03*
X551100Y1011100D03*
X541100Y1011100D03*
X531100Y1011100D03*
D51*
X549000Y887250D03*
X549000Y893750D03*
X549000Y900250D03*
X549000Y906750D03*
X549000Y913250D03*
X549000Y919750D03*
X549000Y926250D03*
X549000Y932750D03*
X491000Y932750D03*
X491000Y926250D03*
X491000Y919750D03*
X491000Y913250D03*
X491000Y906750D03*
X491000Y900250D03*
X491000Y893750D03*
X491000Y887250D03*
D20*
X565500Y922000D03*
X582500Y922000D03*
X565500Y901000D03*
X582500Y901000D03*
X476500Y931000D03*
X459500Y931000D03*
D19*
X565500Y879000D03*
X582500Y879000D03*
X548500Y872000D03*
X531500Y872000D03*
D11*
X477700Y862620D02*
X477700Y847380D01*
X452300Y847380D02*
X452300Y862620D01*
D52*
X1225000Y1021500D03*
X1225000Y1055500D03*
X1245000Y1055500D03*
X1245000Y1021500D03*
D53*
X960500Y180000D03*
X950532Y350000D03*
X1195000Y230000D03*
X900000Y230000D03*
X985000Y300000D03*
X1140000Y300000D03*
X845000Y300000D03*
X1040000Y230000D03*
X960500Y670000D03*
X950532Y840000D03*
X1195000Y720000D03*
X900000Y720000D03*
X985000Y790000D03*
X1140000Y790000D03*
X845000Y790000D03*
X1040000Y720000D03*
D54*
X474000Y122000D03*
X484000Y122000D03*
X464000Y122000D03*
X640230Y259730D03*
X647020Y266510D03*
X633805Y253195D03*
X658672Y473980D03*
X658642Y483860D03*
X658642Y463910D03*
X520000Y638000D03*
X513000Y645000D03*
X527000Y631000D03*
X305000Y659000D03*
X315000Y659000D03*
X295000Y659000D03*
X142000Y519000D03*
X135000Y512000D03*
X149000Y526000D03*
X123000Y305000D03*
X123000Y315000D03*
X123000Y295000D03*
X318000Y85000D03*
X311000Y92000D03*
X325000Y78000D03*
X671000Y605000D03*
X726000Y531000D03*
X707000Y288000D03*
X727000Y249000D03*
X539000Y101000D03*
X538000Y54000D03*
X282000Y35000D03*
X234000Y143000D03*
X50000Y254000D03*
X70000Y484000D03*
X47000Y520000D03*
X239000Y688000D03*
X238000Y724000D03*
X495000Y703000D03*
X525000Y731000D03*
X308000Y144000D03*
X292400Y169420D03*
X515000Y93000D03*
X366231Y137482D03*
X346010Y122670D03*
X340000Y44000D03*
X91510Y261910D03*
X90000Y510000D03*
X258270Y694510D03*
X498000Y678000D03*
X688510Y517440D03*
X684000Y276000D03*
D55*
X1225000Y1110000D03*
X1245000Y1110000D03*
M02*
