G04 EAGLE Gerber RS-274X export*
G75*
%MOMM*%
%FSLAX34Y34*%
%LPD*%
%INSoldermask Bottom*%
%IPPOS*%
%AMOC8*
5,1,8,0,0,1.08239X$1,22.5*%
G01*
%ADD10C,2.203200*%
%ADD11R,2.903200X1.803200*%
%ADD12R,1.603200X1.603200*%
%ADD13C,1.727200*%
%ADD14R,1.003200X1.003200*%
%ADD15R,1.203200X1.303200*%
%ADD16C,2.703200*%
%ADD17C,2.203200*%
%ADD18P,1.635708X8X22.500000*%
%ADD19P,1.852186X8X180.000000*%
%ADD20P,1.852186X8X337.500000*%
%ADD21P,1.852186X8X292.500000*%
%ADD22P,1.852186X8X22.500000*%
%ADD23C,1.211200*%
%ADD24R,1.727200X1.727200*%
%ADD25P,1.869504X8X292.500000*%
%ADD26R,1.727200X1.727200*%
%ADD27P,1.869504X8X247.500000*%
%ADD28P,1.869504X8X202.500000*%
%ADD29P,1.852186X8X247.500000*%
%ADD30P,1.869504X8X157.500000*%
%ADD31P,1.852186X8X202.500000*%
%ADD32P,1.869504X8X112.500000*%
%ADD33P,1.852186X8X157.500000*%
%ADD34P,1.869504X8X67.500000*%
%ADD35P,1.852186X8X112.500000*%
%ADD36P,1.869504X8X22.500000*%
%ADD37P,1.852186X8X67.500000*%
%ADD38P,1.869504X8X337.500000*%
%ADD39R,2.203200X2.203200*%
%ADD40P,2.384722X8X192.500000*%
%ADD41P,2.384722X8X147.500000*%
%ADD42P,2.384722X8X102.500000*%
%ADD43P,2.384722X8X237.500000*%
%ADD44P,2.384722X8X57.500000*%
%ADD45P,2.384722X8X372.500000*%
%ADD46P,2.384722X8X327.500000*%
%ADD47P,2.384722X8X282.500000*%
%ADD48C,3.403200*%
%ADD49C,1.109600*%
%ADD50C,0.959600*%
%ADD51C,1.703200*%


D10*
X1235000Y1080000D03*
D11*
X975400Y381400D03*
X975400Y353400D03*
D12*
X899000Y300000D03*
X861000Y300000D03*
X861000Y180000D03*
X899000Y180000D03*
X1001000Y180000D03*
X1039000Y180000D03*
X1039000Y300000D03*
X1001000Y300000D03*
D13*
X1040700Y437380D02*
X1040700Y452620D01*
X1015300Y452620D02*
X1015300Y437380D01*
D14*
X1003100Y353700D03*
X1018100Y353700D03*
D15*
X1002500Y385900D03*
X1019500Y385900D03*
D16*
X939500Y278000D02*
X939500Y262000D01*
D17*
X875000Y210000D02*
X815000Y210000D01*
D16*
X960500Y218000D02*
X960500Y202000D01*
X1095500Y262000D02*
X1095500Y278000D01*
D13*
X1015300Y36620D02*
X1015300Y21380D01*
X1040700Y21380D02*
X1040700Y36620D01*
D18*
X1070500Y35000D03*
X1095500Y35000D03*
D17*
X1181000Y270000D02*
X1241000Y270000D01*
D16*
X1116500Y218000D02*
X1116500Y202000D01*
D12*
X1195000Y300000D03*
X1157000Y300000D03*
X1157000Y180000D03*
X1195000Y180000D03*
X976000Y410000D03*
X1014000Y410000D03*
D14*
X840000Y320000D03*
X840000Y330000D03*
X985000Y320000D03*
X985000Y330000D03*
X1140000Y320000D03*
X1140000Y330000D03*
D11*
X975400Y871400D03*
X975400Y843400D03*
D12*
X899000Y790000D03*
X861000Y790000D03*
X861000Y670000D03*
X899000Y670000D03*
X1001000Y670000D03*
X1039000Y670000D03*
X1039000Y790000D03*
X1001000Y790000D03*
D13*
X1040700Y927380D02*
X1040700Y942620D01*
X1015300Y942620D02*
X1015300Y927380D01*
D14*
X1003100Y843700D03*
X1018100Y843700D03*
D15*
X1002500Y875900D03*
X1019500Y875900D03*
D16*
X939500Y768000D02*
X939500Y752000D01*
D17*
X875000Y700000D02*
X815000Y700000D01*
D16*
X960500Y708000D02*
X960500Y692000D01*
X1095500Y752000D02*
X1095500Y768000D01*
D13*
X1015300Y526620D02*
X1015300Y511380D01*
X1040700Y511380D02*
X1040700Y526620D01*
D18*
X1070500Y525000D03*
X1095500Y525000D03*
D17*
X1181000Y760000D02*
X1241000Y760000D01*
D16*
X1116500Y708000D02*
X1116500Y692000D01*
D12*
X1195000Y790000D03*
X1157000Y790000D03*
X1157000Y670000D03*
X1195000Y670000D03*
X976000Y900000D03*
X1014000Y900000D03*
D14*
X840000Y810000D03*
X840000Y820000D03*
X985000Y810000D03*
X985000Y820000D03*
X1140000Y810000D03*
X1140000Y820000D03*
D19*
X450312Y567444D03*
X473408Y557876D03*
D20*
X217339Y93061D03*
X199661Y110739D03*
D21*
X57900Y302000D03*
X57900Y327000D03*
D22*
X390000Y151800D03*
X390000Y101000D03*
X390000Y50200D03*
D20*
X221571Y221571D03*
X185650Y185650D03*
X149729Y149729D03*
D21*
X151800Y390000D03*
X101000Y390000D03*
X50200Y390000D03*
D23*
X345088Y216127D02*
X341230Y206814D01*
X329682Y211598D02*
X333539Y220910D01*
X321991Y225694D02*
X318133Y216381D01*
X306585Y221165D02*
X310442Y230477D01*
X298894Y235261D02*
X295036Y225948D01*
D24*
X377300Y21000D03*
D25*
X402700Y21000D03*
D22*
X477000Y58900D03*
X452000Y58900D03*
D26*
G36*
X107887Y138060D02*
X120100Y150273D01*
X132313Y138060D01*
X120100Y125847D01*
X107887Y138060D01*
G37*
D27*
X138060Y120100D03*
D24*
X21000Y402700D03*
D28*
X21000Y377300D03*
D29*
X93661Y562061D03*
X111339Y579739D03*
X221571Y558429D03*
X185650Y594350D03*
X149729Y630271D03*
D26*
G36*
X138060Y672113D02*
X150273Y659900D01*
X138060Y647687D01*
X125847Y659900D01*
X138060Y672113D01*
G37*
D30*
X120100Y641940D03*
D31*
X302000Y722100D03*
X327000Y722100D03*
X390000Y628200D03*
X390000Y679000D03*
X390000Y729800D03*
D24*
X402700Y759000D03*
D32*
X377300Y759000D03*
D33*
X562661Y686739D03*
X580339Y669061D03*
X558429Y558429D03*
X594350Y594350D03*
X630271Y630271D03*
D26*
G36*
X672113Y641940D02*
X659900Y629727D01*
X647687Y641940D01*
X659900Y654153D01*
X672113Y641940D01*
G37*
D34*
X641940Y659900D03*
D35*
X722100Y478000D03*
X722100Y453000D03*
X628200Y390000D03*
X679000Y390000D03*
X729800Y390000D03*
D24*
X759000Y377300D03*
D36*
X759000Y402700D03*
D37*
X686939Y217339D03*
X669261Y199661D03*
X558429Y221571D03*
X594350Y185650D03*
X630271Y149729D03*
D26*
G36*
X641940Y107887D02*
X629727Y120100D01*
X641940Y132313D01*
X654153Y120100D01*
X641940Y107887D01*
G37*
D38*
X659900Y138060D03*
D13*
X698188Y348800D02*
X683180Y351446D01*
X678769Y326432D02*
X693778Y323786D01*
X428554Y679180D02*
X431200Y694188D01*
X456214Y689778D02*
X453568Y674769D01*
D39*
G36*
X334775Y25061D02*
X356471Y21235D01*
X352645Y-461D01*
X330949Y3365D01*
X334775Y25061D01*
G37*
D40*
X304318Y19246D03*
D39*
G36*
X92899Y171000D02*
X105536Y152953D01*
X87489Y140316D01*
X74852Y158363D01*
X92899Y171000D01*
G37*
D41*
X67251Y188424D03*
D39*
G36*
X25061Y445225D02*
X21235Y423529D01*
X-461Y427355D01*
X3365Y449051D01*
X25061Y445225D01*
G37*
D42*
X19246Y475682D03*
D39*
G36*
X609000Y92899D02*
X627047Y105536D01*
X639684Y87489D01*
X621637Y74852D01*
X609000Y92899D01*
G37*
D43*
X591576Y67251D03*
D39*
G36*
X171000Y687101D02*
X152953Y674464D01*
X140316Y692511D01*
X158363Y705148D01*
X171000Y687101D01*
G37*
D44*
X188424Y712749D03*
D39*
G36*
X445225Y754939D02*
X423529Y758765D01*
X427355Y780461D01*
X449051Y776635D01*
X445225Y754939D01*
G37*
D45*
X475682Y760754D03*
D39*
G36*
X687101Y609000D02*
X674464Y627047D01*
X692511Y639684D01*
X705148Y621637D01*
X687101Y609000D01*
G37*
D46*
X712749Y591576D03*
D39*
G36*
X754939Y334775D02*
X758765Y356471D01*
X780461Y352645D01*
X776635Y330949D01*
X754939Y334775D01*
G37*
D47*
X760754Y304318D03*
D36*
X604700Y989200D03*
X630100Y989200D03*
X655500Y989200D03*
X680900Y989200D03*
D13*
X251900Y862620D02*
X251900Y847380D01*
X277300Y847380D02*
X277300Y862620D01*
X302700Y862620D02*
X302700Y847380D01*
X328100Y847380D02*
X328100Y862620D01*
D48*
X335400Y1088900D03*
X413400Y1088900D03*
D36*
X336300Y935600D03*
X361700Y935600D03*
X387100Y935600D03*
X412500Y935600D03*
D48*
X464700Y1095600D03*
X564700Y1095600D03*
D36*
X463900Y959300D03*
X489300Y959300D03*
X514700Y959300D03*
X540100Y959300D03*
X565500Y959300D03*
D48*
X282500Y1087700D03*
X117500Y1087700D03*
D28*
X288900Y975900D03*
X263500Y975900D03*
X238100Y975900D03*
X212700Y975900D03*
X187300Y975900D03*
X161900Y975900D03*
X136500Y975900D03*
X111100Y975900D03*
D13*
X477700Y862620D02*
X477700Y847380D01*
X452300Y847380D02*
X452300Y862620D01*
D49*
X960500Y180000D03*
X950532Y350000D03*
X1195000Y230000D03*
X900000Y230000D03*
X985000Y300000D03*
X1140000Y300000D03*
X845000Y300000D03*
X1040000Y230000D03*
X960500Y670000D03*
X950532Y840000D03*
X1195000Y720000D03*
X900000Y720000D03*
X985000Y790000D03*
X1140000Y790000D03*
X845000Y790000D03*
X1040000Y720000D03*
D50*
X474000Y122000D03*
X484000Y122000D03*
X464000Y122000D03*
X640230Y259730D03*
X647020Y266510D03*
X633805Y253195D03*
X658672Y473980D03*
X658642Y483860D03*
X658642Y463910D03*
X520000Y638000D03*
X513000Y645000D03*
X527000Y631000D03*
X305000Y659000D03*
X315000Y659000D03*
X295000Y659000D03*
X142000Y519000D03*
X135000Y512000D03*
X149000Y526000D03*
X123000Y305000D03*
X123000Y315000D03*
X123000Y295000D03*
X318000Y85000D03*
X311000Y92000D03*
X325000Y78000D03*
X671000Y605000D03*
X726000Y531000D03*
X707000Y288000D03*
X727000Y249000D03*
X539000Y101000D03*
X538000Y54000D03*
X282000Y35000D03*
X234000Y143000D03*
X50000Y254000D03*
X70000Y484000D03*
X47000Y520000D03*
X239000Y688000D03*
X238000Y724000D03*
X495000Y703000D03*
X525000Y731000D03*
X308000Y144000D03*
X292400Y169420D03*
X515000Y93000D03*
X366231Y137482D03*
X346010Y122670D03*
X340000Y44000D03*
X91510Y261910D03*
X90000Y510000D03*
X258270Y694510D03*
X498000Y678000D03*
X688510Y517440D03*
X684000Y276000D03*
D51*
X1225000Y1110000D03*
X1245000Y1110000D03*
M02*
