M48
;GenerationSoftware,Autodesk,EAGLE,9.4.2*%
;CreationDate,2025-03-25T19:59:17Z*%
FMAT,2
ICI,OFF
METRIC,TZ,000.000
T14C0.350
T13C0.400
T12C0.500
T11C0.700
T10C0.750
T9C0.813
T8C1.000
T7C1.016
T6C1.500
T5C1.600
T4C2.000
T3C2.500
T2C3.000
T1C3.200
%
G90
M71
T1
X4000Y140000
X38000Y106000
X72000Y140000
X38000Y174000
X38000Y72000
X72000Y38000
X38000Y4000
X4000Y38000
T2
X20700Y35800
X20700Y57200
X52100Y57200
X52100Y35800
T3
X70250Y77000
X5000Y97000
X5000Y81000
X36000Y97000
X36000Y81000
X67750Y100500
T4
X51000Y94100
T5
X35529Y64556
X31000Y63300
X26471Y62044
T6
X10500Y93500
X10500Y84500
X19500Y93500
T7
X68000Y44350
X68000Y41810
X68000Y39270
X68000Y36730
X68000Y34190
X68000Y31650
X68000Y29110
X68000Y26570
X68000Y24030
X68000Y21490
X8000Y53970
X8000Y51430
X8000Y48890
X8000Y46350
X8000Y43810
X8000Y41270
X8000Y38730
X8000Y36190
X8000Y33650
X8000Y31110
X8000Y28570
X8000Y26030
X46770Y7500
X44230Y7500
X24190Y7500
X26730Y7500
X29270Y7500
X31810Y7500
X44660Y83400
X47200Y83400
X49740Y83400
X47470Y93800
X44930Y93800
X48080Y106350
X45600Y105800
X43120Y105250
X40500Y162130
X40500Y159590
X40500Y157050
X40500Y154510
X40500Y151970
X35580Y26210
X40500Y149430
X40500Y146890
X40500Y144350
X40500Y141810
X40500Y139270
X40500Y136730
X40500Y134190
X40500Y131650
X40500Y129110
X40500Y126570
X40500Y124030
X40500Y121490
X40500Y118950
X40500Y116410
X40500Y113870
X55500Y113870
X55500Y116410
X55500Y118950
X55500Y121490
X55500Y124030
X55500Y126570
X55500Y129110
X55500Y131650
X55500Y134190
X55500Y136730
X55500Y139270
X55500Y141810
X55500Y144350
X55500Y146890
X55500Y149430
X55500Y151970
X55500Y154510
X55500Y157050
X55500Y159590
X55500Y162130
X32630Y159310
X32630Y156770
X32630Y154230
X32630Y151690
X68000Y156510
X68000Y153970
X68000Y151430
X68000Y148890
X68000Y146350
X68000Y143810
X68000Y141270
X68000Y138730
X68000Y136190
X68000Y133650
X68000Y131110
X68000Y128570
X68000Y126030
X68000Y123490
X8000Y155970
X8000Y153430
X8000Y150890
X8000Y148350
X8000Y145810
X8000Y143270
X8000Y140730
X8000Y138190
X8000Y135650
X8000Y133110
X8000Y130570
X8000Y128030
X3000Y85960
X3000Y88500
X20400Y42690
X20400Y45230
X20400Y47770
X20400Y50310
X60950Y40130
X60950Y42670
X60950Y50130
X60950Y52670
X42450Y52670
X42450Y50130
X42450Y42670
X42450Y40130
X37470Y56750
X34930Y56750
X27470Y56750
X24930Y56750
X24930Y38250
X27470Y38250
X34930Y38250
X37470Y38250
X22700Y15780
X22700Y18320
X22700Y20860
X22700Y23400
X22700Y25940
X22700Y28480
X22700Y31020
X35580Y23670
X35580Y21130
X35580Y18590
X35580Y16050
X35580Y13510
X3000Y91040
X35580Y28750
X35580Y31290
X68000Y54510
X68000Y51970
X68000Y49430
X68000Y46890
T8
X27793Y173476
X48734Y68248
X46319Y68895
X30207Y174124
X19417Y169675
X43827Y69563
X21583Y170925
X15800Y142500
X15800Y150500
T9
X19180Y164100
X34420Y164100
T10
X60550Y85050
X60550Y87550
X60550Y77150
X60550Y79650
T11
X59000Y57900
T12
X54612Y64826
X53576Y65525
X11800Y87200
X43406Y174165
X44637Y173948
X31363Y106052
X11159Y118203
X10389Y119188
X22267Y65336
X21196Y64692
X16964Y61497
X16050Y60645
X12527Y56654
X11810Y55630
X54000Y23100
X39800Y22000
X32594Y105835
X16100Y87200
X55300Y23000
X55648Y64127
X63361Y56874
X62557Y57832
X61754Y58790
X60950Y59747
X7788Y123228
X7201Y124332
X57721Y62729
X56685Y63428
T13
X59450Y94375
X59450Y93125
X59450Y91875
X59450Y100225
X59450Y96875
X59450Y95625
X59450Y101475
T14
X45700Y19700
X45200Y29800
X38600Y20000
X52600Y62900
X17072Y49500
X67100Y59200
X51600Y85800
X65392Y77902
X71750Y98000
X64781Y89822
X61250Y90000
X65522Y97232
X64050Y100635
X72118Y84800
X72118Y83900
X70250Y88200
X70250Y79800
X61750Y80500
X63767Y89517
X64650Y82900
X25200Y160500
X25200Y154500
X18200Y157500
X48100Y118300
X24600Y133500
X15828Y135000
X18712Y143400
X47800Y147400
X31520Y46429
X48800Y133900
X48800Y130900
X53100Y150100
X50900Y108400
X27700Y118200
X43000Y120000
X53100Y120000
X52100Y148700
X42900Y148700
X34700Y147700
X31000Y160700
X48000Y113000
X45800Y110300
X22000Y132100
X30009Y157509
X33200Y126900
X33200Y125700
X52900Y170500
X58300Y167000
X23500Y135200
X18500Y133600
X19300Y87000
X51629Y46080
X19300Y88300
X53629Y46080
X28000Y84200
X29772Y81900
X28000Y82494
X52629Y46080
X50629Y46080
X49629Y46080
X28000Y93700
X53629Y45080
X52629Y45080
X51629Y45080
X50629Y45080
X49629Y45080
X17000Y54000
X62029Y46780
X61029Y46780
X61029Y45780
X62029Y45780
X61029Y44780
X62029Y44780
X31520Y47429
X31520Y49429
X31520Y48429
X31520Y45429
X32520Y49429
X32520Y48429
X32520Y47429
X32520Y46429
X32520Y45429
X16975Y83025
X30820Y57829
X30820Y56829
X31820Y56829
X31820Y57829
X32820Y56829
X51600Y143900
X32820Y57829
X50100Y31400
X39000Y31400
X1600Y34000
X62700Y27900
X62700Y16900
X41700Y29300
X33844Y82956
X46000Y53600
X46000Y56000
X22300Y52200
X57529Y39580
X56229Y50180
X38020Y53329
X30000Y98000
X28000Y98000
X27420Y52029
X44600Y19700
X43900Y29800
M30