M48
;GenerationSoftware,Autodesk,EAGLE,9.4.2*%
;CreationDate,2025-03-11T18:22:31Z*%
FMAT,2
ICI,OFF
METRIC,TZ,000.000
T7C0.350
T6C0.500
T5C0.800
T4C1.000
T3C1.016
T2C2.000
T1C3.200
%
G90
M71
T1
X33540Y108890
X41340Y108890
X46470Y109560
X56470Y109560
X28250Y108770
X11750Y108770
T2
X123500Y108000
T3
X12010Y64194
X13806Y65990
X2100Y37730
X2100Y40270
X40270Y2100
X37730Y2100
X40270Y75900
X104070Y44500
X101530Y44500
X101530Y2900
X104070Y2900
X13806Y12010
X12010Y13806
X104070Y93500
X101530Y93500
X101530Y51900
X104070Y51900
X65550Y98920
X45230Y85500
X47770Y85500
X11110Y97590
X13650Y97590
X16190Y97590
X18730Y97590
X21270Y97590
X23810Y97590
X26350Y97590
X28890Y97590
X56550Y95930
X54010Y95930
X51470Y95930
X48930Y95930
X46390Y95930
X41250Y93560
X38710Y93560
X36170Y93560
X33630Y93560
X32810Y85500
X30270Y85500
X27730Y85500
X25190Y85500
X68090Y98920
X63010Y98920
X60470Y98920
X45489Y68227
X42988Y68668
X68627Y32511
X69068Y35012
X65990Y13806
X64194Y12010
X75900Y40270
X75900Y37730
X64194Y65990
X65990Y64194
X37730Y75900
T4
X62820Y39000
X67900Y39000
X72980Y39000
X68694Y21734
X66926Y19966
X55843Y22157
X59435Y18565
X63027Y14973
X34371Y1230
X30432Y1925
X9019Y15566
X6725Y18842
X1230Y43629
X1925Y47568
X62434Y9019
X59158Y6725
X15566Y68981
X18842Y71275
X43629Y76770
X47568Y76075
X68981Y62434
X71275Y59158
X76770Y34371
X76075Y30432
X122500Y111000
X124500Y111000
X45031Y56744
X47341Y55788
X21734Y9306
X19966Y11074
X5790Y30200
X5790Y32700
X39000Y15180
X39000Y10100
X39000Y5020
X22157Y22157
X18565Y18565
X14973Y14973
X15180Y39000
X10100Y39000
X5020Y39000
X47700Y5890
X45200Y5890
X9366Y56206
X11134Y57974
X22157Y55843
X18565Y59435
X14973Y63027
X30200Y72210
X32700Y72210
X39000Y62820
X39000Y67900
X39000Y72980
X56266Y68674
X58034Y66906
X55843Y55843
X59435Y59435
X63027Y63027
X72210Y47800
X72210Y45300
T5
X109550Y52500
X109550Y3500
X107050Y52500
X107050Y3500
T6
X96050Y18000
X95053Y35000
X119500Y23000
X90000Y23000
X98500Y30000
X114000Y30000
X84500Y30000
X104000Y23000
X96050Y67000
X95053Y84000
X119500Y72000
X90000Y72000
X98500Y79000
X114000Y79000
X84500Y79000
X104000Y72000
X30851Y22582
X29697Y23060
X32006Y22104
X34316Y21147
X33161Y21625
T7
X64702Y26651
X63380Y25320
X65867Y47398
X65864Y48386
X68400Y27600
X9000Y51000
X9151Y26191
X29240Y16942
X30800Y14400
X49500Y70300
X23800Y72400
X23900Y68800
X68851Y51744
X52500Y73100
X34601Y12267
X47400Y12200
X49800Y67800
X25827Y69451
X48400Y12200
X46400Y12200
X36623Y13748
X51500Y9300
X34000Y4400
X64023Y25973
X4700Y52000
X7000Y48400
X65864Y46391
X5000Y25400
X23400Y14300
X28200Y3500
X53800Y5400
X53900Y10100
X72700Y24900
X70700Y28800
X72600Y53100
X67100Y60500
X32500Y7800
X31100Y9200
X31800Y8500
X12300Y29500
X12300Y31500
X12300Y30500
X14900Y52600
X13500Y51200
X14200Y51900
X29500Y65900
X31500Y65900
X30500Y65900
X52700Y63100
X51300Y64500
X52000Y63800
M30