M48
;GenerationSoftware,Autodesk,EAGLE,9.4.2*%
;CreationDate,2025-03-11T18:49:49Z*%
FMAT,2
ICI,OFF
METRIC,TZ,000.000
T14C0.350
T13C0.400
T12C0.500
T11C0.700
T10C0.750
T9C0.813
T8C1.000
T7C1.016
T6C1.500
T5C1.600
T4C2.000
T3C2.500
T2C3.000
T1C3.200
%
G90
M71
T1
X38000Y174000
X38000Y72000
X72000Y38000
X38000Y4000
X4000Y38000
X4000Y140000
X38000Y106000
X72000Y140000
T2
X20700Y35800
X20700Y57200
X52100Y57200
X52100Y35800
T3
X4500Y97000
X4500Y81000
X35500Y97000
X35500Y81000
X68000Y101000
X70500Y77500
T4
X51000Y94100
T5
X35529Y64556
X31000Y63300
X26471Y62044
T6
X10370Y93500
X10370Y84500
X19370Y93500
T7
X55500Y118950
X55500Y121490
X55500Y124030
X55500Y126570
X55500Y129110
X55500Y131650
X55500Y134190
X55500Y136730
X55500Y139270
X55500Y141810
X55500Y144350
X55500Y146890
X55500Y149430
X55500Y151970
X55500Y154510
X55500Y157050
X55500Y159590
X55500Y162130
X32630Y159310
X32630Y156770
X32630Y154230
X32630Y151690
X68000Y156510
X68000Y153970
X68000Y151430
X68000Y148890
X68000Y146350
X68000Y143810
X68000Y141270
X68000Y138730
X68000Y136190
X68000Y133650
X68000Y131110
X68000Y128570
X68000Y126030
X68000Y123490
X8000Y155970
X8000Y153430
X8000Y150890
X8000Y148350
X8000Y145810
X40500Y124030
X8000Y143270
X8000Y140730
X8000Y138190
X8000Y135650
X8000Y133110
X8000Y130570
X8000Y128030
X20400Y42690
X20400Y45230
X20400Y47770
X20400Y50310
X60950Y40130
X60950Y42670
X60950Y50130
X60950Y52670
X42450Y52670
X42450Y50130
X42450Y42670
X42450Y40130
X37470Y56750
X34930Y56750
X27470Y56750
X24930Y56750
X24930Y38250
X27470Y38250
X34930Y38250
X37470Y38250
X22700Y15780
X22700Y18320
X22700Y20860
X22700Y23400
X22700Y25940
X22700Y28480
X22700Y31020
X35580Y23670
X35580Y21130
X35580Y18590
X35580Y16050
X35580Y13510
X35580Y26210
X35580Y28750
X35580Y31290
X68000Y54510
X68000Y51970
X68000Y49430
X68000Y46890
X68000Y44350
X68000Y41810
X68000Y39270
X68000Y36730
X68000Y34190
X68000Y29110
X68000Y26570
X68000Y24030
X68000Y21490
X8000Y53970
X8000Y51430
X8000Y48890
X8000Y46350
X8000Y43810
X8000Y41270
X8000Y38730
X8000Y36190
X8000Y33650
X8000Y31110
X8000Y28570
X8000Y26030
X46770Y7500
X44230Y7500
X24190Y7500
X26730Y7500
X29270Y7500
X31810Y7500
X2500Y85960
X2500Y88500
X2500Y91040
X44660Y83400
X47200Y83400
X49740Y83400
X47470Y93800
X44930Y93800
X48080Y106350
X45600Y105800
X43120Y105250
X40500Y162130
X40500Y159590
X40500Y157050
X40500Y154510
X40500Y151970
X40500Y149430
X40500Y146890
X40500Y144350
X40500Y141810
X40500Y139270
X40500Y136730
X40500Y134190
X40500Y131650
X40500Y129110
X40500Y126570
X68000Y31650
X40500Y121490
X40500Y118950
X40500Y116410
X40500Y113870
X55500Y113870
X55500Y116410
T8
X43827Y69563
X15800Y150500
X15800Y142500
X30207Y174124
X27793Y173476
X48734Y68248
X46319Y68895
X19417Y169675
X21583Y170925
T9
X34420Y164100
X19180Y164100
T10
X60800Y85550
X60800Y88050
X60800Y80150
X60800Y77650
T11
X59000Y57900
T12
X54000Y23100
X32594Y105835
X57721Y62729
X31363Y106052
X26741Y107309
X22267Y65336
X21196Y64692
X16964Y61497
X16050Y60645
X12527Y56654
X63361Y56874
X62557Y57832
X61754Y58790
X60950Y59747
X56685Y63428
X55648Y64127
X54612Y64826
X53576Y65525
X11810Y55630
X25567Y107737
X21266Y109777
X20184Y110402
X39800Y22000
X55300Y23000
X43406Y174165
X44637Y173948
T13
X59700Y96125
X59700Y100725
X59700Y92375
X59700Y93625
X59700Y94875
X59700Y97375
X59700Y101975
T14
X53629Y45080
X52629Y45080
X51629Y45080
X50629Y45080
X49629Y45080
X62029Y46780
X61029Y46780
X61029Y45780
X62029Y45780
X61029Y44780
X62029Y44780
X31520Y47429
X31520Y49429
X31520Y48429
X31520Y46429
X31520Y45429
X32520Y49429
X32520Y48429
X32520Y47429
X32520Y46429
X32520Y45429
X30820Y57829
X30820Y56829
X31820Y56829
X31820Y57829
X32820Y56829
X32820Y57829
X50100Y31400
X39000Y31400
X1600Y34000
X62700Y27900
X47500Y147400
X41700Y29300
X46000Y53600
X46000Y56000
X17000Y54000
X22300Y52200
X57529Y39580
X56229Y50180
X38020Y53329
X27420Y52029
X44600Y19700
X43900Y29800
X45700Y19700
X45200Y29800
X70300Y86300
X70251Y82851
X65642Y78402
X38600Y20000
X52600Y62900
X17072Y49500
X67100Y59200
X28500Y83500
X29800Y89200
X16000Y83000
X22500Y90500
X25300Y89200
X34500Y87500
X31500Y82500
X25000Y86500
X25000Y85000
X6000Y94500
X35700Y88800
X29000Y92890
X51600Y85800
X72000Y98500
X65031Y90322
X61500Y90500
X65772Y97732
X64300Y101135
X62000Y81000
X64017Y90017
X64900Y83400
X71218Y84050
X25200Y160500
X25200Y154500
X18200Y157500
X48400Y120800
X23100Y121000
X24600Y133500
X15828Y135000
X18712Y143400
X51600Y143900
X48800Y133900
X48800Y130900
X53100Y150100
X50900Y108400
X44000Y122000
X51500Y122000
X51900Y148700
X62700Y16900
X44400Y148700
X34700Y147700
X31000Y160700
X48000Y113000
X45800Y110300
X22000Y132100
X30009Y157509
X29200Y128400
X29200Y127200
X48700Y154900
X48700Y149900
X47200Y115500
X23500Y135200
X18500Y133600
X51629Y46080
X53629Y46080
X47200Y120800
X52629Y46080
X50629Y46080
X49629Y46080
M30